<svg version="1.1" viewBox="0.0 0.0 1192.4593175853017 541.6246719160105" fill="none" stroke="none" stroke-linecap="square" stroke-miterlimit="10" xmlns:xlink="http://www.w3.org/1999/xlink" xmlns="http://www.w3.org/2000/svg"><clipPath id="p.0"><path d="m0 0l1192.4594 0l0 541.6247l-1192.4594 0l0 -541.6247z" clip-rule="nonzero"/></clipPath><g clip-path="url(#p.0)"><path fill="#ffffff" d="m0 0l1192.4594 0l0 541.6247l-1192.4594 0z" fill-rule="evenodd"/><path fill="#f9cb9c" d="m43.50525 66.58757l0 0c0 -11.826092 9.586941 -21.413029 21.413025 -21.413029l601.4889 0c5.679077 0 11.12561 2.2560081 15.141296 6.2717285c4.015747 4.015724 6.2717285 9.462208 6.2717285 15.1413l0 408.44952c0 11.82608 -9.586914 21.413025 -21.413025 21.413025l-601.4889 0l0 0c-11.826084 0 -21.413025 -9.586945 -21.413025 -21.413025z" fill-rule="evenodd"/><path stroke="#000000" stroke-width="1.0" stroke-linejoin="round" stroke-linecap="butt" d="m43.50525 66.58757l0 0c0 -11.826092 9.586941 -21.413029 21.413025 -21.413029l601.4889 0c5.679077 0 11.12561 2.2560081 15.141296 6.2717285c4.015747 4.015724 6.2717285 9.462208 6.2717285 15.1413l0 408.44952c0 11.82608 -9.586914 21.413025 -21.413025 21.413025l-601.4889 0l0 0c-11.826084 0 -21.413025 -9.586945 -21.413025 -21.413025z" fill-rule="evenodd"/><path fill="#000000" d="m295.31168 89.526825l8.640625 -21.96875l3.234375 0l8.65625 21.96875l-4.21875 0l-2.515625 -6.234375l-7.0625 0l-2.515625 6.234375l-4.21875 0zm10.265625 -15.609375l-2.203125 5.859375l4.40625 0l-2.203125 -5.859375zm14.274658 20.046875l-3.640625 0l0 -19.09375l3.640625 0l-0.078125 0.625q0.59375 -0.875 3.171875 -0.875q2.765625 0 4.5 1.75q2.109375 2.09375 2.109375 5.828125q0 3.859375 -2.109375 5.9375q-1.734375 1.75 -4.5 1.75q-2.859375 0 -3.09375 -0.375l0 4.453125zm3.09375 -15.9375q-1.171875 0 -2.078125 0.890625q-1.015625 1.03125 -1.015625 2.4375l0 1.671875q0 1.421875 1.125 2.5625q0.90625 0.890625 1.96875 0.890625q0.921875 0 1.59375 -0.65625q1.125 -1.140625 1.125 -3.625q0 -2.375 -1.015625 -3.390625q-0.78125 -0.78125 -1.703125 -0.78125zm12.114624 15.9375l-3.640625 0l0 -19.09375l3.640625 0l-0.078125 0.625q0.59375 -0.875 3.171875 -0.875q2.765625 0 4.5 1.75q2.109375 2.09375 2.109375 5.828125q0 3.859375 -2.109375 5.9375q-1.734375 1.75 -4.5 1.75q-2.859375 0 -3.09375 -0.375l0 4.453125zm3.09375 -15.9375q-1.171875 0 -2.078125 0.890625q-1.015625 1.03125 -1.015625 2.4375l0 1.671875q0 1.421875 1.125 2.5625q0.90625 0.890625 1.96875 0.890625q0.921875 0 1.59375 -0.65625q1.125 -1.140625 1.125 -3.625q0 -2.375 -1.015625 -3.390625q-0.78125 -0.78125 -1.703125 -0.78125zm8.942749 -10.234375l3.65625 0l0 21.734375l-3.65625 0l0 -21.734375zm6.4665527 0.125l3.65625 0l0 4.359375l-3.65625 0l0 -4.359375zm0 6.953125l3.65625 0l0 14.65625l-3.65625 0l0 -14.65625zm5.8728027 7.4375q0 -3.484375 2.109375 -5.578125q1.96875 -1.984375 4.859375 -1.984375q3.140625 0 4.75 1.625q1.46875 1.453125 1.84375 4.296875l-3.90625 0q-0.171875 -1.296875 -0.84375 -1.984375q-0.546875 -0.53125 -1.71875 -0.53125q-1.171875 0 -1.953125 0.765625q-1.25 1.265625 -1.25 3.515625q0 2.140625 1.125 3.28125q0.78125 0.765625 1.953125 0.765625q1.421875 0 2.203125 -0.765625q0.765625 -0.78125 0.765625 -2.703125l3.921875 0q-0.171875 3.40625 -1.90625 5.125q-1.71875 1.75 -4.984375 1.75q-2.78125 0 -4.625 -1.859375q-2.34375 -2.328125 -2.34375 -5.71875zm15.421875 -2.234375q0.546875 -2.625 1.890625 -3.9375q1.484375 -1.515625 4.265625 -1.515625q3.265625 0 4.75 1.515625q1.390625 1.359375 1.390625 3.1875l0 7.546875q0 1.0 2.1875 2.65625l-5.0 0q-0.84375 -0.84375 -0.671875 -1.109375q-1.078125 1.34375 -4.09375 1.34375q-2.515625 0 -3.90625 -1.375q-1.265625 -1.25 -1.265625 -2.953125q0 -1.953125 1.265625 -3.203125q1.34375 -1.328125 3.6875 -1.71875q1.390625 -0.234375 2.4375 -0.59375q1.5 -0.34375 1.703125 -0.46875q0 -0.34375 -0.53125 -0.890625q-0.546875 -0.53125 -1.59375 -0.53125q-1.40625 0 -1.953125 0.53125q-0.359375 0.375 -0.6875 1.515625l-3.875 0zm8.71875 2.75q-0.015625 0.09375 -0.625 0.21875q-2.03125 0.484375 -3.109375 0.71875q-0.78125 0.1875 -1.140625 0.546875q-0.40625 0.421875 -0.40625 0.875q0 0.578125 0.40625 1.0q0.1875 0.171875 1.125 0.171875q1.765625 0 2.90625 -1.125q0.734375 -0.734375 0.765625 -0.859375l0.078125 -1.546875zm7.234619 -12.625l3.640625 0l0 4.671875l4.078125 0l0 3.15625l-4.078125 0l0 7.15625q0 0.453125 0.421875 0.890625q0.296875 0.28125 1.109375 0.28125q1.5 0 3.625 -1.328125l0 3.765625q-1.796875 0.96875 -3.5 0.96875q-2.65625 0 -3.90625 -1.265625q-1.390625 -1.359375 -1.390625 -3.0625l0 -7.40625l-2.875 0l0 -3.15625l2.875 0l0 -4.671875zm9.933838 -2.28125l3.65625 0l0 4.359375l-3.65625 0l0 -4.359375zm0 6.953125l3.65625 0l0 14.65625l-3.65625 0l0 -14.65625zm5.7478027 7.328125q0 -3.375 2.234375 -5.59375q1.96875 -1.984375 4.859375 -1.984375q2.90625 0 4.875 1.984375q2.21875 2.234375 2.21875 5.59375q0 3.375 -2.21875 5.578125q-1.96875 1.984375 -4.875 1.984375q-2.890625 0 -4.859375 -1.984375q-2.234375 -2.203125 -2.234375 -5.578125zm7.09375 -4.171875q-1.171875 0 -1.953125 0.78125q-1.25 1.265625 -1.25 3.390625q0 2.125 1.125 3.265625q0.90625 0.890625 2.078125 0.890625q1.171875 0 2.078125 -0.890625q1.125 -1.140625 1.125 -3.265625q0 -2.125 -1.25 -3.390625q-0.78125 -0.78125 -1.953125 -0.78125zm12.598877 11.5l-3.640625 0l0 -14.65625l3.640625 0l0 1.265625q1.234375 -1.515625 3.921875 -1.515625q2.671875 0 4.28125 1.625q1.140625 1.15625 1.140625 2.71875l0 10.5625l-3.640625 0l0 -9.84375q0 -0.8125 -0.53125 -1.359375q-0.546875 -0.53125 -1.609375 -0.53125q-0.921875 0 -1.953125 1.015625q-1.609375 1.625 -1.609375 3.390625l0 7.328125z" fill-rule="nonzero"/><path fill="#cfe2f3" d="m415.55118 375.9137l0 0c0 -8.155426 6.611267 -14.766724 14.766693 -14.766724l206.37213 0c3.9163818 0 7.6723022 1.5557861 10.44165 4.3250732c2.769287 2.769287 4.325012 6.5252686 4.325012 10.44165l0 59.065002c0 8.155426 -6.611267 14.766693 -14.766663 14.766693l-206.37213 0l0 0c-8.155426 0 -14.766693 -6.611267 -14.766693 -14.766693z" fill-rule="evenodd"/><path stroke="#000000" stroke-width="1.0" stroke-linejoin="round" stroke-linecap="butt" d="m415.55118 375.9137l0 0c0 -8.155426 6.611267 -14.766724 14.766693 -14.766724l206.37213 0c3.9163818 0 7.6723022 1.5557861 10.44165 4.3250732c2.769287 2.769287 4.325012 6.5252686 4.325012 10.44165l0 59.065002c0 8.155426 -6.611267 14.766693 -14.766663 14.766693l-206.37213 0l0 0c-8.155426 0 -14.766693 -6.611267 -14.766693 -14.766693z" fill-rule="evenodd"/><path fill="#000000" d="m458.31143 383.5162l3.28125 0l7.109375 12.0l0 -12.0l3.296875 0l0 17.953125l-3.28125 0l-7.09375 -11.984375l0 11.984375l-3.3125 0l0 -17.953125zm15.710205 10.140625q0.46875 -2.15625 1.5625 -3.25q1.234375 -1.25 3.53125 -1.25q2.6875 0 3.921875 1.25q1.140625 1.125 1.140625 2.625l0 6.234375q0 0.828125 1.84375 2.203125l-4.140625 0q-0.71875 -0.6875 -0.578125 -0.90625q-0.890625 1.109375 -3.375 1.109375q-2.109375 0 -3.234375 -1.15625q-1.046875 -1.03125 -1.046875 -2.4375q0 -1.59375 1.046875 -2.625q1.09375 -1.125 3.046875 -1.453125q1.140625 -0.171875 2.015625 -0.46875q1.234375 -0.28125 1.40625 -0.375q0 -0.296875 -0.4375 -0.75q-0.453125 -0.4375 -1.3125 -0.4375q-1.171875 0 -1.625 0.4375q-0.296875 0.296875 -0.5625 1.25l-3.203125 0zm7.203125 2.28125q0 0.078125 -0.515625 0.171875q-1.6875 0.390625 -2.5625 0.59375q-0.65625 0.171875 -0.953125 0.453125q-0.34375 0.359375 -0.34375 0.734375q0 0.46875 0.34375 0.828125q0.15625 0.140625 0.921875 0.140625q1.46875 0 2.421875 -0.9375q0.59375 -0.609375 0.625 -0.703125l0.0625 -1.28125zm5.9766846 -10.4375l3.015625 0l0 3.859375l3.359375 0l0 2.609375l-3.359375 0l0 5.921875q0 0.375 0.328125 0.71875q0.265625 0.25 0.9375 0.25q1.21875 0 2.984375 -1.125l0 3.140625q-1.484375 0.796875 -2.890625 0.796875q-2.203125 0 -3.234375 -1.046875q-1.140625 -1.140625 -1.140625 -2.546875l0 -6.109375l-2.375 0l0 -2.609375l2.375 0l0 -3.859375zm8.216919 -1.875l3.0 0l0 3.59375l-3.0 0l0 -3.59375zm0 5.734375l3.0 0l0 12.109375l-3.0 0l0 -12.109375zm3.6864014 0l3.296875 0l3.21875 7.9375l3.21875 -7.9375l3.3125305 0l-5.1875305 12.3125l-2.671875 0l-5.1875 -12.3125zm13.226715 6.046875q0 -2.890625 1.84375 -4.703125q1.515625 -1.546875 3.921875 -1.546875q2.296875 0 3.921875 1.640625q1.53125 1.53125 1.53125 5.125l-8.015625 0q0 1.34375 0.84375 2.203125q0.75 0.734375 1.90625 0.734375q1.171875 0 1.625 -0.4375q0.53125 -0.546875 0.53125 -1.75l3.34375 0q-0.578125 2.5625 -1.578125 3.546875q-1.421875 1.453125 -3.921875 1.453125q-2.59375 0 -4.21875 -1.640625q-1.734375 -1.734375 -1.734375 -4.625zm5.65625 -3.53125q-0.96875 0 -1.609375 0.625q-0.578125 0.59375 -0.625 0.8125l4.5 0q0 -0.25 -0.640625 -0.90625q-0.546875 -0.53125 -1.625 -0.53125zm7.8984375 -8.453125l8.828125 0q2.203125 0 3.625 1.4375q1.4375 1.4375 1.4375 3.921875q0 2.5 -1.4375 3.921875q-0.8125 0.8125 -1.5625 0.9375l3.921875 7.734375l-3.640625 0l-3.5625 -7.328125l-4.296875 0l0 7.328125l-3.3125 0l0 -17.953125zm3.3125 2.90625l0 4.8125l5.3125 0q0.78125 0 1.328125 -0.546875q0.53125 -0.546875 0.53125 -1.8125q0 -1.171875 -0.625 -1.8125q-0.65625 -0.640625 -1.53125 -0.640625l-5.015625 0zm11.923828 3.03125l3.015625 0l0 7.9375q0 0.96875 0.4375 1.421875q0.34375 0.328125 1.015625 0.328125q1.078125 0 1.921875 -0.828125q1.328125 -1.34375 1.328125 -2.703125l0 -6.15625l3.015625 0l0 12.109375l-3.015625 0l0 -0.90625q-0.796875 1.109375 -3.34375 1.109375q-2.296875 0 -3.328125 -1.046875q-1.046875 -1.03125 -1.046875 -2.640625l0 -8.625zm15.6796875 12.109375l-3.015625 0l0 -12.109375l3.015625 0l0 1.046875q1.015625 -1.25 3.234375 -1.25q2.203125 0 3.53125 1.34375q0.953125 0.9375 0.953125 2.234375l0 8.734375l-3.015625 0l0 -8.140625q0 -0.671875 -0.4375 -1.125q-0.453125 -0.4375 -1.328125 -0.4375q-0.765625 0 -1.609375 0.84375q-1.328125 1.34375 -1.328125 2.796875l0 6.0625zm10.5390625 -15.96875l3.015625 0l0 3.859375l3.359375 0l0 2.609375l-3.359375 0l0 5.921875q0 0.375 0.328125 0.71875q0.265625 0.25 0.9375 0.25q1.21875 0 2.984375 -1.125l0 3.140625q-1.484375 0.796875 -2.890625 0.796875q-2.203125 0 -3.234375 -1.046875q-1.140625 -1.140625 -1.140625 -2.546875l0 -6.109375l-2.375 0l0 -2.609375l2.375 0l0 -3.859375zm8.216919 -1.875l3.0 0l0 3.59375l-3.0 0l0 -3.59375zm0 5.734375l3.0 0l0 12.109375l-3.0 0l0 -12.109375zm8.155151 12.109375l-3.015625 0l0 -12.109375l3.015625 0l0 0.515625q0.5 -0.71875 2.453125 -0.71875q2.09375 0 3.21875 1.140625q0.5625 0.546875 0.46875 0.703125q0.96875 -1.84375 3.53125 -1.84375q1.796875 0 2.828125 1.046875q1.140625 1.125 1.140625 2.53125l0 8.734375l-3.0 0l0 -8.328125q0 -0.375 -0.25 -0.640625q-0.453125 -0.4375 -1.015625 -0.4375q-1.171875 0 -1.921875 0.734375q-0.625 0.640625 -0.625 1.125l0 7.546875l-3.015625 0l0 -8.234375q0 -0.375 -0.4375 -0.828125q-0.359375 -0.34375 -1.125 -0.34375q-0.875 0 -1.515625 0.640625q-0.734375 0.75 -0.734375 1.328125l0 7.4375zm15.287842 -6.0625q0 -2.890625 1.84375 -4.703125q1.515625 -1.546875 3.921875 -1.546875q2.296875 0 3.921875 1.640625q1.53125 1.53125 1.53125 5.125l-8.015625 0q0 1.34375 0.84375 2.203125q0.75 0.734375 1.90625 0.734375q1.171875 0 1.625 -0.4375q0.53125 -0.546875 0.53125 -1.75l3.34375 0q-0.578125 2.5625 -1.578125 3.546875q-1.421875 1.453125 -3.921875 1.453125q-2.59375 0 -4.21875 -1.640625q-1.734375 -1.734375 -1.734375 -4.625zm5.65625 -3.53125q-0.96875 0 -1.609375 0.625q-0.578125 0.59375 -0.625 0.8125l4.5 0q0 -0.25 -0.640625 -0.90625q-0.546875 -0.53125 -1.625 -0.53125z" fill-rule="nonzero"/><path fill="#000000" d="m472.0684 429.7387q-4.5625 -4.28125 -4.5625 -9.546875q0 -5.28125 4.5625 -9.5625l1.515625 1.53125q-3.96875 3.703125 -3.96875 8.03125q0 4.3125 3.96875 8.015625l-1.515625 1.53125zm2.2578125 -9.46875q0 -3.796875 2.171875 -5.96875q1.6875 -1.6875 4.328125 -1.6875q2.65625 0 4.171875 1.515625q1.59375 1.609375 1.703125 4.53125l-2.8125 0q-0.203125 -1.96875 -1.0 -2.75q-0.859375 -0.859375 -2.0625 -0.859375q-1.296875 0 -2.3125 1.015625q-1.34375 1.359375 -1.34375 4.203125q0 2.84375 1.34375 4.203125q0.9375 0.9375 2.3125 0.9375q1.453125 0 2.234375 -0.78125q1.015625 -1.015625 1.015625 -3.40625l2.859375 0q-0.09375 3.421875 -1.78125 5.09375q-1.515625 1.53125 -4.328125 1.53125q-2.640625 0 -4.328125 -1.6875q-2.171875 -2.171875 -2.171875 -5.890625zm17.382812 -5.359375l2.265625 0l0 4.015625l4.03125 0l0 2.1875l-4.03125 0l0 4.015625l-2.265625 0l0 -4.015625l-4.015625 0l0 -2.1875l4.015625 0l0 -4.015625zm10.5 0l2.265625 0l0 4.015625l4.03125 0l0 2.1875l-4.03125 0l0 4.015625l-2.265625 0l0 -4.015625l-4.015625 0l0 -2.1875l4.015625 0l0 -4.015625zm8.671875 14.984375l-1.71875 0l0.8125 -2.21875l-0.625 0l0 -2.671875l2.7656555 0l0 2.328125l-1.2344055 2.5625zm2.8906555 -17.125l2.515625 0l0 14.90625l-2.515625 0l0 -14.90625zm4.4296875 0.09375l2.515625 0l0 3.0l-2.515625 0l0 -3.0zm0 4.75l2.515625 0l0 10.0625l-2.515625 0l0 -10.0625zm4.1015625 -4.84375l2.515625 0l0 5.125q0.4375 -0.53125 2.1875 -0.53125q1.828125 0 3.03125 1.203125q1.4375 1.4375 1.4375 4.078125q0 2.5625 -1.4375 4.0q-1.203125 1.203125 -3.109375 1.203125q-2.046875 0 -2.25 -0.609375l0.140625 0.4375l-2.515625 0l0 -14.90625zm4.625 6.953125q-0.796875 0 -1.484375 0.6875q-0.625 0.625 -0.625 1.75l0 0.984375q0 1.03125 0.703125 1.734375q0.609375 0.609375 1.40625 0.609375q0.640625 0 1.078125 -0.453125q0.78125 -0.765625 0.78125 -2.390625q0 -1.703125 -0.6875 -2.390625q-0.53125 -0.53125 -1.171875 -0.53125zm10.027344 10.015625q-4.5625 -4.28125 -4.5625 -9.546875q0 -5.28125 4.5625 -9.5625l1.515625 1.53125q-3.96875 3.703125 -3.96875 8.03125q0 4.3125 3.96875 8.015625l-1.515625 1.53125zm2.3359375 -9.0625q0 -1.25 0.859375 -2.109375q1.109375 -1.109375 3.109375 -1.109375q2.15625 0 3.171875 1.015625q0.953125 0.953125 0.953125 2.5625l-2.453125 0q-0.109375 -0.8125 -0.265625 -0.953125q-0.359375 -0.359375 -1.5 -0.359375q-0.640625 0 -1.0 0.359375q-0.28125 0.28125 -0.28125 0.59375q0 0.140625 0.125 0.265625q0.234375 0.25 1.828125 0.625q1.09375 0.25 1.859375 0.515625q0.75 0.265625 1.15625 0.65625q0.78125 0.78125 0.78125 1.875q0 1.171875 -0.953125 2.125q-1.109375 1.109375 -3.34375 1.109375q-2.234375 0 -3.34375 -1.109375q-0.953125 -0.953125 -0.953125 -2.8125l2.46875 0q0.109375 0.984375 0.328125 1.203125q0.4375 0.4375 1.421875 0.4375q1.203125 0 1.5625 -0.359375q0.203125 -0.203125 0.203125 -0.515625q0 -0.140625 -0.28125 -0.421875q-0.234375 -0.234375 -0.84375 -0.375q-1.515625 -0.328125 -2.25 -0.578125q-1.015625 -0.28125 -1.5 -0.765625q-0.859375 -0.859375 -0.859375 -1.875zm10.4140625 -6.265625l2.515625 0l0 3.203125l2.796875 0l0 2.1875l-2.796875 0l0 4.890625q0 0.3125 0.28125 0.59375q0.203125 0.203125 0.765625 0.203125q1.015625 0 2.484375 -0.9375l0 2.625q-1.234375 0.671875 -2.40625 0.671875q-1.828125 0 -2.6875 -0.875q-0.953125 -0.9375 -0.953125 -2.109375l0 -5.0625l-1.96875 0l0 -2.1875l1.96875 0l0 -3.203125zm6.4765625 6.78125q0.359375 -1.796875 1.28125 -2.71875q1.046875 -1.015625 2.9375 -1.015625q2.21875 0 3.265625 1.015625q0.9375 0.96875 0.9375 2.203125l0 5.171875q0 0.6875 1.546875 1.828125l-3.484375 0q-0.578125 -0.578125 -0.4375 -0.765625q-0.734375 0.9375 -2.8125 0.9375q-1.75 0 -2.6875 -0.953125q-0.875 -0.859375 -0.875 -2.03125q0 -1.34375 0.875 -2.203125q0.921875 -0.90625 2.53125 -1.1875q0.953125 -0.15625 1.6875 -0.390625q1.0 -0.234375 1.140625 -0.328125q0 -0.21875 -0.359375 -0.578125q-0.375 -0.375 -1.078125 -0.375q-0.96875 0 -1.328125 0.375q-0.25 0.25 -0.484375 1.015625l-2.65625 0zm5.96875 1.890625q0 0.0625 -0.421875 0.15625q-1.40625 0.328125 -2.140625 0.484375q-0.53125 0.140625 -0.765625 0.390625q-0.28125 0.28125 -0.28125 0.578125q0 0.390625 0.28125 0.671875q0.125 0.125 0.75 0.125q1.21875 0 1.984375 -0.78125q0.5 -0.484375 0.53125 -0.5625l0.0625 -1.0625zm4.9453125 -8.671875l2.515625 0l0 3.203125l2.796875 0l0 2.1875l-2.796875 0l0 4.890625q0 0.3125 0.28125 0.59375q0.203125 0.203125 0.765625 0.203125q1.015625 0 2.484375 -0.9375l0 2.625q-1.234375 0.671875 -2.40625 0.671875q-1.828125 0 -2.6875 -0.875q-0.953125 -0.9375 -0.953125 -2.109375l0 -5.0625l-1.96875 0l0 -2.1875l1.96875 0l0 -3.203125zm6.8046875 -1.546875l2.515625 0l0 3.0l-2.515625 0l0 -3.0zm0 4.75l2.515625 0l0 10.0625l-2.515625 0l0 -10.0625zm4.0234375 5.109375q0 -2.390625 1.4375 -3.828125q1.359375 -1.359375 3.34375 -1.359375q2.15625 0 3.265625 1.109375q1.015625 1.015625 1.265625 2.96875l-2.703125 0q-0.109375 -0.890625 -0.578125 -1.359375q-0.359375 -0.375 -1.15625 -0.375q-0.796875 0 -1.328125 0.53125q-0.859375 0.859375 -0.859375 2.40625q0 1.453125 0.765625 2.21875q0.53125 0.53125 1.328125 0.53125q0.96875 0 1.5 -0.53125q0.53125 -0.53125 0.53125 -1.84375l2.6875 0q-0.109375 2.34375 -1.28125 3.546875q-1.1875 1.1875 -3.4375 1.1875q-1.90625 0 -3.171875 -1.28125q-1.609375 -1.59375 -1.609375 -3.921875zm13.859375 -2.53125q0 -4.328125 -3.953125 -8.03125l1.515625 -1.53125q4.546875 4.28125 4.546875 9.5625q0 5.265625 -4.546875 9.546875l-1.515625 -1.53125q3.953125 -3.703125 3.953125 -8.015625zm6.3984375 0q0 -4.328125 -3.953125 -8.03125l1.515625 -1.53125q4.546875 4.28125 4.546875 9.5625q0 5.265625 -4.546875 9.546875l-1.515625 -1.53125q3.953125 -3.703125 3.953125 -8.015625z" fill-rule="nonzero"/><path fill="#d9ead3" d="m421.97778 169.60039l0 0c0 -8.155426 6.611267 -14.766693 14.766693 -14.766693l193.5217 0c3.9163818 0 7.6723633 1.5557709 10.44165 4.325058c2.769287 2.7693024 4.3250732 6.5252686 4.3250732 10.441635l0 59.065033c0 8.155426 -6.611267 14.766693 -14.766724 14.766693l-193.5217 0l0 0c-8.155426 0 -14.766693 -6.611267 -14.766693 -14.766693z" fill-rule="evenodd"/><path stroke="#ff0000" stroke-width="4.0" stroke-linejoin="round" stroke-linecap="butt" d="m421.97778 169.60039l0 0c0 -8.155426 6.611267 -14.766693 14.766693 -14.766693l193.5217 0c3.9163818 0 7.6723633 1.5557709 10.44165 4.325058c2.769287 2.7693024 4.3250732 6.5252686 4.3250732 10.441635l0 59.065033c0 8.155426 -6.611267 14.766693 -14.766724 14.766693l-193.5217 0l0 0c-8.155426 0 -14.766693 -6.611267 -14.766693 -14.766693z" fill-rule="evenodd"/><path fill="#cc0000" d="m475.3923 195.15602l7.140625 -18.140625l2.65625 0l7.140625 18.140625l-3.46875 0l-2.078125 -5.140625l-5.84375 0l-2.078125 5.140625l-3.46875 0zm8.46875 -12.90625l-1.828125 4.84375l3.65625 0l-1.828125 -4.84375zm11.793579 16.5625l-3.015625 0l0 -15.765625l3.015625 0l-0.0625 0.515625q0.484375 -0.71875 2.609375 -0.71875q2.296875 0 3.734375 1.4375q1.734375 1.734375 1.734375 4.8125q0 3.1875 -1.734375 4.921875q-1.4375 1.4375 -3.734375 1.4375q-2.359375 0 -2.546875 -0.296875l0 3.65625zm2.546875 -13.15625q-0.96875 0 -1.71875 0.734375q-0.828125 0.84375 -0.828125 2.015625l0 1.390625q0 1.15625 0.9375 2.109375q0.75 0.734375 1.609375 0.734375q0.78125 0 1.328125 -0.53125q0.9375 -0.953125 0.9375 -3.015625q0 -1.953125 -0.84375 -2.796875q-0.640625 -0.640625 -1.421875 -0.640625zm10.0182495 13.15625l-3.015625 0l0 -15.765625l3.015625 0l-0.0625 0.515625q0.484375 -0.71875 2.609375 -0.71875q2.2968445 0 3.7343445 1.4375q1.734375 1.734375 1.734375 4.8125q0 3.1875 -1.734375 4.921875q-1.4375 1.4375 -3.7343445 1.4375q-2.359375 0 -2.546875 -0.296875l0 3.65625zm2.546875 -13.15625q-0.96875 0 -1.71875 0.734375q-0.828125 0.84375 -0.828125 2.015625l0 1.390625q0 1.15625 0.9375 2.109375q0.75 0.734375 1.609375 0.734375q0.78125 0 1.3280945 -0.53125q0.9375 -0.953125 0.9375 -3.015625q0 -1.953125 -0.84375 -2.796875q-0.6405945 -0.640625 -1.4218445 -0.640625zm7.408844 -8.453125l3.0 0l0 17.953125l-3.0 0l0 -17.953125zm5.3426514 0.109375l3.0 0l0 3.59375l-3.0 0l0 -3.59375zm0 5.734375l3.0 0l0 12.109375l-3.0 0l0 -12.109375zm4.8426514 6.15625q0 -2.890625 1.734375 -4.625q1.625 -1.640625 4.03125 -1.640625q2.59375 0 3.921875 1.34375q1.203125 1.21875 1.515625 3.546875l-3.21875 0q-0.140625 -1.0625 -0.703125 -1.640625q-0.453125 -0.4375 -1.421875 -0.4375q-0.96875 0 -1.625 0.640625q-1.03125 1.046875 -1.03125 2.90625q0 1.765625 0.9375 2.703125q0.65625 0.640625 1.625 0.640625q1.15625 0 1.8125 -0.640625q0.640625 -0.640625 0.640625 -2.234375l3.234375 0q-0.140625 2.8125 -1.578125 4.25q-1.421875 1.4375 -4.109375 1.4375q-2.296875 0 -3.828125 -1.546875q-1.9375 -1.921875 -1.9375 -4.703125zm12.7421875 -1.859375q0.46875 -2.15625 1.5625 -3.25q1.234375 -1.25 3.53125 -1.25q2.6875 0 3.921875 1.25q1.140625 1.125 1.140625 2.625l0 6.234375q0 0.828125 1.84375 2.203125l-4.140625 0q-0.71875 -0.6875 -0.578125 -0.90625q-0.890625 1.109375 -3.375 1.109375q-2.109375 0 -3.234375 -1.15625q-1.046875 -1.03125 -1.046875 -2.4375q0 -1.59375 1.046875 -2.625q1.09375 -1.125 3.046875 -1.453125q1.140625 -0.171875 2.015625 -0.46875q1.234375 -0.28125 1.40625 -0.375q0 -0.296875 -0.4375 -0.75q-0.453125 -0.4375 -1.3125 -0.4375q-1.171875 0 -1.625 0.4375q-0.296875 0.296875 -0.5625 1.25l-3.203125 0zm7.203125 2.28125q0 0.078125 -0.515625 0.171875q-1.6875 0.390625 -2.5625 0.59375q-0.65625 0.171875 -0.953125 0.453125q-0.34375 0.359375 -0.34375 0.734375q0 0.46875 0.34375 0.828125q0.15625 0.140625 0.921875 0.140625q1.46875 0 2.421875 -0.9375q0.59375 -0.609375 0.625 -0.703125l0.0625 -1.28125zm5.9766846 -10.4375l3.015625 0l0 3.859375l3.359375 0l0 2.609375l-3.359375 0l0 5.921875q0 0.375 0.328125 0.71875q0.265625 0.25 0.9375 0.25q1.21875 0 2.984375 -1.125l0 3.140625q-1.484375 0.796875 -2.890625 0.796875q-2.203125 0 -3.234375 -1.046875q-1.140625 -1.140625 -1.140625 -2.546875l0 -6.109375l-2.375 0l0 -2.609375l2.375 0l0 -3.859375zm8.216919 -1.875l3.0 0l0 3.59375l-3.0 0l0 -3.59375zm0 5.734375l3.0 0l0 12.109375l-3.0 0l0 -12.109375zm4.7489014 6.046875q0 -2.78125 1.828125 -4.609375q1.625 -1.640625 4.03125 -1.640625q2.390625 0 4.015625 1.640625q1.84375 1.828125 1.84375 4.609375q0 2.796875 -1.84375 4.625q-1.625 1.640625 -4.015625 1.640625q-2.40625 0 -4.03125 -1.640625q-1.828125 -1.828125 -1.828125 -4.625zm5.859375 -3.4375q-0.96875 0 -1.625 0.640625q-1.03125 1.046875 -1.03125 2.796875q0 1.765625 0.9375 2.71875q0.75 0.734375 1.71875 0.734375q0.96875 0 1.71875 -0.734375q0.921875 -0.953125 0.921875 -2.71875q0 -1.75 -1.03125 -2.796875q-0.640625 -0.640625 -1.609375 -0.640625zm10.408813 9.5l-3.015625 0l0 -12.109375l3.015625 0l0 1.046875q1.015625 -1.25 3.234375 -1.25q2.203125 0 3.53125 1.34375q0.953125 0.9375 0.953125 2.234375l0 8.734375l-3.015625 0l0 -8.140625q0 -0.671875 -0.4375 -1.125q-0.453125 -0.4375 -1.328125 -0.4375q-0.765625 0 -1.609375 0.84375q-1.328125 1.34375 -1.328125 2.796875l0 6.0625z" fill-rule="nonzero"/><path fill="#cc0000" d="m497.45847 223.4254q-4.5625 -4.28125 -4.5625 -9.546875q0 -5.28125 4.5625 -9.5625l1.515625 1.53125q-3.96875 3.703125 -3.96875 8.03125q0 4.3125 3.96875 8.015625l-1.515625 1.53125zm2.2578125 -9.46875q0 -3.796875 2.171875 -5.96875q1.6875 -1.6875 4.328125 -1.6875q2.65625 0 4.171875 1.515625q1.59375 1.609375 1.7030945 4.53125l-2.8124695 0q-0.203125 -1.96875 -1.0 -2.75q-0.859375 -0.859375 -2.0625 -0.859375q-1.296875 0 -2.3125 1.015625q-1.34375 1.359375 -1.34375 4.203125q0 2.84375 1.34375 4.203125q0.9375 0.9375 2.3125 0.9375q1.453125 0 2.234375 -0.78125q1.015625 -1.015625 1.015625 -3.40625l2.8593445 0q-0.09375 3.421875 -1.7812195 5.09375q-1.515625 1.53125 -4.328125 1.53125q-2.640625 0 -4.328125 -1.6875q-2.171875 -2.171875 -2.171875 -5.890625zm17.382782 -5.359375l2.265625 0l0 4.015625l4.03125 0l0 2.1875l-4.03125 0l0 4.015625l-2.265625 0l0 -4.015625l-4.015625 0l0 -2.1875l4.015625 0l0 -4.015625zm10.5 0l2.265625 0l0 4.015625l4.03125 0l0 2.1875l-4.03125 0l0 4.015625l-2.265625 0l0 -4.015625l-4.015625 0l0 -2.1875l4.015625 0l0 -4.015625zm8.671875 14.984375l-1.71875 0l0.8125 -2.21875l-0.625 0l0 -2.671875l2.765625 0l0 2.328125l-1.234375 2.5625zm2.484375 -7.25q0 -2.40625 1.515625 -3.921875q1.296875 -1.265625 3.265625 -1.265625q1.921875 0 3.265625 1.34375q1.28125 1.28125 1.28125 4.28125l-6.640625 0q0 1.109375 0.6875 1.796875q0.609375 0.609375 1.578125 0.609375q0.96875 0 1.328125 -0.359375q0.453125 -0.453125 0.453125 -1.4375l2.78125 0q-0.46875 2.125 -1.296875 2.953125q-1.1875 1.203125 -3.265625 1.203125q-2.15625 0 -3.515625 -1.359375q-1.4375 -1.4375 -1.4375 -3.84375zm4.703125 -2.921875q-0.796875 0 -1.328125 0.53125q-0.484375 0.484375 -0.515625 0.640625l3.703125 0q0 -0.1875 -0.53125 -0.71875q-0.453125 -0.453125 -1.328125 -0.453125zm5.15625 -2.109375l2.953125 0l1.984375 2.9375l1.984375 -2.9375l2.9375 0l-3.40625 4.953125l3.6875 5.109375l-2.96875 0l-2.234375 -3.125l-2.25 3.125l-2.953125 0l3.6875 -5.109375l-3.421875 -4.953125zm10.3203125 5.03125q0 -2.40625 1.515625 -3.921875q1.296875 -1.265625 3.265625 -1.265625q1.921875 0 3.265625 1.34375q1.28125 1.28125 1.28125 4.28125l-6.640625 0q0 1.109375 0.6875 1.796875q0.609375 0.609375 1.578125 0.609375q0.96875 0 1.328125 -0.359375q0.453125 -0.453125 0.453125 -1.4375l2.78125 0q-0.46875 2.125 -1.296875 2.953125q-1.1875 1.203125 -3.265625 1.203125q-2.15625 0 -3.515625 -1.359375q-1.4375 -1.4375 -1.4375 -3.84375zm4.703125 -2.921875q-0.796875 0 -1.328125 0.53125q-0.484375 0.484375 -0.515625 0.640625l3.703125 0q0 -0.1875 -0.53125 -0.71875q-0.453125 -0.453125 -1.328125 -0.453125zm9.15625 0.46875q0 -4.328125 -3.953125 -8.03125l1.515625 -1.53125q4.546875 4.28125 4.546875 9.5625q0 5.265625 -4.546875 9.546875l-1.515625 -1.53125q3.953125 -3.703125 3.953125 -8.015625z" fill-rule="nonzero"/><path fill="#000000" fill-opacity="0.0" d="m533.5053 243.43211l0 117.70079" fill-rule="evenodd"/><path stroke="#666666" stroke-width="3.0" stroke-linejoin="round" stroke-linecap="butt" d="m533.5053 243.43211l0 99.70079" fill-rule="evenodd"/><path fill="#666666" stroke="#666666" stroke-width="3.0" stroke-linecap="butt" d="m528.5501 343.1329l4.9552 13.614319l4.9552 -13.614319z" fill-rule="evenodd"/><path fill="#000000" fill-opacity="0.0" d="m302.92343 405.44653l112.62991 0" fill-rule="evenodd"/><path stroke="#666666" stroke-width="3.0" stroke-linejoin="round" stroke-linecap="butt" d="m320.92343 405.44656l76.62991 0" fill-rule="evenodd"/><path fill="#666666" stroke="#666666" stroke-width="3.0" stroke-linecap="butt" d="m320.92343 400.49136l-13.614288 4.9552l13.614288 4.9552z" fill-rule="evenodd"/><path fill="#666666" stroke="#666666" stroke-width="3.0" stroke-linecap="butt" d="m397.55334 410.40176l13.614288 -4.9552l-13.614288 -4.9552z" fill-rule="evenodd"/><path fill="#ead1dc" d="m846.2152 59.53962l0 0c0 -7.9335823 6.4314575 -14.365021 14.365051 -14.365021l274.01007 0c3.8098145 0 7.463623 1.5134506 10.157593 4.2074165c2.6939697 2.693962 4.2073975 6.347763 4.2073975 10.157604l0 422.54556c0 7.933563 -6.4313965 14.365021 -14.36499 14.365021l-274.01007 0c-7.9335938 0 -14.365051 -6.4314575 -14.365051 -14.365021z" fill-rule="evenodd"/><path stroke="#000000" stroke-width="1.0" stroke-linejoin="round" stroke-linecap="butt" d="m846.2152 59.53962l0 0c0 -7.9335823 6.4314575 -14.365021 14.365051 -14.365021l274.01007 0c3.8098145 0 7.463623 1.5134506 10.157593 4.2074165c2.6939697 2.693962 4.2073975 6.347763 4.2073975 10.157604l0 422.54556c0 7.933563 -6.4313965 14.365021 -14.36499 14.365021l-274.01007 0c-7.9335938 0 -14.365051 -6.4314575 -14.365051 -14.365021z" fill-rule="evenodd"/><path fill="#000000" d="m961.59564 65.72822l14.421875 0l0 3.53125l-10.40625 0l0 5.09375l9.6875 0l0 3.53125l-9.6875 0l0 6.046875l11.015625 0l0 3.53125l-15.03125 0l0 -21.734375zm26.582642 0l3.65625 0l0 21.734375l-3.65625 0l0.109375 -0.625q-0.46875 0.859375 -3.0625 0.859375q-2.78125 0 -4.390625 -1.625q-2.34375 -2.328125 -2.34375 -5.9375q0 -3.84375 2.09375 -5.953125q1.75 -1.734375 4.15625 -1.734375q2.953125 0 3.4375 0.6875l0 -7.40625zm-3.078125 10.125q-0.9375 0 -1.71875 0.765625q-1.015625 1.03125 -1.015625 3.515625q0 2.359375 1.140625 3.515625q0.65625 0.640625 1.59375 0.640625q1.171875 0 1.953125 -0.765625q1.125 -1.140625 1.125 -3.390625q0 -2.25 -1.25 -3.515625q-0.78125 -0.765625 -1.828125 -0.765625zm9.067749 -10.0l3.65625 0l0 4.359375l-3.65625 0l0 -4.359375zm0 6.953125l3.65625 0l0 14.65625l-3.65625 0l0 -14.65625zm7.3103027 -4.671875l3.640625 0l0 4.671875l4.078125 0l0 3.15625l-4.078125 0l0 7.15625q0 0.453125 0.421875 0.890625q0.296875 0.28125 1.109375 0.28125q1.5 0 3.625 -1.328125l0 3.765625q-1.796875 0.96875 -3.5 0.96875q-2.65625 0 -3.90625 -1.265625q-1.390625 -1.359375 -1.390625 -3.0625l0 -7.40625l-2.875 0l0 -3.15625l2.875 0l0 -4.671875zm9.215088 12.0q0 -3.375 2.234375 -5.59375q1.96875 -1.984375 4.859375 -1.984375q2.90625 0 4.875 1.984375q2.218689 2.234375 2.218689 5.59375q0 3.375 -2.218689 5.578125q-1.96875 1.984375 -4.875 1.984375q-2.890625 0 -4.859375 -1.984375q-2.234375 -2.203125 -2.234375 -5.578125zm7.09375 -4.171875q-1.171875 0 -1.953125 0.78125q-1.25 1.265625 -1.25 3.390625q0 2.125 1.125 3.265625q0.90625 0.890625 2.078125 0.890625q1.171875 0 2.078125 -0.890625q1.125 -1.140625 1.125 -3.265625q0 -2.125 -1.25 -3.390625q-0.78125 -0.78125 -1.953125 -0.78125zm12.739441 -1.296875q2.09375 -2.109375 6.203125 -2.109375l0 4.078125q-1.171875 -0.3125 -1.9375 -0.3125q-1.53125 0 -2.90625 1.375q-1.21875 1.21875 -1.609375 2.40625l0 7.359375l-3.65625 0l0 -14.65625l3.65625 0l-0.296875 2.84375q-0.234375 -0.21875 0.546875 -0.984375z" fill-rule="nonzero"/><path fill="#4a86e8" d="m79.86831 375.91403l0 0c0 -8.155426 6.6112747 -14.766693 14.766701 -14.766693l193.52173 0c3.9163513 0 7.672333 1.5557556 10.44162 4.3250732c2.769287 2.769287 4.3250732 6.525238 4.3250732 10.44162l0 59.065033c0 8.155426 -6.611267 14.766693 -14.766693 14.766693l-193.52173 0l0 0c-8.155426 0 -14.766701 -6.611267 -14.766701 -14.766693z" fill-rule="evenodd"/><path stroke="#000000" stroke-width="1.0" stroke-linejoin="round" stroke-linecap="butt" d="m79.86831 375.91403l0 0c0 -8.155426 6.6112747 -14.766693 14.766701 -14.766693l193.52173 0c3.9163513 0 7.672333 1.5557556 10.44162 4.3250732c2.769287 2.769287 4.3250732 6.525238 4.3250732 10.44162l0 59.065033c0 8.155426 -6.611267 14.766693 -14.766693 14.766693l-193.52173 0l0 0c-8.155426 0 -14.766701 -6.611267 -14.766701 -14.766693z" fill-rule="evenodd"/><path fill="#ffffff" d="m161.51178 388.4853q0 -2.09375 1.546875 -3.625q1.53125 -1.53125 4.609375 -1.53125q3.296875 0 5.015625 1.734375q1.53125 1.53125 1.53125 4.140625l-3.296875 0q0 -1.484375 -0.640625 -2.140625q-0.75 -0.734375 -2.40625 -0.734375q-1.859375 0 -2.515625 0.640625q-0.53125 0.546875 -0.53125 1.21875q0 0.671875 0.234375 0.921875q0.421875 0.421875 1.625 0.875q2.28125 1.0 5.15625 2.265625q0.875 0.34375 1.625 1.125q1.25 1.21875 1.25 2.921875q0 2.203125 -1.53125 3.734375q-1.625 1.640625 -5.21875 1.640625q-3.484375 0 -5.40625 -1.9375q-1.4375 -1.4375 -1.4375 -4.640625l3.3125 0q0 2.09375 0.625 2.734375q0.953125 0.921875 3.015625 0.921875q1.859375 0 2.703125 -0.828125q0.640625 -0.65625 0.640625 -1.21875q0 -0.671875 -0.4375 -1.125q-0.4375 -0.421875 -1.453125 -0.890625q-0.984375 -0.484375 -2.546875 -1.1875q-1.78125 -0.78125 -2.875 -1.265625q-0.875 -0.34375 -1.546875 -1.015625q-1.046875 -1.03125 -1.046875 -2.734375zm14.54895 7.03125q0 -2.890625 1.734375 -4.625q1.625 -1.640625 4.03125 -1.640625q2.59375 0 3.921875 1.34375q1.203125 1.21875 1.515625 3.546875l-3.21875 0q-0.140625 -1.0625 -0.703125 -1.640625q-0.453125 -0.4375 -1.421875 -0.4375q-0.96875 0 -1.625 0.640625q-1.03125 1.046875 -1.03125 2.90625q0 1.765625 0.9375 2.703125q0.65625 0.640625 1.625 0.640625q1.15625 0 1.8125 -0.640625q0.640625 -0.640625 0.640625 -2.234375l3.234375 0q-0.140625 2.8125 -1.578125 4.25q-1.421875 1.4375 -4.109375 1.4375q-2.296875 0 -3.828125 -1.546875q-1.9375 -1.921875 -1.9375 -4.703125zm16.085938 -4.625q1.71875 -1.734375 5.125 -1.734375l0 3.34375q-0.96875 -0.234375 -1.59375 -0.234375q-1.265625 0 -2.421875 1.125q-0.984375 1.015625 -1.328125 2.0l0 6.078125l-3.0 0l0 -12.109375l3.0 0l-0.25 2.34375q-0.171875 -0.1875 0.46875 -0.8125zm5.883606 -7.265625l3.0 0l0 3.59375l-3.0 0l0 -3.59375zm0 5.734375l3.0 0l0 12.109375l-3.0 0l0 -12.109375zm7.9520264 15.765625l-3.015625 0l0 -15.765625l3.015625 0l-0.0625 0.515625q0.484375 -0.71875 2.609375 -0.71875q2.296875 0 3.734375 1.4375q1.734375 1.734375 1.734375 4.8125q0 3.1875 -1.734375 4.921875q-1.4375 1.4375 -3.734375 1.4375q-2.359375 0 -2.546875 -0.296875l0 3.65625zm2.546875 -13.15625q-0.96875 0 -1.71875 0.734375q-0.828125 0.84375 -0.828125 2.015625l0 1.390625q0 1.15625 0.9375 2.109375q0.75 0.734375 1.609375 0.734375q0.78125 0 1.328125 -0.53125q0.9375 -0.953125 0.9375 -3.015625q0 -1.953125 -0.84375 -2.796875q-0.640625 -0.640625 -1.421875 -0.640625zm8.0963745 -6.46875l3.015625 0l0 3.859375l3.359375 0l0 2.609375l-3.359375 0l0 5.921875q0 0.375 0.328125 0.71875q0.265625 0.25 0.9375 0.25q1.21875 0 2.984375 -1.125l0 3.140625q-1.484375 0.796875 -2.890625 0.796875q-2.203125 0 -3.234375 -1.046875q-1.140625 -1.140625 -1.140625 -2.546875l0 -6.109375l-2.375 0l0 -2.609375l2.375 0l0 -3.859375z" fill-rule="nonzero"/><path fill="#ffffff" d="m137.42517 429.73904q-4.5625 -4.28125 -4.5625 -9.546875q0 -5.28125 4.5625 -9.5625l1.515625 1.53125q-3.96875 3.703125 -3.96875 8.03125q0 4.3125 3.96875 8.015625l-1.515625 1.53125zm4.8515625 -2.0625l-2.515625 0l0 -10.0625l2.515625 0l0 0.421875q0.390625 -0.578125 2.015625 -0.578125q1.734375 0 2.703125 0.9375q0.453125 0.453125 0.375 0.578125q0.78125 -1.515625 2.921875 -1.515625q1.5 0 2.359375 0.859375q0.9375 0.9375 0.9375 2.109375l0 7.25l-2.515625 0l0 -6.921875q0 -0.296875 -0.203125 -0.5q-0.359375 -0.375 -0.828125 -0.375q-0.96875 0 -1.578125 0.625q-0.53125 0.53125 -0.53125 0.90625l0 6.265625l-2.515625 0l0 -6.828125q0 -0.3125 -0.359375 -0.671875q-0.296875 -0.296875 -0.921875 -0.296875q-0.71875 0 -1.25 0.53125q-0.609375 0.609375 -0.609375 1.09375l0 6.171875zm12.578125 -5.03125q0 -2.3125 1.515625 -3.84375q1.375 -1.34375 3.34375 -1.34375q1.984375 0 3.359375 1.34375q1.515625 1.53125 1.515625 3.84375q0 2.328125 -1.515625 3.84375q-1.359375 1.359375 -3.359375 1.359375q-1.984375 0 -3.34375 -1.359375q-1.515625 -1.515625 -1.515625 -3.84375zm4.859375 -2.84375q-0.796875 0 -1.328125 0.53125q-0.859375 0.859375 -0.859375 2.3125q0 1.453125 0.78125 2.234375q0.609375 0.609375 1.40625 0.609375q0.8125 0 1.421875 -0.609375q0.765625 -0.765625 0.765625 -2.234375q0 -1.453125 -0.859375 -2.3125q-0.53125 -0.53125 -1.328125 -0.53125zm8.6484375 7.875l-2.515625 0l0 -10.0625l2.515625 0l0 0.859375q0.828125 -1.015625 2.671875 -1.015625q1.828125 0 2.9375 1.109375q0.78125 0.78125 0.78125 1.859375l0 7.25l-2.515625 0l0 -6.75q0 -0.5625 -0.359375 -0.921875q-0.359375 -0.359375 -1.078125 -0.359375q-0.640625 0 -1.328125 0.6875q-1.109375 1.109375 -1.109375 2.3125l0 5.03125zm7.65625 -5.03125q0 -2.3125 1.515625 -3.84375q1.375 -1.34375 3.34375 -1.34375q1.984375 0 3.359375 1.34375q1.515625 1.53125 1.515625 3.84375q0 2.328125 -1.515625 3.84375q-1.359375 1.359375 -3.359375 1.359375q-1.984375 0 -3.34375 -1.359375q-1.515625 -1.515625 -1.515625 -3.84375zm4.859375 -2.84375q-0.796875 0 -1.328125 0.53125q-0.859375 0.859375 -0.859375 2.3125q0 1.453125 0.78125 2.234375q0.609375 0.609375 1.40625 0.609375q0.8125 0 1.421875 -0.609375q0.765625 -0.765625 0.765625 -2.234375q0 -1.453125 -0.859375 -2.3125q-0.53125 -0.53125 -1.328125 -0.53125zm5.2421875 8.015625l9.125 -16.28125l1.578125 0.953125l-9.140625 16.265625l-1.5625 -0.9375zm11.3125 -7.546875q0 -3.796875 2.171875 -5.96875q1.6875 -1.6875 4.328125 -1.6875q2.65625 0 4.171875 1.515625q1.59375 1.609375 1.703125 4.53125l-2.8125 0q-0.203125 -1.96875 -1.0 -2.75q-0.859375 -0.859375 -2.0625 -0.859375q-1.296875 0 -2.3125 1.015625q-1.34375 1.359375 -1.34375 4.203125q0 2.84375 1.34375 4.203125q0.9375 0.9375 2.3125 0.9375q1.453125 0 2.234375 -0.78125q1.015625 -1.015625 1.015625 -3.40625l2.859375 0q-0.09375 3.421875 -1.78125 5.09375q-1.515625 1.53125 -4.328125 1.53125q-2.640625 0 -4.328125 -1.6875q-2.171875 -2.171875 -2.171875 -5.890625zm19.976562 -3.96875l0.484375 -3.6875l2.203125 0l-0.484375 3.6875l1.5 0l0 2.4375l-1.875 0l-0.359375 2.5625l2.234375 0l0 2.4375l-2.53125 0l-0.578125 3.78125l-2.203125 0l0.578125 -3.78125l-1.8125 0l-0.578125 3.78125l-2.203125 0l0.578125 -3.78125l-1.5625 0l0 -2.4375l1.859375 0l0.375 -2.5625l-2.234375 0l0 -2.4375l2.59375 0l0.484375 -3.6875l2.203125 0l-0.484375 3.6875l1.8125 0zm-2.1875 2.4375l-0.375 2.5625l1.84375 0l0.359375 -2.5625l-1.828125 0zm8.265625 11.15625l-1.71875 0l0.8125 -2.21875l-0.625 0l0 -2.671875l2.765625 0l0 2.328125l-1.234375 2.5625zm9.21875 -17.125l2.515625 0l0 14.90625l-2.515625 0l0.078125 -0.4375q-0.3125 0.609375 -2.109375 0.609375q-1.90625 0 -3.015625 -1.109375q-1.609375 -1.609375 -1.609375 -4.09375q0 -2.640625 1.4375 -4.078125q1.203125 -1.203125 2.859375 -1.203125q2.046875 0 2.359375 0.453125l0 -5.046875zm-2.109375 6.953125q-0.640625 0 -1.171875 0.53125q-0.6875 0.6875 -0.6875 2.390625q0 1.625 0.78125 2.390625q0.4375 0.453125 1.078125 0.453125q0.796875 0 1.328125 -0.53125q0.78125 -0.78125 0.78125 -2.3125q0 -1.53125 -0.859375 -2.390625q-0.53125 -0.53125 -1.25 -0.53125zm6.1992188 -6.953125l2.515625 0l0 14.90625l-2.515625 0l0 -14.90625zm4.4296875 0l2.515625 0l0 14.90625l-2.515625 0l0 -14.90625zm7.3828125 7.421875q0 -4.328125 -3.953125 -8.03125l1.515625 -1.53125q4.546875 4.28125 4.546875 9.5625q0 5.265625 -4.546875 9.546875l-1.515625 -1.53125q3.953125 -3.703125 3.953125 -8.015625z" fill-rule="nonzero"/><path fill="#cfe2f3" d="m886.0561 375.9212l0 0c0 -8.155426 6.611267 -14.766693 14.766724 -14.766693l193.52167 0c3.9163818 0 7.6723633 1.5557556 10.44165 4.3250427c2.769287 2.7693176 4.3250732 6.5252686 4.3250732 10.44165l0 59.065033c0 8.155426 -6.611206 14.766693 -14.766724 14.766693l-193.52167 0l0 0c-8.155457 0 -14.766724 -6.611267 -14.766724 -14.766693z" fill-rule="evenodd"/><path stroke="#000000" stroke-width="1.0" stroke-linejoin="round" stroke-linecap="butt" d="m886.0561 375.9212l0 0c0 -8.155426 6.611267 -14.766693 14.766724 -14.766693l193.52167 0c3.9163818 0 7.6723633 1.5557556 10.44165 4.3250427c2.769287 2.7693176 4.3250732 6.5252686 4.3250732 10.44165l0 59.065033c0 8.155426 -6.611206 14.766693 -14.766724 14.766693l-193.52167 0l0 0c-8.155457 0 -14.766724 -6.611267 -14.766724 -14.766693z" fill-rule="evenodd"/><path fill="#000000" d="m942.2829 383.5237l11.90625 0l0 2.921875l-8.609375 0l0 4.203125l8.015625 0l0 2.90625l-8.015625 0l0 5.015625l9.109375 0l0 2.90625l-12.40625 0l0 -17.953125zm21.955383 0l3.015625 0l0 17.953125l-3.015625 0l0.09375 -0.515625q-0.375 0.71875 -2.546875 0.71875q-2.296875 0 -3.625 -1.34375q-1.9375 -1.921875 -1.9375 -4.921875q0 -3.1875 1.75 -4.90625q1.421875 -1.4375 3.421875 -1.4375q2.4375 0 2.84375 0.578125l0 -6.125zm-2.546875 8.359375q-0.78125 0 -1.421875 0.625q-0.828125 0.859375 -0.828125 2.90625q0 1.96875 0.921875 2.90625q0.5625 0.546875 1.328125 0.546875q0.96875 0 1.625 -0.640625q0.921875 -0.953125 0.921875 -2.8125q0 -1.859375 -1.03125 -2.90625q-0.640625 -0.625 -1.515625 -0.625zm7.5026245 -8.25l3.0 0l0 3.59375l-3.0 0l0 -3.59375zm0 5.734375l3.0 0l0 12.109375l-3.0 0l0 -12.109375zm6.0301514 -3.859375l3.015625 0l0 3.859375l3.359375 0l0 2.609375l-3.359375 0l0 5.921875q0 0.375 0.328125 0.71875q0.265625 0.25 0.9375 0.25q1.21875 0 2.984375 -1.125l0 3.140625q-1.484375 0.796875 -2.890625 0.796875q-2.203125 0 -3.234375 -1.046875q-1.140625 -1.140625 -1.140625 -2.546875l0 -6.109375l-2.375 0l0 -2.609375l2.375 0l0 -3.859375zm7.623169 9.90625q0 -2.78125 1.828125 -4.609375q1.625 -1.640625 4.03125 -1.640625q2.390625 0 4.015625 1.640625q1.84375 1.828125 1.84375 4.609375q0 2.796875 -1.84375 4.625q-1.625 1.640625 -4.015625 1.640625q-2.40625 0 -4.03125 -1.640625q-1.828125 -1.828125 -1.828125 -4.625zm5.859375 -3.4375q-0.96875 0 -1.625 0.640625q-1.03125 1.046875 -1.03125 2.796875q0 1.765625 0.9375 2.71875q0.75 0.734375 1.71875 0.734375q0.96875 0 1.71875 -0.734375q0.921875 -0.953125 0.921875 -2.71875q0 -1.75 -1.03125 -2.796875q-0.640625 -0.640625 -1.609375 -0.640625zm10.518188 -1.078125q1.71875 -1.734375 5.125 -1.734375l0 3.34375q-0.96875 -0.234375 -1.59375 -0.234375q-1.265625 0 -2.421875 1.125q-0.984375 1.015625 -1.328125 2.0l0 6.078125l-3.0 0l0 -12.109375l3.0 0l-0.25 2.34375q-0.171875 -0.1875 0.46875 -0.8125zm5.586731 1.65625q0 -4.578125 2.625 -7.1875q2.015625 -2.03125 5.203125 -2.03125q3.1875 0 5.015625 1.828125q1.9375 1.921875 2.046875 5.421875l-3.375 0q-0.21875 -2.34375 -1.171875 -3.3125q-1.046875 -1.03125 -2.515625 -1.03125q-1.5625 0 -2.796875 1.234375q-1.625 1.625 -1.625 5.078125q0 3.4375 1.625 5.078125q1.140625 1.125 2.796875 1.125q1.765625 0 2.71875 -0.921875q1.21875 -1.25 1.21875 -4.125l3.421875 0q-0.109375 4.109375 -2.15625 6.125q-1.8125 1.84375 -5.203125 1.84375q-3.1875 0 -5.203125 -2.046875q-2.625 -2.609375 -2.625 -7.078125zm16.522583 2.859375q0 -2.78125 1.828125 -4.609375q1.625 -1.640625 4.03125 -1.640625q2.390625 0 4.015625 1.640625q1.84375 1.828125 1.84375 4.609375q0 2.796875 -1.84375 4.625q-1.625 1.640625 -4.015625 1.640625q-2.40625 0 -4.03125 -1.640625q-1.828125 -1.828125 -1.828125 -4.625zm5.859375 -3.4375q-0.96875 0 -1.625 0.640625q-1.03125 1.046875 -1.03125 2.796875q0 1.765625 0.9375 2.71875q0.75 0.734375 1.71875 0.734375q0.96875 0 1.71875 -0.734375q0.921875 -0.953125 0.921875 -2.71875q0 -1.75 -1.03125 -2.796875q-0.640625 -0.640625 -1.609375 -0.640625zm10.518188 -1.078125q1.71875 -1.734375 5.125 -1.734375l0 3.34375q-0.96875 -0.234375 -1.59375 -0.234375q-1.265625 0 -2.421875 1.125q-0.984375 1.015625 -1.328125 2.0l0 6.078125l-3.0 0l0 -12.109375l3.0 0l-0.25 2.34375q-0.171875 -0.1875 0.46875 -0.8125zm5.383545 4.515625q0 -2.890625 1.84375 -4.703125q1.515625 -1.546875 3.921875 -1.546875q2.296875 0 3.921875 1.640625q1.53125 1.53125 1.53125 5.125l-8.015625 0q0 1.34375 0.84375 2.203125q0.75 0.734375 1.90625 0.734375q1.171875 0 1.625 -0.4375q0.53125 -0.546875 0.53125 -1.75l3.34375 0q-0.578125 2.5625 -1.578125 3.546875q-1.421875 1.453125 -3.921875 1.453125q-2.59375 0 -4.21875 -1.640625q-1.734375 -1.734375 -1.734375 -4.625zm5.65625 -3.53125q-0.96875 0 -1.609375 0.625q-0.578125 0.59375 -0.625 0.8125l4.5 0q0 -0.25 -0.640625 -0.90625q-0.546875 -0.53125 -1.625 -0.53125z" fill-rule="nonzero"/><path fill="#000000" d="m946.238 429.74622q-4.5625 -4.28125 -4.5625 -9.546875q0 -5.28125 4.5625 -9.5625l1.515625 1.53125q-3.96875 3.703125 -3.96875 8.03125q0 4.3125 3.96875 8.015625l-1.515625 1.53125zm2.3359375 -4.734375l2.765625 0l0 2.671875l-2.765625 0l0 -2.671875zm4.515625 -12.234375l2.734375 0l5.875 9.921875l0 -9.921875l2.765625 0l0 14.90625l-2.75 0l-5.875 -9.921875l0 9.921875l-2.75 0l0 -14.90625zm13.359375 0l9.90625 0l0 2.4375l-7.140625 0l0 3.46875l6.640625 0l0 2.4375l-6.640625 0l0 4.125l7.546875 0l0 2.4375l-10.3125 0l0 -14.90625zm11.082031 0l12.109375 0l0 2.4375l-4.671875 0l0 12.46875l-2.765625 0l0 -12.46875l-4.671875 0l0 -2.4375zm12.152344 15.046875l9.125 -16.28125l1.578125 0.953125l-9.140625 16.265625l-1.5625 -0.9375zm11.3125 -7.546875q0 -3.796875 2.171875 -5.96875q1.6875 -1.6875 4.328125 -1.6875q2.65625 0 4.171875 1.515625q1.59375 1.609375 1.703125 4.53125l-2.8125 0q-0.203125 -1.96875 -1.0 -2.75q-0.859375 -0.859375 -2.0625 -0.859375q-1.296875 0 -2.3125 1.015625q-1.34375 1.359375 -1.34375 4.203125q0 2.84375 1.34375 4.203125q0.9375 0.9375 2.3125 0.9375q1.453125 0 2.234375 -0.78125q1.015625 -1.015625 1.015625 -3.40625l2.859375 0q-0.09375 3.421875 -1.78125 5.09375q-1.515625 1.53125 -4.328125 1.53125q-2.640625 0 -4.328125 -1.6875q-2.171875 -2.171875 -2.171875 -5.890625zm19.976562 -3.96875l0.484375 -3.6875l2.203125 0l-0.484375 3.6875l1.499939 0l0 2.4375l-1.874939 0l-0.359375 2.5625l2.234314 0l0 2.4375l-2.531189 0l-0.578125 3.78125l-2.203125 0l0.578125 -3.78125l-1.8125 0l-0.578125 3.78125l-2.203125 0l0.578125 -3.78125l-1.5625 0l0 -2.4375l1.859375 0l0.375 -2.5625l-2.234375 0l0 -2.4375l2.59375 0l0.484375 -3.6875l2.203125 0l-0.484375 3.6875l1.8125 0zm-2.1875 2.4375l-0.375 2.5625l1.84375 0l0.359375 -2.5625l-1.828125 0zm8.265564 11.15625l-1.71875 0l0.8125 -2.21875l-0.625 0l0 -2.671875l2.765625 0l0 2.328125l-1.234375 2.5625zm9.21875 -17.125l2.515625 0l0 14.90625l-2.515625 0l0.078125 -0.4375q-0.3125 0.609375 -2.109375 0.609375q-1.90625 0 -3.015625 -1.109375q-1.609375 -1.609375 -1.609375 -4.09375q0 -2.640625 1.4375 -4.078125q1.203125 -1.203125 2.859375 -1.203125q2.046875 0 2.359375 0.453125l0 -5.046875zm-2.109375 6.953125q-0.640625 0 -1.171875 0.53125q-0.6875 0.6875 -0.6875 2.390625q0 1.625 0.78125 2.390625q0.4375 0.453125 1.078125 0.453125q0.796875 0 1.328125 -0.53125q0.78125 -0.78125 0.78125 -2.3125q0 -1.53125 -0.859375 -2.390625q-0.53125 -0.53125 -1.25 -0.53125zm6.1992188 -6.953125l2.515625 0l0 14.90625l-2.515625 0l0 -14.90625zm4.4296875 0l2.515625 0l0 14.90625l-2.515625 0l0 -14.90625zm7.3828125 7.421875q0 -4.328125 -3.953125 -8.03125l1.515625 -1.53125q4.546875 4.28125 4.546875 9.5625q0 5.265625 -4.546875 9.546875l-1.515625 -1.53125q3.953125 -3.703125 3.953125 -8.015625z" fill-rule="nonzero"/><path fill="#d9ead3" d="m886.0561 169.60695l0 0c0 -8.155426 6.611267 -14.766708 14.766724 -14.766708l193.52167 0c3.9163818 0 7.6723633 1.5557861 10.44165 4.3250732c2.769287 2.769287 4.3250732 6.5252533 4.3250732 10.441635l0 59.065018c0 8.155426 -6.611206 14.766708 -14.766724 14.766708l-193.52167 0l0 0c-8.155457 0 -14.766724 -6.6112823 -14.766724 -14.766708z" fill-rule="evenodd"/><path stroke="#ff0000" stroke-width="4.0" stroke-linejoin="round" stroke-linecap="butt" d="m886.0561 169.60695l0 0c0 -8.155426 6.611267 -14.766708 14.766724 -14.766708l193.52167 0c3.9163818 0 7.6723633 1.5557861 10.44165 4.3250732c2.769287 2.769287 4.3250732 6.5252533 4.3250732 10.441635l0 59.065018c0 8.155426 -6.611206 14.766708 -14.766724 14.766708l-193.52167 0l0 0c-8.155457 0 -14.766724 -6.6112823 -14.766724 -14.766708z" fill-rule="evenodd"/><path fill="#cc0000" d="m940.08453 178.20946l11.90625 0l0 2.921875l-8.609375 0l0 4.203125l8.015625 0l0 2.90625l-8.015625 0l0 5.015625l9.109375 0l0 2.90625l-12.40625 0l0 -17.953125zm21.955383 0l3.015625 0l0 17.953125l-3.015625 0l0.09375 -0.515625q-0.375 0.71875 -2.546875 0.71875q-2.296875 0 -3.625 -1.34375q-1.9375 -1.921875 -1.9375 -4.921875q0 -3.1875 1.75 -4.90625q1.421875 -1.4375 3.421875 -1.4375q2.4375 0 2.84375 0.578125l0 -6.125zm-2.546875 8.359375q-0.78125 0 -1.421875 0.625q-0.828125 0.859375 -0.828125 2.90625q0 1.96875 0.921875 2.90625q0.5625 0.546875 1.328125 0.546875q0.96875 0 1.625 -0.640625q0.921875 -0.953125 0.921875 -2.8125q0 -1.859375 -1.03125 -2.90625q-0.640625 -0.625 -1.515625 -0.625zm7.5026245 -8.25l3.0 0l0 3.59375l-3.0 0l0 -3.59375zm0 5.734375l3.0 0l0 12.109375l-3.0 0l0 -12.109375zm6.0301514 -3.859375l3.015625 0l0 3.859375l3.359375 0l0 2.609375l-3.359375 0l0 5.921875q0 0.375 0.328125 0.71875q0.265625 0.25 0.9375 0.25q1.21875 0 2.984375 -1.125l0 3.140625q-1.484375 0.796875 -2.890625 0.796875q-2.203125 0 -3.234375 -1.046875q-1.140625 -1.140625 -1.140625 -2.546875l0 -6.109375l-2.375 0l0 -2.609375l2.375 0l0 -3.859375zm7.623169 9.90625q0 -2.78125 1.828125 -4.609375q1.625 -1.640625 4.03125 -1.640625q2.390625 0 4.015625 1.640625q1.84375 1.828125 1.84375 4.609375q0 2.796875 -1.84375 4.625q-1.625 1.640625 -4.015625 1.640625q-2.40625 0 -4.03125 -1.640625q-1.828125 -1.828125 -1.828125 -4.625zm5.859375 -3.4375q-0.96875 0 -1.625 0.640625q-1.03125 1.046875 -1.03125 2.796875q0 1.765625 0.9375 2.71875q0.75 0.734375 1.71875 0.734375q0.96875 0 1.71875 -0.734375q0.921875 -0.953125 0.921875 -2.71875q0 -1.75 -1.03125 -2.796875q-0.640625 -0.640625 -1.609375 -0.640625zm10.518188 -1.078125q1.71875 -1.734375 5.125 -1.734375l0 3.34375q-0.96875 -0.234375 -1.59375 -0.234375q-1.265625 0 -2.421875 1.125q-0.984375 1.015625 -1.328125 2.0l0 6.078125l-3.0 0l0 -12.109375l3.0 0l-0.25 2.34375q-0.171875 -0.1875 0.46875 -0.8125zm10.571106 13.0625q-5.484375 -5.15625 -5.484375 -11.515625q0 -6.34375 5.484375 -11.5l1.796875 1.828125q-4.765625 4.453125 -4.765625 9.671875q0 5.234375 4.765625 9.6875l-1.796875 1.828125z" fill-rule="nonzero"/><path fill="#cc0000" d="m1009.0023 181.3032l2.703125 0l1.90625 8.953125l2.3125 -8.953125l2.5 0l2.3125 8.953125l1.90625 -8.953125l2.703125 0l-3.296875 15.078125l-2.34375 0l-2.53125 -10.046875l-2.53125 10.046875l-2.34375 0l-3.296875 -15.078125zm16.835938 0l7.0 0q2.0 0 3.265625 1.28125q1.28125 1.265625 1.28125 3.515625q0 2.234375 -1.203125 3.421875q-1.1875 1.1875 -3.34375 1.1875l-4.234375 0l0 5.5l-2.765625 0l0 -14.90625zm2.765625 2.4375l0 4.546875l3.828125 0q0.953125 0 1.484375 -0.53125q0.625 -0.625 0.625 -1.65625q0 -1.21875 -0.53125 -1.75q-0.609375 -0.609375 -1.578125 -0.609375l-3.828125 0zm10.5234375 -2.4375l10.3125 0l0 2.4375l-7.546875 0l0 3.71875l5.90625 0l0 2.4375l-5.90625 0l0 6.3125l-2.765625 0l0 -14.90625z" fill-rule="nonzero"/><path fill="#cc0000" d="m1054.3031 187.13133q0 -5.21875 -4.796875 -9.671875l1.828125 -1.828125q5.484375 5.15625 5.484375 11.5q0 6.359375 -5.484375 11.515625l-1.828125 -1.828125q4.796875 -4.453125 4.796875 -9.6875z" fill-rule="nonzero"/><path fill="#cc0000" d="m943.2399 223.05821q-4.328125 -4.0625 -4.328125 -9.078125q0 -5.015625 4.328125 -9.078125l1.421875 1.4375q-3.765625 3.515625 -3.765625 7.640625q0 4.125 3.765625 7.640625l-1.421875 1.4375zm2.234375 -4.484375l2.609375 0l0 2.53125l-2.609375 0l0 -2.53125zm4.296875 -11.640625l2.59375 0l5.609375 9.46875l0 -9.46875l2.609375 0l0 14.171875l-2.59375 0l-5.609375 -9.46875l0 9.46875l-2.609375 0l0 -14.171875zm12.734375 0l9.40625 0l0 2.296875l-6.796875 0l0 3.328125l6.328125 0l0 2.296875l-6.328125 0l0 3.953125l7.1875 0l0 2.296875l-9.796875 0l0 -14.171875zm10.546875 0l11.515625 0l0 2.296875l-4.453125 0l0 11.875l-2.609375 0l0 -11.875l-4.453125 0l0 -2.296875zm11.578125 14.296875l8.671875 -15.46875l1.484375 0.890625l-8.671875 15.46875l-1.484375 -0.890625zm10.765625 -7.171875q0 -3.609375 2.078125 -5.671875q1.59375 -1.609375 4.109375 -1.609375q2.515625 0 3.953125 1.453125q1.53125 1.515625 1.625 4.28125l-2.671875 0q-0.171875 -1.859375 -0.921875 -2.625q-0.828125 -0.8125 -1.984375 -0.8125q-1.234375 0 -2.21875 0.96875q-1.28125 1.296875 -1.28125 4.015625q0 2.71875 1.28125 4.015625q0.90625 0.890625 2.21875 0.890625q1.390625 0 2.140625 -0.734375q0.96875 -0.984375 0.96875 -3.25l2.703125 0q-0.09375 3.234375 -1.703125 4.828125q-1.4375 1.453125 -4.109375 1.453125q-2.515625 0 -4.109375 -1.609375q-2.078125 -2.0625 -2.078125 -5.59375zm19.03125 -3.765625l0.46875 -3.515625l2.078125 0l-0.46875 3.515625l1.421875 0l0 2.296875l-1.765625 0l-0.359375 2.46875l2.125 0l0 2.296875l-2.40625 0l-0.546875 3.59375l-2.0625 0l0.546875 -3.59375l-1.765625 0l-0.546875 3.59375l-2.0625 0l0.546875 -3.59375l-1.5 0l0 -2.296875l1.765625 0l0.359375 -2.46875l-2.125 0l0 -2.296875l2.46875 0l0.46875 -3.515625l2.078125 0l-0.46875 3.515625l1.75 0zm-2.09375 2.296875l-0.359375 2.46875l1.75 0l0.359375 -2.46875l-1.75 0zm7.859375 10.625l-1.609375 0l0.78125 -2.109375l-0.609375 0l0 -2.53125l2.609375 0l0 2.21875l-1.171875 2.421875zm2.390625 -6.890625q0 -2.28125 1.453064 -3.71875q1.203125 -1.21875 3.09375 -1.21875q1.8125 0 3.09375 1.296875q1.21875 1.203125 1.21875 4.046875l-6.328125 0q0 1.0625 0.65625 1.734375q0.59375 0.578125 1.515625 0.578125q0.921875 0 1.28125 -0.34375q0.421875 -0.4375 0.421875 -1.375l2.625 0q-0.4375 2.015625 -1.234375 2.796875q-1.125 1.140625 -3.09375 1.140625q-2.046875 0 -3.328064 -1.296875q-1.375 -1.359375 -1.375 -3.640625zm4.468689 -2.796875q-0.765625 0 -1.28125 0.5q-0.453125 0.46875 -0.484375 0.640625l3.546875 0q0 -0.203125 -0.5 -0.71875q-0.4375 -0.421875 -1.28125 -0.421875zm4.921875 -1.984375l2.796875 0l1.890625 2.8125l1.890625 -2.8125l2.796875 0l-3.25 4.703125l3.5 4.859375l-2.796875 0l-2.140625 -2.984375l-2.140625 2.984375l-2.796875 0l3.5 -4.859375l-3.25 -4.703125zm9.828125 4.78125q0 -2.28125 1.453125 -3.71875q1.203125 -1.21875 3.09375 -1.21875q1.8125 0 3.09375 1.296875q1.21875 1.203125 1.21875 4.046875l-6.328125 0q0 1.0625 0.65625 1.734375q0.59375 0.578125 1.515625 0.578125q0.921875 0 1.28125 -0.34375q0.421875 -0.4375 0.421875 -1.375l2.625 0q-0.4375 2.015625 -1.234375 2.796875q-1.125 1.140625 -3.09375 1.140625q-2.046875 0 -3.328125 -1.296875q-1.375 -1.359375 -1.375 -3.640625zm4.46875 -2.796875q-0.765625 0 -1.28125 0.5q-0.453125 0.46875 -0.484375 0.640625l3.546875 0q0 -0.203125 -0.5 -0.71875q-0.4375 -0.421875 -1.28125 -0.421875zm8.734375 0.453125q0 -4.125 -3.765625 -7.640625l1.421875 -1.4375q4.328125 4.0625 4.328125 9.078125q0 5.015625 -4.328125 9.078125l-1.421875 -1.4375q3.765625 -3.515625 3.765625 -7.640625z" fill-rule="nonzero"/><path fill="#000000" fill-opacity="0.0" d="m847.3937 405.4777l-195.93701 -0.03149414" fill-rule="evenodd"/><path stroke="#cc0000" stroke-width="3.0" stroke-linejoin="round" stroke-linecap="butt" stroke-dasharray="12.0,9.0" d="m829.3937 405.4748l-159.93701 -0.0256958" fill-rule="evenodd"/><path fill="#cc0000" stroke="#cc0000" stroke-width="3.0" stroke-linecap="butt" d="m829.3929 410.43l13.615112 -4.953003l-13.613525 -4.9573975z" fill-rule="evenodd"/><path fill="#cc0000" stroke="#cc0000" stroke-width="3.0" stroke-linecap="butt" d="m669.45746 400.4939l-13.615051 4.953003l13.613464 4.9573975z" fill-rule="evenodd"/><path fill="#000000" fill-opacity="0.0" d="m997.5837 243.43867l0 117.70079" fill-rule="evenodd"/><path stroke="#666666" stroke-width="3.0" stroke-linejoin="round" stroke-linecap="butt" d="m997.5837 243.43867l0 99.70079" fill-rule="evenodd"/><path fill="#666666" stroke="#666666" stroke-width="3.0" stroke-linecap="butt" d="m992.6285 343.13947l4.9552 13.614319l4.9552 -13.614319z" fill-rule="evenodd"/><path fill="#000000" fill-opacity="0.0" d="m699.17584 327.87665l135.68506 0l0 77.5748l-135.68506 0z" fill-rule="evenodd"/><path fill="#000000" d="m748.6551 359.91666l0 -17.1875l3.46875 0l0 17.1875l-3.46875 0zm6.7773438 0l0 -17.1875l5.5625 0q3.171875 0 4.125 0.265625q1.484375 0.390625 2.46875 1.6875q1.0 1.28125 1.0 3.34375q0 1.578125 -0.578125 2.65625q-0.5625 1.078125 -1.453125 1.703125q-0.890625 0.609375 -1.796875 0.796875q-1.25 0.25 -3.59375 0.25l-2.265625 0l0 6.484375l-3.46875 0zm3.46875 -14.28125l0 4.875l1.890625 0q2.0625 0 2.75 -0.265625q0.6875 -0.265625 1.078125 -0.84375q0.390625 -0.578125 0.390625 -1.328125q0 -0.9375 -0.546875 -1.546875q-0.546875 -0.609375 -1.390625 -0.765625q-0.625 -0.125 -2.5 -0.125l-1.671875 0zm23.523438 7.96875l3.375 1.0625q-0.78125 2.8125 -2.578125 4.1875q-1.796875 1.359375 -4.5625 1.359375q-3.421875 0 -5.625 -2.34375q-2.203125 -2.34375 -2.203125 -6.390625q0 -4.296875 2.203125 -6.65625q2.21875 -2.375 5.828125 -2.375q3.15625 0 5.125 1.859375q1.171875 1.09375 1.765625 3.15625l-3.4375 0.828125q-0.3125 -1.34375 -1.28125 -2.109375q-0.953125 -0.78125 -2.34375 -0.78125q-1.90625 0 -3.09375 1.375q-1.1875 1.375 -1.1875 4.4375q0 3.265625 1.171875 4.65625q1.171875 1.375 3.046875 1.375q1.375 0 2.375 -0.875q1.0 -0.890625 1.421875 -2.765625z" fill-rule="nonzero"/><path fill="#000000" d="m727.5418 393.76352l-2.265625 0q-1.796875 -2.703125 -2.734375 -5.625q-0.9375 -2.921875 -0.9375 -5.640625q0 -3.390625 1.171875 -6.421875q1.0 -2.625 2.546875 -4.828125l2.25 0q-1.609375 3.546875 -2.21875 6.046875q-0.59375 2.484375 -0.59375 5.265625q0 1.921875 0.359375 3.9375q0.359375 2.015625 0.984375 3.84375q0.40625 1.1875 1.4375 3.421875zm6.4140625 -5.046875l0 -14.28125l-5.09375 0l0 -2.90625l13.65625 0l0 2.90625l-5.09375 0l0 14.28125l-3.46875 0zm21.785156 -6.3125l3.375 1.0625q-0.78125 2.8125 -2.578125 4.1875q-1.796875 1.359375 -4.5625 1.359375q-3.421875 0 -5.625 -2.34375q-2.203125 -2.34375 -2.203125 -6.390625q0 -4.296875 2.203125 -6.65625q2.21875 -2.375 5.828125 -2.375q3.15625 0 5.125 1.859375q1.171875 1.09375 1.765625 3.15625l-3.4375 0.828125q-0.3125 -1.34375 -1.28125 -2.109375q-0.953125 -0.78125 -2.34375 -0.78125q-1.90625 0 -3.09375 1.375q-1.1875 1.375 -1.1875 4.4375q0 3.265625 1.171875 4.65625q1.171875 1.375 3.046875 1.375q1.375 0 2.375 -0.875q1.0 -0.890625 1.421875 -2.765625zm6.3476562 6.3125l0 -17.1875l5.5625 0q3.171875 0 4.125 0.265625q1.484375 0.390625 2.46875 1.6875q1.0 1.28125 1.0 3.34375q0 1.578125 -0.578125 2.65625q-0.5625 1.078125 -1.453125 1.703125q-0.890625 0.609375 -1.796875 0.796875q-1.25 0.25 -3.59375 0.25l-2.265625 0l0 6.484375l-3.46875 0zm3.46875 -14.28125l0 4.875l1.890625 0q2.0625 0 2.75 -0.265625q0.6875 -0.265625 1.078125 -0.84375q0.390625 -0.578125 0.390625 -1.328125q0 -0.9375 -0.546875 -1.546875q-0.546875 -0.609375 -1.390625 -0.765625q-0.625 -0.125 -2.5 -0.125l-1.671875 0zm10.7578125 14.578125l4.25 -17.765625l2.46875 0l-4.296875 17.765625l-2.421875 0zm8.339844 -0.296875l0 -17.1875l3.46875 0l0 17.1875l-3.46875 0zm6.7773438 0l0 -17.1875l5.5625 0q3.171875 0 4.125 0.265625q1.484375 0.390625 2.46875 1.6875q1.0 1.28125 1.0 3.34375q0 1.578125 -0.578125 2.65625q-0.5625 1.078125 -1.453125 1.703125q-0.890625 0.609375 -1.796875 0.796875q-1.25 0.25 -3.59375 0.25l-2.265625 0l0 6.484375l-3.46875 0zm3.46875 -14.28125l0 4.875l1.890625 0q2.0625 0 2.75 -0.265625q0.6875 -0.265625 1.078125 -0.84375q0.390625 -0.578125 0.390625 -1.328125q0 -0.9375 -0.546875 -1.546875q-0.546875 -0.609375 -1.390625 -0.765625q-0.625 -0.125 -2.5 -0.125l-1.671875 0zm11.6015625 19.328125q0.96875 -2.078125 1.359375 -3.203125q0.40625 -1.109375 0.75 -2.5625q0.34375 -1.453125 0.5 -2.75q0.171875 -1.3125 0.171875 -2.6875q0 -2.78125 -0.609375 -5.265625q-0.59375 -2.5 -2.203125 -6.046875l2.25 0q1.765625 2.515625 2.734375 5.34375q0.984375 2.8125 0.984375 5.71875q0 2.453125 -0.765625 5.25q-0.890625 3.15625 -2.90625 6.203125l-2.265625 0z" fill-rule="nonzero"/><path fill="#000000" fill-opacity="0.0" d="m89.473755 306.1824l203.84253 0l0 46.86615l-203.84253 0z" fill-rule="evenodd"/><path fill="#000000" d="m106.79747 336.9424l-3.875 -16.21875l3.34375 0l2.453125 11.140625l2.96875 -11.140625l3.890625 0l2.84375 11.328125l2.484375 -11.328125l3.296875 0l-3.9375 16.21875l-3.46875 0l-3.234375 -12.125l-3.21875 12.125l-3.546875 0zm21.630798 0l-3.109375 0l0 -11.75l2.875 0l0 1.671875q0.75 -1.1875 1.34375 -1.5625q0.59375 -0.375 1.34375 -0.375q1.0625 0 2.046875 0.59375l-0.96875 2.703125q-0.78125 -0.5 -1.453125 -0.5q-0.65625 0 -1.109375 0.359375q-0.453125 0.359375 -0.71875 1.296875q-0.25 0.9375 -0.25 3.9375l0 3.625zm5.832535 -13.34375l0 -2.875l3.109375 0l0 2.875l-3.109375 0zm0 13.34375l0 -11.75l3.109375 0l0 11.75l-3.109375 0zm11.685257 -11.75l0 2.484375l-2.125 0l0 4.734375q0 1.4375 0.0625 1.671875q0.0625 0.234375 0.265625 0.390625q0.21875 0.15625 0.53125 0.15625q0.4375 0 1.25 -0.296875l0.265625 2.40625q-1.078125 0.46875 -2.453125 0.46875q-0.84375 0 -1.515625 -0.28125q-0.671875 -0.28125 -1.0 -0.71875q-0.3125 -0.453125 -0.421875 -1.21875q-0.109375 -0.546875 -0.109375 -2.203125l0 -5.109375l-1.421875 0l0 -2.484375l1.421875 0l0 -2.328125l3.125 -1.8125l0 4.140625l2.125 0zm7.5447083 0l0 2.484375l-2.125 0l0 4.734375q0 1.4375 0.0625 1.671875q0.0625 0.234375 0.265625 0.390625q0.21875 0.15625 0.53125 0.15625q0.4375 0 1.25 -0.296875l0.265625 2.40625q-1.078125 0.46875 -2.453125 0.46875q-0.84375 0 -1.515625 -0.28125q-0.671875 -0.28125 -1.0 -0.71875q-0.3125 -0.453125 -0.421875 -1.21875q-0.109375 -0.546875 -0.109375 -2.203125l0 -5.109375l-1.421875 0l0 -2.484375l1.421875 0l0 -2.328125l3.125 -1.8125l0 4.140625l2.125 0zm8.966583 8.015625l3.09375 0.515625q-0.59375 1.703125 -1.890625 2.59375q-1.28125 0.890625 -3.21875 0.890625q-3.0625 0 -4.546875 -2.0q-1.15625 -1.609375 -1.15625 -4.046875q0 -2.921875 1.515625 -4.578125q1.53125 -1.65625 3.875 -1.65625q2.625 0 4.140625 1.734375q1.515625 1.734375 1.4375 5.296875l-7.78125 0q0.03125 1.390625 0.75 2.15625q0.71875 0.765625 1.796875 0.765625q0.71875 0 1.21875 -0.390625q0.5 -0.40625 0.765625 -1.28125zm0.171875 -3.140625q-0.03125 -1.359375 -0.703125 -2.0625q-0.65625 -0.703125 -1.609375 -0.703125q-1.015625 0 -1.6875 0.75q-0.65625 0.734375 -0.65625 2.015625l4.65625 0zm16.303452 6.875l-3.109375 0l0 -6.0q0 -1.90625 -0.203125 -2.453125q-0.1875 -0.5625 -0.640625 -0.875q-0.453125 -0.3125 -1.078125 -0.3125q-0.8125 0 -1.453125 0.453125q-0.640625 0.4375 -0.875 1.171875q-0.234375 0.71875 -0.234375 2.6875l0 5.328125l-3.109375 0l0 -11.75l2.875 0l0 1.734375q1.546875 -2.0 3.875 -2.0q1.03125 0 1.875 0.375q0.859375 0.375 1.296875 0.953125q0.4375 0.5625 0.609375 1.296875q0.171875 0.734375 0.171875 2.09375l0 7.296875zm9.321472 0l0 -16.21875l3.109375 0l0 5.84375q1.4375 -1.640625 3.40625 -1.640625q2.140625 0 3.546875 1.5625q1.40625 1.546875 1.40625 4.453125q0 3.015625 -1.4375 4.640625q-1.4375 1.625 -3.484375 1.625q-1.0 0 -1.984375 -0.5q-0.96875 -0.5 -1.6875 -1.484375l0 1.71875l-2.875 0zm3.078125 -6.125q0 1.828125 0.578125 2.703125q0.8125 1.234375 2.140625 1.234375q1.03125 0 1.75 -0.875q0.734375 -0.890625 0.734375 -2.78125q0 -2.015625 -0.734375 -2.90625q-0.734375 -0.890625 -1.875 -0.890625q-1.109375 0 -1.859375 0.875q-0.734375 0.859375 -0.734375 2.640625zm9.417465 -5.625l3.3125 0l2.796875 8.34375l2.75 -8.34375l3.21875 0l-4.140625 11.3125l-0.75 2.046875q-0.40625 1.03125 -0.78125 1.5625q-0.375 0.546875 -0.859375 0.875q-0.46875 0.34375 -1.171875 0.53125q-0.703125 0.1875 -1.59375 0.1875q-0.890625 0 -1.75 -0.1875l-0.28125 -2.4375q0.734375 0.15625 1.3125 0.15625q1.09375 0 1.609375 -0.640625q0.515625 -0.640625 0.796875 -1.625l-4.46875 -11.78125zm28.098083 11.75l0 -1.765625q-0.640625 0.953125 -1.6875 1.5q-1.046875 0.53125 -2.203125 0.53125q-1.1875 0 -2.125 -0.515625q-0.9375 -0.53125 -1.359375 -1.46875q-0.421875 -0.9375 -0.421875 -2.59375l0 -7.4375l3.109375 0l0 5.40625q0 2.46875 0.171875 3.03125q0.171875 0.5625 0.625 0.890625q0.453125 0.3125 1.140625 0.3125q0.796875 0 1.421875 -0.421875q0.640625 -0.4375 0.875 -1.078125q0.234375 -0.65625 0.234375 -3.1875l0 -4.953125l3.109375 0l0 11.75l-2.890625 0zm5.011215 -3.359375l3.125 -0.46875q0.1875 0.90625 0.796875 1.375q0.609375 0.46875 1.703125 0.46875q1.21875 0 1.8125 -0.4375q0.421875 -0.3125 0.421875 -0.828125q0 -0.359375 -0.21875 -0.59375q-0.234375 -0.21875 -1.046875 -0.40625q-3.765625 -0.828125 -4.765625 -1.515625q-1.390625 -0.953125 -1.390625 -2.640625q0 -1.53125 1.203125 -2.5625q1.203125 -1.046875 3.734375 -1.046875q2.40625 0 3.578125 0.796875q1.1875 0.78125 1.625 2.3125l-2.9375 0.546875q-0.1875 -0.6875 -0.71875 -1.046875q-0.515625 -0.375 -1.484375 -0.375q-1.234375 0 -1.765625 0.34375q-0.359375 0.25 -0.359375 0.625q0 0.34375 0.3125 0.578125q0.421875 0.296875 2.90625 0.875q2.484375 0.5625 3.46875 1.375q0.96875 0.828125 0.96875 2.3125q0 1.609375 -1.34375 2.78125q-1.34375 1.15625 -4.0 1.15625q-2.390625 0 -3.796875 -0.96875q-1.390625 -0.984375 -1.828125 -2.65625zm20.506577 -0.375l3.0937347 0.515625q-0.59375 1.703125 -1.8906097 2.59375q-1.28125 0.890625 -3.21875 0.890625q-3.0625 0 -4.546875 -2.0q-1.15625 -1.609375 -1.15625 -4.046875q0 -2.921875 1.515625 -4.578125q1.53125 -1.65625 3.875 -1.65625q2.625 0 4.1406097 1.734375q1.515625 1.734375 1.4375 5.296875l-7.7812347 0q0.03125 1.390625 0.75 2.15625q0.71875 0.765625 1.796875 0.765625q0.71875 0 1.21875 -0.390625q0.5 -0.40625 0.765625 -1.28125zm0.171875 -3.140625q-0.03125 -1.359375 -0.703125 -2.0625q-0.65625 -0.703125 -1.609375 -0.703125q-1.015625 0 -1.6875 0.75q-0.65625 0.734375 -0.65625 2.015625l4.65625 0zm8.600327 6.875l-3.109375 0l0 -11.75l2.875 0l0 1.671875q0.75 -1.1875 1.34375 -1.5625q0.59375 -0.375 1.34375 -0.375q1.0625 0 2.046875 0.59375l-0.96875 2.703125q-0.78125 -0.5 -1.453125 -0.5q-0.65625 0 -1.109375 0.359375q-0.453125 0.359375 -0.71875 1.296875q-0.25 0.9375 -0.25 3.9375l0 3.625zm4.7387695 -3.359375l3.125 -0.46875q0.1875 0.90625 0.796875 1.375q0.609375 0.46875 1.703125 0.46875q1.21875 0 1.8125 -0.4375q0.421875 -0.3125 0.421875 -0.828125q0 -0.359375 -0.21875 -0.59375q-0.234375 -0.21875 -1.046875 -0.40625q-3.765625 -0.828125 -4.765625 -1.515625q-1.390625 -0.953125 -1.390625 -2.640625q0 -1.53125 1.203125 -2.5625q1.203125 -1.046875 3.734375 -1.046875q2.40625 0 3.578125 0.796875q1.1875 0.78125 1.625 2.3125l-2.9375 0.546875q-0.1875 -0.6875 -0.71875 -1.046875q-0.515625 -0.375 -1.484375 -0.375q-1.234375 0 -1.765625 0.34375q-0.359375 0.25 -0.359375 0.625q0 0.34375 0.3125 0.578125q0.421875 0.296875 2.90625 0.875q2.484375 0.5625 3.46875 1.375q0.96875 0.828125 0.96875 2.3125q0 1.609375 -1.34375 2.78125q-1.34375 1.15625 -4.0 1.15625q-2.390625 0 -3.796875 -0.96875q-1.390625 -0.984375 -1.828125 -2.65625z" fill-rule="nonzero"/></g></svg>