<svg version="1.1" viewBox="0.0 0.0 1198.3517060367453 455.7690288713911" fill="none" stroke="none" stroke-linecap="square" stroke-miterlimit="10" xmlns:xlink="http://www.w3.org/1999/xlink" xmlns="http://www.w3.org/2000/svg"><clipPath id="p.0"><path d="m0 0l1198.3517 0l0 455.76904l-1198.3517 0l0 -455.76904z" clip-rule="nonzero"/></clipPath><g clip-path="url(#p.0)"><path fill="#000000" fill-opacity="0.0" d="m0 0l1198.3517 0l0 455.76904l-1198.3517 0z" fill-rule="evenodd"/><path fill="#ffffff" d="m42.42651 70.31759l395.1496 0l0 311.8425l-395.1496 0z" fill-rule="evenodd"/><path stroke="#999999" stroke-width="4.0" stroke-linejoin="round" stroke-linecap="butt" d="m42.42651 70.31759l395.1496 0l0 311.8425l-395.1496 0z" fill-rule="evenodd"/><path fill="#666666" d="m186.58957 116.437584l0 -3.875l3.859375 0l0 3.875l-3.859375 0zm22.84932 -7.34375l3.34375 0.4375q-0.546875 3.453125 -2.8125 5.40625q-2.25 1.953125 -5.53125 1.953125q-4.109375 0 -6.609375 -2.6875q-2.5 -2.6875 -2.5 -7.71875q0 -3.234375 1.0625 -5.671875q1.078125 -2.4375 3.28125 -3.65625q2.203125 -1.21875 4.78125 -1.21875q3.265625 0 5.34375 1.65625q2.078125 1.65625 2.671875 4.6875l-3.3125 0.515625q-0.46875 -2.03125 -1.671875 -3.046875q-1.203125 -1.015625 -2.890625 -1.015625q-2.578125 0 -4.1875 1.84375q-1.59375 1.828125 -1.59375 5.8125q0 4.046875 1.546875 5.875q1.546875 1.828125 4.046875 1.828125q2.0 0 3.328125 -1.21875q1.34375 -1.234375 1.703125 -3.78125zm4.890625 1.359375l3.359375 -0.53125q0.28125 2.015625 1.578125 3.09375q1.296875 1.078125 3.609375 1.078125q2.34375 0 3.46875 -0.953125q1.140625 -0.953125 1.140625 -2.234375q0 -1.15625 -1.0 -1.8125q-0.703125 -0.453125 -3.46875 -1.15625q-3.734375 -0.9375 -5.1875 -1.625q-1.4375 -0.6875 -2.1875 -1.90625q-0.75 -1.21875 -0.75 -2.6875q0 -1.34375 0.609375 -2.484375q0.625 -1.140625 1.6875 -1.90625q0.78125 -0.578125 2.140625 -0.984375q1.375 -0.40625 2.953125 -0.40625q2.359375 0 4.140625 0.6875q1.78125 0.671875 2.625 1.84375q0.859375 1.15625 1.171875 3.09375l-3.3125 0.453125q-0.234375 -1.546875 -1.328125 -2.40625q-1.078125 -0.875 -3.0625 -0.875q-2.328125 0 -3.328125 0.78125q-1.0 0.765625 -1.0 1.796875q0 0.671875 0.40625 1.1875q0.421875 0.5625 1.296875 0.90625q0.515625 0.203125 3.015625 0.875q3.59375 0.96875 5.015625 1.578125q1.4375 0.609375 2.25 1.78125q0.8125 1.171875 0.8125 2.90625q0 1.703125 -1.0 3.203125q-0.984375 1.5 -2.859375 2.328125q-1.859375 0.8125 -4.21875 0.8125q-3.921875 0 -5.96875 -1.625q-2.046875 -1.625 -2.609375 -4.8125zm20.6875 13.671875l0 -27.734375l3.09375 0l0 2.609375q1.09375 -1.53125 2.46875 -2.296875q1.390625 -0.765625 3.34375 -0.765625q2.578125 0 4.53125 1.328125q1.96875 1.3125 2.96875 3.71875q1.0 2.40625 1.0 5.28125q0 3.078125 -1.109375 5.546875q-1.09375 2.453125 -3.203125 3.765625q-2.109375 1.3125 -4.421875 1.3125q-1.703125 0 -3.0625 -0.71875q-1.34375 -0.71875 -2.203125 -1.8125l0 9.765625l-3.40625 0zm3.078125 -17.59375q0 3.859375 1.5625 5.71875q1.578125 1.84375 3.796875 1.84375q2.265625 0 3.875 -1.90625q1.625 -1.921875 1.625 -5.9375q0 -3.84375 -1.578125 -5.75q-1.578125 -1.90625 -3.765625 -1.90625q-2.171875 0 -3.84375 2.03125q-1.671875 2.03125 -1.671875 5.90625zm18.389389 9.90625l0 -20.046875l3.046875 0l0 3.046875q1.171875 -2.140625 2.15625 -2.8125q1.0 -0.6875 2.1875 -0.6875q1.71875 0 3.5 1.09375l-1.171875 3.15625q-1.25 -0.734375 -2.5 -0.734375q-1.109375 0 -2.0 0.671875q-0.875 0.671875 -1.265625 1.859375q-0.5625 1.8125 -0.5625 3.953125l0 10.5l-3.390625 0zm11.638458 -10.015625q0 -5.578125 3.09375 -8.25q2.59375 -2.234375 6.3125 -2.234375q4.125 0 6.75 2.71875q2.625 2.703125 2.625 7.46875q0 3.875 -1.15625 6.09375q-1.15625 2.21875 -3.375 3.453125q-2.21875 1.21875 -4.84375 1.21875q-4.21875 0 -6.8125 -2.6875q-2.59375 -2.703125 -2.59375 -7.78125zm3.5 0q0 3.84375 1.671875 5.765625q1.6875 1.90625 4.234375 1.90625q2.53125 0 4.203125 -1.921875q1.6875 -1.921875 1.6875 -5.875q0 -3.71875 -1.703125 -5.625q-1.6875 -1.921875 -4.1875 -1.921875q-2.546875 0 -4.234375 1.90625q-1.671875 1.90625 -1.671875 5.765625zm19.248749 -13.703125l0 -3.953125l3.390625 0l0 3.953125l-3.390625 0zm-4.3125 31.5l0.65625 -2.890625q1.015625 0.265625 1.59375 0.265625q1.046875 0 1.546875 -0.6875q0.515625 -0.6875 0.515625 -3.453125l0 -21.0625l3.390625 0l0 21.140625q0 3.703125 -0.953125 5.15625q-1.234375 1.890625 -4.078125 1.890625q-1.375 0 -2.671875 -0.359375z" fill-rule="nonzero"/><path fill="#ffffff" d="m298.5568 190.3202l73.30679 0l14.661713 14.661713l0 107.44853l-87.968506 0z" fill-rule="evenodd"/><path stroke="#999999" stroke-width="4.0" stroke-linejoin="round" stroke-linecap="butt" d="m298.5568 190.3202l73.30679 0l14.661713 14.661713l0 107.44853l-87.968506 0z" fill-rule="evenodd"/><path fill="#666666" d="m316.9596 269.44077l0 -4.0l4.0 0l0 4.0l-4.0 0zm23.644531 -7.59375l3.453125 0.4375q-0.5625 3.578125 -2.90625 5.609375q-2.328125 2.015625 -5.71875 2.015625q-4.265625 0 -6.859375 -2.78125q-2.578125 -2.78125 -2.578125 -7.984375q0 -3.3593903 1.109375 -5.8750153q1.125 -2.515625 3.390625 -3.78125q2.28125 -1.265625 4.953125 -1.265625q3.375 0 5.515625 1.71875q2.15625 1.703125 2.765625 4.84375l-3.421875 0.53125q-0.484375 -2.09375 -1.734375 -3.140625q-1.234375 -1.0625 -2.984375 -1.0625q-2.65625 0 -4.328125 1.90625q-1.65625 1.90625 -1.65625 6.0312653q0 4.171875 1.59375 6.078125q1.609375 1.890625 4.1875 1.890625q2.078125 0 3.453125 -1.265625q1.390625 -1.28125 1.765625 -3.90625zm5.0625 1.40625l3.46875 -0.546875q0.296875 2.078125 1.625 3.203125q1.34375 1.109375 3.75 1.109375q2.421875 0 3.59375 -0.984375q1.171875 -0.984375 1.171875 -2.3125q0 -1.203125 -1.03125 -1.875q-0.71875 -0.46875 -3.59375 -1.203125q-3.875 -0.96875 -5.375 -1.671875q-1.484375 -0.71875 -2.265625 -1.984375q-0.765625 -1.2656403 -0.765625 -2.7812653q0 -1.390625 0.640625 -2.5625q0.640625 -1.1875 1.734375 -1.96875q0.8125 -0.609375 2.21875 -1.03125q1.421875 -0.421875 3.046875 -0.421875q2.4375 0 4.28125 0.703125q1.859375 0.703125 2.734375 1.90625q0.875 1.203125 1.203125 3.21875l-3.4375 0.46875q-0.234375 -1.609375 -1.359375 -2.5q-1.109375 -0.90625 -3.171875 -0.90625q-2.421875 0 -3.453125 0.8125q-1.03125 0.796875 -1.03125 1.875q0 0.671875 0.421875 1.21875q0.4375 0.578125 1.359375 0.9375q0.515625 0.20314026 3.09375 0.90626526q3.734375 1.0 5.203125 1.640625q1.484375 0.625 2.3125 1.84375q0.84375 1.203125 0.84375 3.0q0 1.75 -1.03125 3.3125q-1.015625 1.546875 -2.953125 2.40625q-1.921875 0.84375 -4.375 0.84375q-4.03125 0 -6.15625 -1.671875q-2.125 -1.6875 -2.703125 -4.984375z" fill-rule="nonzero"/><path fill="#ffffff" d="m196.0179 190.3202l73.30681 0l14.661682 14.661713l0 107.44853l-87.96849 0z" fill-rule="evenodd"/><path stroke="#999999" stroke-width="4.0" stroke-linejoin="round" stroke-linecap="butt" d="m196.0179 190.3202l73.30681 0l14.661682 14.661713l0 107.44853l-87.96849 0z" fill-rule="evenodd"/><path fill="#666666" d="m214.4207 269.44077l0 -4.0l4.0 0l0 4.0l-4.0 0zm23.644531 -7.59375l3.453125 0.4375q-0.5625 3.578125 -2.90625 5.609375q-2.328125 2.015625 -5.71875 2.015625q-4.265625 0 -6.859375 -2.78125q-2.578125 -2.78125 -2.578125 -7.984375q0 -3.3593903 1.109375 -5.8750153q1.125 -2.515625 3.390625 -3.78125q2.28125 -1.265625 4.953125 -1.265625q3.375 0 5.515625 1.71875q2.15625 1.703125 2.765625 4.84375l-3.421875 0.53125q-0.484375 -2.09375 -1.734375 -3.140625q-1.234375 -1.0625 -2.984375 -1.0625q-2.65625 0 -4.328125 1.90625q-1.65625 1.90625 -1.65625 6.0312653q0 4.171875 1.59375 6.078125q1.609375 1.890625 4.1875 1.890625q2.078125 0 3.453125 -1.265625q1.390625 -1.28125 1.765625 -3.90625zm5.0625 1.40625l3.46875 -0.546875q0.296875 2.078125 1.625 3.203125q1.34375 1.109375 3.75 1.109375q2.421875 0 3.59375 -0.984375q1.1718903 -0.984375 1.1718903 -2.3125q0 -1.203125 -1.0312653 -1.875q-0.71875 -0.46875 -3.59375 -1.203125q-3.875 -0.96875 -5.375 -1.671875q-1.484375 -0.71875 -2.265625 -1.984375q-0.765625 -1.2656403 -0.765625 -2.7812653q0 -1.390625 0.640625 -2.5625q0.640625 -1.1875 1.734375 -1.96875q0.8125 -0.609375 2.21875 -1.03125q1.421875 -0.421875 3.046875 -0.421875q2.4375 0 4.28125 0.703125q1.8593903 0.703125 2.7343903 1.90625q0.875 1.203125 1.203125 3.21875l-3.4375 0.46875q-0.23439026 -1.609375 -1.3593903 -2.5q-1.109375 -0.90625 -3.171875 -0.90625q-2.421875 0 -3.453125 0.8125q-1.03125 0.796875 -1.03125 1.875q0 0.671875 0.421875 1.21875q0.4375 0.578125 1.359375 0.9375q0.515625 0.20314026 3.09375 0.90626526q3.734375 1.0 5.2031403 1.640625q1.484375 0.625 2.3125 1.84375q0.84375 1.203125 0.84375 3.0q0 1.75 -1.03125 3.3125q-1.015625 1.546875 -2.953125 2.40625q-1.9218903 0.84375 -4.3750153 0.84375q-4.03125 0 -6.15625 -1.671875q-2.125 -1.6875 -2.703125 -4.984375z" fill-rule="nonzero"/><path fill="#ffffff" d="m93.479004 190.3202l73.30679 0l14.661713 14.661713l0 107.44853l-87.968506 0z" fill-rule="evenodd"/><path stroke="#999999" stroke-width="4.0" stroke-linejoin="round" stroke-linecap="butt" d="m93.479004 190.3202l73.30679 0l14.661713 14.661713l0 107.44853l-87.968506 0z" fill-rule="evenodd"/><path fill="#666666" d="m111.88181 269.44077l0 -4.0l4.0 0l0 4.0l-4.0 0zm23.644524 -7.59375l3.453125 0.4375q-0.5625 3.578125 -2.90625 5.609375q-2.328125 2.015625 -5.71875 2.015625q-4.2656174 0 -6.8593674 -2.78125q-2.578125 -2.78125 -2.578125 -7.984375q0 -3.3593903 1.109375 -5.8750153q1.125 -2.515625 3.390625 -3.78125q2.28125 -1.265625 4.9531174 -1.265625q3.375 0 5.515625 1.71875q2.15625 1.703125 2.765625 4.84375l-3.421875 0.53125q-0.484375 -2.09375 -1.734375 -3.140625q-1.234375 -1.0625 -2.984375 -1.0625q-2.6562424 0 -4.3281174 1.90625q-1.65625 1.90625 -1.65625 6.0312653q0 4.171875 1.59375 6.078125q1.609375 1.890625 4.1874924 1.890625q2.078125 0 3.453125 -1.265625q1.390625 -1.28125 1.765625 -3.90625zm5.0625 1.40625l3.46875 -0.546875q0.296875 2.078125 1.625 3.203125q1.34375 1.109375 3.75 1.109375q2.421875 0 3.59375 -0.984375q1.171875 -0.984375 1.171875 -2.3125q0 -1.203125 -1.03125 -1.875q-0.71875 -0.46875 -3.59375 -1.203125q-3.875 -0.96875 -5.375 -1.671875q-1.484375 -0.71875 -2.265625 -1.984375q-0.765625 -1.2656403 -0.765625 -2.7812653q0 -1.390625 0.640625 -2.5625q0.640625 -1.1875 1.734375 -1.96875q0.8125 -0.609375 2.21875 -1.03125q1.421875 -0.421875 3.046875 -0.421875q2.4375 0 4.28125 0.703125q1.859375 0.703125 2.734375 1.90625q0.875 1.203125 1.203125 3.21875l-3.4375 0.46875q-0.234375 -1.609375 -1.359375 -2.5q-1.109375 -0.90625 -3.171875 -0.90625q-2.421875 0 -3.453125 0.8125q-1.03125 0.796875 -1.03125 1.875q0 0.671875 0.421875 1.21875q0.4375 0.578125 1.359375 0.9375q0.515625 0.20314026 3.09375 0.90626526q3.734375 1.0 5.203125 1.640625q1.484375 0.625 2.3125 1.84375q0.84375 1.203125 0.84375 3.0q0 1.75 -1.03125 3.3125q-1.015625 1.546875 -2.953125 2.40625q-1.921875 0.84375 -4.375 0.84375q-4.03125 0 -6.15625 -1.671875q-2.125 -1.6875 -2.703125 -4.984375z" fill-rule="nonzero"/><path fill="#ffffff" d="m520.1102 115.35696l133.14911 0l26.630432 26.630455l0 195.13332l-159.77954 0z" fill-rule="evenodd"/><path stroke="#cc0000" stroke-width="4.0" stroke-linejoin="round" stroke-linecap="butt" d="m520.1102 115.35696l133.14911 0l26.630432 26.630455l0 195.13332l-159.77954 0z" fill-rule="evenodd"/><path fill="#666666" d="m571.4166 221.29646l0 -4.0l4.0 0l0 4.0l-4.0 0zm23.566406 0l0 -2.625q-1.96875 3.09375 -5.796875 3.09375q-2.484375 0 -4.5625 -1.359375q-2.078125 -1.375 -3.21875 -3.828125q-1.140625 -2.453125 -1.140625 -5.640625q0 -3.09375 1.03125 -5.625q1.03125 -2.53125 3.09375 -3.875q2.078125 -1.359375 4.640625 -1.359375q1.875 0 3.328125 0.796875q1.46875 0.796875 2.390625 2.0625l0 -10.28125l3.5 0l0 28.640625l-3.265625 0zm-11.109375 -10.359375q0 3.984375 1.671875 5.96875q1.6875 1.96875 3.96875 1.96875q2.3125 0 3.921875 -1.875q1.609375 -1.890625 1.609375 -5.765625q0 -4.25 -1.640625 -6.234375q-1.640625 -2.0 -4.046875 -2.0q-2.34375 0 -3.921875 1.921875q-1.5625 1.90625 -1.5625 6.015625zm19.824219 10.359375l0 -28.640625l3.515625 0l0 28.640625l-3.515625 0zm8.886719 0l0 -28.640625l3.515625 0l0 28.640625l-3.515625 0z" fill-rule="nonzero"/><path fill="#666666" d="m537.3306 251.37645l0 -15.265625l2.03125 0l0 15.265625l-2.03125 0zm5.503784 0l0 -15.265625l2.015625 0l0 13.46875l7.515625 0l0 1.796875l-9.53125 0zm15.283569 4.484375q-1.546875 -1.953125 -2.625 -4.578125q-1.0625 -2.625 -1.0625 -5.4375q0 -2.484375 0.796875 -4.75q0.9375 -2.625 2.890625 -5.25l1.34375 0q-1.25 2.171875 -1.65625 3.09375q-0.640625 1.4375 -1.0 3.0q-0.453125 1.953125 -0.453125 3.921875q0 5.0 3.109375 10.0l-1.34375 0z" fill-rule="nonzero"/><path fill="#666666" d="m569.8298 245.39207l0 -5.34375l-5.328125 0l0 5.34375l5.328125 0zm0 -10.671875l1.5625 0q0.65625 0.078125 0.078125 0.5l0 3.28125l7.140625 0l0 9.015625l-1.640625 0l0 -0.578125l-5.5 0l0 6.15625l-1.640625 0l0 -6.15625l-5.328125 0l0 1.078125l-1.640625 0l0 -9.515625l6.96875 0l0 -3.78125zm7.140625 10.671875l0 -5.34375l-5.5 0l0 5.34375l5.5 0zm21.25 6.0625q0.328125 0 0.328125 -0.328125l0 -9.4375l-2.953125 0l-2.953125 0l0 -6.5625l7.546875 0l0 16.578125q0 1.3125 -1.3125 1.3125l-1.640625 0l-0.171875 -1.5625l1.15625 0zm-4.34375 -3.9375l-4.359375 0l0 1.640625l4.359375 0l0 -1.640625zm0 -3.109375l-4.359375 0l0 1.796875l4.359375 0l0 -1.796875zm1.640625 -1.3125l0 8.03125l-1.640625 0l0 -0.65625l-4.359375 0l0 1.3125l-1.640625 0l0 -8.6875l7.640625 0zm3.03125 -5.34375l0 -1.3125l-4.265625 0l0 1.3125l4.265625 0zm0 1.3125l-4.265625 0l0 1.3125l4.265625 0l0 -1.3125zm-9.6875 0l-4.171875 0l0 1.3125l4.171875 0l0 -1.3125zm0 -1.3125l0 -1.3125l-4.171875 0l0 1.3125l4.171875 0zm1.640625 3.9375l-5.8125 0l0 11.40625l-1.640625 0l0 -17.96875l7.453125 0l0 6.5625zm16.5 -5.25l0 -1.546875l11.3125 0l0 1.546875l-11.3125 0zm14.765625 1.40625l0 1.546875l-18.21875 0l0 -1.546875l18.21875 0zm-3.453125 2.953125l0 1.546875l-11.3125 0l0 -1.546875l11.3125 0zm0 2.953125l0 1.546875l-11.3125 0l0 -1.546875l11.3125 0zm0.828125 2.859375l0 6.40625l-1.890625 0l0 -0.90625l-9.265625 0l0 1.234375l-1.890625 0l0 -6.734375l13.046875 0zm-1.890625 1.5625l-9.265625 0l0 2.375l9.265625 0l0 -2.375zm7.140625 -10.25l7.125 0l0 1.5625l-7.125 0l0 -1.5625zm7.875 -1.390625l0 -1.3125l10.25 0l0 1.3125l-5.09375 0l-0.40625 2.296875l3.78125 0l-0.171875 4.171875l2.46875 0l0 1.3125l-11.40625 0l0 -1.3125l2.875 0l0.65625 -2.859375l-2.390625 0l0 -1.3125l2.625 0l0.421875 -2.296875l-3.609375 0zm-6.8125 0l0 -1.5625l5.0 0l0 1.5625l-5.0 0zm0 5.90625l0 -1.5625l5.0 0l0 1.5625l-5.0 0zm0 2.859375l0 -1.546875l5.0 0l0 1.546875l-5.0 0zm-0.328125 8.125l0 -6.71875l5.734375 0l0 6.3125l-1.390625 0l0 -0.578125l-2.953125 0l0 0.984375l-1.390625 0zm1.390625 -2.296875l2.953125 0l0 -3.109375l-2.953125 0l0 3.109375zm6.640625 2.140625l0 -7.46875l8.625 0l0 7.390625l-1.640625 0l0 -0.828125l-5.34375 0l0 0.90625l-1.640625 0zm6.984375 -2.46875l0 -3.4375l-5.34375 0l0 3.4375l5.34375 0zm-3.9375 -7.796875l2.859375 0l0.171875 -2.859375l-2.46875 0l-0.5625 2.859375z" fill-rule="nonzero"/><path fill="#666666" d="m646.87665 255.86082l-1.34375 0q3.109436 -5.0 3.109436 -10.0q0 -1.96875 -0.453125 -3.890625q-0.34381104 -1.5625 -0.98443604 -3.0q-0.40625 -0.9375 -1.671875 -3.125l1.34375 0q1.953186 2.625 2.890686 5.25q0.796875 2.265625 0.796875 4.75q0 2.8125 -1.078125 5.4375q-1.078125 2.625 -2.609436 4.578125z" fill-rule="nonzero"/><path fill="#666666" d="m573.17053 265.81396q-1.40625 8.203125 -3.375 10.171875q-1.0625 1.0625 -2.203125 1.0625q-1.3125 0 -2.0625 -0.734375q-1.96875 -1.96875 -1.96875 -4.921875q0 -3.609375 2.546875 -6.15625q2.796875 -2.796875 6.8125 -2.796875q3.609375 0 5.65625 2.0625q2.296875 2.296875 2.296875 5.40625q0 3.359375 -2.125 5.5q-1.40625 1.390625 -4.265625 2.703125l-1.734375 -1.71875q2.875 -0.90625 4.515625 -2.546875q1.5625 -1.5625 1.5625 -3.765625q0 -2.625 -1.71875 -4.359375q-1.734375 -1.71875 -5.421875 -1.546875l1.484375 0.734375q0.984375 0.40625 0 0.90625zm-1.890625 -1.5625q-2.140625 0.484375 -3.6875 2.046875q-2.140625 2.140625 -2.140625 5.25q0 1.890625 1.234375 3.125q0.25 0.234375 0.734375 0.234375q0.5 0 1.0625 -0.5625q1.890625 -1.890625 2.796875 -10.09375zm30.515625 14.515625q-4.59375 -2.875 -5.828125 -8.125q-0.40625 5.671875 -5.078125 8.375l-0.90625 -1.71875q4.671875 -2.546875 4.671875 -9.609375l-4.265625 0l0 -1.546875l4.34375 0l0 -5.578125l1.5625 0q0.65625 0.078125 0.078125 0.484375l0 5.09375l5.828125 0l0 1.546875l-5.40625 0q0.8125 6.15625 5.90625 9.03125l-0.90625 2.046875zm-17.796875 -6.5625q2.625 -1.234375 4.015625 -2.21875l0 -9.34375l1.5625 0q0.65625 0.078125 0.078125 0.484375l0 17.890625l-1.640625 0l0 -7.140625l-2.953125 1.96875q-0.078125 0.578125 -0.40625 0.25l-0.65625 -1.890625zm1.796875 -3.4375q-0.484375 -1.96875 -1.5625 -3.9375l1.640625 -0.65625q1.078125 1.71875 1.640625 4.015625l-1.71875 0.578125zm12.875 -7.140625q1.640625 0.90625 2.296875 2.21875l-1.3125 1.3125q-0.8125 -1.3125 -2.203125 -2.296875l1.21875 -1.234375zm12.3125 0.578125l0.984375 -0.75q1.796875 1.234375 2.953125 2.546875l-1.15625 0.984375l-0.734375 -0.734375l-7.046875 0.578125q-0.09375 0.5625 -0.421875 0.234375l-0.40625 -1.640625l1.8125 0l1.640625 -3.109375l1.546875 0.40625q0.328125 0.328125 -0.234375 0.40625l-1.484375 2.21875l3.609375 -0.15625l-1.0625 -0.984375zm2.453125 3.4375l0 6.640625q0 1.234375 -0.890625 1.234375l-1.734375 0l-0.328125 -1.3125l1.234375 0q0.328125 0 0.328125 -0.328125l0 -1.0625l-4.015625 0l0 2.703125l-1.390625 0l0 -7.875l6.796875 0zm7.21875 8.375q1.484375 1.0625 2.875 3.109375l-1.5625 1.078125q-1.0625 -1.890625 -2.625 -3.296875l1.3125 -0.890625zm-3.765625 -4.84375q2.453125 -0.65625 4.671875 -1.484375l0.90625 1.234375q0.078125 0.578125 -0.5 0.25q-2.453125 0.734375 -5.078125 1.234375l0 1.0625q0 0.578125 0.578125 0.578125l3.515625 0q0.75 0 0.828125 -1.5625l1.46875 0.484375q-0.234375 2.390625 -1.640625 2.390625l-4.671875 0q-1.46875 0 -1.46875 -1.484375l0 -4.59375l1.3125 0q0.65625 0.078125 0.078125 0.5l0 1.390625zm-1.390625 -8.703125l1.3125 0q0.65625 0.09375 0.078125 0.5l0 1.640625q2.125 -0.5 4.09375 -1.234375l0.90625 1.234375q0.078125 0.578125 -0.484375 0.25q-2.140625 0.65625 -4.515625 1.0625l0 0.90625q0 0.5625 0.578125 0.5625l3.28125 0q0.484375 0 0.5625 -0.40625l0.171875 -1.0625l1.46875 0.484375l-0.328125 1.078125q-0.40625 1.21875 -1.3125 1.21875l-4.34375 0q-1.46875 0 -1.46875 -1.46875l0 -4.765625zm-3.453125 6.15625l-4.015625 0l0 1.15625l4.015625 0l0 -1.15625zm0 2.140625l-4.015625 0l0 1.0625l4.015625 0l0 -1.0625zm2.21875 4.671875q1.140625 1.0625 1.71875 2.046875l-1.3125 0.984375q-0.65625 -1.234375 -1.640625 -2.125l1.234375 -0.90625zm-2.703125 0.65625q0.65625 0.078125 0.078125 0.484375l0 2.140625q0 0.65625 0.578125 0.65625l4.671875 0q1.140625 0 1.234375 -1.640625l1.640625 0.484375q-0.578125 2.71875 -2.21875 2.71875l-6.078125 0q-1.46875 0 -1.46875 -1.390625l0 -3.453125l1.5625 0zm-6.15625 3.453125q1.140625 -1.328125 1.96875 -3.125l1.390625 0.734375q0.65625 0.40625 -0.15625 0.578125q-0.75 1.5625 -1.890625 2.875l-1.3125 -1.0625z" fill-rule="nonzero"/><path fill="#ffffff" d="m762.4239 70.31759l395.1496 0l0 311.8425l-395.1496 0z" fill-rule="evenodd"/><path stroke="#999999" stroke-width="4.0" stroke-linejoin="round" stroke-linecap="butt" d="m762.4239 70.31759l395.1496 0l0 311.8425l-395.1496 0z" fill-rule="evenodd"/><path fill="#666666" d="m786.77466 116.437584l0 -27.671875l3.765625 0l14.53125 21.71875l0 -21.71875l3.515625 0l0 27.671875l-3.765625 0l-14.53125 -21.75l0 21.75l-3.515625 0zm40.60382 -2.46875q-1.890625 1.59375 -3.640625 2.265625q-1.734375 0.65625 -3.734375 0.65625q-3.3125 0 -5.09375 -1.609375q-1.765625 -1.625 -1.765625 -4.125q0 -1.46875 0.671875 -2.6875q0.671875 -1.21875 1.75 -1.953125q1.09375 -0.75 2.453125 -1.125q1.0 -0.265625 3.015625 -0.5q4.125 -0.5 6.0625 -1.171875q0.015625 -0.703125 0.015625 -0.890625q0 -2.078125 -0.953125 -2.921875q-1.3125 -1.15625 -3.875 -1.15625q-2.390625 0 -3.546875 0.84375q-1.140625 0.84375 -1.6875 2.96875l-3.3125 -0.453125q0.453125 -2.125 1.484375 -3.4375q1.046875 -1.3125 3.0 -2.015625q1.96875 -0.71875 4.546875 -0.71875q2.578125 0 4.171875 0.609375q1.609375 0.59375 2.359375 1.515625q0.765625 0.921875 1.0625 2.3125q0.171875 0.875 0.171875 3.140625l0 4.515625q0 4.75 0.21875 6.0q0.21875 1.25 0.859375 2.40625l-3.546875 0q-0.53125 -1.0625 -0.6875 -2.46875zm-0.28125 -7.59375q-1.84375 0.75 -5.546875 1.28125q-2.09375 0.3125 -2.96875 0.6875q-0.859375 0.375 -1.34375 1.109375q-0.46875 0.71875 -0.46875 1.609375q0 1.359375 1.03125 2.265625q1.03125 0.90625 3.015625 0.90625q1.953125 0 3.484375 -0.859375q1.53125 -0.859375 2.25 -2.359375q0.546875 -1.140625 0.546875 -3.390625l0 -1.25zm16.12378 7.03125l0.484375 3.0q-1.4375 0.296875 -2.5625 0.296875q-1.84375 0 -2.875 -0.578125q-1.015625 -0.59375 -1.4375 -1.546875q-0.40625 -0.953125 -0.40625 -4.015625l0 -11.53125l-2.5 0l0 -2.640625l2.5 0l0 -4.96875l3.375 -2.03125l0 7.0l3.421875 0l0 2.640625l-3.421875 0l0 11.71875q0 1.453125 0.171875 1.875q0.1875 0.421875 0.59375 0.671875q0.40625 0.234375 1.15625 0.234375q0.578125 0 1.5 -0.125zm3.3336792 -20.734375l0 -3.90625l3.40625 0l0 3.90625l-3.40625 0zm0 23.765625l0 -20.046875l3.40625 0l0 20.046875l-3.40625 0zm14.135071 0l-7.625 -20.046875l3.59375 0l4.296875 12.0q0.703125 1.953125 1.296875 4.046875q0.4375 -1.59375 1.25 -3.8125l4.46875 -12.234375l3.484375 0l-7.59375 20.046875l-3.171875 0zm27.484375 -6.453125l3.515625 0.4375q-0.828125 3.078125 -3.078125 4.78125q-2.25 1.6875 -5.734375 1.6875q-4.40625 0 -6.984375 -2.703125q-2.5625 -2.71875 -2.5625 -7.609375q0 -5.046875 2.59375 -7.84375q2.609375 -2.796875 6.765625 -2.796875q4.015625 0 6.5625 2.734375q2.546875 2.734375 2.546875 7.703125q0 0.296875 -0.015625 0.90625l-14.953125 0q0.1875 3.3125 1.859375 5.0625q1.6875 1.75 4.203125 1.75q1.875 0 3.1875 -0.96875q1.328125 -0.984375 2.09375 -3.140625zm-11.15625 -5.5l11.203125 0q-0.234375 -2.53125 -1.28125 -3.78125q-1.625 -1.96875 -4.21875 -1.96875q-2.34375 0 -3.9375 1.5625q-1.59375 1.5625 -1.765625 4.1875zm19.420593 11.953125l0 -27.671875l12.28125 0q3.6875 0 5.609375 0.75q1.9375 0.734375 3.078125 2.625q1.15625 1.890625 1.15625 4.171875q0 2.953125 -1.90625 4.96875q-1.90625 2.015625 -5.890625 2.5625q1.453125 0.703125 2.21875 1.375q1.59375 1.484375 3.03125 3.6875l4.8125 7.53125l-4.609375 0l-3.65625 -5.75q-1.609375 -2.5 -2.640625 -3.8125q-1.03125 -1.328125 -1.859375 -1.859375q-0.828125 -0.53125 -1.671875 -0.734375q-0.625 -0.125 -2.03125 -0.125l-4.25 0l0 12.28125l-3.671875 0zm3.671875 -15.453125l7.875 0q2.5 0 3.90625 -0.515625q1.421875 -0.53125 2.15625 -1.671875q0.75 -1.140625 0.75 -2.484375q0 -1.953125 -1.4375 -3.21875q-1.421875 -1.265625 -4.5 -1.265625l-8.75 0l0 9.15625zm36.900696 15.453125l0 -2.9375q-2.34375 3.390625 -6.359375 3.390625q-1.78125 0 -3.328125 -0.671875q-1.53125 -0.6875 -2.28125 -1.71875q-0.734375 -1.03125 -1.03125 -2.515625q-0.21875 -1.0 -0.21875 -3.171875l0 -12.421875l3.40625 0l0 11.125q0 2.65625 0.203125 3.578125q0.328125 1.34375 1.359375 2.109375q1.03125 0.765625 2.5625 0.765625q1.53125 0 2.875 -0.78125q1.34375 -0.796875 1.890625 -2.140625q0.5625 -1.34375 0.5625 -3.921875l0 -10.734375l3.390625 0l0 20.046875l-3.03125 0zm8.358154 0l0 -20.046875l3.0625 0l0 2.859375q2.203125 -3.3125 6.375 -3.3125q1.8125 0 3.328125 0.65625q1.53125 0.640625 2.28125 1.703125q0.75 1.0625 1.0625 2.515625q0.1875 0.9375 0.1875 3.296875l0 12.328125l-3.40625 0l0 -12.1875q0 -2.078125 -0.40625 -3.109375q-0.390625 -1.03125 -1.40625 -1.640625q-1.0 -0.609375 -2.359375 -0.609375q-2.171875 0 -3.75 1.375q-1.5625 1.375 -1.5625 5.21875l0 10.953125l-3.40625 0zm28.920654 -3.03125l0.484375 3.0q-1.4375 0.296875 -2.5625 0.296875q-1.84375 0 -2.875 -0.578125q-1.015625 -0.59375 -1.4375 -1.546875q-0.40625 -0.953125 -0.40625 -4.015625l0 -11.53125l-2.5 0l0 -2.640625l2.5 0l0 -4.96875l3.375 -2.03125l0 7.0l3.421875 0l0 2.640625l-3.421875 0l0 11.71875q0 1.453125 0.171875 1.875q0.1875 0.421875 0.59375 0.671875q0.40625 0.234375 1.15625 0.234375q0.578125 0 1.5 -0.125zm3.3336792 -20.734375l0 -3.90625l3.40625 0l0 3.90625l-3.40625 0zm0 23.765625l0 -20.046875l3.40625 0l0 20.046875l-3.40625 0zm8.572571 0l0 -20.046875l3.046875 0l0 2.8125q0.9375 -1.46875 2.5 -2.359375q1.578125 -0.90625 3.578125 -0.90625q2.21875 0 3.640625 0.921875q1.4375 0.921875 2.015625 2.59375q2.375 -3.515625 6.1875 -3.515625q2.984375 0 4.578125 1.65625q1.609375 1.65625 1.609375 5.078125l0 13.765625l-3.375 0l0 -12.625q0 -2.046875 -0.328125 -2.9375q-0.328125 -0.890625 -1.203125 -1.4375q-0.859375 -0.546875 -2.03125 -0.546875q-2.109375 0 -3.515625 1.40625q-1.390625 1.40625 -1.390625 4.5l0 11.640625l-3.40625 0l0 -13.03125q0 -2.25 -0.828125 -3.375q-0.828125 -1.140625 -2.71875 -1.140625q-1.4375 0 -2.65625 0.75q-1.203125 0.75 -1.75 2.203125q-0.546875 1.453125 -0.546875 4.1875l0 10.40625l-3.40625 0zm45.919617 -6.453125l3.515625 0.4375q-0.828125 3.078125 -3.078125 4.78125q-2.25 1.6875 -5.734375 1.6875q-4.406189 0 -6.984314 -2.703125q-2.5625 -2.71875 -2.5625 -7.609375q0 -5.046875 2.59375 -7.84375q2.609375 -2.796875 6.765564 -2.796875q4.015625 0 6.5625 2.734375q2.546875 2.734375 2.546875 7.703125q0 0.296875 -0.015625 0.90625l-14.953064 0q0.1875 3.3125 1.859375 5.0625q1.687439 1.75 4.203064 1.75q1.875 0 3.1875 -0.96875q1.328125 -0.984375 2.09375 -3.140625zm-11.156189 -5.5l11.203064 0q-0.234375 -2.53125 -1.28125 -3.78125q-1.625 -1.96875 -4.21875 -1.96875q-2.34375 0 -3.937439 1.5625q-1.59375 1.5625 -1.765625 4.1875zm25.436218 20.09375q-2.8125 -3.546875 -4.765625 -8.296875q-1.9375 -4.765625 -1.9375 -9.859375q0 -4.5 1.453125 -8.609375q1.703125 -4.78125 5.25 -9.515625l2.421875 0q-2.28125 3.921875 -3.015625 5.609375q-1.15625 2.59375 -1.8125 5.4375q-0.8125 3.515625 -0.8125 7.09375q0 9.078125 5.640625 18.140625l-2.421875 0zm26.544678 -17.84375l3.671875 0.921875q-1.15625 4.515625 -4.15625 6.890625q-2.984375 2.359375 -7.296875 2.359375q-4.484375 0 -7.296875 -1.8125q-2.796875 -1.828125 -4.265625 -5.28125q-1.453125 -3.453125 -1.453125 -7.421875q0 -4.3125 1.65625 -7.53125q1.65625 -3.21875 4.703125 -4.890625q3.046875 -1.671875 6.703125 -1.671875q4.15625 0 6.984375 2.109375q2.828125 2.109375 3.953125 5.953125l-3.609375 0.84375q-0.96875 -3.015625 -2.796875 -4.390625q-1.828125 -1.390625 -4.609375 -1.390625q-3.1875 0 -5.328125 1.53125q-2.140625 1.53125 -3.015625 4.109375q-0.859375 2.578125 -0.859375 5.3125q0 3.53125 1.015625 6.171875q1.03125 2.625 3.203125 3.9375q2.171875 1.296875 4.703125 1.296875q3.078125 0 5.203125 -1.765625q2.140625 -1.78125 2.890625 -5.28125zm14.885132 5.234375l0 -7.59375l-7.53125 0l0 -3.171875l7.53125 0l0 -7.53125l3.203125 0l0 7.53125l7.53125 0l0 3.171875l-7.53125 0l0 7.59375l-3.203125 0zm22.574585 0l0 -7.59375l-7.53125 0l0 -3.171875l7.53125 0l0 -7.53125l3.203125 0l0 7.53125l7.53125 0l0 3.171875l-7.53125 0l0 7.59375l-3.203125 0zm17.668457 12.609375l-2.4375 0q5.640625 -9.0625 5.640625 -18.140625q0 -3.546875 -0.8125 -7.046875q-0.640625 -2.828125 -1.796875 -5.4375q-0.734375 -1.6875 -3.03125 -5.65625l2.4375 0q3.546875 4.734375 5.234375 9.515625q1.453125 4.109375 1.453125 8.609375q0 5.09375 -1.953125 9.859375q-1.953125 4.75 -4.734375 8.296875z" fill-rule="nonzero"/><path fill="#ffffff" d="m791.7231 146.28871l203.1496 0l0 210.17323l-203.1496 0z" fill-rule="evenodd"/><path stroke="#999999" stroke-width="4.0" stroke-linejoin="round" stroke-linecap="butt" d="m791.7231 146.28871l203.1496 0l0 210.17323l-203.1496 0z" fill-rule="evenodd"/><path fill="#666666" d="m818.50397 192.4087l0 -20.046875l3.046875 0l0 2.8125q0.9375 -1.46875 2.5 -2.359375q1.578125 -0.90625 3.578125 -0.90625q2.21875 0 3.640625 0.921875q1.4375 0.921875 2.015625 2.59375q2.375 -3.515625 6.1875 -3.515625q2.984375 0 4.578125 1.65625q1.609375 1.65625 1.609375 5.078125l0 13.765625l-3.375 0l0 -12.625q0 -2.046875 -0.328125 -2.9375q-0.328125 -0.890625 -1.203125 -1.4375q-0.859375 -0.546875 -2.03125 -0.546875q-2.109375 0 -3.515625 1.40625q-1.390625 1.40625 -1.390625 4.5l0 11.640625l-3.40625 0l0 -13.03125q0 -2.25 -0.828125 -3.375q-0.828125 -1.140625 -2.71875 -1.140625q-1.4375 0 -2.65625 0.75q-1.203125 0.75 -1.75 2.203125q-0.546875 1.453125 -0.546875 4.1875l0 10.40625l-3.40625 0zm30.935303 -10.015625q0 -5.578125 3.09375 -8.25q2.59375 -2.234375 6.3125 -2.234375q4.125 0 6.75 2.71875q2.625 2.703125 2.625 7.46875q0 3.875 -1.15625 6.09375q-1.15625 2.21875 -3.375 3.453125q-2.21875 1.21875 -4.84375 1.21875q-4.21875 0 -6.8125 -2.6875q-2.59375 -2.703125 -2.59375 -7.78125zm3.5 0q0 3.84375 1.671875 5.765625q1.6875 1.90625 4.234375 1.90625q2.53125 0 4.203125 -1.921875q1.6875 -1.921875 1.6875 -5.875q0 -3.71875 -1.703125 -5.625q-1.6875 -1.921875 -4.1875 -1.921875q-2.546875 0 -4.234375 1.90625q-1.671875 1.90625 -1.671875 5.765625zm19.264404 10.015625l0 -20.046875l3.0625 0l0 2.859375q2.203125 -3.3125 6.375 -3.3125q1.8125 0 3.328125 0.65625q1.53125 0.640625 2.28125 1.703125q0.75 1.0625 1.0625 2.515625q0.1875 0.9375 0.1875 3.296875l0 12.328125l-3.40625 0l0 -12.1875q0 -2.078125 -0.40625 -3.109375q-0.390625 -1.03125 -1.40625 -1.640625q-1.0 -0.609375 -2.359375 -0.609375q-2.171875 0 -3.75 1.375q-1.5625 1.375 -1.5625 5.21875l0 10.953125l-3.40625 0zm20.233154 -10.015625q0 -5.578125 3.09375 -8.25q2.59375 -2.234375 6.3125 -2.234375q4.125 0 6.75 2.71875q2.625 2.703125 2.625 7.46875q0 3.875 -1.15625 6.09375q-1.15625 2.21875 -3.375 3.453125q-2.21875 1.21875 -4.84375 1.21875q-4.21875 0 -6.8125 -2.6875q-2.59375 -2.703125 -2.59375 -7.78125zm3.5 0q0 3.84375 1.671875 5.765625q1.6875 1.90625 4.234375 1.90625q2.53125 0 4.203125 -1.921875q1.6875 -1.921875 1.6875 -5.875q0 -3.71875 -1.703125 -5.625q-1.6875 -1.921875 -4.1875 -1.921875q-2.546875 0 -4.234375 1.90625q-1.671875 1.90625 -1.671875 5.765625zm27.608154 10.015625l-10.71875 -27.671875l3.96875 0l7.1875 20.109375q0.859375 2.40625 1.453125 4.53125q0.640625 -2.265625 1.484375 -4.53125l7.484375 -20.109375l3.734375 0l-10.84375 27.671875l-3.75 0zm17.767761 0l0 -27.671875l5.5 0l6.5625 19.59375q0.90625 2.734375 1.3125 4.09375q0.46875 -1.515625 1.46875 -4.4375l6.625 -19.25l4.9375 0l0 27.671875l-3.53125 0l0 -23.15625l-8.046875 23.15625l-3.296875 0l-8.0 -23.5625l0 23.5625l-3.53125 0z" fill-rule="nonzero"/><path fill="#666666" d="m826.12213 240.42621l1.703125 -0.234375q0.078125 1.640625 0.625 2.25q0.546875 0.59375 1.515625 0.59375q0.703125 0 1.21875 -0.3125q0.515625 -0.328125 0.703125 -0.890625q0.203125 -0.5625 0.203125 -1.796875l0 -9.859375l1.90625 0l0 9.75q0 1.796875 -0.4375 2.78125q-0.4375 0.984375 -1.390625 1.515625q-0.9375 0.515625 -2.203125 0.515625q-1.875 0 -2.890625 -1.078125q-1.0 -1.09375 -0.953125 -3.234375zm11.28125 4.0625l0 -14.3125l1.90625 0l0 14.3125l-1.90625 0zm8.884766 0l0 -12.625l-4.71875 0l0 -1.6875l11.34375 0l0 1.6875l-4.734375 0l0 12.625l-1.890625 0z" fill-rule="nonzero"/><path fill="#666666" d="m865.3487 234.41058l-10.859375 0l0 -1.71875l12.65625 0l0 11.171875l-1.796875 0l0 -0.859375l-10.859375 0l0 -1.71875l10.859375 0l0 -6.875zm20.15625 1.015625q-4.140625 8.59375 -13.90625 9.0625q-0.390625 1.015625 -0.78125 0.15625l-0.625 -2.03125q10.15625 -0.234375 13.671875 -8.359375l1.640625 1.171875zm-11.015625 0q-2.109375 -1.953125 -3.984375 -3.203125l1.328125 -1.640625q1.640625 1.015625 4.140625 3.359375l-1.484375 1.484375zm28.59375 -2.734375q-0.9375 0 -1.5625 -0.625q-0.625 -0.625 -0.625 -1.5625q0 -0.9375 0.625 -1.5625q0.625 -0.625 1.5625 -0.625q0.9375 0 1.5625 0.625q0.625 0.625 0.625 1.5625q0 0.9375 -0.625 1.5625q-0.625 0.625 -1.5625 0.625zm0 -0.78125q0.625 0 1.015625 -0.390625q0.390625 -0.390625 0.390625 -1.015625q0 -0.625 -0.390625 -1.015625q-0.390625 -0.390625 -1.015625 -0.390625q-0.625 0 -1.015625 0.390625q-0.390625 0.390625 -0.390625 1.015625q0 0.625 0.390625 1.015625q0.390625 0.390625 1.015625 0.390625zm-3.125 0.390625q3.90625 4.921875 5.546875 10.390625l-2.109375 0.703125q-1.953125 -6.171875 -5.078125 -9.84375l1.640625 -1.25zm-5.9375 1.796875q0.625 0.390625 -0.15625 0.703125q-1.40625 4.921875 -4.53125 8.984375l-1.796875 -1.171875q3.4375 -4.140625 4.609375 -9.375l1.875 0.859375zm13.671875 4.6875q8.203125 -3.4375 12.421875 -9.6875l1.484375 1.25q0.625 0.46875 -0.546875 0.703125q-1.484375 1.953125 -3.828125 3.984375l0 10.625l-1.796875 0l0 -9.140625q-2.734375 2.109375 -6.40625 3.828125l-1.328125 -1.5625zm27.03125 3.4375q3.4375 -1.328125 6.328125 -5.3125l1.09375 1.484375q-2.96875 4.0625 -7.5 5.859375l-0.625 0.3125l-1.25 -0.9375l0.15625 -0.390625l0 -12.578125l1.640625 0q0.703125 0.15625 0.15625 0.625l0 10.9375zm-10.46875 2.109375q3.90625 -3.75 3.90625 -9.296875l0 -3.515625l1.640625 0q0.703125 0.15625 0.15625 0.625l0 2.8125q0 6.5625 -4.140625 10.390625l-1.5625 -1.015625zm35.625 -12.109375q-2.734375 0 -4.296875 0.546875q-1.71875 0.625 -3.203125 2.109375q-1.484375 1.484375 -1.484375 3.828125q0 1.875 1.171875 3.046875q1.5625 1.5625 6.015625 1.71875l-0.625 1.71875q-4.609375 -0.234375 -6.40625 -2.03125q-1.796875 -1.796875 -1.796875 -4.375q0 -3.671875 2.890625 -5.78125q-3.671875 0.546875 -7.5 1.09375l-0.46875 -1.796875q7.65625 -0.546875 15.390625 -1.875l0.3125 1.796875zm-1.71875 6.09375q-1.71875 -1.25 -2.96875 -1.953125l0.78125 -0.9375q1.171875 0.703125 2.96875 1.953125l-0.78125 0.9375zm1.5625 -1.875q-1.875 -1.328125 -2.96875 -1.953125l0.78125 -0.9375q1.09375 0.625 2.96875 1.953125l-0.78125 0.9375z" fill-rule="nonzero"/><path fill="#666666" d="m858.26276 268.4887l0 -14.3125l1.90625 0l0 14.3125l-1.90625 0zm5.1660156 0l0 -14.3125l1.890625 0l0 12.625l7.046875 0l0 1.6875l-8.9375 0z" fill-rule="nonzero"/><path fill="#666666" d="m879.25494 259.4262q0.9375 -0.3125 1.796875 -0.3125q1.015625 0 1.640625 0.625q0.46875 0.46875 0.546875 1.71875q2.34375 -0.859375 5.3125 -1.796875l0.546875 1.875q-3.046875 0.46875 -5.703125 1.484375l0 3.4375l-1.5625 0l0 -2.8125q-2.34375 1.09375 -3.046875 1.796875q-0.859375 0.859375 -0.859375 1.71875q0 0.46875 0.46875 0.9375q0.546875 0.546875 2.109375 0.546875l6.5625 0l0 1.484375l-6.640625 0q-2.5 0 -3.515625 -1.015625q-0.78125 -0.78125 -0.78125 -1.953125q0 -1.25 1.015625 -2.265625q1.5625 -1.5625 4.609375 -2.8125q-0.078125 -0.9375 -0.390625 -1.25q-0.3125 -0.3125 -1.328125 -0.3125q-1.5625 0 -4.765625 2.8125l-1.328125 -1.328125q3.671875 -2.265625 5.0 -5.0q-2.1875 0.15625 -4.375 0.3125l-0.3125 -1.5625q2.8125 -0.078125 5.3125 -0.234375q0.390625 -0.9375 0.9375 -3.125l1.484375 0.390625q0.78125 0.3125 0 0.625q-0.3125 1.015625 -0.703125 2.03125q2.8125 -0.234375 5.390625 -0.625l0.234375 1.640625q-3.046875 0.234375 -6.09375 0.46875q-0.78125 1.5625 -1.5625 2.5zm21.640625 -1.5625l5.234375 0l0 1.484375l-5.234375 0l0 1.171875l5.78125 0l0 1.484375l-5.78125 0l0 1.25l8.046875 0l0 1.484375l-7.578125 0q1.71875 2.34375 7.578125 3.59375l-0.546875 1.796875q-6.171875 -1.484375 -8.046875 -4.6875q-1.875 3.984375 -8.203125 4.921875l-0.625 -1.640625q5.859375 -0.859375 7.34375 -3.984375l-7.421875 0l0 -1.484375l7.890625 0l0 -1.25l-5.546875 0l0 -1.484375l5.546875 0l0 -1.171875l-5.15625 0l0 -1.484375l5.15625 0l0 -1.5625l1.484375 0q0.625 0.078125 0.078125 0.46875l0 1.09375zm-8.984375 -3.671875l7.421875 0l0 -1.796875l1.71875 0q0.78125 0.15625 0.078125 0.625l0 1.171875l7.34375 0l0 4.21875l-1.5625 0l0 -2.734375l-13.4375 0l0 2.734375l-1.5625 0l0 -4.21875zm25.3125 -0.078125q-2.421875 2.96875 -4.453125 4.140625l-0.9375 -1.40625q2.1875 -1.25 4.375 -4.140625l1.171875 1.015625q0.390625 0.46875 -0.15625 0.390625zm-1.09375 16.015625l-1.5625 0l0 -8.28125q-0.78125 0.859375 -2.34375 1.875l-1.015625 -1.5625q3.359375 -2.03125 5.703125 -5.703125l1.25 1.015625q0.390625 0.46875 -0.15625 0.390625q-0.9375 1.25 -1.875 2.421875l0 9.84375zm11.40625 -16.40625l0 1.484375l-8.4375 0l0 -1.484375l8.4375 0zm-9.296875 6.484375l0 -1.484375l10.859375 0l0 1.484375l-3.28125 0l0 7.96875q0 1.640625 -1.328125 1.640625l-2.109375 0l-0.3125 -1.484375l1.875 0q0.3125 0 0.3125 -0.3125l0 -7.8125l-6.015625 0z" fill-rule="nonzero"/><path fill="#f9cb9c" d="m445.59842 208.65617l33.24411 0l0 -17.582687l33.24408 35.16536l-33.24408 35.16536l0 -17.582687l-33.24411 0z" fill-rule="evenodd"/><path stroke="#000000" stroke-width="1.0" stroke-linejoin="round" stroke-linecap="butt" d="m445.59842 208.65617l33.24411 0l0 -17.582687l33.24408 35.16536l-33.24408 35.16536l0 -17.582687l-33.24411 0z" fill-rule="evenodd"/><path fill="#f9cb9c" d="m687.8378 208.65617l60.771667 0l0 -17.582687l35.165344 35.16536l-35.165344 35.16536l0 -17.582687l-60.771667 0z" fill-rule="evenodd"/><path stroke="#000000" stroke-width="1.0" stroke-linejoin="round" stroke-linecap="butt" d="m687.8378 208.65617l60.771667 0l0 -17.582687l35.165344 35.16536l-35.165344 35.16536l0 -17.582687l-60.771667 0z" fill-rule="evenodd"/></g></svg>