<svg version="1.1" viewBox="0.0 0.0 1470.4986876640419 647.5249343832021" fill="none" stroke="none" stroke-linecap="square" stroke-miterlimit="10" xmlns:xlink="http://www.w3.org/1999/xlink" xmlns="http://www.w3.org/2000/svg"><clipPath id="p.0"><path d="m0 0l1470.4987 0l0 647.52496l-1470.4987 0l0 -647.52496z" clip-rule="nonzero"/></clipPath><g clip-path="url(#p.0)"><path fill="#ffffff" d="m0 0l1470.4987 0l0 647.52496l-1470.4987 0z" fill-rule="evenodd"/><path fill="#ffffff" d="m53.64698 63.2769l598.1102 0l0 517.2913l-598.1102 0z" fill-rule="evenodd"/><path stroke="#666666" stroke-width="4.0" stroke-linejoin="round" stroke-linecap="butt" d="m53.64698 63.2769l598.1102 0l0 517.2913l-598.1102 0z" fill-rule="evenodd"/><path fill="#666666" d="m288.7054 117.076904l0 -33.390625l24.765625 0l0 5.640625l-18.015625 0l0 7.40625l16.765625 0l0 5.625l-16.765625 0l0 9.09375l18.65625 0l0 5.625l-25.40625 0zm53.25998 0l-5.9375 0l0 -3.546875q-1.484375 2.0625 -3.5 3.078125q-2.015625 1.015625 -4.0625 1.015625q-4.171875 0 -7.15625 -3.359375q-2.96875 -3.359375 -2.96875 -9.375q0 -6.15625 2.890625 -9.34375q2.90625 -3.203125 7.328125 -3.203125q4.046875 0 7.015625 3.359375l0 -12.015625l6.390625 0l0 33.390625zm-17.078125 -12.625q0 3.875 1.0625 5.609375q1.5625 2.5 4.328125 2.5q2.21875 0 3.765625 -1.875q1.546875 -1.875 1.546875 -5.609375q0 -4.171875 -1.5 -6.0q-1.5 -1.84375 -3.84375 -1.84375q-2.28125 0 -3.828125 1.8125q-1.53125 1.8125 -1.53125 5.40625zm23.390137 -14.84375l0 -5.921875l6.40625 0l0 5.921875l-6.40625 0zm0 27.46875l0 -24.1875l6.40625 0l0 24.1875l-6.40625 0zm24.056335 -24.1875l0 5.09375l-4.375 0l0 9.75q0 2.96875 0.125 3.453125q0.125 0.484375 0.5625 0.8125q0.453125 0.3125 1.09375 0.3125q0.890625 0 2.578125 -0.609375l0.546875 4.96875q-2.234375 0.953125 -5.0625 0.953125q-1.734375 0 -3.125 -0.578125q-1.375 -0.578125 -2.03125 -1.5q-0.65625 -0.921875 -0.90625 -2.5q-0.203125 -1.125 -0.203125 -4.515625l0 -10.546875l-2.9375 0l0 -5.09375l2.9375 0l0 -4.8125l6.421875 -3.734375l0 8.546875l4.375 0zm2.9743958 11.75q0 -3.1875 1.5625 -6.171875q1.578125 -2.984375 4.453125 -4.546875q2.890625 -1.578125 6.4375 -1.578125q5.484375 0 9.0 3.5625q3.515625 3.5625 3.515625 9.0q0 5.5 -3.546875 9.109375q-3.546875 3.609375 -8.921875 3.609375q-3.328125 0 -6.34375 -1.5q-3.015625 -1.5 -4.59375 -4.40625q-1.5625 -2.90625 -1.5625 -7.078125zm6.546875 0.34375q0 3.59375 1.703125 5.515625q1.71875 1.90625 4.234375 1.90625q2.5 0 4.1875 -1.90625q1.703125 -1.921875 1.703125 -5.5625q0 -3.5625 -1.703125 -5.46875q-1.6875 -1.921875 -4.1875 -1.921875q-2.515625 0 -4.234375 1.921875q-1.703125 1.90625 -1.703125 5.515625zm29.561981 12.09375l-6.40625 0l0 -24.1875l5.9375 0l0 3.4375q1.53125 -2.4375 2.75 -3.203125q1.21875 -0.78125 2.765625 -0.78125q2.1875 0 4.21875 1.203125l-1.984375 5.578125q-1.609375 -1.046875 -3.0 -1.046875q-1.34375 0 -2.28125 0.75q-0.9375 0.734375 -1.46875 2.671875q-0.53125 1.9375 -0.53125 8.109375l0 7.46875z" fill-rule="nonzero"/><path fill="#ffffff" d="m818.74146 66.956696l598.1102 0l0 517.2914l-598.1102 0z" fill-rule="evenodd"/><path stroke="#666666" stroke-width="4.0" stroke-linejoin="round" stroke-linecap="butt" d="m818.74146 66.956696l598.1102 0l0 517.2914l-598.1102 0z" fill-rule="evenodd"/><path fill="#666666" d="m1027.906 120.75669l0 -33.390625l14.1875 0q5.359375 0 7.78125 0.90625q2.421875 0.890625 3.875 3.1875q1.46875 2.296875 1.46875 5.265625q0 3.75 -2.21875 6.203125q-2.203125 2.453125 -6.59375 3.09375q2.1875 1.265625 3.609375 2.796875q1.421875 1.53125 3.828125 5.421875l4.078125 6.515625l-8.0625 0l-4.875 -7.265625q-2.59375 -3.890625 -3.546875 -4.90625q-0.953125 -1.015625 -2.03125 -1.390625q-1.078125 -0.375 -3.390625 -0.375l-1.375 0l0 13.9375l-6.734375 0zm6.734375 -19.265625l5.0 0q4.84375 0 6.046875 -0.40625q1.21875 -0.421875 1.890625 -1.421875q0.6875 -1.0 0.6875 -2.5q0 -1.6875 -0.90625 -2.71875q-0.890625 -1.046875 -2.53125 -1.328125q-0.8125 -0.109375 -4.921875 -0.109375l-5.265625 0l0 8.484375zm42.80298 19.265625l0 -3.625q-1.3125 1.9375 -3.46875 3.0625q-2.15625 1.109375 -4.546875 1.109375q-2.4375 0 -4.375 -1.0625q-1.9375 -1.078125 -2.796875 -3.015625q-0.859375 -1.9375 -0.859375 -5.359375l0 -15.296875l6.390625 0l0 11.109375q0 5.109375 0.34375 6.265625q0.359375 1.140625 1.296875 1.8125q0.9375 0.671875 2.375 0.671875q1.640625 0 2.9375 -0.890625q1.296875 -0.90625 1.765625 -2.234375q0.484375 -1.34375 0.484375 -6.53125l0 -10.203125l6.40625 0l0 24.1875l-5.953125 0zm34.59326 0l-6.40625 0l0 -12.34375q0 -3.921875 -0.40625 -5.0625q-0.40625 -1.15625 -1.34375 -1.796875q-0.921875 -0.640625 -2.21875 -0.640625q-1.65625 0 -2.984375 0.921875q-1.3125 0.90625 -1.8125 2.40625q-0.484375 1.5 -0.484375 5.5625l0 10.953125l-6.40625 0l0 -24.1875l5.953125 0l0 3.546875q3.171875 -4.09375 7.96875 -4.09375q2.125 0 3.875 0.765625q1.75 0.75 2.65625 1.9375q0.90625 1.1875 1.25 2.6875q0.359375 1.5 0.359375 4.3125l0 15.03125zm17.577637 -24.1875l0 5.09375l-4.375 0l0 9.75q0 2.96875 0.125 3.453125q0.125 0.484375 0.5625 0.8125q0.453125 0.3125 1.09375 0.3125q0.890625 0 2.578125 -0.609375l0.546875 4.96875q-2.234375 0.953125 -5.0625 0.953125q-1.734375 0 -3.125 -0.578125q-1.375 -0.578125 -2.03125 -1.5q-0.65625 -0.921875 -0.90625 -2.5q-0.203125 -1.125 -0.203125 -4.515625l0 -10.546875l-2.9375 0l0 -5.09375l2.9375 0l0 -4.8125l6.421875 -3.734375l0 8.546875l4.375 0zm4.443115 -3.28125l0 -5.921875l6.40625 0l0 5.921875l-6.40625 0zm0 27.46875l0 -24.1875l6.40625 0l0 24.1875l-6.40625 0zm12.4938965 -24.1875l5.890625 0l0 3.296875q3.171875 -3.84375 7.546875 -3.84375q2.328125 0 4.03125 0.953125q1.703125 0.953125 2.796875 2.890625q1.59375 -1.9375 3.4375 -2.890625q1.859375 -0.953125 3.953125 -0.953125q2.65625 0 4.5 1.078125q1.859375 1.078125 2.765625 3.171875q0.65625 1.546875 0.65625 5.015625l0 15.46875l-6.40625 0l0 -13.828125q0 -3.59375 -0.65625 -4.640625q-0.890625 -1.375 -2.734375 -1.375q-1.34375 0 -2.53125 0.828125q-1.171875 0.8125 -1.703125 2.40625q-0.53125 1.578125 -0.53125 4.984375l0 11.625l-6.390625 0l0 -13.265625q0 -3.53125 -0.34375 -4.546875q-0.34375 -1.03125 -1.0625 -1.53125q-0.71875 -0.5 -1.953125 -0.5q-1.46875 0 -2.65625 0.796875q-1.1875 0.796875 -1.703125 2.3125q-0.515625 1.5 -0.515625 4.984375l0 11.75l-6.390625 0l0 -24.1875zm55.96924 16.484375l6.375 1.078125q-1.21875 3.5 -3.875 5.34375q-2.65625 1.828125 -6.640625 1.828125q-6.3125 0 -9.34375 -4.125q-2.390625 -3.296875 -2.390625 -8.34375q0 -6.0 3.140625 -9.40625q3.140625 -3.40625 7.953125 -3.40625q5.390625 0 8.515625 3.5625q3.125 3.5625 2.984375 10.921875l-16.03125 0q0.0625 2.84375 1.546875 4.4375q1.484375 1.578125 3.6875 1.578125q1.5 0 2.515625 -0.8125q1.03125 -0.828125 1.5625 -2.65625zm0.359375 -6.46875q-0.0625 -2.78125 -1.4375 -4.21875q-1.359375 -1.453125 -3.3125 -1.453125q-2.109375 0 -3.46875 1.53125q-1.359375 1.515625 -1.34375 4.140625l9.5625 0z" fill-rule="nonzero"/><path fill="#cfe2f3" d="m92.84646 195.85475l0 0c0 -11.654739 9.448036 -21.102783 21.102783 -21.102783l177.54245 0c5.5968018 0 10.964386 2.2233276 14.921936 6.1808624c3.9575195 3.9575348 6.180847 9.325119 6.180847 14.921921l0 84.408615c0 11.654724 -9.448029 21.102783 -21.102783 21.102783l-177.54245 0c-11.654747 0 -21.102783 -9.448059 -21.102783 -21.102783z" fill-rule="evenodd"/><path stroke="#666666" stroke-width="4.0" stroke-linejoin="round" stroke-linecap="butt" d="m92.84646 195.85475l0 0c0 -11.654739 9.448036 -21.102783 21.102783 -21.102783l177.54245 0c5.5968018 0 10.964386 2.2233276 14.921936 6.1808624c3.9575195 3.9575348 6.180847 9.325119 6.180847 14.921921l0 84.408615c0 11.654724 -9.448029 21.102783 -21.102783 21.102783l-177.54245 0c-11.654747 0 -21.102783 -9.448059 -21.102783 -21.102783z" fill-rule="evenodd"/><path fill="#434343" d="m146.588 217.0003l4.109375 1.296875q-0.9375 3.4375 -3.140625 5.109375q-2.203125 1.671875 -5.578125 1.671875q-4.171875 0 -6.875 -2.859375q-2.6875 -2.859375 -2.6875 -7.8125q0 -5.234375 2.703125 -8.140625q2.703125 -2.90625 7.125 -2.90625q3.84375 0 6.25 2.28125q1.4375 1.34375 2.15625 3.875l-4.203125 1.0q-0.375 -1.640625 -1.5625 -2.578125q-1.171875 -0.953125 -2.859375 -0.953125q-2.34375 0 -3.796875 1.6875q-1.453125 1.671875 -1.453125 5.421875q0 3.984375 1.4375 5.671875q1.4375 1.6875 3.71875 1.6875q1.703125 0 2.90625 -1.0625q1.21875 -1.078125 1.75 -3.390625zm6.789215 -0.09375q0 -2.015625 0.984375 -3.890625q1.0 -1.875 2.8125 -2.859375q1.8125 -0.984375 4.03125 -0.984375q3.453125 0 5.65625 2.25q2.21875 2.234375 2.21875 5.65625q0 3.4375 -2.234375 5.71875q-2.21875 2.265625 -5.609375 2.265625q-2.078125 0 -3.984375 -0.9375q-1.890625 -0.953125 -2.890625 -2.78125q-0.984375 -1.828125 -0.984375 -4.4375zm4.125 0.203125q0 2.265625 1.078125 3.46875q1.078125 1.203125 2.640625 1.203125q1.578125 0 2.640625 -1.203125q1.078125 -1.203125 1.078125 -3.484375q0 -2.234375 -1.078125 -3.4375q-1.0625 -1.203125 -2.640625 -1.203125q-1.5625 0 -2.640625 1.203125q-1.078125 1.203125 -1.078125 3.453125zm14.414795 -7.59375l3.71875 0l0 2.078125q1.984375 -2.421875 4.734375 -2.421875q1.46875 0 2.53125 0.609375q1.078125 0.59375 1.765625 1.8125q1.0 -1.21875 2.15625 -1.8125q1.171875 -0.609375 2.484375 -0.609375q1.671875 0 2.828125 0.6875q1.171875 0.671875 1.734375 1.984375q0.421875 0.96875 0.421875 3.15625l0 9.71875l-4.015625 0l0 -8.6875q0 -2.265625 -0.421875 -2.921875q-0.5625 -0.859375 -1.71875 -0.859375q-0.84375 0 -1.59375 0.515625q-0.734375 0.515625 -1.078125 1.515625q-0.328125 0.984375 -0.328125 3.140625l0 7.296875l-4.015625 0l0 -8.328125q0 -2.21875 -0.21875 -2.859375q-0.21875 -0.65625 -0.671875 -0.96875q-0.4375 -0.3125 -1.21875 -0.3125q-0.921875 0 -1.671875 0.5q-0.75 0.5 -1.078125 1.453125q-0.3125 0.9375 -0.3125 3.125l0 7.390625l-4.03125 0l0 -15.203125zm26.077408 0l3.71875 0l0 2.078125q1.984375 -2.421875 4.734375 -2.421875q1.46875 0 2.53125 0.609375q1.078125 0.59375 1.765625 1.8125q1.0 -1.21875 2.15625 -1.8125q1.171875 -0.609375 2.484375 -0.609375q1.671875 0 2.828125 0.6875q1.171875 0.671875 1.734375 1.984375q0.421875 0.96875 0.421875 3.15625l0 9.71875l-4.015625 0l0 -8.6875q0 -2.265625 -0.421875 -2.921875q-0.5625 -0.859375 -1.71875 -0.859375q-0.84375 0 -1.59375 0.515625q-0.734375 0.515625 -1.078125 1.515625q-0.328125 0.984375 -0.328125 3.140625l0 7.296875l-4.015625 0l0 -8.328125q0 -2.21875 -0.21875 -2.859375q-0.21875 -0.65625 -0.671875 -0.96875q-0.4375 -0.3125 -1.21875 -0.3125q-0.921875 0 -1.671875 0.5q-0.75 0.5 -1.078125 1.453125q-0.3125 0.9375 -0.3125 3.125l0 7.390625l-4.03125 0l0 -15.203125zm29.389908 4.640625l-3.65625 -0.671875q0.625 -2.203125 2.125 -3.25q1.5 -1.0625 4.46875 -1.0625q2.6875 0 4.0 0.640625q1.328125 0.625 1.859375 1.609375q0.546875 0.984375 0.546875 3.609375l-0.046875 4.6875q0 2.0 0.1875 2.953125q0.203125 0.953125 0.734375 2.046875l-3.984375 0q-0.15625 -0.40625 -0.390625 -1.1875q-0.09375 -0.359375 -0.140625 -0.46875q-1.03125 1.0 -2.203125 1.5q-1.171875 0.5 -2.515625 0.5q-2.34375 0 -3.703125 -1.265625q-1.34375 -1.28125 -1.34375 -3.234375q0 -1.28125 0.609375 -2.28125q0.625 -1.015625 1.734375 -1.546875q1.109375 -0.546875 3.203125 -0.953125q2.8125 -0.53125 3.90625 -0.984375l0 -0.40625q0 -1.15625 -0.578125 -1.640625q-0.578125 -0.5 -2.15625 -0.5q-1.078125 0 -1.6875 0.421875q-0.59375 0.421875 -0.96875 1.484375zm5.390625 3.265625q-0.78125 0.25 -2.453125 0.609375q-1.671875 0.359375 -2.1875 0.703125q-0.796875 0.5625 -0.796875 1.421875q0 0.84375 0.625 1.46875q0.640625 0.609375 1.609375 0.609375q1.09375 0 2.078125 -0.71875q0.734375 -0.546875 0.96875 -1.34375q0.15625 -0.515625 0.15625 -1.953125l0 -0.796875zm21.748413 7.296875l-4.015625 0l0 -7.765625q0 -2.453125 -0.265625 -3.171875q-0.25 -0.734375 -0.84375 -1.125q-0.578125 -0.40625 -1.390625 -0.40625q-1.046875 0 -1.875 0.578125q-0.828125 0.5625 -1.140625 1.515625q-0.3125 0.9375 -0.3125 3.484375l0 6.890625l-4.015625 0l0 -15.203125l3.734375 0l0 2.234375q1.984375 -2.578125 5.015625 -2.578125q1.328125 0 2.421875 0.484375q1.109375 0.46875 1.671875 1.21875q0.578125 0.734375 0.796875 1.6875q0.21875 0.9375 0.21875 2.703125l0 9.453125zm18.024155 0l-3.734375 0l0 -2.234375q-0.921875 1.296875 -2.203125 1.9375q-1.265625 0.640625 -2.546875 0.640625q-2.625 0 -4.5 -2.109375q-1.859375 -2.109375 -1.859375 -5.890625q0 -3.875 1.8125 -5.875q1.828125 -2.015625 4.609375 -2.015625q2.546875 0 4.40625 2.109375l0 -7.5625l4.015625 0l0 21.0zm-10.734375 -7.9375q0 2.4375 0.671875 3.53125q0.96875 1.578125 2.71875 1.578125q1.390625 0 2.359375 -1.1875q0.984375 -1.1875 0.984375 -3.53125q0 -2.625 -0.953125 -3.765625q-0.9375 -1.15625 -2.421875 -1.15625q-1.421875 0 -2.390625 1.140625q-0.96875 1.125 -0.96875 3.390625z" fill-rule="nonzero"/><path fill="#434343" d="m115.44997 242.94656q2.8125 -2.8125 3.828125 -8.359375l1.640625 0.46875q0.3125 0.3125 -0.234375 0.390625q-0.9375 3.28125 -1.25 4.140625l0.3125 0.078125q0.234375 0.234375 -0.15625 0.46875l0 12.1875l-1.5625 0l0 -9.921875q-0.859375 1.25 -1.71875 2.03125l-0.859375 -1.484375zm4.453125 3.28125q2.421875 -2.5 2.890625 -8.671875l-1.640625 0l0 -1.484375l6.953125 0l0 1.484375l-3.828125 0l-0.3125 2.5l3.28125 0l0 1.875q0 6.71875 -5.390625 10.3125l-0.9375 -1.40625q2.734375 -1.71875 3.984375 -4.765625q-1.171875 -1.015625 -2.109375 -1.40625q-0.703125 1.484375 -1.796875 2.890625l-1.09375 -1.328125zm3.359375 -2.96875q1.171875 0.390625 2.109375 1.171875q0.390625 -1.40625 0.390625 -2.890625l-2.03125 0q-0.078125 0.703125 -0.46875 1.71875zm7.890625 7.34375q0.3125 0 0.3125 -0.3125l0 -14.921875l1.484375 0q0.625 0.078125 0.078125 0.46875l0 15.15625q0 1.09375 -1.015625 1.09375l-2.109375 0l-0.15625 -1.484375l1.40625 0zm-1.171875 -2.734375l-1.5625 0l0 -10.390625l1.484375 0q0.625 0.078125 0.078125 0.46875l0 9.921875zm8.984375 -6.25l1.796875 0l0 1.71875l-1.796875 0l0 -1.71875zm0 7.1875l1.796875 0l0 1.71875l-1.796875 0l0 -1.71875z" fill-rule="nonzero"/><path fill="#434343" d="m153.15309 245.14969l0 -1.6875l6.0625 -0.015625l0 5.3125q-1.40625 1.125 -2.890625 1.6875q-1.484375 0.5625 -3.046875 0.5625q-2.109375 0 -3.828125 -0.90625q-1.71875 -0.90625 -2.609375 -2.609375q-0.875 -1.71875 -0.875 -3.828125q0 -2.09375 0.875 -3.890625q0.875 -1.8125 2.515625 -2.6875q1.640625 -0.890625 3.78125 -0.890625q1.546875 0 2.796875 0.5q1.265625 0.5 1.96875 1.40625q0.71875 0.890625 1.09375 2.34375l-1.703125 0.46875q-0.328125 -1.09375 -0.8125 -1.71875q-0.46875 -0.625 -1.359375 -1.0q-0.890625 -0.375 -1.96875 -0.375q-1.3125 0 -2.265625 0.390625q-0.9375 0.390625 -1.515625 1.046875q-0.578125 0.640625 -0.90625 1.40625q-0.546875 1.328125 -0.546875 2.890625q0 1.90625 0.65625 3.203125q0.671875 1.28125 1.921875 1.90625q1.265625 0.625 2.671875 0.625q1.234375 0 2.40625 -0.46875q1.171875 -0.46875 1.78125 -1.015625l0 -2.65625l-4.203125 0zm15.728516 2.265625l1.8125 0.234375q-0.421875 1.578125 -1.59375 2.46875q-1.15625 0.875 -2.96875 0.875q-2.265625 0 -3.609375 -1.390625q-1.328125 -1.40625 -1.328125 -3.9375q0 -2.625 1.34375 -4.0625q1.34375 -1.453125 3.5 -1.453125q2.078125 0 3.390625 1.421875q1.328125 1.40625 1.328125 3.984375q0 0.15625 -0.015625 0.46875l-7.734375 0q0.09375 1.703125 0.96875 2.609375q0.875 0.90625 2.171875 0.90625q0.96875 0 1.640625 -0.5q0.6875 -0.515625 1.09375 -1.625zm-5.78125 -2.84375l5.796875 0q-0.109375 -1.296875 -0.65625 -1.953125q-0.84375 -1.015625 -2.1875 -1.015625q-1.203125 0 -2.03125 0.8125q-0.828125 0.796875 -0.921875 2.15625zm13.638672 4.609375l0.25 1.5625q-0.734375 0.15625 -1.328125 0.15625q-0.953125 0 -1.484375 -0.296875q-0.515625 -0.3125 -0.734375 -0.796875q-0.21875 -0.5 -0.21875 -2.078125l0 -5.96875l-1.28125 0l0 -1.375l1.28125 0l0 -2.5625l1.75 -1.0625l0 3.625l1.765625 0l0 1.375l-1.765625 0l0 6.0625q0 0.75 0.09375 0.96875q0.09375 0.203125 0.296875 0.34375q0.21875 0.125 0.609375 0.125q0.28125 0 0.765625 -0.078125zm12.166016 -3.4375l1.890625 0.46875q-0.59375 2.34375 -2.140625 3.578125q-1.546875 1.21875 -3.796875 1.21875q-2.3125 0 -3.765625 -0.9375q-1.4375 -0.953125 -2.203125 -2.734375q-0.75 -1.796875 -0.75 -3.84375q0 -2.234375 0.84375 -3.890625q0.859375 -1.671875 2.4375 -2.53125q1.578125 -0.875 3.46875 -0.875q2.15625 0 3.609375 1.09375q1.46875 1.09375 2.046875 3.078125l-1.859375 0.4375q-0.5 -1.5625 -1.453125 -2.265625q-0.9375 -0.71875 -2.375 -0.71875q-1.65625 0 -2.765625 0.796875q-1.109375 0.78125 -1.5625 2.125q-0.4375 1.328125 -0.4375 2.734375q0 1.828125 0.53125 3.203125q0.53125 1.359375 1.65625 2.03125q1.125 0.671875 2.421875 0.671875q1.59375 0 2.703125 -0.921875q1.109375 -0.921875 1.5 -2.71875zm3.3496094 -0.171875q0 -2.875 1.59375 -4.265625q1.34375 -1.15625 3.265625 -1.15625q2.140625 0 3.484375 1.40625q1.359375 1.40625 1.359375 3.875q0 2.0 -0.59375 3.15625q-0.59375 1.140625 -1.75 1.78125q-1.140625 0.625 -2.5 0.625q-2.1875 0 -3.53125 -1.390625q-1.328125 -1.40625 -1.328125 -4.03125zm1.796875 0q0 2.0 0.859375 2.984375q0.875 0.984375 2.203125 0.984375q1.3125 0 2.171875 -0.984375q0.875 -1.0 0.875 -3.046875q0 -1.921875 -0.875 -2.90625q-0.875 -1.0 -2.171875 -1.0q-1.328125 0 -2.203125 1.0q-0.859375 0.984375 -0.859375 2.96875zm9.966797 5.1875l0 -10.375l1.578125 0l0 1.453125q0.484375 -0.75 1.296875 -1.21875q0.8125 -0.46875 1.84375 -0.46875q1.15625 0 1.890625 0.484375q0.734375 0.46875 1.046875 1.328125q1.234375 -1.8125 3.203125 -1.8125q1.546875 0 2.375 0.859375q0.828125 0.859375 0.828125 2.625l0 7.125l-1.75 0l0 -6.53125q0 -1.0625 -0.171875 -1.515625q-0.171875 -0.46875 -0.625 -0.75q-0.4375 -0.28125 -1.046875 -0.28125q-1.09375 0 -1.828125 0.734375q-0.71875 0.71875 -0.71875 2.3125l0 6.03125l-1.75 0l0 -6.734375q0 -1.171875 -0.4375 -1.75q-0.421875 -0.59375 -1.40625 -0.59375q-0.734375 0 -1.375 0.390625q-0.625 0.390625 -0.90625 1.140625q-0.28125 0.75 -0.28125 2.171875l0 5.375l-1.765625 0zm16.660156 3.96875l0 -14.34375l1.609375 0l0 1.34375q0.5625 -0.78125 1.265625 -1.171875q0.71875 -0.40625 1.734375 -0.40625q1.328125 0 2.34375 0.6875q1.015625 0.6875 1.53125 1.9375q0.53125 1.234375 0.53125 2.71875q0 1.59375 -0.578125 2.875q-0.5625 1.265625 -1.65625 1.953125q-1.09375 0.671875 -2.296875 0.671875q-0.875 0 -1.578125 -0.375q-0.6875 -0.375 -1.140625 -0.9375l0 5.046875l-1.765625 0zm1.59375 -9.09375q0 2.0 0.8125 2.953125q0.8125 0.953125 1.96875 0.953125q1.171875 0 2.0 -0.984375q0.84375 -0.984375 0.84375 -3.078125q0 -1.96875 -0.828125 -2.953125q-0.8125 -1.0 -1.9375 -1.0q-1.125 0 -2.0 1.0625q-0.859375 1.046875 -0.859375 3.046875zm8.888672 -0.0625q0 -2.875 1.59375 -4.265625q1.34375 -1.15625 3.265625 -1.15625q2.140625 0 3.484375 1.40625q1.359375 1.40625 1.359375 3.875q0 2.0 -0.59375 3.15625q-0.59375 1.140625 -1.75 1.78125q-1.140625 0.625 -2.5 0.625q-2.1875 0 -3.53125 -1.390625q-1.328125 -1.40625 -1.328125 -4.03125zm1.796875 0q0 2.0 0.859375 2.984375q0.875 0.984375 2.203125 0.984375q1.3125 0 2.171875 -0.984375q0.875 -1.0 0.875 -3.046875q0 -1.921875 -0.875 -2.90625q-0.875 -1.0 -2.171875 -1.0q-1.328125 0 -2.203125 1.0q-0.859375 0.984375 -0.859375 2.96875zm9.966797 5.1875l0 -10.375l1.59375 0l0 1.484375q1.140625 -1.71875 3.296875 -1.71875q0.9375 0 1.71875 0.34375q0.796875 0.328125 1.1875 0.875q0.390625 0.546875 0.546875 1.296875q0.09375 0.5 0.09375 1.71875l0 6.375l-1.765625 0l0 -6.3125q0 -1.078125 -0.203125 -1.609375q-0.203125 -0.53125 -0.734375 -0.84375q-0.515625 -0.3125 -1.21875 -0.3125q-1.125 0 -1.9375 0.71875q-0.8125 0.703125 -0.8125 2.6875l0 5.671875l-1.765625 0zm18.232407 -3.34375l1.8125 0.234375q-0.421875 1.578125 -1.59375 2.46875q-1.15625 0.875 -2.96875 0.875q-2.265625 0 -3.6093597 -1.390625q-1.328125 -1.40625 -1.328125 -3.9375q0 -2.625 1.34375 -4.0625q1.3437347 -1.453125 3.4999847 -1.453125q2.078125 0 3.390625 1.421875q1.328125 1.40625 1.328125 3.984375q0 0.15625 -0.015625 0.46875l-7.7343597 0q0.09375 1.703125 0.96873474 2.609375q0.875 0.90625 2.171875 0.90625q0.96875 0 1.640625 -0.5q0.6875 -0.515625 1.09375 -1.625zm-5.7812347 -2.84375l5.7968597 0q-0.109375 -1.296875 -0.65625 -1.953125q-0.84375 -1.015625 -2.1875 -1.015625q-1.203125 0 -2.03125 0.8125q-0.82810974 0.796875 -0.92185974 2.15625zm9.794907 6.1875l0 -10.375l1.59375 0l0 1.484375q1.140625 -1.71875 3.296875 -1.71875q0.9375 0 1.71875 0.34375q0.796875 0.328125 1.1875 0.875q0.390625 0.546875 0.546875 1.296875q0.09375 0.5 0.09375 1.71875l0 6.375l-1.765625 0l0 -6.3125q0 -1.078125 -0.203125 -1.609375q-0.203125 -0.53125 -0.734375 -0.84375q-0.515625 -0.3125 -1.21875 -0.3125q-1.125 0 -1.9375 0.71875q-0.8125 0.703125 -0.8125 2.6875l0 5.671875l-1.765625 0zm14.966797 -1.578125l0.25 1.5625q-0.734375 0.15625 -1.328125 0.15625q-0.953125 0 -1.484375 -0.296875q-0.515625 -0.3125 -0.734375 -0.796875q-0.21875 -0.5 -0.21875 -2.078125l0 -5.96875l-1.28125 0l0 -1.375l1.28125 0l0 -2.5625l1.75 -1.0625l0 3.625l1.765625 0l0 1.375l-1.765625 0l0 6.0625q0 0.75 0.09375 0.96875q0.09375 0.203125 0.296875 0.34375q0.21875 0.125 0.609375 0.125q0.28125 0 0.765625 -0.078125zm1.0097656 -1.515625l1.75 -0.28125q0.140625 1.046875 0.8125 1.609375q0.671875 0.546875 1.875 0.546875q1.203125 0 1.78125 -0.484375q0.59375 -0.5 0.59375 -1.15625q0 -0.59375 -0.515625 -0.9375q-0.359375 -0.234375 -1.796875 -0.59375q-1.9375 -0.5 -2.6875 -0.84375q-0.734375 -0.359375 -1.125 -0.984375q-0.390625 -0.640625 -0.390625 -1.40625q0 -0.6875 0.3125 -1.28125q0.328125 -0.59375 0.875 -0.984375q0.40625 -0.296875 1.109375 -0.5q0.71875 -0.21875 1.53125 -0.21875q1.21875 0 2.140625 0.359375q0.921875 0.34375 1.359375 0.953125q0.4375 0.59375 0.609375 1.59375l-1.71875 0.234375q-0.125 -0.796875 -0.6875 -1.234375q-0.5625 -0.453125 -1.578125 -0.453125q-1.21875 0 -1.734375 0.40625q-0.515625 0.390625 -0.515625 0.921875q0 0.34375 0.21875 0.625q0.203125 0.28125 0.671875 0.46875q0.265625 0.09375 1.546875 0.4375q1.875 0.5 2.609375 0.828125q0.734375 0.3125 1.15625 0.921875q0.421875 0.59375 0.421875 1.5q0 0.875 -0.515625 1.65625q-0.515625 0.78125 -1.484375 1.203125q-0.96875 0.421875 -2.1875 0.421875q-2.015625 0 -3.078125 -0.84375q-1.0625 -0.84375 -1.359375 -2.484375z" fill-rule="nonzero"/><path fill="#434343" d="m136.91774 270.1653l1.78125 -0.15625q0.125 1.0625 0.578125 1.75q0.46875 0.6875 1.4375 1.125q0.984375 0.421875 2.21875 0.421875q1.078125 0 1.90625 -0.3125q0.828125 -0.328125 1.234375 -0.890625q0.40625 -0.5625 0.40625 -1.234375q0 -0.671875 -0.390625 -1.171875q-0.390625 -0.5 -1.28125 -0.84375q-0.578125 -0.234375 -2.5625 -0.703125q-1.96875 -0.46875 -2.75 -0.890625q-1.03125 -0.53125 -1.53125 -1.328125q-0.5 -0.796875 -0.5 -1.78125q0 -1.09375 0.609375 -2.03125q0.609375 -0.9375 1.796875 -1.421875q1.1875 -0.5 2.625 -0.5q1.59375 0 2.8125 0.515625q1.21875 0.515625 1.859375 1.515625q0.65625 0.984375 0.703125 2.25l-1.8125 0.140625q-0.140625 -1.359375 -0.984375 -2.046875q-0.84375 -0.703125 -2.5 -0.703125q-1.71875 0 -2.515625 0.640625q-0.78125 0.625 -0.78125 1.5q0 0.78125 0.5625 1.28125q0.546875 0.5 2.859375 1.015625q2.3125 0.515625 3.171875 0.90625q1.25 0.578125 1.84375 1.46875q0.59375 0.875 0.59375 2.03125q0 1.140625 -0.65625 2.15625q-0.65625 1.015625 -1.890625 1.578125q-1.21875 0.5625 -2.75 0.5625q-1.9375 0 -3.25 -0.5625q-1.3125 -0.578125 -2.0625 -1.71875q-0.75 -1.140625 -0.78125 -2.5625zm20.855469 1.25l1.8125 0.234375q-0.421875 1.578125 -1.59375 2.46875q-1.15625 0.875 -2.96875 0.875q-2.265625 0 -3.609375 -1.390625q-1.328125 -1.40625 -1.328125 -3.9375q0 -2.625 1.34375 -4.0625q1.34375 -1.453125 3.5 -1.453125q2.078125 0 3.390625 1.421875q1.328125 1.40625 1.328125 3.984375q0 0.15625 -0.015625 0.46875l-7.734375 0q0.09375 1.703125 0.96875 2.609375q0.875 0.90625 2.171875 0.90625q0.96875 0 1.640625 -0.5q0.6875 -0.515625 1.09375 -1.625zm-5.78125 -2.84375l5.796875 0q-0.109375 -1.296875 -0.65625 -1.953125q-0.84375 -1.015625 -2.1875 -1.015625q-1.203125 0 -2.03125 0.8125q-0.828125 0.796875 -0.921875 2.15625zm13.638672 4.609375l0.25 1.5625q-0.734375 0.15625 -1.328125 0.15625q-0.953125 0 -1.484375 -0.296875q-0.515625 -0.3125 -0.734375 -0.796875q-0.21875 -0.5 -0.21875 -2.078125l0 -5.96875l-1.28125 0l0 -1.375l1.28125 0l0 -2.5625l1.75 -1.0625l0 3.625l1.765625 0l0 1.375l-1.765625 0l0 6.0625q0 0.75 0.09375 0.96875q0.09375 0.203125 0.296875 0.34375q0.21875 0.125 0.609375 0.125q0.28125 0 0.765625 -0.078125zm12.166016 -3.4375l1.890625 0.46875q-0.59375 2.34375 -2.140625 3.578125q-1.546875 1.21875 -3.796875 1.21875q-2.3125 0 -3.765625 -0.9375q-1.4375 -0.953125 -2.203125 -2.734375q-0.75 -1.796875 -0.75 -3.84375q0 -2.234375 0.84375 -3.890625q0.859375 -1.671875 2.4375 -2.53125q1.578125 -0.875 3.46875 -0.875q2.15625 0 3.609375 1.09375q1.46875 1.09375 2.046875 3.078125l-1.859375 0.4375q-0.5 -1.5625 -1.453125 -2.265625q-0.9375 -0.71875 -2.375 -0.71875q-1.65625 0 -2.765625 0.796875q-1.109375 0.78125 -1.5625 2.125q-0.4375 1.328125 -0.4375 2.734375q0 1.828125 0.53125 3.203125q0.53125 1.359375 1.65625 2.03125q1.125 0.671875 2.421875 0.671875q1.59375 0 2.703125 -0.921875q1.109375 -0.921875 1.5 -2.71875zm3.3496094 -0.171875q0 -2.875 1.59375 -4.265625q1.34375 -1.15625 3.265625 -1.15625q2.140625 0 3.484375 1.40625q1.359375 1.40625 1.359375 3.875q0 2.0 -0.59375 3.15625q-0.59375 1.140625 -1.75 1.78125q-1.140625 0.625 -2.5 0.625q-2.1875 0 -3.53125 -1.390625q-1.328125 -1.40625 -1.328125 -4.03125zm1.796875 0q0 2.0 0.859375 2.984375q0.875 0.984375 2.203125 0.984375q1.3125 0 2.171875 -0.984375q0.875 -1.0 0.875 -3.046875q0 -1.921875 -0.875 -2.90625q-0.875 -1.0 -2.171875 -1.0q-1.328125 0 -2.203125 1.0q-0.859375 0.984375 -0.859375 2.96875zm9.966797 5.1875l0 -10.375l1.578125 0l0 1.453125q0.484375 -0.75 1.296875 -1.21875q0.8125 -0.46875 1.84375 -0.46875q1.15625 0 1.890625 0.484375q0.734375 0.46875 1.046875 1.328125q1.234375 -1.8125 3.203125 -1.8125q1.546875 0 2.375 0.859375q0.828125 0.859375 0.828125 2.625l0 7.125l-1.75 0l0 -6.53125q0 -1.0625 -0.171875 -1.515625q-0.171875 -0.46875 -0.625 -0.75q-0.4375 -0.28125 -1.046875 -0.28125q-1.09375 0 -1.828125 0.734375q-0.71875 0.71875 -0.71875 2.3125l0 6.03125l-1.75 0l0 -6.734375q0 -1.171875 -0.4375 -1.75q-0.421875 -0.59375 -1.40625 -0.59375q-0.734375 0 -1.375 0.390625q-0.625 0.390625 -0.90625 1.140625q-0.28125 0.75 -0.28125 2.171875l0 5.375l-1.765625 0zm16.660156 3.96875l0 -14.34375l1.609375 0l0 1.34375q0.5625 -0.78125 1.265625 -1.171875q0.71875 -0.40625 1.734375 -0.40625q1.328125 0 2.34375 0.6875q1.015625 0.6875 1.53125 1.9375q0.53125 1.234375 0.53125 2.71875q0 1.59375 -0.578125 2.875q-0.5625 1.265625 -1.65625 1.953125q-1.09375 0.671875 -2.296875 0.671875q-0.875 0 -1.578125 -0.375q-0.6875 -0.375 -1.140625 -0.9375l0 5.046875l-1.765625 0zm1.59375 -9.09375q0 2.0 0.8125 2.953125q0.8125 0.953125 1.96875 0.953125q1.171875 0 2.0 -0.984375q0.84375 -0.984375 0.84375 -3.078125q0 -1.96875 -0.828125 -2.953125q-0.8125 -1.0 -1.9375 -1.0q-1.125 0 -2.0 1.0625q-0.859375 1.046875 -0.859375 3.046875zm8.888672 -0.0625q0 -2.875 1.59375 -4.265625q1.34375 -1.15625 3.265625 -1.15625q2.140625 0 3.484375 1.40625q1.359375 1.40625 1.359375 3.875q0 2.0 -0.59375 3.15625q-0.59375 1.140625 -1.75 1.78125q-1.140625 0.625 -2.5 0.625q-2.1875 0 -3.53125 -1.390625q-1.328125 -1.40625 -1.328125 -4.03125zm1.796875 0q0 2.0 0.859375 2.984375q0.875 0.984375 2.203125 0.984375q1.3125 0 2.171875 -0.984375q0.875 -1.0 0.875 -3.046875q0 -1.921875 -0.875 -2.90625q-0.875 -1.0 -2.171875 -1.0q-1.328125 0 -2.203125 1.0q-0.859375 0.984375 -0.859375 2.96875zm9.966797 5.1875l0 -10.375l1.59375 0l0 1.484375q1.140625 -1.71875 3.296875 -1.71875q0.9375 0 1.71875 0.34375q0.796875 0.328125 1.1875 0.875q0.390625 0.546875 0.546875 1.296875q0.09375 0.5 0.09375 1.71875l0 6.375l-1.765625 0l0 -6.3125q0 -1.078125 -0.203125 -1.609375q-0.203125 -0.53125 -0.734375 -0.84375q-0.515625 -0.3125 -1.21875 -0.3125q-1.125 0 -1.9375 0.71875q-0.8125 0.703125 -0.8125 2.6875l0 5.671875l-1.765625 0zm18.232422 -3.34375l1.8125 0.234375q-0.421875 1.578125 -1.59375 2.46875q-1.15625 0.875 -2.96875 0.875q-2.265625 0 -3.609375 -1.390625q-1.328125 -1.40625 -1.328125 -3.9375q0 -2.625 1.34375 -4.0625q1.34375 -1.453125 3.5 -1.453125q2.078125 0 3.390625 1.421875q1.328125 1.40625 1.328125 3.984375q0 0.15625 -0.015625 0.46875l-7.734375 0q0.09375 1.703125 0.96875 2.609375q0.875 0.90625 2.171875 0.90625q0.96875 0 1.640625 -0.5q0.6875 -0.515625 1.09375 -1.625zm-5.78125 -2.84375l5.796875 0q-0.109375 -1.296875 -0.65625 -1.953125q-0.84375 -1.015625 -2.1875 -1.015625q-1.203125 0 -2.03125 0.8125q-0.828125 0.796875 -0.921875 2.15625zm9.794922 6.1875l0 -10.375l1.59375 0l0 1.484375q1.1406097 -1.71875 3.2968597 -1.71875q0.9375 0 1.71875 0.34375q0.796875 0.328125 1.1875 0.875q0.390625 0.546875 0.546875 1.296875q0.09375 0.5 0.09375 1.71875l0 6.375l-1.765625 0l0 -6.3125q0 -1.078125 -0.203125 -1.609375q-0.203125 -0.53125 -0.734375 -0.84375q-0.515625 -0.3125 -1.21875 -0.3125q-1.125 0 -1.9375 0.71875q-0.81248474 0.703125 -0.81248474 2.6875l0 5.671875l-1.765625 0zm14.966782 -1.578125l0.25 1.5625q-0.734375 0.15625 -1.328125 0.15625q-0.953125 0 -1.484375 -0.296875q-0.515625 -0.3125 -0.734375 -0.796875q-0.21875 -0.5 -0.21875 -2.078125l0 -5.96875l-1.28125 0l0 -1.375l1.28125 0l0 -2.5625l1.75 -1.0625l0 3.625l1.765625 0l0 1.375l-1.765625 0l0 6.0625q0 0.75 0.09375 0.96875q0.09375 0.203125 0.296875 0.34375q0.21875 0.125 0.609375 0.125q0.28125 0 0.765625 -0.078125z" fill-rule="nonzero"/><path fill="#cfe2f3" d="m1156.9829 421.36127l0 0c0 -9.990631 8.098999 -18.0896 18.0896 -18.0896l183.56885 0c4.7977295 0 9.398804 1.9058533 12.79126 5.2983093c3.392456 3.392456 5.29834 7.993622 5.29834 12.79129l0 72.35623c0 9.990601 -8.098999 18.0896 -18.0896 18.0896l-183.56885 0c-9.990601 0 -18.0896 -8.098999 -18.0896 -18.0896z" fill-rule="evenodd"/><path stroke="#666666" stroke-width="4.0" stroke-linejoin="round" stroke-linecap="butt" d="m1156.9829 421.36127l0 0c0 -9.990631 8.098999 -18.0896 18.0896 -18.0896l183.56885 0c4.7977295 0 9.398804 1.9058533 12.79126 5.2983093c3.392456 3.392456 5.29834 7.993622 5.29834 12.79129l0 72.35623c0 9.990601 -8.098999 18.0896 -18.0896 18.0896l-183.56885 0c-9.990601 0 -18.0896 -8.098999 -18.0896 -18.0896z" fill-rule="evenodd"/><path fill="#434343" d="m1198.9137 468.19937l0 -21.0l8.921875 0q3.375 0 4.890625 0.578125q1.53125 0.5625 2.4375 2.015625q0.921875 1.4375 0.921875 3.296875q0 2.359375 -1.390625 3.90625q-1.375 1.53125 -4.140625 1.9375q1.375 0.796875 2.265625 1.765625q0.890625 0.953125 2.40625 3.40625l2.5625 4.09375l-5.0625 0l-3.0625 -4.5625q-1.640625 -2.453125 -2.25 -3.09375q-0.59375 -0.640625 -1.265625 -0.875q-0.671875 -0.234375 -2.125 -0.234375l-0.859375 0l0 8.765625l-4.25 0zm4.25 -12.109375l3.125 0q3.0625 0 3.8125 -0.25q0.765625 -0.265625 1.1875 -0.890625q0.4375 -0.640625 0.4375 -1.578125q0 -1.0625 -0.578125 -1.71875q-0.5625 -0.65625 -1.59375 -0.828125q-0.515625 -0.0625 -3.09375 -0.0625l-3.296875 0l0 5.328125zm25.695435 7.265625l4.015625 0.671875q-0.765625 2.203125 -2.4375 3.359375q-1.671875 1.15625 -4.171875 1.15625q-3.96875 0 -5.875 -2.59375q-1.5 -2.078125 -1.5 -5.234375q0 -3.78125 1.96875 -5.921875q1.984375 -2.140625 5.0 -2.140625q3.390625 0 5.34375 2.25q1.96875 2.234375 1.890625 6.859375l-10.078125 0q0.03125 1.78125 0.953125 2.78125q0.9375 1.0 2.328125 1.0q0.953125 0 1.59375 -0.515625q0.640625 -0.515625 0.96875 -1.671875zm0.234375 -4.0625q-0.046875 -1.75 -0.90625 -2.65625q-0.859375 -0.90625 -2.09375 -0.90625q-1.3125 0 -2.171875 0.953125q-0.859375 0.96875 -0.84375 2.609375l6.015625 0zm5.857788 4.5625l4.03125 -0.609375q0.265625 1.171875 1.046875 1.78125q0.796875 0.609375 2.203125 0.609375q1.5625 0 2.359375 -0.578125q0.53125 -0.390625 0.53125 -1.0625q0 -0.46875 -0.296875 -0.765625q-0.296875 -0.28125 -1.34375 -0.53125q-4.859375 -1.078125 -6.171875 -1.953125q-1.796875 -1.234375 -1.796875 -3.4375q0 -1.96875 1.5625 -3.3125q1.5625 -1.34375 4.828125 -1.34375q3.125 0 4.640625 1.015625q1.53125 1.015625 2.09375 3.0l-3.796875 0.703125q-0.234375 -0.890625 -0.921875 -1.359375q-0.671875 -0.46875 -1.9375 -0.46875q-1.59375 0 -2.28125 0.4375q-0.453125 0.3125 -0.453125 0.8125q0 0.4375 0.40625 0.734375q0.53125 0.40625 3.75 1.140625q3.21875 0.71875 4.5 1.78125q1.25 1.078125 1.25 3.0q0 2.09375 -1.75 3.59375q-1.734375 1.5 -5.171875 1.5q-3.09375 0 -4.90625 -1.25q-1.8125 -1.265625 -2.375 -3.4375zm17.607788 -10.859375l3.765625 0l0 2.234375q0.71875 -1.15625 1.96875 -1.859375q1.25 -0.71875 2.765625 -0.71875q2.640625 0 4.484375 2.078125q1.859375 2.0625 1.859375 5.78125q0 3.8125 -1.859375 5.921875q-1.859375 2.109375 -4.515625 2.109375q-1.265625 0 -2.296875 -0.5q-1.015625 -0.5 -2.140625 -1.71875l0 7.65625l-4.03125 0l0 -20.984375zm3.984375 7.34375q0 2.5625 1.015625 3.796875q1.015625 1.21875 2.484375 1.21875q1.40625 0 2.328125 -1.125q0.9375 -1.125 0.9375 -3.6875q0 -2.390625 -0.96875 -3.546875q-0.953125 -1.171875 -2.375 -1.171875q-1.46875 0 -2.453125 1.140625q-0.96875 1.140625 -0.96875 3.375zm13.11792 0.046875q0 -2.015625 0.984375 -3.890625q1.0 -1.875 2.8125 -2.859375q1.8125 -0.984375 4.03125 -0.984375q3.453125 0 5.65625 2.25q2.21875 2.234375 2.21875 5.65625q0 3.4375 -2.234375 5.71875q-2.21875 2.265625 -5.609375 2.265625q-2.078125 0 -3.984375 -0.9375q-1.890625 -0.953125 -2.890625 -2.78125q-0.984375 -1.828125 -0.984375 -4.4375zm4.125 0.203125q0 2.265625 1.078125 3.46875q1.078125 1.203125 2.640625 1.203125q1.578125 0 2.640625 -1.203125q1.078125 -1.203125 1.078125 -3.484375q0 -2.234375 -1.078125 -3.4375q-1.0625 -1.203125 -2.640625 -1.203125q-1.5625 0 -2.640625 1.203125q-1.078125 1.203125 -1.078125 3.453125zm28.55542 7.609375l-4.015625 0l0 -7.765625q0 -2.453125 -0.265625 -3.171875q-0.25 -0.734375 -0.84375 -1.125q-0.578125 -0.40625 -1.390625 -0.40625q-1.046875 0 -1.875 0.578125q-0.828125 0.5625 -1.140625 1.515625q-0.3125 0.9375 -0.3125 3.484375l0 6.890625l-4.015625 0l0 -15.203125l3.734375 0l0 2.234375q1.984375 -2.578125 5.015625 -2.578125q1.328125 0 2.421875 0.484375q1.109375 0.46875 1.671875 1.21875q0.578125 0.734375 0.796875 1.6875q0.21875 0.9375 0.21875 2.703125l0 9.453125zm2.664795 -4.34375l4.03125 -0.609375q0.265625 1.171875 1.046875 1.78125q0.796875 0.609375 2.203125 0.609375q1.5625 0 2.359375 -0.578125q0.53125 -0.390625 0.53125 -1.0625q0 -0.46875 -0.296875 -0.765625q-0.296875 -0.28125 -1.34375 -0.53125q-4.859375 -1.078125 -6.171875 -1.953125q-1.796875 -1.234375 -1.796875 -3.4375q0 -1.96875 1.5625 -3.3125q1.5625 -1.34375 4.828125 -1.34375q3.125 0 4.640625 1.015625q1.53125 1.015625 2.09375 3.0l-3.796875 0.703125q-0.234375 -0.890625 -0.921875 -1.359375q-0.671875 -0.46875 -1.9375 -0.46875q-1.59375 0 -2.28125 0.4375q-0.453125 0.3125 -0.453125 0.8125q0 0.4375 0.40625 0.734375q0.53125 0.40625 3.75 1.140625q3.21875 0.71875 4.5 1.78125q1.25 1.078125 1.25 3.0q0 2.09375 -1.75 3.59375q-1.734375 1.5 -5.171875 1.5q-3.09375 0 -4.90625 -1.25q-1.8125 -1.265625 -2.375 -3.4375zm26.529663 -0.5l4.015625 0.671875q-0.765625 2.203125 -2.4375 3.359375q-1.671875 1.15625 -4.171875 1.15625q-3.96875 0 -5.875 -2.59375q-1.5 -2.078125 -1.5 -5.234375q0 -3.78125 1.96875 -5.921875q1.984375 -2.140625 5.0 -2.140625q3.390625 0 5.34375 2.25q1.96875 2.234375 1.890625 6.859375l-10.078125 0q0.03125 1.78125 0.953125 2.78125q0.9375 1.0 2.328125 1.0q0.953125 0 1.59375 -0.515625q0.640625 -0.515625 0.96875 -1.671875zm0.234375 -4.0625q-0.046875 -1.75 -0.90625 -2.65625q-0.859375 -0.90625 -2.09375 -0.90625q-1.3125 0 -2.171875 0.953125q-0.859375 0.96875 -0.84375 2.609375l6.015625 0z" fill-rule="nonzero"/><path fill="#d9ead3" d="m908.2848 238.05905l0 0c0 -34.96353 93.801636 -63.307083 209.51184 -63.307083l0 0c115.71008 0 209.51172 28.343552 209.51172 63.307083l0 0c0 34.96353 -93.801636 63.3071 -209.51172 63.3071l0 0c-115.710205 0 -209.51184 -28.343567 -209.51184 -63.3071z" fill-rule="evenodd"/><path stroke="#6aa84f" stroke-width="4.0" stroke-linejoin="round" stroke-linecap="butt" d="m908.2848 238.05905l0 0c0 -34.96353 93.801636 -63.307083 209.51184 -63.307083l0 0c115.71008 0 209.51172 28.343552 209.51172 63.307083l0 0c0 34.96353 -93.801636 63.3071 -209.51172 63.3071l0 0c-115.710205 0 -209.51184 -28.343567 -209.51184 -63.3071z" fill-rule="evenodd"/><path fill="#434343" d="m1042.78 210.89218l7.390625 0q2.5 0 3.8125 0.390625q1.765625 0.515625 3.015625 1.84375q1.265625 1.328125 1.921875 3.25q0.65625 1.921875 0.65625 4.734375q0 2.46875 -0.609375 4.265625q-0.765625 2.1875 -2.15625 3.53125q-1.046875 1.03125 -2.84375 1.609375q-1.34375 0.421875 -3.578125 0.421875l-7.609375 0l0 -20.046875zm4.046875 3.390625l0 13.28125l3.015625 0q1.6875 0 2.453125 -0.1875q0.984375 -0.25 1.625 -0.828125q0.65625 -0.59375 1.0625 -1.9375q0.40625 -1.359375 0.40625 -3.6875q0 -2.3125 -0.40625 -3.5625q-0.40625 -1.25 -1.15625 -1.9375q-0.734375 -0.703125 -1.859375 -0.953125q-0.859375 -0.1875 -3.328125 -0.1875l-1.8125 0zm24.564453 12.03125l3.828125 0.640625q-0.734375 2.109375 -2.328125 3.21875q-1.59375 1.09375 -3.984375 1.09375q-3.796875 0 -5.609375 -2.46875q-1.4375 -1.984375 -1.4375 -5.015625q0 -3.609375 1.875 -5.640625q1.890625 -2.046875 4.78125 -2.046875q3.234375 0 5.109375 2.140625q1.875 2.140625 1.796875 6.546875l-9.625 0q0.046875 1.71875 0.921875 2.671875q0.890625 0.9375 2.21875 0.9375q0.90625 0 1.515625 -0.484375q0.625 -0.5 0.9375 -1.59375zm0.21875 -3.875q-0.046875 -1.671875 -0.875 -2.53125q-0.8125 -0.875 -1.984375 -0.875q-1.265625 0 -2.078125 0.90625q-0.828125 0.921875 -0.8125 2.5l5.75 0zm5.5878906 4.359375l3.859375 -0.59375q0.25 1.125 1.0 1.703125q0.75 0.578125 2.09375 0.578125q1.5 0 2.25 -0.546875q0.5 -0.375 0.5 -1.015625q0 -0.4375 -0.265625 -0.734375q-0.296875 -0.265625 -1.28125 -0.5q-4.65625 -1.03125 -5.90625 -1.875q-1.71875 -1.171875 -1.71875 -3.265625q0 -1.890625 1.484375 -3.171875q1.5 -1.28125 4.625 -1.28125q2.984375 0 4.4375 0.96875q1.453125 0.96875 2.0 2.875l-3.625 0.65625q-0.234375 -0.84375 -0.890625 -1.296875q-0.640625 -0.453125 -1.84375 -0.453125q-1.515625 0 -2.171875 0.4375q-0.4375 0.296875 -0.4375 0.765625q0 0.421875 0.375 0.703125q0.515625 0.390625 3.578125 1.09375q3.078125 0.6875 4.296875 1.703125q1.203125 1.015625 1.203125 2.84375q0 2.0 -1.671875 3.4375q-1.65625 1.4375 -4.9375 1.4375q-2.953125 0 -4.6875 -1.203125q-1.734375 -1.203125 -2.265625 -3.265625zm25.33789 -0.484375l3.828125 0.640625q-0.734375 2.109375 -2.328125 3.21875q-1.59375 1.09375 -3.984375 1.09375q-3.796875 0 -5.609375 -2.46875q-1.4375 -1.984375 -1.4375 -5.015625q0 -3.609375 1.875 -5.640625q1.890625 -2.046875 4.78125 -2.046875q3.234375 0 5.109375 2.140625q1.875 2.140625 1.796875 6.546875l-9.625 0q0.046875 1.71875 0.921875 2.671875q0.890625 0.9375 2.21875 0.9375q0.90625 0 1.515625 -0.484375q0.625 -0.5 0.9375 -1.59375zm0.21875 -3.875q-0.046875 -1.671875 -0.875 -2.53125q-0.8125 -0.875 -1.984375 -0.875q-1.265625 0 -2.078125 0.90625q-0.828125 0.921875 -0.8125 2.5l5.75 0zm10.619141 8.5l-3.84375 0l0 -14.515625l3.578125 0l0 2.0625q0.90625 -1.46875 1.640625 -1.921875q0.734375 -0.46875 1.65625 -0.46875q1.3125 0 2.53125 0.71875l-1.1875 3.34375q-0.96875 -0.625 -1.796875 -0.625q-0.8125 0 -1.375 0.453125q-0.5625 0.4375 -0.890625 1.609375q-0.3125 1.15625 -0.3125 4.859375l0 4.484375zm7.2246094 -16.484375l0 -3.5625l3.84375 0l0 3.5625l-3.84375 0zm0 16.484375l0 -14.515625l3.84375 0l0 14.515625l-3.84375 0zm10.638672 -10.09375l-3.484375 -0.625q0.59375 -2.109375 2.03125 -3.109375q1.4375 -1.015625 4.265625 -1.015625q2.5625 0 3.8125 0.609375q1.265625 0.609375 1.78125 1.546875q0.515625 0.921875 0.515625 3.4375l-0.046875 4.484375q0 1.90625 0.1875 2.8125q0.1875 0.90625 0.6875 1.953125l-3.796875 0q-0.15625 -0.390625 -0.375 -1.140625q-0.09375 -0.34375 -0.125 -0.453125q-0.984375 0.96875 -2.109375 1.453125q-1.125 0.46875 -2.390625 0.46875q-2.25 0 -3.546875 -1.21875q-1.28125 -1.21875 -1.28125 -3.078125q0 -1.234375 0.578125 -2.1875q0.59375 -0.96875 1.65625 -1.484375q1.0625 -0.515625 3.0625 -0.890625q2.6875 -0.5 3.71875 -0.9375l0 -0.390625q0 -1.109375 -0.546875 -1.578125q-0.546875 -0.46875 -2.0625 -0.46875q-1.015625 0 -1.59375 0.40625q-0.578125 0.390625 -0.9375 1.40625zm5.140625 3.125q-0.734375 0.234375 -2.34375 0.578125q-1.59375 0.34375 -2.078125 0.671875q-0.75 0.53125 -0.75 1.359375q0 0.796875 0.59375 1.390625q0.609375 0.59375 1.53125 0.59375q1.046875 0 1.984375 -0.6875q0.703125 -0.515625 0.921875 -1.265625q0.140625 -0.5 0.140625 -1.875l0 -0.765625zm7.5722656 6.96875l0 -20.046875l3.84375 0l0 20.046875l-3.84375 0zm7.779297 -16.484375l0 -3.5625l3.84375 0l0 3.5625l-3.84375 0zm0 16.484375l0 -14.515625l3.84375 0l0 14.515625l-3.84375 0zm6.232422 0l0 -3.0l5.4375 -6.25q1.34375 -1.53125 1.984375 -2.171875q-0.671875 0.046875 -1.765625 0.0625l-5.125 0.03125l0 -3.1875l12.0 0l0 2.71875l-5.546875 6.390625l-1.953125 2.125q1.59375 -0.09375 1.984375 -0.09375l5.9375 0l0 3.375l-12.953125 0zm23.953125 -4.625l3.828125 0.640625q-0.734375 2.109375 -2.328125 3.21875q-1.59375 1.09375 -3.984375 1.09375q-3.796875 0 -5.609375 -2.46875q-1.4375 -1.984375 -1.4375 -5.015625q0 -3.609375 1.875 -5.640625q1.890625 -2.046875 4.78125 -2.046875q3.234375 0 5.109375 2.140625q1.875 2.140625 1.796875 6.546875l-9.625 0q0.046875 1.71875 0.921875 2.671875q0.890625 0.9375 2.21875 0.9375q0.90625 0 1.515625 -0.484375q0.625 -0.5 0.9375 -1.59375zm0.21875 -3.875q-0.046875 -1.671875 -0.875 -2.53125q-0.8125 -0.875 -1.984375 -0.875q-1.265625 0 -2.078125 0.90625q-0.828125 0.921875 -0.8125 2.5l5.75 0zm6.8535156 4.65625l3.828125 0l0 2.75q0 1.671875 -0.28125 2.625q-0.28125 0.96875 -1.09375 1.734375q-0.796875 0.765625 -2.015625 1.203125l-0.765625 -1.578125q1.171875 -0.390625 1.65625 -1.0625q0.5 -0.671875 0.53125 -1.828125l-1.859375 0l0 -3.84375z" fill-rule="nonzero"/><path fill="#ff0000" d="m1060.867 250.82968l-15.203125 0l0 -3.5625l18.875 0l0 16.796875l-3.671875 0l0 -1.203125l-15.203125 0l0 -3.5625l15.203125 0l0 -8.46875zm21.515625 7.59375q1.90625 1.8125 3.71875 3.90625l-3.0625 2.75q-4.484375 -5.328125 -10.28125 -9.578125l2.21875 -2.84375q2.453125 1.5 4.5 3.359375q2.859375 -2.859375 5.53125 -6.671875l-16.5 0.734375l-0.625 -3.890625l19.71875 -0.453125l1.359375 -0.40625l1.921875 2.046875q1.21875 1.9375 -0.625 1.734375q-2.546875 3.375 -7.875 9.3125zm33.28125 -6.9375q-6.15625 12.78125 -19.796875 13.4375q-0.90625 2.359375 -2.046875 -0.140625l-1.109375 -3.609375q14.609375 -0.328125 19.671875 -12.03125l3.28125 2.34375zm-16.140625 0.984375q-3.328125 -3.078125 -6.4375 -5.15625l2.578125 -3.1875q2.78125 1.71875 6.75 5.453125l-2.890625 2.890625zm32.390625 6.21875q-6.25 -3.1875 -9.1875 -3.96875l0 11.203125l-3.671875 0l0 -23.03125l2.796875 0q2.8125 0.234375 0.875 1.734375l0 6.171875q4.984375 1.421875 11.03125 4.328125l-1.84375 3.5625zm-0.5625 -9.609375q-2.171875 -2.671875 -4.578125 -4.515625l2.375 -1.828125q2.265625 1.734375 4.546875 4.546875l-2.34375 1.796875zm2.609375 -2.0625q-1.734375 -2.265625 -4.4375 -4.4375l2.34375 -1.796875q2.28125 1.609375 4.4375 4.4375l-2.34375 1.796875zm2.75 9.296875q3.6875 -5.078125 4.84375 -15.046875l3.1875 0.578125q1.375 1.375 -0.109375 1.59375l-0.140625 0.765625l5.03125 0l0 2.671875q-0.328125 7.015625 -2.65625 12.0q1.984375 3.59375 6.453125 3.59375l9.875 0l-0.640625 3.5625l-9.234375 0q-5.5625 0 -8.109375 -4.015625q-2.296875 3.296875 -5.265625 5.453125l-2.09375 -3.046875q3.328125 -2.21875 5.40625 -5.78125q-1.203125 -2.625 -1.5625 -4.125q-0.65625 1.578125 -2.515625 4.4375l-2.46875 -2.640625zm6.90625 -7.46875q0.53125 4.421875 1.28125 6.15625q1.0625 -2.578125 1.265625 -7.5625l-2.3125 0l-0.234375 1.40625zm16.15625 8.8125q0 0.015625 0.109375 -3.234375l3.203125 0.84375q0 5.625 -2.65625 5.625l-1.859375 0q-2.4375 0 -2.4375 -2.546875l0 -11.671875l-2.453125 0l0 8.0625q0 3.8125 -3.171875 7.765625l-2.625 -2.78125q2.453125 -2.078125 2.453125 -5.96875l0 -10.3125l9.140625 0l0 14.359375q-0.25 0.109375 -0.25 -0.140625l0.546875 0zm15.828125 2.828125q-4.71875 1.6875 -8.171875 2.609375q-0.640625 1.71875 -1.625 0.078125l-0.96875 -3.1875l3.984375 -0.796875l0 -4.96875l-2.953125 0l0 -3.234375l2.953125 0l0 -4.640625l-3.28125 0l0 -3.234375l9.90625 0l0 3.234375l-3.28125 0l0 4.640625l2.953125 0l0 3.234375l-2.953125 0l0 4.234375q0.171875 -0.015625 3.078125 -0.984375l0.359375 3.015625zm8.59375 -4.953125l0 2.015625l6.125 0l0 3.234375l-6.125 0l0 2.234375l7.21875 0l0 3.234375l-18.546875 0l0 -3.234375l8.3125 0l0 -2.234375l-5.90625 0l0 -3.234375l5.90625 0l0 -2.015625l-2.78125 0l0 1.421875l-3.015625 0l0 -14.609375l14.71875 0l0 14.171875l-3.015625 0l0 -0.984375l-2.890625 0zm2.890625 -5.03125l-2.890625 0l0 2.125l2.890625 0l0 -2.125zm0 -5.25l-2.890625 0l0 2.34375l2.890625 0l0 -2.34375zm-5.90625 2.34375l0 -2.34375l-2.78125 0l0 2.34375l2.78125 0zm0 2.90625l-2.78125 0l0 2.125l2.78125 0l0 -2.125z" fill-rule="nonzero"/><path fill="#000000" fill-opacity="0.0" d="m312.59448 238.05905l73.25986 0" fill-rule="evenodd"/><path stroke="#000000" stroke-width="3.0" stroke-linejoin="round" stroke-linecap="butt" d="m312.59448 238.05905l55.259857 0" fill-rule="evenodd"/><path fill="#000000" stroke="#000000" stroke-width="3.0" stroke-linecap="butt" d="m367.85434 243.01425l13.614288 -4.9552l-13.614288 -4.9552z" fill-rule="evenodd"/><path fill="#ffffff" d="m385.8622 238.05905l0 0c0 -34.96353 54.459076 -63.307083 121.63779 -63.307083l0 0c67.17871 0 121.63782 28.343552 121.63782 63.307083l0 0c0 34.96353 -54.459106 63.3071 -121.63782 63.3071l0 0c-67.17871 0 -121.63779 -28.343567 -121.63779 -63.3071z" fill-rule="evenodd"/><path stroke="#666666" stroke-width="4.0" stroke-linejoin="round" stroke-linecap="butt" d="m385.8622 238.05905l0 0c0 -34.96353 54.459076 -63.307083 121.63779 -63.307083l0 0c67.17871 0 121.63782 28.343552 121.63782 63.307083l0 0c0 34.96353 -54.459106 63.3071 -121.63782 63.3071l0 0c-67.17871 0 -121.63779 -28.343567 -121.63779 -63.3071z" fill-rule="evenodd"/><path fill="#434343" d="m447.8125 224.42343l3.9375 -0.390625q0.359375 1.984375 1.4375 2.921875q1.09375 0.921875 2.9375 0.921875q1.953125 0 2.9375 -0.828125q1.0 -0.828125 1.0 -1.9375q0 -0.703125 -0.421875 -1.203125q-0.421875 -0.5 -1.453125 -0.875q-0.71875 -0.25 -3.234375 -0.875q-3.265625 -0.796875 -4.578125 -1.984375q-1.84375 -1.65625 -1.84375 -4.03125q0 -1.53125 0.859375 -2.859375q0.875 -1.328125 2.5 -2.03125q1.640625 -0.703125 3.953125 -0.703125q3.78125 0 5.6875 1.65625q1.90625 1.65625 2.0 4.421875l-4.046875 0.171875q-0.265625 -1.546875 -1.125 -2.21875q-0.84375 -0.671875 -2.546875 -0.671875q-1.765625 0 -2.765625 0.71875q-0.640625 0.46875 -0.640625 1.25q0 0.703125 0.59375 1.21875q0.765625 0.640625 3.71875 1.34375q2.953125 0.6875 4.359375 1.4375q1.421875 0.734375 2.21875 2.03125q0.8125 1.296875 0.8125 3.1875q0 1.734375 -0.96875 3.234375q-0.953125 1.5 -2.703125 2.234375q-1.75 0.734375 -4.359375 0.734375q-3.796875 0 -5.84375 -1.75q-2.03125 -1.765625 -2.421875 -5.125zm28.082031 1.890625l3.828125 0.640625q-0.734375 2.109375 -2.328125 3.21875q-1.59375 1.09375 -3.984375 1.09375q-3.796875 0 -5.609375 -2.46875q-1.4375 -1.984375 -1.4375 -5.015625q0 -3.609375 1.875 -5.640625q1.890625 -2.046875 4.78125 -2.046875q3.234375 0 5.109375 2.140625q1.875 2.140625 1.796875 6.546875l-9.625 0q0.046875 1.71875 0.921875 2.671875q0.890625 0.9375 2.21875 0.9375q0.90625 0 1.515625 -0.484375q0.625 -0.5 0.9375 -1.59375zm0.21875 -3.875q-0.046875 -1.671875 -0.875 -2.53125q-0.8125 -0.875 -1.984375 -0.875q-1.265625 0 -2.078125 0.90625q-0.828125 0.921875 -0.8125 2.5l5.75 0zm10.619141 8.5l-3.84375 0l0 -14.515625l3.578125 0l0 2.0625q0.90625 -1.46875 1.640625 -1.921875q0.734375 -0.46875 1.65625 -0.46875q1.3125 0 2.53125 0.71875l-1.1875 3.34375q-0.96875 -0.625 -1.796875 -0.625q-0.8125 0 -1.375 0.453125q-0.5625 0.4375 -0.890625 1.609375q-0.3125 1.15625 -0.3125 4.859375l0 4.484375zm7.2246094 -16.484375l0 -3.5625l3.84375 0l0 3.5625l-3.84375 0zm0 16.484375l0 -14.515625l3.84375 0l0 14.515625l-3.84375 0zm10.638672 -10.09375l-3.484375 -0.625q0.59375 -2.109375 2.03125 -3.109375q1.4375 -1.015625 4.265625 -1.015625q2.5625 0 3.8125 0.609375q1.265625 0.609375 1.78125 1.546875q0.515625 0.921875 0.515625 3.4375l-0.046875 4.484375q0 1.90625 0.1875 2.8125q0.1875 0.90625 0.6875 1.953125l-3.796875 0q-0.15625 -0.390625 -0.375 -1.140625q-0.09375 -0.34375 -0.125 -0.453125q-0.984375 0.96875 -2.109375 1.453125q-1.125 0.46875 -2.390625 0.46875q-2.25 0 -3.546875 -1.21875q-1.28125 -1.21875 -1.28125 -3.078125q0 -1.234375 0.578125 -2.1875q0.59375 -0.96875 1.65625 -1.484375q1.0625 -0.515625 3.0625 -0.890625q2.6875 -0.5 3.71875 -0.9375l0 -0.390625q0 -1.109375 -0.546875 -1.578125q-0.546875 -0.46875 -2.0625 -0.46875q-1.015625 0 -1.59375 0.40625q-0.578125 0.390625 -0.9375 1.40625zm5.140625 3.125q-0.734375 0.234375 -2.34375 0.578125q-1.59375 0.34375 -2.078125 0.671875q-0.75 0.53125 -0.75 1.359375q0 0.796875 0.59375 1.390625q0.609375 0.59375 1.53125 0.59375q1.046875 0 1.984375 -0.6875q0.703125 -0.515625 0.921875 -1.265625q0.140625 -0.5 0.140625 -1.875l0 -0.765625zm7.5722656 6.96875l0 -20.046875l3.84375 0l0 20.046875l-3.84375 0zm7.779297 -16.484375l0 -3.5625l3.84375 0l0 3.5625l-3.84375 0zm0 16.484375l0 -14.515625l3.84375 0l0 14.515625l-3.84375 0zm6.232422 0l0 -3.0l5.4375 -6.25q1.34375 -1.53125 1.984375 -2.171875q-0.671875 0.046875 -1.765625 0.0625l-5.125 0.03125l0 -3.1875l12.0 0l0 2.71875l-5.546875 6.390625l-1.953125 2.125q1.59375 -0.09375 1.984375 -0.09375l5.9375 0l0 3.375l-12.953125 0zm23.953125 -4.625l3.828125 0.640625q-0.734375 2.109375 -2.328125 3.21875q-1.59375 1.09375 -3.984375 1.09375q-3.796875 0 -5.609375 -2.46875q-1.4375 -1.984375 -1.4375 -5.015625q0 -3.609375 1.875 -5.640625q1.890625 -2.046875 4.78125 -2.046875q3.234375 0 5.109375 2.140625q1.875 2.140625 1.796875 6.546875l-9.625 0q0.046875 1.71875 0.921875 2.671875q0.890625 0.9375 2.21875 0.9375q0.90625 0 1.515625 -0.484375q0.625 -0.5 0.9375 -1.59375zm0.21875 -3.875q-0.046875 -1.671875 -0.875 -2.53125q-0.8125 -0.875 -1.984375 -0.875q-1.265625 0 -2.078125 0.90625q-0.828125 0.921875 -0.8125 2.5l5.75 0zm6.8535156 4.65625l3.828125 0l0 2.75q0 1.671875 -0.28125 2.625q-0.28125 0.96875 -1.09375 1.734375q-0.796875 0.765625 -2.015625 1.203125l-0.765625 -1.578125q1.171875 -0.390625 1.65625 -1.0625q0.5 -0.671875 0.53125 -1.828125l-1.859375 0l0 -3.84375z" fill-rule="nonzero"/><path fill="#434343" d="m474.2881 258.42343l3.9375 -0.390625q0.359375 1.984375 1.4375 2.921875q1.09375 0.921875 2.9375 0.921875q1.953125 0 2.9375 -0.828125q1.0 -0.828125 1.0 -1.9375q0 -0.703125 -0.421875 -1.203125q-0.421875 -0.5 -1.453125 -0.875q-0.71875 -0.25 -3.234375 -0.875q-3.265625 -0.796875 -4.578125 -1.984375q-1.84375 -1.65625 -1.84375 -4.03125q0 -1.53125 0.859375 -2.859375q0.875 -1.328125 2.5 -2.03125q1.640625 -0.703125 3.953125 -0.703125q3.78125 0 5.6875 1.65625q1.90625 1.65625 2.0 4.421875l-4.046875 0.171875q-0.265625 -1.546875 -1.125 -2.21875q-0.84375 -0.671875 -2.546875 -0.671875q-1.765625 0 -2.765625 0.71875q-0.640625 0.46875 -0.640625 1.25q0 0.703125 0.59375 1.21875q0.765625 0.640625 3.71875 1.34375q2.953125 0.6875 4.359375 1.4375q1.421875 0.734375 2.21875 2.03125q0.8125 1.296875 0.8125 3.1875q0 1.734375 -0.96875 3.234375q-0.953125 1.5 -2.703125 2.234375q-1.75 0.734375 -4.359375 0.734375q-3.796875 0 -5.84375 -1.75q-2.03125 -1.765625 -2.421875 -5.125zm28.082031 1.890625l3.828125 0.640625q-0.734375 2.109375 -2.328125 3.21875q-1.59375 1.09375 -3.984375 1.09375q-3.796875 0 -5.609375 -2.46875q-1.4375 -1.984375 -1.4375 -5.015625q0 -3.609375 1.875 -5.640625q1.890625 -2.046875 4.78125 -2.046875q3.234375 0 5.109375 2.140625q1.875 2.140625 1.796875 6.546875l-9.625 0q0.046875 1.71875 0.921875 2.671875q0.890625 0.9375 2.21875 0.9375q0.90625 0 1.515625 -0.484375q0.625 -0.5 0.9375 -1.59375zm0.21875 -3.875q-0.046875 -1.671875 -0.875 -2.53125q-0.8125 -0.875 -1.984375 -0.875q-1.265625 0 -2.078125 0.90625q-0.828125 0.921875 -0.8125 2.5l5.75 0zm20.15039 8.5l-3.84375 0l0 -7.40625q0 -2.359375 -0.25 -3.046875q-0.234375 -0.6875 -0.796875 -1.0625q-0.546875 -0.390625 -1.328125 -0.390625q-1.0 0 -1.796875 0.546875q-0.796875 0.546875 -1.09375 1.453125q-0.28125 0.890625 -0.28125 3.328125l0 6.578125l-3.84375 0l0 -14.515625l3.5625 0l0 2.125q1.90625 -2.453125 4.796875 -2.453125q1.265625 0 2.3125 0.453125q1.0625 0.453125 1.59375 1.171875q0.546875 0.703125 0.75 1.609375q0.21875 0.90625 0.21875 2.578125l0 9.03125zm17.21289 0l-3.5625 0l0 -2.140625q-0.890625 1.25 -2.109375 1.859375q-1.203125 0.609375 -2.4375 0.609375q-2.5 0 -4.28125 -2.015625q-1.78125 -2.015625 -1.78125 -5.625q0 -3.6875 1.734375 -5.609375q1.734375 -1.921875 4.390625 -1.921875q2.421875 0 4.203125 2.015625l0 -7.21875l3.84375 0l0 20.046875zm-10.25 -7.578125q0 2.328125 0.640625 3.359375q0.921875 1.515625 2.59375 1.515625q1.328125 0 2.25 -1.125q0.9375 -1.140625 0.9375 -3.375q0 -2.5 -0.90625 -3.59375q-0.90625 -1.109375 -2.3125 -1.109375q-1.359375 0 -2.28125 1.09375q-0.921875 1.078125 -0.921875 3.234375z" fill-rule="nonzero"/><path fill="#000000" fill-opacity="0.0" d="m629.1378 238.05905l279.1496 0" fill-rule="evenodd"/><path stroke="#000000" stroke-width="3.0" stroke-linejoin="round" stroke-linecap="butt" stroke-dasharray="24.0,9.0" d="m629.1378 238.05905l261.1496 0" fill-rule="evenodd"/><path fill="#000000" stroke="#000000" stroke-width="3.0" stroke-linecap="butt" d="m890.2874 243.01425l13.614258 -4.9552l-13.614258 -4.9552z" fill-rule="evenodd"/><path fill="#000000" fill-opacity="0.0" d="m1265.9438 282.8239l0.9133301 120.44095" fill-rule="evenodd"/><path stroke="#000000" stroke-width="3.0" stroke-linejoin="round" stroke-linecap="butt" d="m1265.9438 282.8239l0.77685547 102.4415" fill-rule="evenodd"/><path fill="#000000" stroke="#000000" stroke-width="3.0" stroke-linecap="butt" d="m1261.7656 385.30298l5.0583496 13.576324l4.8518066 -13.651489z" fill-rule="evenodd"/><path fill="#ffffff" d="m856.13257 457.53937l0 0c0 -34.96353 54.459045 -63.3071 121.63776 -63.3071l0 0c67.17877 0 121.63776 28.343567 121.63776 63.3071l0 0c0 34.96353 -54.458984 63.307068 -121.63776 63.307068l0 0c-67.17871 0 -121.63776 -28.343536 -121.63776 -63.307068z" fill-rule="evenodd"/><path stroke="#666666" stroke-width="4.0" stroke-linejoin="round" stroke-linecap="butt" d="m856.13257 457.53937l0 0c0 -34.96353 54.459045 -63.3071 121.63776 -63.3071l0 0c67.17877 0 121.63776 28.343567 121.63776 63.3071l0 0c0 34.96353 -54.458984 63.307068 -121.63776 63.307068l0 0c-67.17871 0 -121.63776 -28.343536 -121.63776 -63.307068z" fill-rule="evenodd"/><path fill="#434343" d="m918.0828 443.90375l3.9375 -0.390625q0.359375 1.984375 1.4375 2.921875q1.09375 0.921875 2.9375 0.921875q1.953125 0 2.9375 -0.828125q1.0 -0.828125 1.0 -1.9375q0 -0.703125 -0.421875 -1.203125q-0.421875 -0.5 -1.453125 -0.875q-0.71875 -0.25 -3.234375 -0.875q-3.265625 -0.796875 -4.578125 -1.984375q-1.84375 -1.65625 -1.84375 -4.03125q0 -1.53125 0.859375 -2.859375q0.875 -1.328125 2.5 -2.03125q1.640625 -0.703125 3.953125 -0.703125q3.78125 0 5.6875 1.65625q1.90625 1.65625 2.0 4.421875l-4.046875 0.171875q-0.265625 -1.546875 -1.125 -2.21875q-0.84375 -0.671875 -2.546875 -0.671875q-1.765625 0 -2.765625 0.71875q-0.640625 0.46875 -0.640625 1.25q0 0.703125 0.59375 1.21875q0.765625 0.640625 3.71875 1.34375q2.953125 0.6875 4.359375 1.4375q1.421875 0.734375 2.21875 2.03125q0.8125 1.296875 0.8125 3.1875q0 1.734375 -0.96875 3.234375q-0.953125 1.5 -2.703125 2.234375q-1.75 0.734375 -4.359375 0.734375q-3.796875 0 -5.84375 -1.75q-2.03125 -1.765625 -2.421875 -5.125zm28.082031 1.890625l3.828125 0.640625q-0.734375 2.109375 -2.328125 3.21875q-1.59375 1.09375 -3.984375 1.09375q-3.796875 0 -5.609375 -2.46875q-1.4375 -1.984375 -1.4375 -5.015625q0 -3.609375 1.875 -5.640625q1.890625 -2.046875 4.78125 -2.046875q3.234375 0 5.109375 2.140625q1.875 2.140625 1.796875 6.546875l-9.625 0q0.046875 1.71875 0.921875 2.671875q0.890625 0.9375 2.21875 0.9375q0.90625 0 1.515625 -0.484375q0.625 -0.5 0.9375 -1.59375zm0.21875 -3.875q-0.046875 -1.671875 -0.875 -2.53125q-0.8125 -0.875 -1.984375 -0.875q-1.265625 0 -2.078125 0.90625q-0.828125 0.921875 -0.8125 2.5l5.75 0zm10.619141 8.5l-3.84375 0l0 -14.515625l3.578125 0l0 2.0625q0.90625 -1.46875 1.640625 -1.921875q0.734375 -0.46875 1.65625 -0.46875q1.3125 0 2.53125 0.71875l-1.1875 3.34375q-0.96875 -0.625 -1.796875 -0.625q-0.8125 0 -1.375 0.453125q-0.5625 0.4375 -0.890625 1.609375q-0.3125 1.15625 -0.3125 4.859375l0 4.484375zm7.2246094 -16.484375l0 -3.5625l3.84375 0l0 3.5625l-3.84375 0zm0 16.484375l0 -14.515625l3.84375 0l0 14.515625l-3.84375 0zm10.638672 -10.09375l-3.484375 -0.625q0.59375 -2.109375 2.03125 -3.109375q1.4375 -1.015625 4.265625 -1.015625q2.5625 0 3.8125 0.609375q1.265625 0.609375 1.78125 1.546875q0.515625 0.921875 0.515625 3.4375l-0.046875 4.484375q0 1.90625 0.1875 2.8125q0.1875 0.90625 0.6875 1.953125l-3.796875 0q-0.15625 -0.390625 -0.375 -1.140625q-0.09375 -0.34375 -0.125 -0.453125q-0.984375 0.96875 -2.109375 1.453125q-1.125 0.46875 -2.390625 0.46875q-2.25 0 -3.546875 -1.21875q-1.28125 -1.21875 -1.28125 -3.078125q0 -1.234375 0.578125 -2.1875q0.59375 -0.96875 1.65625 -1.484375q1.0625 -0.515625 3.0625 -0.890625q2.6875 -0.5 3.71875 -0.9375l0 -0.390625q0 -1.109375 -0.546875 -1.578125q-0.546875 -0.46875 -2.0625 -0.46875q-1.015625 0 -1.59375 0.40625q-0.578125 0.390625 -0.9375 1.40625zm5.140625 3.125q-0.734375 0.234375 -2.34375 0.578125q-1.59375 0.34375 -2.078125 0.671875q-0.75 0.53125 -0.75 1.359375q0 0.796875 0.59375 1.390625q0.609375 0.59375 1.53125 0.59375q1.046875 0 1.984375 -0.6875q0.703125 -0.515625 0.921875 -1.265625q0.140625 -0.5 0.140625 -1.875l0 -0.765625zm7.5722656 6.96875l0 -20.046875l3.84375 0l0 20.046875l-3.84375 0zm7.779297 -16.484375l0 -3.5625l3.84375 0l0 3.5625l-3.84375 0zm0 16.484375l0 -14.515625l3.84375 0l0 14.515625l-3.84375 0zm6.232422 0l0 -3.0l5.4375 -6.25q1.34375 -1.53125 1.984375 -2.171875q-0.671875 0.046875 -1.765625 0.0625l-5.125 0.03125l0 -3.1875l12.0 0l0 2.71875l-5.546875 6.390625l-1.953125 2.125q1.59375 -0.09375 1.984375 -0.09375l5.9375 0l0 3.375l-12.953125 0zm23.953186 -4.625l3.828125 0.640625q-0.734375 2.109375 -2.328125 3.21875q-1.59375 1.09375 -3.984436 1.09375q-3.796875 0 -5.609375 -2.46875q-1.4375 -1.984375 -1.4375 -5.015625q0 -3.609375 1.875 -5.640625q1.890625 -2.046875 4.78125 -2.046875q3.234436 0 5.109436 2.140625q1.875 2.140625 1.796875 6.546875l-9.625061 0q0.046875 1.71875 0.921875 2.671875q0.890625 0.9375 2.21875 0.9375q0.90625 0 1.515686 -0.484375q0.625 -0.5 0.9375 -1.59375zm0.21875 -3.875q-0.046875 -1.671875 -0.875 -2.53125q-0.8125 -0.875 -1.984436 -0.875q-1.265625 0 -2.078125 0.90625q-0.828125 0.921875 -0.8125 2.5l5.750061 0zm6.8535156 4.65625l3.828125 0l0 2.75q0 1.671875 -0.28125 2.625q-0.28125 0.96875 -1.09375 1.734375q-0.796875 0.765625 -2.015625 1.203125l-0.765625 -1.578125q1.171875 -0.390625 1.65625 -1.0625q0.5 -0.671875 0.53125 -1.828125l-1.859375 0l0 -3.84375z" fill-rule="nonzero"/><path fill="#434343" d="m944.5584 477.90375l3.9375 -0.390625q0.359375 1.984375 1.4375 2.921875q1.09375 0.921875 2.9375 0.921875q1.953125 0 2.9375 -0.828125q1.0 -0.828125 1.0 -1.9375q0 -0.703125 -0.421875 -1.203125q-0.421875 -0.5 -1.453125 -0.875q-0.71875 -0.25 -3.234375 -0.875q-3.265625 -0.796875 -4.578125 -1.984375q-1.84375 -1.65625 -1.84375 -4.03125q0 -1.53125 0.859375 -2.859375q0.875 -1.328125 2.5 -2.03125q1.640625 -0.703125 3.953125 -0.703125q3.78125 0 5.6875 1.65625q1.90625 1.65625 2.0 4.421875l-4.046875 0.171875q-0.265625 -1.546875 -1.125 -2.21875q-0.84375 -0.671875 -2.546875 -0.671875q-1.765625 0 -2.765625 0.71875q-0.640625 0.46875 -0.640625 1.25q0 0.703125 0.59375 1.21875q0.765625 0.640625 3.71875 1.34375q2.953125 0.6875 4.359375 1.4375q1.421875 0.734375 2.21875 2.03125q0.8125 1.296875 0.8125 3.1875q0 1.734375 -0.96875 3.234375q-0.953125 1.5 -2.703125 2.234375q-1.75 0.734375 -4.359375 0.734375q-3.796875 0 -5.84375 -1.75q-2.03125 -1.765625 -2.421875 -5.125zm28.082031 1.890625l3.828125 0.640625q-0.734375 2.109375 -2.328125 3.21875q-1.59375 1.09375 -3.984375 1.09375q-3.796875 0 -5.609375 -2.46875q-1.4375 -1.984375 -1.4375 -5.015625q0 -3.609375 1.875 -5.640625q1.890625 -2.046875 4.78125 -2.046875q3.234375 0 5.109375 2.140625q1.875 2.140625 1.796875 6.546875l-9.625 0q0.046875 1.71875 0.921875 2.671875q0.890625 0.9375 2.21875 0.9375q0.90625 0 1.515625 -0.484375q0.625 -0.5 0.9375 -1.59375zm0.21875 -3.875q-0.046875 -1.671875 -0.875 -2.53125q-0.8125 -0.875 -1.984375 -0.875q-1.265625 0 -2.078125 0.90625q-0.828125 0.921875 -0.8125 2.5l5.75 0zm20.15039 8.5l-3.84375 0l0 -7.40625q0 -2.359375 -0.25 -3.046875q-0.234375 -0.6875 -0.796875 -1.0625q-0.546875 -0.390625 -1.328125 -0.390625q-1.0 0 -1.796875 0.546875q-0.796875 0.546875 -1.09375 1.453125q-0.28125 0.890625 -0.28125 3.328125l0 6.578125l-3.84375 0l0 -14.515625l3.5625 0l0 2.125q1.90625 -2.453125 4.796875 -2.453125q1.265625 0 2.3125 0.453125q1.0625 0.453125 1.59375 1.171875q0.546875 0.703125 0.75 1.609375q0.21875 0.90625 0.21875 2.578125l0 9.03125zm17.21289 0l-3.5625 0l0 -2.140625q-0.890625 1.25 -2.109375 1.859375q-1.203125 0.609375 -2.4375 0.609375q-2.5 0 -4.28125 -2.015625q-1.78125 -2.015625 -1.78125 -5.625q0 -3.6875 1.734375 -5.609375q1.734375 -1.921875 4.390625 -1.921875q2.421875 0 4.203125 2.015625l0 -7.21875l3.84375 0l0 20.046875zm-10.25 -7.578125q0 2.328125 0.640625 3.359375q0.921875 1.515625 2.59375 1.515625q1.328125 0 2.25 -1.125q0.9375 -1.140625 0.9375 -3.375q0 -2.5 -0.90625 -3.59375q-0.90625 -1.109375 -2.3125 -1.109375q-1.359375 0 -2.28125 1.09375q-0.921875 1.078125 -0.921875 3.234375z" fill-rule="nonzero"/><path fill="#000000" fill-opacity="0.0" d="m1156.9829 457.53937l-57.57483 0" fill-rule="evenodd"/><path stroke="#000000" stroke-width="3.0" stroke-linejoin="round" stroke-linecap="butt" d="m1156.9829 457.53937l-39.57483 0" fill-rule="evenodd"/><path fill="#000000" stroke="#000000" stroke-width="3.0" stroke-linecap="butt" d="m1117.4081 452.58417l-13.614258 4.9552l13.614258 4.9552z" fill-rule="evenodd"/><path fill="#d9ead3" d="m184.1181 457.54068l0 0c0 -34.96353 75.47705 -63.3071 168.58267 -63.3071l0 0c93.10565 0 168.58267 28.343567 168.58267 63.3071l0 0c0 34.96353 -75.47702 63.3071 -168.58267 63.3071l0 0c-93.10562 0 -168.58267 -28.343567 -168.58267 -63.3071z" fill-rule="evenodd"/><path stroke="#6aa84f" stroke-width="4.0" stroke-linejoin="round" stroke-linecap="butt" d="m184.1181 457.54068l0 0c0 -34.96353 75.47705 -63.3071 168.58267 -63.3071l0 0c93.10565 0 168.58267 28.343567 168.58267 63.3071l0 0c0 34.96353 -75.47702 63.3071 -168.58267 63.3071l0 0c-93.10562 0 -168.58267 -28.343567 -168.58267 -63.3071z" fill-rule="evenodd"/><path fill="#434343" d="m277.68417 430.3738l7.390625 0q2.5 0 3.8125 0.390625q1.765625 0.515625 3.015625 1.84375q1.265625 1.328125 1.921875 3.25q0.65625 1.921875 0.65625 4.734375q0 2.46875 -0.609375 4.265625q-0.765625 2.1875 -2.15625 3.53125q-1.046875 1.03125 -2.84375 1.609375q-1.34375 0.421875 -3.578125 0.421875l-7.609375 0l0 -20.046875zm4.046875 3.390625l0 13.28125l3.015625 0q1.6875 0 2.453125 -0.1875q0.984375 -0.25 1.625 -0.828125q0.65625 -0.59375 1.0625 -1.9375q0.40625 -1.359375 0.40625 -3.6875q0 -2.3125 -0.40625 -3.5625q-0.40625 -1.25 -1.15625 -1.9375q-0.734375 -0.703125 -1.859375 -0.953125q-0.859375 -0.1875 -3.328125 -0.1875l-1.8125 0zm24.564453 12.03125l3.828125 0.640625q-0.734375 2.109375 -2.328125 3.21875q-1.59375 1.09375 -3.984375 1.09375q-3.796875 0 -5.609375 -2.46875q-1.4375 -1.984375 -1.4375 -5.015625q0 -3.609375 1.875 -5.640625q1.890625 -2.046875 4.78125 -2.046875q3.234375 0 5.109375 2.140625q1.875 2.140625 1.796875 6.546875l-9.625 0q0.046875 1.71875 0.921875 2.671875q0.890625 0.9375 2.21875 0.9375q0.90625 0 1.515625 -0.484375q0.625 -0.5 0.9375 -1.59375zm0.21875 -3.875q-0.046875 -1.671875 -0.875 -2.53125q-0.8125 -0.875 -1.984375 -0.875q-1.265625 0 -2.078125 0.90625q-0.828125 0.921875 -0.8125 2.5l5.75 0zm5.5878906 4.359375l3.859375 -0.59375q0.25 1.125 1.0 1.703125q0.75 0.578125 2.09375 0.578125q1.5 0 2.25 -0.546875q0.5 -0.375 0.5 -1.015625q0 -0.4375 -0.265625 -0.734375q-0.296875 -0.265625 -1.28125 -0.5q-4.65625 -1.03125 -5.90625 -1.875q-1.71875 -1.171875 -1.71875 -3.265625q0 -1.890625 1.484375 -3.171875q1.5 -1.28125 4.625 -1.28125q2.984375 0 4.4375 0.96875q1.453125 0.96875 2.0 2.875l-3.625 0.65625q-0.234375 -0.84375 -0.890625 -1.296875q-0.640625 -0.453125 -1.84375 -0.453125q-1.515625 0 -2.171875 0.4375q-0.4375 0.296875 -0.4375 0.765625q0 0.421875 0.375 0.703125q0.515625 0.390625 3.578125 1.09375q3.078125 0.6875 4.296875 1.703125q1.203125 1.015625 1.203125 2.84375q0 2.0 -1.671875 3.4375q-1.65625 1.4375 -4.9375 1.4375q-2.953125 0 -4.6875 -1.203125q-1.734375 -1.203125 -2.265625 -3.265625zm25.33789 -0.484375l3.828125 0.640625q-0.734375 2.109375 -2.328125 3.21875q-1.59375 1.09375 -3.984375 1.09375q-3.796875 0 -5.609375 -2.46875q-1.4375 -1.984375 -1.4375 -5.015625q0 -3.609375 1.875 -5.640625q1.890625 -2.046875 4.78125 -2.046875q3.234375 0 5.109375 2.140625q1.875 2.140625 1.796875 6.546875l-9.625 0q0.046875 1.71875 0.921875 2.671875q0.890625 0.9375 2.21875 0.9375q0.90625 0 1.515625 -0.484375q0.625 -0.5 0.9375 -1.59375zm0.21875 -3.875q-0.046875 -1.671875 -0.875 -2.53125q-0.8125 -0.875 -1.984375 -0.875q-1.265625 0 -2.078125 0.90625q-0.828125 0.921875 -0.8125 2.5l5.75 0zm10.619141 8.5l-3.84375 0l0 -14.515625l3.578125 0l0 2.0625q0.90625 -1.46875 1.640625 -1.921875q0.734375 -0.46875 1.65625 -0.46875q1.3125 0 2.53125 0.71875l-1.1875 3.34375q-0.96875 -0.625 -1.796875 -0.625q-0.8125 0 -1.375 0.453125q-0.5625 0.4375 -0.890625 1.609375q-0.3125 1.15625 -0.3125 4.859375l0 4.484375zm7.2246094 -16.484375l0 -3.5625l3.84375 0l0 3.5625l-3.84375 0zm0 16.484375l0 -14.515625l3.84375 0l0 14.515625l-3.84375 0zm10.638702 -10.09375l-3.484375 -0.625q0.59375 -2.109375 2.03125 -3.109375q1.4375 -1.015625 4.265625 -1.015625q2.5625 0 3.8125 0.609375q1.265625 0.609375 1.78125 1.546875q0.515625 0.921875 0.515625 3.4375l-0.046875 4.484375q0 1.90625 0.1875 2.8125q0.1875 0.90625 0.6875 1.953125l-3.796875 0q-0.15625 -0.390625 -0.375 -1.140625q-0.09375 -0.34375 -0.125 -0.453125q-0.984375 0.96875 -2.109375 1.453125q-1.125 0.46875 -2.390625 0.46875q-2.25 0 -3.546875 -1.21875q-1.28125 -1.21875 -1.28125 -3.078125q0 -1.234375 0.578125 -2.1875q0.59375 -0.96875 1.65625 -1.484375q1.0625 -0.515625 3.0625 -0.890625q2.6875 -0.5 3.71875 -0.9375l0 -0.390625q0 -1.109375 -0.546875 -1.578125q-0.546875 -0.46875 -2.0625 -0.46875q-1.015625 0 -1.59375 0.40625q-0.578125 0.390625 -0.9375 1.40625zm5.140625 3.125q-0.734375 0.234375 -2.34375 0.578125q-1.59375 0.34375 -2.078125 0.671875q-0.75 0.53125 -0.75 1.359375q0 0.796875 0.59375 1.390625q0.609375 0.59375 1.53125 0.59375q1.046875 0 1.984375 -0.6875q0.703125 -0.515625 0.921875 -1.265625q0.140625 -0.5 0.140625 -1.875l0 -0.765625zm7.5722656 6.96875l0 -20.046875l3.84375 0l0 20.046875l-3.84375 0zm7.779297 -16.484375l0 -3.5625l3.84375 0l0 3.5625l-3.84375 0zm0 16.484375l0 -14.515625l3.84375 0l0 14.515625l-3.84375 0zm6.232422 0l0 -3.0l5.4375 -6.25q1.34375 -1.53125 1.984375 -2.171875q-0.671875 0.046875 -1.765625 0.0625l-5.125 0.03125l0 -3.1875l12.0 0l0 2.71875l-5.546875 6.390625l-1.953125 2.125q1.59375 -0.09375 1.984375 -0.09375l5.9375 0l0 3.375l-12.953125 0zm23.953125 -4.625l3.828125 0.640625q-0.734375 2.109375 -2.328125 3.21875q-1.59375 1.09375 -3.984375 1.09375q-3.796875 0 -5.609375 -2.46875q-1.4375 -1.984375 -1.4375 -5.015625q0 -3.609375 1.875 -5.640625q1.890625 -2.046875 4.78125 -2.046875q3.234375 0 5.109375 2.140625q1.875 2.140625 1.796875 6.546875l-9.625 0q0.046875 1.71875 0.921875 2.671875q0.890625 0.9375 2.21875 0.9375q0.90625 0 1.515625 -0.484375q0.625 -0.5 0.9375 -1.59375zm0.21875 -3.875q-0.046875 -1.671875 -0.875 -2.53125q-0.8125 -0.875 -1.984375 -0.875q-1.265625 0 -2.078125 0.90625q-0.828125 0.921875 -0.8125 2.5l5.75 0zm6.8535156 4.65625l3.828125 0l0 2.75q0 1.671875 -0.28125 2.625q-0.28125 0.96875 -1.09375 1.734375q-0.796875 0.765625 -2.015625 1.203125l-0.765625 -1.578125q1.171875 -0.390625 1.65625 -1.0625q0.5 -0.671875 0.53125 -1.828125l-1.859375 0l0 -3.84375z" fill-rule="nonzero"/><path fill="#ff0000" d="m289.32578 478.6707l0 3.5625l-22.921875 0l0 -3.5625l9.515625 0l0 -9.671875l-7.65625 0l0 -3.5625l18.875 0l0 3.5625l-7.546875 0l0 9.671875l9.734375 0zm13.171875 -5.1875l-10.9375 0l0 -3.5625l23.578125 0l0 3.5625l-8.96875 0l0 0.84375q0 7.140625 -5.46875 12.125l-3.171875 -2.375q4.96875 -3.90625 4.96875 -9.75l0 -0.84375zm-7.0 -6.671875l0 -3.5625l14.609375 0l0 3.5625l-14.609375 0zm15.53125 -5.796875q1.796875 1.78125 3.78125 4.703125l-2.46875 1.765625q-1.84375 -2.640625 -3.796875 -4.875l2.484375 -1.59375zm2.625 -1.453125q1.78125 1.921875 3.796875 4.609375l-2.46875 1.765625q-2.0625 -2.828125 -3.828125 -4.59375l2.5 -1.78125zm15.703125 27.046875l-3.34375 0l0 -9.578125q-1.515625 1.171875 -6.796875 3.8125l-2.28125 -2.78125q10.890625 -5.28125 14.96875 -11.6875l2.375 1.8125q1.59375 1.328125 -0.484375 1.75q-1.75 2.171875 -4.4375 4.4375l0 12.234375zm17.484375 -22.65625q-0.359375 1.09375 -0.578125 1.484375l6.25 0l1.46875 -0.53125l1.703125 1.703125q0.953125 1.203125 -0.375 1.6875q-0.828125 4.140625 -2.390625 7.359375l2.703125 1.796875l-2.3125 3.375l-2.40625 -1.75q-2.921875 4.234375 -9.28125 7.40625l-3.609375 -2.671875q7.328125 -3.0625 9.765625 -6.90625q-2.234375 -1.421875 -5.390625 -3.140625l1.9375 -2.90625q3.859375 1.75 5.53125 2.75q1.328125 -2.734375 1.5625 -4.609375l-6.984375 0q-1.953125 3.5 -5.421875 6.953125l-3.03125 -2.078125q5.953125 -6.1875 7.828125 -13.125l3.25 1.34375q2.140625 1.078125 -0.21875 1.859375zm34.50003 17.375q-6.546875 -4.796875 -11.703125 -9.40625q-0.484375 -0.40625 -0.9375 -0.40625q-0.421875 0 -0.703125 0.28125q-5.046875 4.5 -7.3125305 6.375l-3.09375 -3.09375q3.546875 -2.09375 8.3125305 -6.53125q1.265625 -1.140625 2.578125 -1.140625q1.625 0 3.0 1.109375q8.25 6.859375 13.28125 9.375l-3.421875 3.4375zm30.796875 1.5l-0.5 3.234375l-14.5 0q-4.015625 0 -5.875 -2.515625q-0.921875 1.46875 -3.5 3.1875l-2.046875 -3.453125q2.46875 -1.234375 3.734375 -2.234375l0 -5.921875l-3.390625 0l0 -3.5625l7.0625 0l0 9.46875q1.359375 1.796875 3.90625 1.796875l15.109375 0zm-4.5 -3.390625q0 0.140625 -0.140625 0.140625l0 -8.9375l-3.65625 0l0 0.484375l3.609375 0l0 2.90625l-3.609375 0l0 0.484375l2.84375 0l0 6.296875l-5.6875 0l0 1.09375l-3.015625 0l0 -7.390625l2.84375 0l0 -0.484375l-3.71875 0l0 -2.90625l3.71875 0l0 -0.484375l-3.765625 0l0 12.03125l-3.34375 0l0 -14.9375l3.671875 0l-0.921875 -1.796875l-3.515625 0l0 -3.234375l7.328125 0l0 -2.296875l3.046875 0q2.515625 0.5 0.625 1.765625l0 0.53125l7.765625 0l0 3.234375l-3.671875 0l-1.34375 1.796875l4.140625 0l0 12.609375q0 2.328125 -2.328125 2.328125l-2.515625 0l-0.171875 -3.234375l1.8125 0zm-6.640625 -2.453125l0 1.359375l2.671875 0l0 -1.359375l-2.671875 0zm3.109375 -11.046875l-3.890625 0l0.796875 1.796875l2.03125 0l1.0625 -1.796875zm-14.84375 -5.171875q2.1875 1.90625 4.15625 4.671875l-3.09375 2.921875q-1.734375 -3.078125 -3.890625 -5.09375l2.828125 -2.5zm45.90625 16.875l-5.953125 0l0 8.3125l-3.34375 0l0 -8.3125l-5.421875 0q-0.21875 5.34375 -3.9375 9.328125l-2.5625 -2.5625q3.171875 -3.515625 3.171875 -7.671875l0 -14.578125l21.390625 0l0 21.46875q0 2.328125 -2.328125 2.328125l-3.53125 0l-0.796875 -3.5625l3.453125 0q0 0.140625 -0.140625 0.140625l0 -4.890625zm-14.703125 -6.125l0 2.890625l5.40625 0l0 -2.890625l-5.40625 0zm0 -6.125l0 2.890625l5.40625 0l0 -2.890625l-5.40625 0zm8.75 6.125l0 2.890625l5.953125 0l0 -2.890625l-5.953125 0zm0 -6.125l0 2.890625l5.953125 0l0 -2.890625l-5.953125 0z" fill-rule="nonzero"/><path fill="#000000" fill-opacity="0.0" d="m856.13257 457.53937l-334.83466 0" fill-rule="evenodd"/><path stroke="#000000" stroke-width="3.0" stroke-linejoin="round" stroke-linecap="butt" stroke-dasharray="24.0,9.0" d="m856.13257 457.53937l-316.83466 0" fill-rule="evenodd"/><path fill="#000000" stroke="#000000" stroke-width="3.0" stroke-linecap="butt" d="m539.2979 452.58417l-13.614319 4.9552l13.614319 4.9552z" fill-rule="evenodd"/></g></svg>