<svg version="1.1" viewBox="0.0 0.0 1367.1574803149606 945.3595800524935" fill="none" stroke="none" stroke-linecap="square" stroke-miterlimit="10" xmlns:xlink="http://www.w3.org/1999/xlink" xmlns="http://www.w3.org/2000/svg"><clipPath id="p.0"><path d="m0 0l1367.1575 0l0 945.35956l-1367.1575 0l0 -945.35956z" clip-rule="nonzero"/></clipPath><g clip-path="url(#p.0)"><path fill="#ffffff" d="m0 0l1367.1575 0l0 945.35956l-1367.1575 0z" fill-rule="evenodd"/><path fill="#ffffff" d="m1099.1495 693.54333l133.14917 0l26.630371 26.630432l0 183.54279l-159.77954 0z" fill-rule="evenodd"/><path stroke="#666666" stroke-width="4.0" stroke-linejoin="round" stroke-linecap="butt" d="m1099.1495 693.54333l133.14917 0l26.630371 26.630432l0 183.54279l-159.77954 0z" fill-rule="evenodd"/><path fill="#666666" d="m1150.4559 795.6875l0 -4.0l4.0 0l0 4.0l-4.0 0zm23.566406 0l0 -2.625q-1.96875 3.09375 -5.796875 3.09375q-2.484375 0 -4.5625 -1.359375q-2.078125 -1.375 -3.21875 -3.828125q-1.140625 -2.453125 -1.140625 -5.640625q0 -3.09375 1.03125 -5.625q1.03125 -2.53125 3.09375 -3.875q2.078125 -1.359375 4.640625 -1.359375q1.875 0 3.328125 0.796875q1.46875 0.796875 2.390625 2.0625l0 -10.28125l3.5 0l0 28.640625l-3.265625 0zm-11.109375 -10.359375q0 3.984375 1.671875 5.96875q1.6875 1.96875 3.96875 1.96875q2.3125 0 3.921875 -1.875q1.609375 -1.890625 1.609375 -5.765625q0 -4.25 -1.640625 -6.234375q-1.640625 -2.0 -4.046875 -2.0q-2.34375 0 -3.921875 1.921875q-1.5625 1.90625 -1.5625 6.015625zm19.824219 10.359375l0 -28.640625l3.515625 0l0 28.640625l-3.515625 0zm8.886719 0l0 -28.640625l3.515625 0l0 28.640625l-3.515625 0z" fill-rule="nonzero"/><path fill="#666666" d="m1131.4442 817.3782q3.359375 2.578125 6.640625 5.9375l-1.5625 1.328125q-3.28125 -3.4375 -6.328125 -5.78125q-3.046875 3.28125 -6.953125 5.859375l-1.484375 -1.328125q8.28125 -5.390625 10.625 -10.78125l-8.515625 0.546875l-0.234375 -1.875l9.0625 -0.390625l0.9375 -0.234375l1.25 1.25q0.546875 0.546875 -0.3125 0.703125q-1.484375 2.578125 -3.125 4.765625zm22.109375 -3.59375q-1.484375 8.515625 -9.765625 12.1875l-1.40625 -1.484375q7.65625 -3.125 9.21875 -10.78125l-6.25 0q-1.796875 2.96875 -3.75 4.765625l-1.5625 -1.015625q4.0625 -3.671875 5.234375 -8.59375l1.796875 0.625q0.46875 0.234375 -0.15625 0.46875q-0.3125 1.015625 -0.859375 2.03125l5.625 0l0.703125 -0.390625l1.40625 1.40625q0.546875 0.546875 -0.234375 0.78125zm13.671875 3.828125q0 5.859375 -5.46875 8.4375l-1.5625 -1.328125q5.15625 -2.34375 5.234375 -7.1875l0 -7.8125l1.640625 0q0.78125 0.15625 0.15625 0.625l0 7.265625zm-8.046875 1.71875l-1.796875 0l0 -8.828125l1.71875 0q0.78125 0.078125 0.078125 0.625l0 8.203125zm25.859375 -8.28125q0.625 0 1.015625 -0.390625q0.390625 -0.390625 0.390625 -1.015625q0 -0.625 -0.390625 -1.015625q-0.390625 -0.390625 -1.015625 -0.390625q-0.625 0 -1.015625 0.390625q-0.390625 0.390625 -0.390625 1.015625q0 0.625 0.390625 1.015625q0.390625 0.390625 1.015625 0.390625zm0 0.78125q-0.9375 0 -1.5625 -0.625q-0.625 -0.625 -0.625 -1.5625q0 -0.9375 0.625 -1.5625q0.625 -0.625 1.5625 -0.625q0.9375 0 1.5625 0.625q0.625 0.625 0.625 1.5625q0 0.9375 -0.625 1.5625q-0.625 0.625 -1.5625 0.625zm-13.984375 1.015625l0 -1.71875l11.5625 0l2.03125 1.484375q-0.390625 9.453125 -10.703125 12.34375l-1.40625 -1.71875q9.765625 -2.265625 10.234375 -10.390625l-11.71875 0zm17.96875 11.640625q2.265625 -3.515625 3.984375 -9.140625q-1.71875 0.234375 -3.359375 0.390625l-0.15625 -1.71875q1.40625 0 3.90625 -0.234375q0.703125 -2.421875 1.171875 -4.921875l1.640625 0.546875q0.9375 0.390625 -0.078125 0.703125q-0.46875 1.640625 -0.9375 3.515625q0.9375 -0.15625 1.953125 -0.15625q1.09375 0 1.640625 0.546875q0.9375 0.9375 0.9375 4.21875q0 4.53125 -1.328125 5.859375q-0.78125 0.78125 -1.796875 0.78125q-1.484375 0 -2.96875 -1.71875l1.015625 -1.40625q1.25 1.25 1.875 1.25q0.390625 0 0.703125 -0.3125q0.859375 -0.859375 0.859375 -4.765625q0 -2.1875 -0.46875 -2.65625q-0.234375 -0.234375 -0.9375 -0.234375q-0.703125 0 -1.953125 0.15625q-1.640625 5.78125 -3.90625 9.921875l-1.796875 -0.625zm15.703125 -3.90625q-1.40625 -5.078125 -4.0625 -7.578125l1.40625 -1.015625q3.203125 3.28125 4.375 7.890625l-1.71875 0.703125zm8.125 3.203125l1.875 0q3.90625 0 4.921875 -1.015625q0.859375 -0.859375 0.859375 -1.953125q0 -0.9375 -0.78125 -1.71875q-0.703125 -0.703125 -2.34375 -0.703125q-3.4375 0 -6.25 3.359375l-1.5625 -0.15625l0.859375 -8.359375l1.640625 0.3125q0.78125 0.3125 0 0.625l-0.546875 5.078125q2.734375 -2.34375 6.25 -2.34375q2.109375 0 3.359375 1.25q1.015625 1.015625 1.015625 2.65625q0 1.796875 -1.328125 3.125q-1.5625 1.5625 -5.9375 1.5625l-1.40625 0l-0.625 -1.71875zm-0.9375 -14.921875q2.1875 0.546875 5.9375 1.875l-0.78125 1.5625q-2.8125 -1.171875 -5.859375 -2.03125l0.703125 -1.40625z" fill-rule="nonzero"/><path fill="#666666" d="m1123.6512 834.5813q-0.078125 0.390625 -0.46875 1.796875l3.59375 0l0 -3.90625l1.484375 0q0.625 0.078125 0.078125 0.46875l0 3.4375l6.40625 0l0 1.484375l-6.40625 0l0 3.59375l5.46875 0l0 1.484375l-5.46875 0l0 4.609375l7.421875 0l0 1.484375l-17.109375 0l0 -1.484375l8.125 0l0 -4.609375l-5.234375 0l0 -1.484375l5.234375 0l0 -3.59375l-4.0625 0q-0.9375 2.421875 -2.8125 4.296875l-1.171875 -1.25q2.8125 -2.734375 3.359375 -7.1875l1.640625 0.390625q0.46875 0.15625 -0.078125 0.46875zm26.796875 8.90625q1.328125 -2.03125 2.34375 -5.0l1.484375 0.859375q0.546875 0.3125 -0.15625 0.46875q-1.171875 2.890625 -2.8125 5.390625q1.71875 2.421875 2.578125 2.421875q0.703125 0 0.9375 -1.875l1.484375 0.78125q-0.625 3.125 -1.71875 3.125q-2.1875 0 -4.375 -3.359375q-2.1875 2.421875 -5.078125 3.828125l-0.9375 -1.484375q3.671875 -1.796875 5.15625 -3.828125q-1.09375 -2.65625 -1.09375 -7.03125l0 -0.703125l-6.640625 0l0 2.734375l5.0 0l-0.15625 5.3125q-0.078125 1.484375 -1.171875 1.484375l-2.03125 0l-0.234375 -1.484375l1.328125 0q0.625 0 0.625 -0.625l0.15625 -3.203125l-3.515625 0l0 2.265625q0 3.90625 -1.953125 6.40625l-1.328125 -1.09375q1.71875 -2.109375 1.71875 -5.078125l0 -8.203125l8.203125 0l0 -3.359375l1.484375 0q0.625 0.078125 0.078125 0.46875l0 2.890625l5.9375 0l0 1.484375l-5.9375 0l0 0.703125q0 3.671875 0.625 5.703125zm1.25 -11.015625q1.25 0.625 2.1875 1.5625l-1.171875 1.171875q-0.78125 -0.859375 -2.109375 -1.640625l1.09375 -1.09375zm13.359375 5.625q-3.203125 0.234375 -6.328125 0.234375l-0.46875 -1.5625q3.828125 0 6.171875 -0.15625q-0.78125 -2.1875 -1.09375 -4.0625l1.71875 0q0.703125 0.15625 0.15625 0.625q0.3125 1.484375 0.9375 3.28125q2.734375 -0.234375 4.6875 -0.703125l0.390625 1.71875q-2.265625 0.3125 -4.453125 0.46875q1.5625 2.96875 4.765625 5.15625l-1.171875 1.40625q-2.890625 -1.328125 -5.703125 -1.328125q-2.578125 0 -3.59375 1.015625q-0.46875 0.46875 -0.46875 1.328125q0 0.78125 0.703125 1.484375q1.09375 1.09375 5.15625 1.09375l2.734375 0l-0.390625 1.71875l-2.96875 0q-4.0625 0 -5.703125 -1.640625q-1.171875 -1.171875 -1.171875 -2.65625q0 -1.484375 0.859375 -2.34375q1.40625 -1.40625 4.375 -1.40625q2.96875 0 3.4375 0.3125q-1.875 -2.34375 -2.578125 -3.984375zm20.46875 1.484375q0.078125 -1.484375 -0.859375 -1.484375q-1.328125 0 -5.15625 3.828125l0 7.8125l-1.5625 0l0 -6.40625l-3.4375 4.296875l-1.25 -1.25l3.125 -3.671875q0.859375 -1.09375 1.5625 -2.265625l0 -1.875l-3.4375 1.171875l-0.46875 -1.640625l3.90625 -1.015625l0 -4.609375l1.40625 0q0.703125 0.15625 0.15625 0.625l0 3.515625l0.859375 0.46875q0.703125 0.3125 -0.15625 0.703125l-0.703125 1.484375l0 0.546875q3.671875 -3.4375 5.546875 -3.4375q2.34375 0 2.109375 3.125l-0.390625 6.015625q-0.078125 1.25 0.9375 1.25q1.015625 0 1.484375 -0.546875q0.703125 -0.859375 1.171875 -2.03125l1.328125 1.09375q-0.78125 1.484375 -1.484375 2.1875q-1.015625 1.015625 -2.34375 1.015625q-2.890625 0 -2.734375 -2.96875l0.390625 -5.9375zm24.0625 7.890625l0 1.71875l-3.4375 0q-2.96875 0 -5.625 -1.40625l0.703125 -1.40625q2.03125 1.09375 4.921875 1.09375l3.4375 0zm-10.78125 -9.140625q-1.171875 6.953125 -2.890625 11.015625l-1.71875 -0.546875q2.109375 -4.921875 2.96875 -10.3125q-1.875 0.15625 -3.359375 0.15625l-0.3125 -1.5625q2.1875 0 3.90625 -0.15625q0.3125 -2.421875 0.546875 -4.21875l1.5625 0.3125q0.859375 0.234375 0.15625 0.625q-0.234375 0.9375 -0.625 3.125q1.796875 -0.234375 3.28125 -0.625l0.3125 1.5625q-2.03125 0.390625 -3.828125 0.625zm10.390625 2.65625q-4.53125 0.15625 -7.109375 1.25l-0.46875 -1.5625q3.359375 -1.328125 7.265625 -1.328125l0.3125 1.640625z" fill-rule="nonzero"/><path fill="#666666" d="m1212.7762 848.48755l0 -14.3125l1.90625 0l0 14.3125l-1.90625 0zm5.1660156 0l0 -14.3125l1.890625 0l0 12.625l7.046875 0l0 1.6875l-8.9375 0z" fill-rule="nonzero"/><path fill="#ffffff" d="m366.67978 196.75066l931.5906 0l0 466.17322l-931.5906 0z" fill-rule="evenodd"/><path stroke="#666666" stroke-width="4.0" stroke-linejoin="round" stroke-linecap="butt" d="m366.67978 196.75066l931.5906 0l0 466.17322l-931.5906 0z" fill-rule="evenodd"/><path fill="#666666" d="m659.2511 242.87065l0 -27.671875l3.765625 0l14.53125 21.71875l0 -21.71875l3.515625 0l0 27.671875l-3.765625 0l-14.53125 -21.75l0 21.75l-3.515625 0zm40.60382 -2.46875q-1.890625 1.59375 -3.640625 2.265625q-1.734375 0.65625 -3.734375 0.65625q-3.3125 0 -5.09375 -1.609375q-1.765625 -1.625 -1.765625 -4.125q0 -1.46875 0.671875 -2.6875q0.671875 -1.21875 1.75 -1.953125q1.09375 -0.75 2.453125 -1.125q1.0 -0.265625 3.015625 -0.5q4.125 -0.5 6.0625 -1.171875q0.015625 -0.703125 0.015625 -0.890625q0 -2.078125 -0.953125 -2.921875q-1.3125 -1.15625 -3.875 -1.15625q-2.390625 0 -3.546875 0.84375q-1.140625 0.84375 -1.6875 2.96875l-3.3125 -0.453125q0.453125 -2.125 1.484375 -3.4375q1.046875 -1.3125 3.0 -2.015625q1.96875 -0.71875 4.546875 -0.71875q2.578125 0 4.171875 0.609375q1.609375 0.59375 2.359375 1.515625q0.765625 0.921875 1.0625 2.3125q0.171875 0.875 0.171875 3.140625l0 4.515625q0 4.75 0.21875 6.0q0.21875 1.25 0.859375 2.40625l-3.546875 0q-0.53125 -1.0625 -0.6875 -2.46875zm-0.28125 -7.59375q-1.84375 0.75 -5.546875 1.28125q-2.09375 0.3125 -2.96875 0.6875q-0.859375 0.375 -1.34375 1.109375q-0.46875 0.71875 -0.46875 1.609375q0 1.359375 1.03125 2.265625q1.03125 0.90625 3.015625 0.90625q1.953125 0 3.484375 -0.859375q1.53125 -0.859375 2.25 -2.359375q0.546875 -1.140625 0.546875 -3.390625l0 -1.25zm16.123718 7.03125l0.484375 3.0q-1.4375 0.296875 -2.5625 0.296875q-1.84375 0 -2.875 -0.578125q-1.015625 -0.59375 -1.4375 -1.546875q-0.40625 -0.953125 -0.40625 -4.015625l0 -11.53125l-2.5 0l0 -2.640625l2.5 0l0 -4.96875l3.375 -2.03125l0 7.0l3.421875 0l0 2.640625l-3.421875 0l0 11.71875q0 1.453125 0.171875 1.875q0.1875 0.421875 0.59375 0.671875q0.40625 0.234375 1.15625 0.234375q0.578125 0 1.5 -0.125zm3.3337402 -20.734375l0 -3.90625l3.40625 0l0 3.90625l-3.40625 0zm0 23.765625l0 -20.046875l3.40625 0l0 20.046875l-3.40625 0zm14.13501 0l-7.625 -20.046875l3.59375 0l4.296875 12.0q0.703125 1.953125 1.296875 4.046875q0.4375 -1.59375 1.25 -3.8125l4.46875 -12.234375l3.484375 0l-7.59375 20.046875l-3.171875 0zm27.484375 -6.453125l3.515625 0.4375q-0.828125 3.078125 -3.078125 4.78125q-2.25 1.6875 -5.734375 1.6875q-4.40625 0 -6.984375 -2.703125q-2.5625 -2.71875 -2.5625 -7.609375q0 -5.046875 2.59375 -7.84375q2.609375 -2.796875 6.765625 -2.796875q4.015625 0 6.5625 2.734375q2.546875 2.734375 2.546875 7.703125q0 0.296875 -0.015625 0.90625l-14.953125 0q0.1875 3.3125 1.859375 5.0625q1.6875 1.75 4.203125 1.75q1.875 0 3.1875 -0.96875q1.328125 -0.984375 2.09375 -3.140625zm-11.15625 -5.5l11.203125 0q-0.234375 -2.53125 -1.28125 -3.78125q-1.625 -1.96875 -4.21875 -1.96875q-2.34375 0 -3.9375 1.5625q-1.59375 1.5625 -1.765625 4.1875zm19.420654 11.953125l0 -27.671875l12.28125 0q3.6875 0 5.609375 0.75q1.9375 0.734375 3.078125 2.625q1.15625 1.890625 1.15625 4.171875q0 2.953125 -1.90625 4.96875q-1.90625 2.015625 -5.890625 2.5625q1.453125 0.703125 2.21875 1.375q1.59375 1.484375 3.03125 3.6875l4.8125 7.53125l-4.609375 0l-3.65625 -5.75q-1.609375 -2.5 -2.640625 -3.8125q-1.03125 -1.328125 -1.859375 -1.859375q-0.828125 -0.53125 -1.671875 -0.734375q-0.625 -0.125 -2.03125 -0.125l-4.25 0l0 12.28125l-3.671875 0zm3.671875 -15.453125l7.875 0q2.5 0 3.90625 -0.515625q1.421875 -0.53125 2.15625 -1.671875q0.75 -1.140625 0.75 -2.484375q0 -1.953125 -1.4375 -3.21875q-1.421875 -1.265625 -4.5 -1.265625l-8.75 0l0 9.15625zm36.900696 15.453125l0 -2.9375q-2.34375 3.390625 -6.359375 3.390625q-1.78125 0 -3.328125 -0.671875q-1.53125 -0.6875 -2.28125 -1.71875q-0.734375 -1.03125 -1.03125 -2.515625q-0.21875 -1.0 -0.21875 -3.171875l0 -12.421875l3.40625 0l0 11.125q0 2.65625 0.203125 3.578125q0.328125 1.34375 1.359375 2.109375q1.03125 0.765625 2.5625 0.765625q1.53125 0 2.875 -0.78125q1.34375 -0.796875 1.890625 -2.140625q0.5625 -1.34375 0.5625 -3.921875l0 -10.734375l3.390625 0l0 20.046875l-3.03125 0zm8.358154 0l0 -20.046875l3.0625 0l0 2.859375q2.203125 -3.3125 6.375 -3.3125q1.8125 0 3.328125 0.65625q1.53125 0.640625 2.28125 1.703125q0.75 1.0625 1.0625 2.515625q0.1875 0.9375 0.1875 3.296875l0 12.328125l-3.40625 0l0 -12.1875q0 -2.078125 -0.40625 -3.109375q-0.390625 -1.03125 -1.40625 -1.640625q-1.0 -0.609375 -2.359375 -0.609375q-2.171875 0 -3.75 1.375q-1.5625 1.375 -1.5625 5.21875l0 10.953125l-3.40625 0zm28.920593 -3.03125l0.484375 3.0q-1.4375 0.296875 -2.5625 0.296875q-1.84375 0 -2.875 -0.578125q-1.015625 -0.59375 -1.4375 -1.546875q-0.40625 -0.953125 -0.40625 -4.015625l0 -11.53125l-2.5 0l0 -2.640625l2.5 0l0 -4.96875l3.375 -2.03125l0 7.0l3.421875 0l0 2.640625l-3.421875 0l0 11.71875q0 1.453125 0.171875 1.875q0.1875 0.421875 0.59375 0.671875q0.40625 0.234375 1.15625 0.234375q0.578125 0 1.5 -0.125zm3.3337402 -20.734375l0 -3.90625l3.40625 0l0 3.90625l-3.40625 0zm0 23.765625l0 -20.046875l3.40625 0l0 20.046875l-3.40625 0zm8.57251 0l0 -20.046875l3.046875 0l0 2.8125q0.9375 -1.46875 2.5 -2.359375q1.578125 -0.90625 3.578125 -0.90625q2.21875 0 3.640625 0.921875q1.4375 0.921875 2.015625 2.59375q2.375 -3.515625 6.1875 -3.515625q2.984375 0 4.578125 1.65625q1.609375 1.65625 1.609375 5.078125l0 13.765625l-3.375 0l0 -12.625q0 -2.046875 -0.328125 -2.9375q-0.328125 -0.890625 -1.203125 -1.4375q-0.859375 -0.546875 -2.03125 -0.546875q-2.109375 0 -3.515625 1.40625q-1.390625 1.40625 -1.390625 4.5l0 11.640625l-3.40625 0l0 -13.03125q0 -2.25 -0.828125 -3.375q-0.828125 -1.140625 -2.71875 -1.140625q-1.4375 0 -2.65625 0.75q-1.203125 0.75 -1.75 2.203125q-0.546875 1.453125 -0.546875 4.1875l0 10.40625l-3.40625 0zm45.91974 -6.453125l3.515625 0.4375q-0.828125 3.078125 -3.078125 4.78125q-2.25 1.6875 -5.734375 1.6875q-4.40625 0 -6.984375 -2.703125q-2.5625 -2.71875 -2.5625 -7.609375q0 -5.046875 2.59375 -7.84375q2.609375 -2.796875 6.765625 -2.796875q4.015625 0 6.5625 2.734375q2.546875 2.734375 2.546875 7.703125q0 0.296875 -0.015625 0.90625l-14.953125 0q0.1875 3.3125 1.859375 5.0625q1.6875 1.75 4.203125 1.75q1.875 0 3.1875 -0.96875q1.328125 -0.984375 2.09375 -3.140625zm-11.15625 -5.5l11.203125 0q-0.234375 -2.53125 -1.28125 -3.78125q-1.625 -1.96875 -4.21875 -1.96875q-2.34375 0 -3.9375 1.5625q-1.59375 1.5625 -1.765625 4.1875zm25.43628 20.09375q-2.8125 -3.546875 -4.765625 -8.296875q-1.9375 -4.765625 -1.9375 -9.859375q0 -4.5 1.453125 -8.609375q1.703125 -4.78125 5.25 -9.515625l2.421875 0q-2.28125 3.921875 -3.015625 5.609375q-1.15625 2.59375 -1.8125 5.4375q-0.8125 3.515625 -0.8125 7.09375q0 9.078125 5.640625 18.140625l-2.421875 0zm26.544678 -17.84375l3.671875 0.921875q-1.15625 4.515625 -4.15625 6.890625q-2.984375 2.359375 -7.296875 2.359375q-4.484375 0 -7.296875 -1.8125q-2.796875 -1.828125 -4.265625 -5.28125q-1.453125 -3.453125 -1.453125 -7.421875q0 -4.3125 1.65625 -7.53125q1.65625 -3.21875 4.703125 -4.890625q3.046875 -1.671875 6.703125 -1.671875q4.15625 0 6.984375 2.109375q2.828125 2.109375 3.953125 5.953125l-3.609375 0.84375q-0.96875 -3.015625 -2.796875 -4.390625q-1.828125 -1.390625 -4.609375 -1.390625q-3.1875 0 -5.328125 1.53125q-2.140625 1.53125 -3.015625 4.109375q-0.859375 2.578125 -0.859375 5.3125q0 3.53125 1.015625 6.171875q1.03125 2.625 3.203125 3.9375q2.171875 1.296875 4.703125 1.296875q3.078125 0 5.203125 -1.765625q2.140625 -1.78125 2.890625 -5.28125zm14.885071 5.234375l0 -7.59375l-7.53125 0l0 -3.171875l7.53125 0l0 -7.53125l3.203125 0l0 7.53125l7.53125 0l0 3.171875l-7.53125 0l0 7.59375l-3.203125 0zm22.574646 0l0 -7.59375l-7.53125 0l0 -3.171875l7.53125 0l0 -7.53125l3.203125 0l0 7.53125l7.53125 0l0 3.171875l-7.53125 0l0 7.59375l-3.203125 0zm17.668396 12.609375l-2.4375 0q5.640625 -9.0625 5.640625 -18.140625q0 -3.546875 -0.8125 -7.046875q-0.640625 -2.828125 -1.796875 -5.4375q-0.734375 -1.6875 -3.03125 -5.65625l2.4375 0q3.546875 4.734375 5.234375 9.515625q1.453125 4.109375 1.453125 8.609375q0 5.09375 -1.953125 9.859375q-1.953125 4.75 -4.734375 8.296875z" fill-rule="nonzero"/><path fill="#ffffff" d="m1077.4633 324.75067l203.14966 0l0 210.17322l-203.14966 0z" fill-rule="evenodd"/><path stroke="#999999" stroke-width="4.0" stroke-linejoin="round" stroke-linecap="butt" d="m1077.4633 324.75067l203.14966 0l0 210.17322l-203.14966 0z" fill-rule="evenodd"/><path fill="#666666" d="m1104.2441 370.87067l0 -20.046875l3.046875 0l0 2.8125q0.9375 -1.46875 2.5 -2.359375q1.578125 -0.90625 3.578125 -0.90625q2.21875 0 3.640625 0.921875q1.4375 0.921875 2.015625 2.59375q2.375 -3.515625 6.1875 -3.515625q2.984375 0 4.578125 1.65625q1.609375 1.65625 1.609375 5.078125l0 13.765625l-3.375 0l0 -12.625q0 -2.046875 -0.328125 -2.9375q-0.328125 -0.890625 -1.203125 -1.4375q-0.859375 -0.546875 -2.03125 -0.546875q-2.109375 0 -3.515625 1.40625q-1.390625 1.40625 -1.390625 4.5l0 11.640625l-3.40625 0l0 -13.03125q0 -2.25 -0.828125 -3.375q-0.828125 -1.140625 -2.71875 -1.140625q-1.4375 0 -2.65625 0.75q-1.203125 0.75 -1.75 2.203125q-0.546875 1.453125 -0.546875 4.1875l0 10.40625l-3.40625 0zm30.935303 -10.015625q0 -5.578125 3.09375 -8.25q2.59375 -2.234375 6.3125 -2.234375q4.125 0 6.75 2.71875q2.625 2.703125 2.625 7.46875q0 3.875 -1.15625 6.09375q-1.15625 2.21875 -3.375 3.453125q-2.21875 1.21875 -4.84375 1.21875q-4.21875 0 -6.8125 -2.6875q-2.59375 -2.703125 -2.59375 -7.78125zm3.5 0q0 3.84375 1.671875 5.765625q1.6875 1.90625 4.234375 1.90625q2.53125 0 4.203125 -1.921875q1.6875 -1.921875 1.6875 -5.875q0 -3.71875 -1.703125 -5.625q-1.6875 -1.921875 -4.1875 -1.921875q-2.546875 0 -4.234375 1.90625q-1.671875 1.90625 -1.671875 5.765625zm19.264404 10.015625l0 -20.046875l3.0625 0l0 2.859375q2.203125 -3.3125 6.375 -3.3125q1.8125 0 3.328125 0.65625q1.53125 0.640625 2.28125 1.703125q0.75 1.0625 1.0625 2.515625q0.1875 0.9375 0.1875 3.296875l0 12.328125l-3.40625 0l0 -12.1875q0 -2.078125 -0.40625 -3.109375q-0.390625 -1.03125 -1.40625 -1.640625q-1.0 -0.609375 -2.359375 -0.609375q-2.171875 0 -3.75 1.375q-1.5625 1.375 -1.5625 5.21875l0 10.953125l-3.40625 0zm20.233154 -10.015625q0 -5.578125 3.09375 -8.25q2.59375 -2.234375 6.3125 -2.234375q4.125 0 6.75 2.71875q2.625 2.703125 2.625 7.46875q0 3.875 -1.15625 6.09375q-1.15625 2.21875 -3.375 3.453125q-2.21875 1.21875 -4.84375 1.21875q-4.21875 0 -6.8125 -2.6875q-2.59375 -2.703125 -2.59375 -7.78125zm3.5 0q0 3.84375 1.671875 5.765625q1.6875 1.90625 4.234375 1.90625q2.53125 0 4.203125 -1.921875q1.6875 -1.921875 1.6875 -5.875q0 -3.71875 -1.703125 -5.625q-1.6875 -1.921875 -4.1875 -1.921875q-2.546875 0 -4.234375 1.90625q-1.671875 1.90625 -1.671875 5.765625zm27.608154 10.015625l-10.71875 -27.671875l3.96875 0l7.1875 20.109375q0.859375 2.40625 1.453125 4.53125q0.640625 -2.265625 1.484375 -4.53125l7.484375 -20.109375l3.734375 0l-10.84375 27.671875l-3.75 0zm17.7677 0l0 -27.671875l5.5 0l6.5625 19.59375q0.90625 2.734375 1.3125 4.09375q0.46875 -1.515625 1.46875 -4.4375l6.625 -19.25l4.9375 0l0 27.671875l-3.53125 0l0 -23.15625l-8.046875 23.15625l-3.296875 0l-8.0 -23.5625l0 23.5625l-3.53125 0z" fill-rule="nonzero"/><path fill="#666666" d="m1111.8623 418.88815l1.703125 -0.234375q0.078125 1.640625 0.625 2.25q0.546875 0.59375 1.515625 0.59375q0.703125 0 1.21875 -0.3125q0.515625 -0.328125 0.703125 -0.890625q0.203125 -0.5625 0.203125 -1.796875l0 -9.859375l1.90625 0l0 9.75q0 1.796875 -0.4375 2.78125q-0.4375 0.984375 -1.390625 1.515625q-0.9375 0.515625 -2.203125 0.515625q-1.875 0 -2.890625 -1.078125q-1.0 -1.09375 -0.953125 -3.234375zm11.28125 4.0625l0 -14.3125l1.90625 0l0 14.3125l-1.90625 0zm8.884766 0l0 -12.625l-4.71875 0l0 -1.6875l11.34375 0l0 1.6875l-4.734375 0l0 12.625l-1.890625 0z" fill-rule="nonzero"/><path fill="#666666" d="m1151.0889 412.87253l-10.859375 0l0 -1.71875l12.65625 0l0 11.171875l-1.796875 0l0 -0.859375l-10.859375 0l0 -1.71875l10.859375 0l0 -6.875zm20.15625 1.015625q-4.140625 8.59375 -13.90625 9.0625q-0.390625 1.015625 -0.78125 0.15625l-0.625 -2.03125q10.15625 -0.234375 13.671875 -8.359375l1.640625 1.171875zm-11.015625 0q-2.109375 -1.953125 -3.984375 -3.203125l1.328125 -1.640625q1.640625 1.015625 4.140625 3.359375l-1.484375 1.484375zm28.59375 -2.734375q-0.9375 0 -1.5625 -0.625q-0.625 -0.625 -0.625 -1.5625q0 -0.9375 0.625 -1.5625q0.625 -0.625 1.5625 -0.625q0.9375 0 1.5625 0.625q0.625 0.625 0.625 1.5625q0 0.9375 -0.625 1.5625q-0.625 0.625 -1.5625 0.625zm0 -0.78125q0.625 0 1.015625 -0.390625q0.390625 -0.390625 0.390625 -1.015625q0 -0.625 -0.390625 -1.015625q-0.390625 -0.390625 -1.015625 -0.390625q-0.625 0 -1.015625 0.390625q-0.390625 0.390625 -0.390625 1.015625q0 0.625 0.390625 1.015625q0.390625 0.390625 1.015625 0.390625zm-3.125 0.390625q3.90625 4.921875 5.546875 10.390625l-2.109375 0.703125q-1.953125 -6.171875 -5.078125 -9.84375l1.640625 -1.25zm-5.9375 1.796875q0.625 0.390625 -0.15625 0.703125q-1.40625 4.921875 -4.53125 8.984375l-1.796875 -1.171875q3.4375 -4.140625 4.609375 -9.375l1.875 0.859375zm13.671875 4.6875q8.203125 -3.4375 12.421875 -9.6875l1.484375 1.25q0.625 0.46875 -0.546875 0.703125q-1.484375 1.953125 -3.828125 3.984375l0 10.625l-1.796875 0l0 -9.140625q-2.734375 2.109375 -6.40625 3.828125l-1.328125 -1.5625zm27.03125 3.4375q3.4375 -1.328125 6.328125 -5.3125l1.09375 1.484375q-2.96875 4.0625 -7.5 5.859375l-0.625 0.3125l-1.25 -0.9375l0.15625 -0.390625l0 -12.578125l1.640625 0q0.703125 0.15625 0.15625 0.625l0 10.9375zm-10.46875 2.109375q3.90625 -3.75 3.90625 -9.296875l0 -3.515625l1.640625 0q0.703125 0.15625 0.15625 0.625l0 2.8125q0 6.5625 -4.140625 10.390625l-1.5625 -1.015625zm35.625 -12.109375q-2.734375 0 -4.296875 0.546875q-1.71875 0.625 -3.203125 2.109375q-1.484375 1.484375 -1.484375 3.828125q0 1.875 1.171875 3.046875q1.5625 1.5625 6.015625 1.71875l-0.625 1.71875q-4.609375 -0.234375 -6.40625 -2.03125q-1.796875 -1.796875 -1.796875 -4.375q0 -3.671875 2.890625 -5.78125q-3.671875 0.546875 -7.5 1.09375l-0.46875 -1.796875q7.65625 -0.546875 15.390625 -1.875l0.3125 1.796875zm-1.71875 6.09375q-1.71875 -1.25 -2.96875 -1.953125l0.78125 -0.9375q1.171875 0.703125 2.96875 1.953125l-0.78125 0.9375zm1.5625 -1.875q-1.875 -1.328125 -2.96875 -1.953125l0.78125 -0.9375q1.09375 0.625 2.96875 1.953125l-0.78125 0.9375z" fill-rule="nonzero"/><path fill="#666666" d="m1144.0029 446.95065l0 -14.3125l1.90625 0l0 14.3125l-1.90625 0zm5.1660156 0l0 -14.3125l1.890625 0l0 12.625l7.046875 0l0 1.6875l-8.9375 0z" fill-rule="nonzero"/><path fill="#666666" d="m1164.9951 437.88815q0.9375 -0.3125 1.796875 -0.3125q1.015625 0 1.640625 0.625q0.46875 0.46875 0.546875 1.71875q2.34375 -0.859375 5.3125 -1.796875l0.546875 1.875q-3.046875 0.46875 -5.703125 1.484375l0 3.4375l-1.5625 0l0 -2.8125q-2.34375 1.09375 -3.046875 1.796875q-0.859375 0.859375 -0.859375 1.71875q0 0.46875 0.46875 0.9375q0.546875 0.546875 2.109375 0.546875l6.5625 0l0 1.484375l-6.640625 0q-2.5 0 -3.515625 -1.015625q-0.78125 -0.78125 -0.78125 -1.953125q0 -1.25 1.015625 -2.265625q1.5625 -1.5625 4.609375 -2.8125q-0.078125 -0.9375 -0.390625 -1.25q-0.3125 -0.3125 -1.328125 -0.3125q-1.5625 0 -4.765625 2.8125l-1.328125 -1.328125q3.671875 -2.265625 5.0 -5.0q-2.1875 0.15625 -4.375 0.3125l-0.3125 -1.5625q2.8125 -0.078125 5.3125 -0.234375q0.390625 -0.9375 0.9375 -3.125l1.484375 0.390625q0.78125 0.3125 0 0.625q-0.3125 1.015625 -0.703125 2.03125q2.8125 -0.234375 5.390625 -0.625l0.234375 1.640625q-3.046875 0.234375 -6.09375 0.46875q-0.78125 1.5625 -1.5625 2.5zm21.640625 -1.5625l5.234375 0l0 1.484375l-5.234375 0l0 1.171875l5.78125 0l0 1.484375l-5.78125 0l0 1.25l8.046875 0l0 1.484375l-7.578125 0q1.71875 2.34375 7.578125 3.59375l-0.546875 1.796875q-6.171875 -1.484375 -8.046875 -4.6875q-1.875 3.984375 -8.203125 4.921875l-0.625 -1.640625q5.859375 -0.859375 7.34375 -3.984375l-7.421875 0l0 -1.484375l7.890625 0l0 -1.25l-5.546875 0l0 -1.484375l5.546875 0l0 -1.171875l-5.15625 0l0 -1.484375l5.15625 0l0 -1.5625l1.484375 0q0.625 0.078125 0.078125 0.46875l0 1.09375zm-8.984375 -3.671875l7.421875 0l0 -1.796875l1.71875 0q0.78125 0.15625 0.078125 0.625l0 1.171875l7.34375 0l0 4.21875l-1.5625 0l0 -2.734375l-13.4375 0l0 2.734375l-1.5625 0l0 -4.21875zm25.3125 -0.078125q-2.421875 2.96875 -4.453125 4.140625l-0.9375 -1.40625q2.1875 -1.25 4.375 -4.140625l1.171875 1.015625q0.390625 0.46875 -0.15625 0.390625zm-1.09375 16.015625l-1.5625 0l0 -8.28125q-0.78125 0.859375 -2.34375 1.875l-1.015625 -1.5625q3.359375 -2.03125 5.703125 -5.703125l1.25 1.015625q0.390625 0.46875 -0.15625 0.390625q-0.9375 1.25 -1.875 2.421875l0 9.84375zm11.40625 -16.40625l0 1.484375l-8.4375 0l0 -1.484375l8.4375 0zm-9.296875 6.484375l0 -1.484375l10.859375 0l0 1.484375l-3.28125 0l0 7.96875q0 1.640625 -1.328125 1.640625l-2.109375 0l-0.3125 -1.484375l1.875 0q0.3125 0 0.3125 -0.3125l0 -7.8125l-6.015625 0z" fill-rule="nonzero"/><path fill="#f9cb9c" d="m251.13379 429.83728l35.165375 -35.165375l0 17.582703l95.82675 0l0 35.165344l-95.82675 0l0 17.582672z" fill-rule="evenodd"/><path stroke="#000000" stroke-width="1.0" stroke-linejoin="round" stroke-linecap="butt" d="m251.13379 429.83728l35.165375 -35.165375l0 17.582703l95.82675 0l0 35.165344l-95.82675 0l0 17.582672z" fill-rule="evenodd"/><path fill="#ffffff" d="m396.49072 260.6273l560.62994 0l0 380.88193l-560.62994 0z" fill-rule="evenodd"/><path stroke="#999999" stroke-width="4.0" stroke-linejoin="round" stroke-linecap="butt" d="m396.49072 260.6273l560.62994 0l0 380.88193l-560.62994 0z" fill-rule="evenodd"/><path fill="#666666" d="m599.59955 297.04416l3.671875 0.921875q-1.15625 4.515625 -4.15625 6.890625q-2.984375 2.359375 -7.296875 2.359375q-4.484375 0 -7.296875 -1.8125q-2.796875 -1.828125 -4.265625 -5.28125q-1.453125 -3.453125 -1.453125 -7.421875q0 -4.3125 1.65625 -7.53125q1.65625 -3.21875 4.703125 -4.890625q3.046875 -1.671875 6.703125 -1.671875q4.15625 0 6.984375 2.109375q2.828125 2.109375 3.953125 5.953125l-3.609375 0.84375q-0.96875 -3.015625 -2.796875 -4.390625q-1.828125 -1.390625 -4.609375 -1.390625q-3.1875 0 -5.328125 1.53125q-2.140625 1.53125 -3.015625 4.109375q-0.859375 2.578125 -0.859375 5.3125q0 3.53125 1.015625 6.171875q1.03125 2.625 3.203125 3.9375q2.171875 1.296875 4.703125 1.296875q3.078125 0 5.203125 -1.765625q2.140625 -1.78125 2.890625 -5.28125zm6.478821 -0.3125q0 -5.578125 3.09375 -8.25q2.59375 -2.234375 6.3125 -2.234375q4.125 0 6.75 2.71875q2.625 2.703125 2.625 7.46875q0 3.875 -1.15625 6.09375q-1.15625 2.21875 -3.375 3.453125q-2.21875 1.21875 -4.84375 1.21875q-4.21875 0 -6.8125 -2.6875q-2.59375 -2.703125 -2.59375 -7.78125zm3.5 0q0 3.84375 1.671875 5.765625q1.6875 1.90625 4.234375 1.90625q2.53125 0 4.203125 -1.921875q1.6875 -1.921875 1.6875 -5.875q0 -3.71875 -1.703125 -5.625q-1.6875 -1.921875 -4.1875 -1.921875q-2.546875 0 -4.234375 1.90625q-1.671875 1.90625 -1.671875 5.765625zm19.264343 10.015625l0 -20.046875l3.046875 0l0 2.8125q0.9375 -1.46875 2.5 -2.359375q1.578125 -0.90625 3.578125 -0.90625q2.21875 0 3.640625 0.921875q1.4375 0.921875 2.015625 2.59375q2.375 -3.515625 6.1875 -3.515625q2.984375 0 4.578125 1.65625q1.609375 1.65625 1.609375 5.078125l0 13.765625l-3.375 0l0 -12.625q0 -2.046875 -0.328125 -2.9375q-0.328125 -0.890625 -1.203125 -1.4375q-0.859375 -0.546875 -2.03125 -0.546875q-2.109375 0 -3.515625 1.40625q-1.390625 1.40625 -1.390625 4.5l0 11.640625l-3.40625 0l0 -13.03125q0 -2.25 -0.828125 -3.375q-0.828125 -1.140625 -2.71875 -1.140625q-1.4375 0 -2.65625 0.75q-1.203125 0.75 -1.75 2.203125q-0.546875 1.453125 -0.546875 4.1875l0 10.40625l-3.40625 0zm32.20099 7.6875l0 -27.734375l3.09375 0l0 2.609375q1.09375 -1.53125 2.46875 -2.296875q1.390625 -0.765625 3.34375 -0.765625q2.578125 0 4.53125 1.328125q1.96875 1.3125 2.96875 3.71875q1.0 2.40625 1.0 5.28125q0 3.078125 -1.109375 5.546875q-1.09375 2.453125 -3.203125 3.765625q-2.109375 1.3125 -4.421875 1.3125q-1.703125 0 -3.0625 -0.71875q-1.34375 -0.71875 -2.203125 -1.8125l0 9.765625l-3.40625 0zm3.078125 -17.59375q0 3.859375 1.5625 5.71875q1.578125 1.84375 3.796875 1.84375q2.265625 0 3.875 -1.90625q1.625 -1.921875 1.625 -5.9375q0 -3.84375 -1.578125 -5.75q-1.578125 -1.90625 -3.765625 -1.90625q-2.171875 0 -3.84375 2.03125q-1.671875 2.03125 -1.671875 5.90625zm17.15503 -0.109375q0 -5.578125 3.09375 -8.25q2.59375 -2.234375 6.3125 -2.234375q4.125 0 6.75 2.71875q2.625 2.703125 2.625 7.46875q0 3.875 -1.15625 6.09375q-1.15625 2.21875 -3.375 3.453125q-2.21875 1.21875 -4.84375 1.21875q-4.21875 0 -6.8125 -2.6875q-2.59375 -2.703125 -2.59375 -7.78125zm3.5 0q0 3.84375 1.671875 5.765625q1.6875 1.90625 4.234375 1.90625q2.53125 0 4.203125 -1.921875q1.6875 -1.921875 1.6875 -5.875q0 -3.71875 -1.703125 -5.625q-1.6875 -1.921875 -4.1875 -1.921875q-2.546875 0 -4.234375 1.90625q-1.671875 1.90625 -1.671875 5.765625zm19.264343 10.015625l0 -20.046875l3.0625 0l0 2.859375q2.203125 -3.3125 6.375 -3.3125q1.8125 0 3.328125 0.65625q1.53125 0.640625 2.28125 1.703125q0.75 1.0625 1.0625 2.515625q0.1875 0.9375 0.1875 3.296875l0 12.328125l-3.40625 0l0 -12.1875q0 -2.078125 -0.40625 -3.109375q-0.390625 -1.03125 -1.40625 -1.640625q-1.0 -0.609375 -2.359375 -0.609375q-2.171875 0 -3.75 1.375q-1.5625 1.375 -1.5625 5.21875l0 10.953125l-3.40625 0zm35.21753 -6.453125l3.515625 0.4375q-0.828125 3.078125 -3.078125 4.78125q-2.25 1.6875 -5.734375 1.6875q-4.40625 0 -6.984375 -2.703125q-2.5625 -2.71875 -2.5625 -7.609375q0 -5.046875 2.59375 -7.84375q2.609375 -2.796875 6.765625 -2.796875q4.015625 0 6.5625 2.734375q2.546875 2.734375 2.546875 7.703125q0 0.296875 -0.015625 0.90625l-14.953125 0q0.1875 3.3125 1.859375 5.0625q1.6875 1.75 4.203125 1.75q1.875 0 3.1875 -0.96875q1.328125 -0.984375 2.09375 -3.140625zm-11.15625 -5.5l11.203125 0q-0.234375 -2.53125 -1.28125 -3.78125q-1.625 -1.96875 -4.21875 -1.96875q-2.34375 0 -3.9375 1.5625q-1.59375 1.5625 -1.765625 4.1875zm18.93628 11.953125l0 -20.046875l3.0625 0l0 2.859375q2.203125 -3.3125 6.375 -3.3125q1.8125 0 3.328125 0.65625q1.53125 0.640625 2.28125 1.703125q0.75 1.0625 1.0625 2.515625q0.1875 0.9375 0.1875 3.296875l0 12.328125l-3.40625 0l0 -12.1875q0 -2.078125 -0.40625 -3.109375q-0.390625 -1.03125 -1.40625 -1.640625q-1.0 -0.609375 -2.359375 -0.609375q-2.171875 0 -3.75 1.375q-1.5625 1.375 -1.5625 5.21875l0 10.953125l-3.40625 0zm28.920654 -3.03125l0.484375 3.0q-1.4375 0.296875 -2.5625 0.296875q-1.84375 0 -2.875 -0.578125q-1.015625 -0.59375 -1.4375 -1.546875q-0.40625 -0.953125 -0.40625 -4.015625l0 -11.53125l-2.5 0l0 -2.640625l2.5 0l0 -4.96875l3.375 -2.03125l0 7.0l3.421875 0l0 2.640625l-3.421875 0l0 11.71875q0 1.453125 0.171875 1.875q0.1875 0.421875 0.59375 0.671875q0.40625 0.234375 1.15625 0.234375q0.578125 0 1.5 -0.125z" fill-rule="nonzero"/><path shape-rendering="crispEdges" fill="#666666" d="m414.41995 329.79266l52.044617 0l0 59.194214l-52.044617 0l0 -59.194214z" fill-rule="nonzero"/><path shape-rendering="crispEdges" fill="#666666" d="m466.46457 329.79266l145.57742 0l0 59.194214l-145.57742 0l0 -59.194214z" fill-rule="nonzero"/><path shape-rendering="crispEdges" fill="#666666" d="m612.042 329.79266l155.8714 0l0 59.194214l-155.8714 0l0 -59.194214z" fill-rule="nonzero"/><path shape-rendering="crispEdges" fill="#666666" d="m767.9134 329.79266l168.66669 0l0 59.194214l-168.66669 0l0 -59.194214z" fill-rule="nonzero"/><path shape-rendering="crispEdges" fill="#fce5cd" d="m466.46457 388.98688l145.57742 0l0 71.99475l-145.57742 0l0 -71.99475z" fill-rule="nonzero"/><path shape-rendering="crispEdges" fill="#fce5cd" d="m612.042 388.98688l155.8714 0l0 71.99475l-155.8714 0l0 -71.99475z" fill-rule="nonzero"/><path shape-rendering="crispEdges" fill="#fce5cd" d="m466.46457 460.98163l145.57742 0l0 71.99475l-145.57742 0l0 -71.99475z" fill-rule="nonzero"/><path shape-rendering="crispEdges" fill="#fce5cd" d="m612.042 460.98163l155.8714 0l0 71.99475l-155.8714 0l0 -71.99475z" fill-rule="nonzero"/><path shape-rendering="crispEdges" fill="#fce5cd" d="m466.46457 532.9764l145.57742 0l0 71.99475l-145.57742 0l0 -71.99475z" fill-rule="nonzero"/><path shape-rendering="crispEdges" fill="#fce5cd" d="m612.042 532.9764l155.8714 0l0 71.99475l-155.8714 0l0 -71.99475z" fill-rule="nonzero"/><path stroke="#9e9e9e" stroke-width="1.0" stroke-linecap="butt" d="m414.41995 329.29398l0 276.1758" fill-rule="nonzero"/><path stroke="#9e9e9e" stroke-width="1.0" stroke-linecap="butt" d="m466.46457 329.29398l0 276.1758" fill-rule="nonzero"/><path stroke="#9e9e9e" stroke-width="1.0" stroke-linecap="butt" d="m612.042 329.29398l0 276.1758" fill-rule="nonzero"/><path stroke="#9e9e9e" stroke-width="1.0" stroke-linecap="butt" d="m767.9134 329.29398l0 276.1758" fill-rule="nonzero"/><path stroke="#9e9e9e" stroke-width="1.0" stroke-linecap="butt" d="m936.5801 329.29398l0 276.1758" fill-rule="nonzero"/><path stroke="#9e9e9e" stroke-width="1.0" stroke-linecap="butt" d="m413.92126 329.79266l523.1575 0" fill-rule="nonzero"/><path stroke="#9e9e9e" stroke-width="1.0" stroke-linecap="butt" d="m413.92126 388.98688l523.1575 0" fill-rule="nonzero"/><path stroke="#9e9e9e" stroke-width="1.0" stroke-linecap="butt" d="m413.92126 460.98163l523.1575 0" fill-rule="nonzero"/><path stroke="#9e9e9e" stroke-width="1.0" stroke-linecap="butt" d="m413.92126 532.9764l523.1575 0" fill-rule="nonzero"/><path stroke="#9e9e9e" stroke-width="1.0" stroke-linecap="butt" d="m413.92126 604.9711l523.1575 0" fill-rule="nonzero"/><path fill="#f3f3f3" d="m540.1361 361.0879q0.796875 0.09375 0.109375 0.59375l0 1.484375l7.125 0l0 1.875l-7.125 0l0 3.078125l9.796875 0l0 1.875l-21.28125 0l0 -1.875l9.5 0l0 -3.078125l-6.921875 0l0 -1.875l6.921875 0l0 -2.078125l1.875 0zm-7.8125 -5.4375l-3.75 0l0 -1.578125l3.75 0l0 -3.5625l-2.859375 0l0 -1.59375l11.265625 0l0 1.59375l-2.5625 0l0 3.5625l3.265625 0l0 1.578125l-3.265625 0l0 5.234375l-1.6875 0l0 -5.234375l-2.46875 0l0 0.78125q0 4.15625 -4.953125 5.9375l-0.78125 -1.875q4.046875 -1.1875 4.046875 -4.25l0 -0.59375zm16.625 -7.03125q0.796875 0.109375 0.09375 0.59375l0 10.296875q0 1.578125 -1.578125 1.578125l-1.984375 0l-0.296875 -1.875l1.484375 0q0.40625 0 0.40625 -0.40625l0 -10.1875l1.875 0zm-12.46875 5.453125l0 -3.5625l-2.46875 0l0 3.5625l2.46875 0zm7.921875 -3.765625q0.78125 0.09375 0.09375 0.59375l0 7.3125l-1.984375 0l0 -7.90625l1.890625 0z" fill-rule="nonzero"/><path fill="#f3f3f3" d="m677.21204 356.63477q2.171875 -2.078125 4.15625 -4.640625l-6.53125 0l-1.484375 2.078125q2.1875 1.1875 3.859375 2.5625zm7.125 -4.9375q-3.359375 4.84375 -7.8125 8.203125l9.203125 0l0 10.296875l-1.984375 0l0 -0.890625l-9.0 0l0 1.1875l-1.984375 0l0 -8.015625q-2.96875 1.671875 -5.4375 2.5625l-0.796875 -2.265625q4.65625 -1.296875 9.015625 -4.75q-0.890625 -1.0 -3.265625 -2.578125q-1.984375 1.875 -4.359375 3.171875l-1.28125 -1.59375q5.4375 -2.765625 7.609375 -8.796875l2.1875 0.5q0.390625 0.390625 -0.296875 0.484375l-0.40625 0.890625l6.625 0l0.203125 -0.390625l2.078125 1.484375q0.390625 0.390625 -0.296875 0.5zm-0.59375 10.078125l-9.0 0l0 5.640625l9.0 0l0 -5.640625zm15.9375 -2.859375l0 -1.984375l-4.359375 0l0 1.984375l4.359375 0zm0 1.875l-4.359375 0l0 2.078125l4.359375 0l0 -2.078125zm-0.296875 7.8125q0.296875 0 0.296875 -0.296875l0 -3.5625l-4.359375 0l0 5.9375l-1.984375 0l0 -15.625l8.3125 0l0 13.75q0 1.6875 -1.578125 1.6875l-1.984375 0l-0.484375 -1.890625l1.78125 0zm5.140625 -13.046875l1.96875 0l0 11.375l-1.96875 0l0 -11.375zm5.046875 12.953125q0.296875 0 0.296875 -0.296875l0 -13.453125l1.875 0q0.984375 0.203125 0.09375 0.796875l0 13.15625q0 1.671875 -1.578125 1.671875l-2.171875 0l-0.40625 -1.875l1.890625 0zm-1.6875 -19.296875q-0.59375 1.09375 -1.484375 2.484375l7.515625 0l0 1.875l-22.75 0l0 -1.875l6.734375 0q-0.59375 -1.390625 -1.390625 -2.375l1.78125 -1.0q1.09375 1.09375 2.171875 3.375l3.65625 0q1.09375 -1.890625 1.78125 -3.765625l2.28125 0.796875q0.390625 0.390625 -0.296875 0.484375z" fill-rule="nonzero"/><path fill="#f3f3f3" d="m846.6139 348.91602q-0.40625 2.578125 -1.390625 5.640625q0.890625 0.109375 0.296875 0.703125l0 15.328125l-1.984375 0l0 -12.265625q-0.6875 1.078125 -1.28125 1.78125l-1.578125 -1.1875q3.359375 -4.0625 3.953125 -10.984375l2.28125 0.5q0.390625 0.390625 -0.296875 0.484375zm9.6875 3.671875l0 1.875l4.84375 0l0 11.671875l-9.1875 0l0 -11.671875l2.359375 0l0 -1.875l-7.109375 0l0 -1.890625l7.109375 0l0 -2.765625l1.890625 0q0.78125 0.09375 0.09375 0.59375l0 2.171875l6.4375 0l0 1.890625l-6.4375 0zm-2.671875 3.453125l0 1.78125l5.84375 0l0 -1.78125l-5.84375 0zm0 3.359375l0 1.6875l5.84375 0l0 -1.6875l-5.84375 0zm0 3.265625l0 1.890625l5.84375 0l0 -1.890625l-5.84375 0zm-5.734375 7.921875l0 -15.828125l1.875 0q0.796875 0.09375 0.109375 0.59375l0 12.46875l13.640625 0l0 1.875l-13.640625 0l0 0.890625l-1.984375 0z" fill-rule="nonzero"/><path fill="#000000" d="m445.08957 413.05362q4.21875 0 6.75 2.53125q3.375 3.375 3.375 9.984375q0 6.328125 -3.375 9.703125q-2.53125 2.53125 -6.75 2.53125q-4.21875 0 -6.75 -2.53125q-3.375 -3.375 -3.375 -9.703125q0 -6.609375 3.375 -9.984375q2.53125 -2.53125 6.75 -2.53125zm0 2.671875q-2.671875 0 -4.21875 1.546875q-2.390625 2.390625 -2.390625 8.296875q0 5.625 2.390625 8.015625q1.546875 1.546875 4.21875 1.546875q2.671875 0 4.21875 -1.546875q2.390625 -2.390625 2.390625 -8.15625q0 -5.765625 -2.390625 -8.15625q-1.546875 -1.546875 -4.21875 -1.546875z" fill-rule="nonzero"/><path fill="#000000" d="m477.8552 415.81924l0 -3.640625l3.171875 0l0 3.640625l-3.171875 0zm0 22.125l0 -18.671875l3.171875 0l0 18.671875l-3.171875 0zm7.982422 0l0 -18.671875l2.84375 0l0 2.65625q2.0625 -3.078125 5.9375 -3.078125q1.6875 0 3.109375 0.609375q1.421875 0.609375 2.125 1.59375q0.703125 0.984375 0.984375 2.328125q0.171875 0.890625 0.171875 3.078125l0 11.484375l-3.171875 0l0 -11.359375q0 -1.9375 -0.375 -2.890625q-0.359375 -0.953125 -1.296875 -1.515625q-0.9375 -0.578125 -2.203125 -0.578125q-2.03125 0 -3.5 1.28125q-1.46875 1.28125 -1.46875 4.859375l0 10.203125l-3.15625 0zm26.927704 -2.828125l0.453125 2.796875q-1.3280945 0.28125 -2.3905945 0.28125q-1.71875 0 -2.671875 -0.546875q-0.9375 -0.546875 -1.328125 -1.4375q-0.390625 -0.890625 -0.390625 -3.734375l0 -10.734375l-2.3125 0l0 -2.46875l2.3125 0l0 -4.625l3.140625 -1.890625l0 6.515625l3.1874695 0l0 2.46875l-3.1874695 0l0 10.90625q0 1.359375 0.171875 1.75q0.171875 0.375 0.546875 0.609375q0.375 0.234375 1.078125 0.234375q0.53125 0 1.3905945 -0.125z" fill-rule="nonzero"/><path fill="#000000" d="m635.6045 431.1005l3.109375 0.40625q-0.515625 3.21875 -2.625 5.046875q-2.09375 1.8125 -5.15625 1.8125q-3.828125 0 -6.15625 -2.5q-2.328125 -2.515625 -2.328125 -7.1875q0 -3.015625 1.0 -5.28125q1.0 -2.28125 3.046875 -3.40625q2.046875 -1.140625 4.46875 -1.140625q3.03125 0 4.96875 1.546875q1.9375 1.53125 2.484375 4.359375l-3.078125 0.484375q-0.4375 -1.890625 -1.5625 -2.828125q-1.109375 -0.953125 -2.703125 -0.953125q-2.390625 0 -3.890625 1.71875q-1.484375 1.703125 -1.484375 5.40625q0 3.765625 1.4375 5.46875q1.453125 1.703125 3.765625 1.703125q1.859375 0 3.109375 -1.140625q1.25 -1.140625 1.59375 -3.515625zm4.640625 -2.484375q0 -5.1875 2.875 -7.6875q2.40625 -2.078125 5.875 -2.078125q3.84375 0 6.28125 2.53125q2.453125 2.515625 2.453125 6.96875q0 3.59375 -1.078125 5.671875q-1.078125 2.0625 -3.15625 3.203125q-2.0625 1.140625 -4.5 1.140625q-3.921875 0 -6.34375 -2.515625q-2.40625 -2.515625 -2.40625 -7.234375zm3.25 0q0 3.578125 1.5625 5.359375q1.5625 1.78125 3.9375 1.78125q2.359375 0 3.921875 -1.78125q1.5625 -1.796875 1.5625 -5.46875q0 -3.46875 -1.578125 -5.25q-1.578125 -1.78125 -3.90625 -1.78125q-2.375 0 -3.9375 1.78125q-1.5625 1.765625 -1.5625 5.359375zm30.177734 9.328125l0 -2.75q-2.1875 3.171875 -5.921875 3.171875q-1.65625 0 -3.09375 -0.625q-1.421875 -0.640625 -2.125 -1.59375q-0.6875 -0.96875 -0.96875 -2.359375q-0.203125 -0.921875 -0.203125 -2.953125l0 -11.5625l3.171875 0l0 10.359375q0 2.46875 0.1875 3.34375q0.296875 1.234375 1.265625 1.953125q0.96875 0.71875 2.390625 0.71875q1.421875 0 2.671875 -0.734375q1.25 -0.734375 1.765625 -1.984375q0.53125 -1.265625 0.53125 -3.65625l0 -10.0l3.15625 0l0 18.671875l-2.828125 0zm7.7871094 0l0 -18.671875l2.84375 0l0 2.65625q2.0625 -3.078125 5.9375 -3.078125q1.6875 0 3.109375 0.609375q1.421875 0.609375 2.125 1.59375q0.703125 0.984375 0.984375 2.328125q0.171875 0.890625 0.171875 3.078125l0 11.484375l-3.171875 0l0 -11.359375q0 -1.9375 -0.375 -2.890625q-0.359375 -0.953125 -1.296875 -1.515625q-0.9375 -0.578125 -2.203125 -0.578125q-2.03125 0 -3.5 1.28125q-1.46875 1.28125 -1.46875 4.859375l0 10.203125l-3.15625 0zm26.927734 -2.828125l0.453125 2.796875q-1.328125 0.28125 -2.390625 0.28125q-1.71875 0 -2.671875 -0.546875q-0.9375 -0.546875 -1.328125 -1.4375q-0.390625 -0.890625 -0.390625 -3.734375l0 -10.734375l-2.3125 0l0 -2.46875l2.3125 0l0 -4.625l3.140625 -1.890625l0 6.515625l3.1875 0l0 2.46875l-3.1875 0l0 10.90625q0 1.359375 0.171875 1.75q0.171875 0.375 0.546875 0.609375q0.375 0.234375 1.078125 0.234375q0.53125 0 1.390625 -0.125zm15.876953 -3.1875l3.265625 0.40625q-0.765625 2.859375 -2.859375 4.453125q-2.09375 1.578125 -5.34375 1.578125q-4.09375 0 -6.5 -2.515625q-2.40625 -2.53125 -2.40625 -7.078125q0 -4.71875 2.421875 -7.3125q2.4375 -2.609375 6.296875 -2.609375q3.75 0 6.125 2.546875q2.375 2.546875 2.375 7.171875q0 0.28125 -0.015625 0.84375l-13.921875 0q0.171875 3.078125 1.734375 4.71875q1.5625 1.625 3.90625 1.625q1.734375 0 2.96875 -0.90625q1.234375 -0.921875 1.953125 -2.921875zm-10.390625 -5.109375l10.421875 0q-0.203125 -2.359375 -1.1875 -3.53125q-1.515625 -1.828125 -3.921875 -1.828125q-2.1875 0 -3.671875 1.453125q-1.484375 1.453125 -1.640625 3.90625zm17.59961 11.125l0 -18.671875l2.84375 0l0 2.828125q1.09375 -1.984375 2.015625 -2.609375q0.921875 -0.640625 2.03125 -0.640625q1.59375 0 3.25 1.015625l-1.09375 2.9375q-1.15625 -0.6875 -2.3125 -0.6875q-1.046875 0 -1.875 0.625q-0.828125 0.625 -1.171875 1.734375q-0.53125 1.6875 -0.53125 3.6875l0 9.78125l-3.15625 0z" fill-rule="nonzero"/><path fill="#000000" d="m778.429 431.14737l3.15625 -0.421875q0.546875 2.6875 1.859375 3.875q1.3125 1.1875 3.1875 1.1875q2.234375 0 3.765625 -1.546875q1.546875 -1.546875 1.546875 -3.84375q0 -2.171875 -1.421875 -3.578125q-1.421875 -1.421875 -3.625 -1.421875q-0.890625 0 -2.234375 0.34375l0.359375 -2.78125q0.3125 0.046875 0.5 0.046875q2.03125 0 3.640625 -1.046875q1.625 -1.0625 1.625 -3.265625q0 -1.734375 -1.1875 -2.875q-1.171875 -1.15625 -3.03125 -1.15625q-1.84375 0 -3.078125 1.171875q-1.234375 1.15625 -1.578125 3.46875l-3.171875 -0.5625q0.578125 -3.171875 2.625 -4.921875q2.0625 -1.75 5.125 -1.75q2.109375 0 3.875 0.90625q1.78125 0.90625 2.71875 2.46875q0.953125 1.5625 0.953125 3.328125q0 1.65625 -0.90625 3.03125q-0.890625 1.375 -2.640625 2.1875q2.28125 0.515625 3.546875 2.1875q1.265625 1.65625 1.265625 4.15625q0 3.375 -2.46875 5.71875q-2.453125 2.34375 -6.21875 2.34375q-3.390625 0 -5.640625 -2.015625q-2.234375 -2.03125 -2.546875 -5.234375zm20.00586 -5.90625q0 -4.578125 0.9375 -7.359375q0.9375 -2.796875 2.78125 -4.296875q1.859375 -1.515625 4.671875 -1.515625q2.078125 0 3.640625 0.84375q1.5625 0.828125 2.578125 2.40625q1.03125 1.5625 1.609375 3.828125q0.578125 2.25 0.578125 6.09375q0 4.53125 -0.9375 7.3125q-0.921875 2.78125 -2.78125 4.3125q-1.84375 1.515625 -4.6875 1.515625q-3.71875 0 -5.84375 -2.671875q-2.546875 -3.21875 -2.546875 -10.46875zm3.25 0q0 6.34375 1.484375 8.453125q1.484375 2.09375 3.65625 2.09375q2.1875 0 3.671875 -2.109375q1.484375 -2.109375 1.484375 -8.4375q0 -6.375 -1.484375 -8.453125q-1.484375 -2.09375 -3.703125 -2.09375q-2.171875 0 -3.484375 1.84375q-1.625 2.34375 -1.625 8.703125z" fill-rule="nonzero"/><path fill="#000000" d="m450.84933 509.939l-3.15625 0l0 -20.15625q-1.140625 1.078125 -3.0 2.171875q-1.859375 1.09375 -3.328125 1.640625l0 -3.0625q2.65625 -1.25 4.640625 -3.015625q1.984375 -1.78125 2.8125 -3.453125l2.03125 0l0 25.875z" fill-rule="nonzero"/><path fill="#000000" d="m476.57394 504.36087l3.125 -0.484375q0.265625 1.875 1.46875 2.875q1.203125 1.0 3.375 1.0q2.171875 0 3.21875 -0.875q1.0625 -0.890625 1.0625 -2.09375q0 -1.0625 -0.9375 -1.6875q-0.640625 -0.421875 -3.234375 -1.0625q-3.46875 -0.890625 -4.8125 -1.53125q-1.34375 -0.640625 -2.046875 -1.765625q-0.6875 -1.140625 -0.6875 -2.515625q0 -1.234375 0.5625 -2.296875q0.578125 -1.078125 1.5625 -1.78125q0.734375 -0.53125 2.0 -0.90625q1.28125 -0.390625 2.75 -0.390625q2.1875 0 3.84375 0.640625q1.671875 0.625 2.453125 1.71875q0.796875 1.078125 1.09375 2.875l-3.09375 0.421875q-0.203125 -1.4375 -1.21875 -2.234375q-1.015625 -0.8125 -2.859375 -0.8125q-2.171875 0 -3.109375 0.71875q-0.9375 0.71875 -0.9375 1.6875q0 0.609375 0.390625 1.109375q0.390625 0.5 1.21875 0.84375q0.46875 0.171875 2.796875 0.796875q3.359375 0.90625 4.671875 1.484375q1.328125 0.5625 2.078125 1.65625q0.765625 1.078125 0.765625 2.703125q0 1.578125 -0.921875 2.984375q-0.921875 1.390625 -2.671875 2.15625q-1.734375 0.765625 -3.921875 0.765625q-3.640625 0 -5.546875 -1.515625q-1.90625 -1.515625 -2.4375 -4.484375zm26.171875 2.75l0.453125 2.796875q-1.328125 0.28125 -2.390625 0.28125q-1.71875 0 -2.671875 -0.546875q-0.9375 -0.546875 -1.328125 -1.4375q-0.390625 -0.890625 -0.390625 -3.734375l0 -10.734375l-2.3125 0l0 -2.46875l2.3125 0l0 -4.625l3.140625 -1.890625l0 6.515625l3.1875 0l0 2.46875l-3.1875 0l0 10.90625q0 1.359375 0.171875 1.75q0.171875 0.375 0.546875 0.609375q0.375 0.234375 1.078125 0.234375q0.53125 0 1.390625 -0.125zm3.0644531 2.828125l0 -18.671875l2.84375 0l0 2.828125q1.09375 -1.984375 2.015625 -2.609375q0.921875 -0.640625 2.0312195 -0.640625q1.59375 0 3.25 1.015625l-1.09375 2.9375q-1.15625 -0.6875 -2.3125 -0.6875q-1.0468445 0 -1.8749695 0.625q-0.828125 0.625 -1.171875 1.734375q-0.53125 1.6875 -0.53125 3.6875l0 9.78125l-3.15625 0zm12.035126 -22.125l0 -3.640625l3.171875 0l0 3.640625l-3.171875 0zm0 22.125l0 -18.671875l3.171875 0l0 18.671875l-3.171875 0zm7.982422 0l0 -18.671875l2.84375 0l0 2.65625q2.0625 -3.078125 5.9375 -3.078125q1.6875 0 3.109375 0.609375q1.421875 0.609375 2.125 1.59375q0.703125 0.984375 0.984375 2.328125q0.171875 0.890625 0.171875 3.078125l0 11.484375l-3.171875 0l0 -11.359375q0 -1.9375 -0.375 -2.890625q-0.359375 -0.953125 -1.296875 -1.515625q-0.9375 -0.578125 -2.203125 -0.578125q-2.03125 0 -3.5 1.28125q-1.46875 1.28125 -1.46875 4.859375l0 10.203125l-3.15625 0zm19.44336 1.546875l3.078125 0.453125q0.1875 1.4219055 1.0625 2.0781555q1.1875 0.875 3.21875 0.875q2.203125 0 3.390625 -0.875q1.203125 -0.875 1.625 -2.4531555q0.25 -0.96875 0.21875 -4.0625q-2.0625 2.4375 -5.15625 2.4375q-3.859375 0 -5.96875 -2.78125q-2.109375 -2.78125 -2.109375 -6.65625q0 -2.671875 0.96875 -4.921875q0.96875 -2.265625 2.796875 -3.5q1.84375 -1.234375 4.328125 -1.234375q3.296875 0 5.453125 2.671875l0 -2.25l2.90625 0l0 16.140625q0 4.359375 -0.890625 6.1719055q-0.875 1.828125 -2.8125 2.875q-1.921875 1.0625 -4.734375 1.0625q-3.328125 0 -5.390625 -1.5q-2.0625 -1.5 -1.984375 -4.5312805zm2.609375 -11.21875q0 3.671875 1.453125 5.359375q1.46875 1.6875 3.671875 1.6875q2.171875 0 3.640625 -1.671875q1.484375 -1.6875 1.484375 -5.265625q0 -3.421875 -1.515625 -5.15625q-1.515625 -1.75 -3.671875 -1.75q-2.109375 0 -3.59375 1.71875q-1.46875 1.703125 -1.46875 5.078125z" fill-rule="nonzero"/><path fill="#000000" d="m623.417 509.939l0 -18.671875l2.84375 0l0 2.65625q2.0625 -3.078125 5.9375 -3.078125q1.6875 0 3.109375 0.609375q1.421875 0.609375 2.125 1.59375q0.703125 0.984375 0.984375 2.328125q0.171875 0.890625 0.171875 3.078125l0 11.484375l-3.171875 0l0 -11.359375q0 -1.9375 -0.375 -2.890625q-0.359375 -0.953125 -1.296875 -1.515625q-0.9375 -0.578125 -2.203125 -0.578125q-2.03125 0 -3.5 1.28125q-1.46875 1.28125 -1.46875 4.859375l0 10.203125l-3.15625 0zm32.208984 -2.296875q-1.765625 1.484375 -3.390625 2.109375q-1.625 0.609375 -3.484375 0.609375q-3.078125 0 -4.734375 -1.5q-1.65625 -1.5 -1.65625 -3.84375q0 -1.375 0.625 -2.5q0.625 -1.140625 1.640625 -1.828125q1.015625 -0.6875 2.28125 -1.03125q0.921875 -0.25 2.8125 -0.484375q3.828125 -0.453125 5.640625 -1.078125q0.015625 -0.65625 0.015625 -0.828125q0 -1.9375 -0.90625 -2.734375q-1.203125 -1.0625 -3.59375 -1.0625q-2.234375 0 -3.296875 0.78125q-1.0625 0.78125 -1.578125 2.765625l-3.09375 -0.421875q0.421875 -1.984375 1.390625 -3.203125q0.96875 -1.21875 2.796875 -1.875q1.828125 -0.671875 4.234375 -0.671875q2.390625 0 3.875 0.5625q1.5 0.5625 2.203125 1.421875q0.703125 0.84375 0.984375 2.15625q0.15625 0.796875 0.15625 2.90625l0 4.21875q0 4.421875 0.203125 5.59375q0.203125 1.15625 0.8125 2.234375l-3.3125 0q-0.484375 -0.984375 -0.625 -2.296875zm-0.265625 -7.078125q-1.734375 0.703125 -5.171875 1.203125q-1.953125 0.28125 -2.765625 0.640625q-0.796875 0.34375 -1.25 1.015625q-0.4375 0.671875 -0.4375 1.5q0 1.265625 0.953125 2.109375q0.96875 0.84375 2.8125 0.84375q1.828125 0 3.25 -0.796875q1.421875 -0.796875 2.09375 -2.1875q0.515625 -1.078125 0.515625 -3.15625l0 -1.171875zm8.099609 9.375l0 -18.671875l2.828125 0l0 2.625q0.875 -1.375 2.328125 -2.203125q1.46875 -0.84375 3.328125 -0.84375q2.078125 0 3.40625 0.859375q1.328125 0.859375 1.875 2.40625q2.21875 -3.265625 5.765625 -3.265625q2.78125 0 4.265625 1.546875q1.5 1.53125 1.5 4.734375l0 12.8125l-3.15625 0l0 -11.765625q0 -1.890625 -0.3125 -2.71875q-0.296875 -0.84375 -1.109375 -1.34375q-0.796875 -0.515625 -1.890625 -0.515625q-1.96875 0 -3.28125 1.3125q-1.296875 1.296875 -1.296875 4.1875l0 10.84375l-3.15625 0l0 -12.125q0 -2.109375 -0.78125 -3.15625q-0.765625 -1.0625 -2.53125 -1.0625q-1.328125 0 -2.46875 0.703125q-1.125 0.703125 -1.640625 2.0625q-0.515625 1.34375 -0.515625 3.890625l0 9.6875l-3.15625 0zm42.76953 -6.015625l3.265625 0.40625q-0.765625 2.859375 -2.859375 4.453125q-2.09375 1.578125 -5.34375 1.578125q-4.09375 0 -6.5 -2.515625q-2.40625 -2.53125 -2.40625 -7.078125q0 -4.71875 2.421875 -7.3125q2.4375 -2.609375 6.296875 -2.609375q3.75 0 6.125 2.546875q2.375 2.546875 2.375 7.171875q0 0.28125 -0.015625 0.84375l-13.921875 0q0.171875 3.078125 1.734375 4.71875q1.5625 1.625 3.90625 1.625q1.734375 0 2.96875 -0.90625q1.234375 -0.921875 1.953125 -2.921875zm-10.390625 -5.109375l10.421875 0q-0.203125 -2.359375 -1.1875 -3.53125q-1.515625 -1.828125 -3.921875 -1.828125q-2.1875 0 -3.671875 1.453125q-1.484375 1.453125 -1.640625 3.90625z" fill-rule="nonzero"/><path fill="#000000" d="m781.77277 488.48587l0 3.6875l-3.40625 0l0 -2.90625q0 -2.359375 0.5625 -3.40625q0.75 -1.40625 2.34375 -2.125l0.78125 1.21875q-0.96875 0.40625 -1.4375 1.21875q-0.453125 0.796875 -0.5 2.3125l1.65625 0zm5.4375 0l0 3.6875l-3.390625 0l0 -2.90625q0 -2.359375 0.5625 -3.40625q0.734375 -1.40625 2.34375 -2.125l0.765625 1.21875q-0.96875 0.40625 -1.421875 1.21875q-0.453125 0.796875 -0.5 2.3125l1.640625 0zm4.5820312 21.453125l0 -25.765625l3.40625 0l0 10.578125l13.390625 0l0 -10.578125l3.40625 0l0 25.765625l-3.40625 0l0 -12.140625l-13.390625 0l0 12.140625l-3.40625 0zm24.310547 -9.328125q0 -5.1875 2.875 -7.6875q2.40625 -2.078125 5.875 -2.078125q3.84375 0 6.28125 2.53125q2.453125 2.515625 2.453125 6.96875q0 3.59375 -1.078125 5.671875q-1.078125 2.0625 -3.15625 3.203125q-2.0625 1.140625 -4.5 1.140625q-3.921875 0 -6.34375 -2.515625q-2.40625 -2.515625 -2.40625 -7.234375zm3.25 0q0 3.578125 1.5625 5.359375q1.5625 1.78125 3.9375 1.78125q2.359375 0 3.921875 -1.78125q1.5625 -1.796875 1.5625 -5.46875q0 -3.46875 -1.578125 -5.25q-1.578125 -1.78125 -3.90625 -1.78125q-2.375 0 -3.9375 1.78125q-1.5625 1.765625 -1.5625 5.359375zm17.365234 10.875l3.078125 0.453125q0.1875 1.4219055 1.0625 2.0781555q1.1875 0.875 3.21875 0.875q2.203125 0 3.390625 -0.875q1.203125 -0.875 1.625 -2.4531555q0.25 -0.96875 0.21875 -4.0625q-2.0625 2.4375 -5.15625 2.4375q-3.859375 0 -5.96875 -2.78125q-2.109375 -2.78125 -2.109375 -6.65625q0 -2.671875 0.96875 -4.921875q0.96875 -2.265625 2.796875 -3.5q1.84375 -1.234375 4.328125 -1.234375q3.296875 0 5.453125 2.671875l0 -2.25l2.90625 0l0 16.140625q0 4.359375 -0.890625 6.1719055q-0.875 1.828125 -2.8125 2.875q-1.921875 1.0625 -4.734375 1.0625q-3.328125 0 -5.390625 -1.5q-2.0625 -1.5 -1.984375 -4.5312805zm2.609375 -11.21875q0 3.671875 1.453125 5.359375q1.46875 1.6875 3.671875 1.6875q2.171875 0 3.640625 -1.671875q1.484375 -1.6875 1.484375 -5.265625q0 -3.421875 -1.515625 -5.15625q-1.515625 -1.75 -3.671875 -1.75q-2.109375 0 -3.59375 1.71875q-1.46875 1.703125 -1.46875 5.078125zm30.771484 3.65625l3.265625 0.40625q-0.765625 2.859375 -2.859375 4.453125q-2.09375 1.578125 -5.34375 1.578125q-4.09375 0 -6.5 -2.515625q-2.40625 -2.53125 -2.40625 -7.078125q0 -4.71875 2.421875 -7.3125q2.4375 -2.609375 6.296875 -2.609375q3.75 0 6.125 2.546875q2.375 2.546875 2.375 7.171875q0 0.28125 -0.015625 0.84375l-13.921875 0q0.171875 3.078125 1.734375 4.71875q1.5625 1.625 3.90625 1.625q1.734375 0 2.96875 -0.90625q1.234375 -0.921875 1.953125 -2.921875zm-10.390625 -5.109375l10.421875 0q-0.203125 -2.359375 -1.1875 -3.53125q-1.515625 -1.828125 -3.921875 -1.828125q-2.1875 0 -3.671875 1.453125q-1.484375 1.453125 -1.640625 3.90625zm16.78711 -11.234375l0 -3.671875l3.390625 0l0 2.890625q0 2.359375 -0.546875 3.40625q-0.75 1.421875 -2.359375 2.140625l-0.765625 -1.25q0.953125 -0.390625 1.40625 -1.21875q0.46875 -0.84375 0.53125 -2.296875l-1.65625 0zm5.453125 0l0 -3.671875l3.390625 0l0 2.890625q0 2.359375 -0.546875 3.40625q-0.75 1.421875 -2.359375 2.140625l-0.765625 -1.25q0.9375 -0.390625 1.40625 -1.21875q0.46875 -0.84375 0.515625 -2.296875l-1.640625 0z" fill-rule="nonzero"/><path fill="#000000" d="m455.56808 578.8869l0 3.046875l-17.03125 0q-0.03125 -1.140625 0.359375 -2.203125q0.65625 -1.734375 2.078125 -3.421875q1.4375 -1.6875 4.15625 -3.90625q4.203125 -3.4375 5.671875 -5.453125q1.484375 -2.015625 1.484375 -3.8125q0 -1.875 -1.359375 -3.15625q-1.34375 -1.296875 -3.5 -1.296875q-2.28125 0 -3.65625 1.375q-1.375 1.359375 -1.390625 3.78125l-3.25 -0.328125q0.328125 -3.640625 2.5 -5.546875q2.1875 -1.90625 5.875 -1.90625q3.703125 0 5.859375 2.0625q2.171875 2.046875 2.171875 5.09375q0 1.546875 -0.640625 3.046875q-0.625 1.484375 -2.09375 3.140625q-1.46875 1.65625 -4.875 4.53125q-2.859375 2.390625 -3.671875 3.25q-0.796875 0.84375 -1.328125 1.703125l12.640625 0z" fill-rule="nonzero"/><path fill="#000000" d="m485.6052 581.9338l-9.984375 -25.765625l3.6875 0l6.703125 18.71875q0.8125 2.25 1.359375 4.21875q0.59375 -2.109375 1.390625 -4.21875l6.953125 -18.71875l3.484375 0l-10.09375 25.765625l-3.5 0zm27.040985 -6.015625l3.265625 0.40625q-0.765625 2.859375 -2.859375 4.453125q-2.0937195 1.578125 -5.3437195 1.578125q-4.09375 0 -6.5 -2.515625q-2.40625 -2.53125 -2.40625 -7.078125q0 -4.71875 2.421875 -7.3125q2.4375 -2.609375 6.296875 -2.609375q3.75 0 6.1249695 2.546875q2.375 2.546875 2.375 7.171875q0 0.28125 -0.015625 0.84375l-13.9218445 0q0.171875 3.078125 1.734375 4.71875q1.5625 1.625 3.90625 1.625q1.734375 0 2.96875 -0.90625q1.234375 -0.921875 1.9530945 -2.921875zm-10.3905945 -5.109375l10.4218445 0q-0.203125 -2.359375 -1.1874695 -3.53125q-1.515625 -1.828125 -3.921875 -1.828125q-2.1875 0 -3.671875 1.453125q-1.484375 1.453125 -1.640625 3.90625zm29.818329 4.28125l3.109375 0.40625q-0.515625 3.21875 -2.625 5.046875q-2.09375 1.8125 -5.15625 1.8125q-3.828125 0 -6.15625 -2.5q-2.328125 -2.515625 -2.328125 -7.1875q0 -3.015625 1.0 -5.28125q1.0 -2.28125 3.046875 -3.40625q2.046875 -1.140625 4.46875 -1.140625q3.03125 0 4.96875 1.546875q1.9375 1.53125 2.484375 4.359375l-3.078125 0.484375q-0.4375 -1.890625 -1.5625 -2.828125q-1.109375 -0.953125 -2.703125 -0.953125q-2.390625 0 -3.890625 1.71875q-1.484375 1.703125 -1.484375 5.40625q0 3.765625 1.4375 5.46875q1.453125 1.703125 3.765625 1.703125q1.859375 0 3.109375 -1.140625q1.25 -1.140625 1.59375 -3.515625zm12.71875 4.015625l0.453125 2.796875q-1.328125 0.28125 -2.390625 0.28125q-1.71875 0 -2.671875 -0.546875q-0.9375 -0.546875 -1.328125 -1.4375q-0.390625 -0.890625 -0.390625 -3.734375l0 -10.734375l-2.3125 0l0 -2.46875l2.3125 0l0 -4.625l3.140625 -1.890625l0 6.515625l3.1875 0l0 2.46875l-3.1875 0l0 10.90625q0 1.359375 0.171875 1.75q0.171875 0.375 0.546875 0.609375q0.375 0.234375 1.078125 0.234375q0.53125 0 1.390625 -0.125zm1.9238281 -6.5q0 -5.1875 2.875 -7.6875q2.40625 -2.078125 5.875 -2.078125q3.84375 0 6.28125 2.53125q2.453125 2.515625 2.453125 6.96875q0 3.59375 -1.078125 5.671875q-1.078125 2.0625 -3.15625 3.203125q-2.0625 1.140625 -4.5 1.140625q-3.921875 0 -6.34375 -2.515625q-2.40625 -2.515625 -2.40625 -7.234375zm3.25 0q0 3.578125 1.5625 5.359375q1.5625 1.78125 3.9375 1.78125q2.359375 0 3.921875 -1.78125q1.5625 -1.796875 1.5625 -5.46875q0 -3.46875 -1.578125 -5.25q-1.578125 -1.78125 -3.90625 -1.78125q-2.375 0 -3.9375 1.78125q-1.5625 1.765625 -1.5625 5.359375zm17.91211 9.328125l0 -18.671875l2.84375 0l0 2.828125q1.09375 -1.984375 2.015625 -2.609375q0.921875 -0.640625 2.03125 -0.640625q1.59375 0 3.25 1.015625l-1.09375 2.9375q-1.15625 -0.6875 -2.3125 -0.6875q-1.046875 0 -1.875 0.625q-0.828125 0.625 -1.171875 1.734375q-0.53125 1.6875 -0.53125 3.6875l0 9.78125l-3.15625 0zm11.160156 -6.796875l3.15625 -0.421875q0.546875 2.6875 1.859375 3.875q1.3125 1.1875 3.1875 1.1875q2.234375 0 3.765625 -1.546875q1.546875 -1.546875 1.546875 -3.84375q0 -2.171875 -1.421875 -3.578125q-1.421875 -1.421875 -3.625 -1.421875q-0.890625 0 -2.234375 0.34375l0.359375 -2.78125q0.3125 0.046875 0.5 0.046875q2.03125 0 3.640625 -1.046875q1.625 -1.0625 1.625 -3.265625q0 -1.734375 -1.1875 -2.875q-1.171875 -1.15625 -3.03125 -1.15625q-1.84375 0 -3.078125 1.171875q-1.234375 1.15625 -1.578125 3.46875l-3.171875 -0.5625q0.578125 -3.171875 2.625 -4.921875q2.0625 -1.75 5.125 -1.75q2.109375 0 3.875 0.90625q1.78125 0.90625 2.71875 2.46875q0.953125 1.5625 0.953125 3.328125q0 1.65625 -0.90625 3.03125q-0.890625 1.375 -2.640625 2.1875q2.28125 0.515625 3.546875 2.1875q1.265625 1.65625 1.265625 4.15625q0 3.375 -2.46875 5.71875q-2.453125 2.34375 -6.21875 2.34375q-3.390625 0 -5.640625 -2.015625q-2.234375 -2.03125 -2.546875 -5.234375z" fill-rule="nonzero"/><path fill="#000000" d="m623.417 589.09l0 -25.828125l2.875 0l0 2.421875q1.03125 -1.421875 2.3125 -2.125q1.28125 -0.71875 3.109375 -0.71875q2.390625 0 4.21875 1.234375q1.828125 1.234375 2.75 3.484375q0.9375 2.234375 0.9375 4.90625q0 2.859375 -1.03125 5.15625q-1.015625 2.296875 -2.984375 3.515625q-1.953125 1.21875 -4.125 1.21875q-1.578125 0 -2.84375 -0.671875q-1.25 -0.671875 -2.0625 -1.6875l0 9.09375l-3.15625 0zm2.859375 -16.390625q0 3.609375 1.453125 5.328125q1.46875 1.71875 3.546875 1.71875q2.109375 0 3.609375 -1.78125q1.5 -1.78125 1.5 -5.53125q0 -3.5625 -1.46875 -5.328125q-1.46875 -1.78125 -3.5 -1.78125q-2.03125 0 -3.59375 1.890625q-1.546875 1.890625 -1.546875 5.484375zm15.990234 -0.09375q0 -5.1875 2.875 -7.6875q2.40625 -2.078125 5.875 -2.078125q3.84375 0 6.28125 2.53125q2.453125 2.515625 2.453125 6.96875q0 3.59375 -1.078125 5.671875q-1.078125 2.0625 -3.15625 3.203125q-2.0625 1.140625 -4.5 1.140625q-3.921875 0 -6.34375 -2.515625q-2.40625 -2.515625 -2.40625 -7.234375zm3.25 0q0 3.578125 1.5625 5.359375q1.5625 1.78125 3.9375 1.78125q2.359375 0 3.921875 -1.78125q1.5625 -1.796875 1.5625 -5.46875q0 -3.46875 -1.578125 -5.25q-1.578125 -1.78125 -3.90625 -1.78125q-2.375 0 -3.9375 1.78125q-1.5625 1.765625 -1.5625 5.359375zm16.677734 3.75l3.125 -0.484375q0.265625 1.875 1.46875 2.875q1.203125 1.0 3.375 1.0q2.171875 0 3.21875 -0.875q1.0625 -0.890625 1.0625 -2.09375q0 -1.0625 -0.9375 -1.6875q-0.640625 -0.421875 -3.234375 -1.0625q-3.46875 -0.890625 -4.8125 -1.53125q-1.34375 -0.640625 -2.046875 -1.765625q-0.6875 -1.140625 -0.6875 -2.515625q0 -1.234375 0.5625 -2.296875q0.578125 -1.078125 1.5625 -1.78125q0.734375 -0.53125 2.0 -0.90625q1.28125 -0.390625 2.75 -0.390625q2.1875 0 3.84375 0.640625q1.671875 0.625 2.453125 1.71875q0.796875 1.078125 1.09375 2.875l-3.09375 0.421875q-0.203125 -1.4375 -1.21875 -2.234375q-1.015625 -0.8125 -2.859375 -0.8125q-2.171875 0 -3.109375 0.71875q-0.9375 0.71875 -0.9375 1.6875q0 0.609375 0.390625 1.109375q0.390625 0.5 1.21875 0.84375q0.46875 0.171875 2.796875 0.796875q3.359375 0.90625 4.671875 1.484375q1.328125 0.5625 2.078125 1.65625q0.765625 1.078125 0.765625 2.703125q0 1.578125 -0.921875 2.984375q-0.921875 1.390625 -2.671875 2.15625q-1.734375 0.765625 -3.921875 0.765625q-3.640625 0 -5.546875 -1.515625q-1.90625 -1.515625 -2.4375 -4.484375zm19.28125 -16.546875l0 -3.640625l3.171875 0l0 3.640625l-3.171875 0zm0 22.125l0 -18.671875l3.171875 0l0 18.671875l-3.171875 0zm14.888672 -2.828125l0.453125 2.796875q-1.328125 0.28125 -2.390625 0.28125q-1.71875 0 -2.671875 -0.546875q-0.9375 -0.546875 -1.328125 -1.4375q-0.390625 -0.890625 -0.390625 -3.734375l0 -10.734375l-2.3125 0l0 -2.46875l2.3125 0l0 -4.625l3.140625 -1.890625l0 6.515625l3.1875 0l0 2.46875l-3.1875 0l0 10.90625q0 1.359375 0.171875 1.75q0.171875 0.375 0.546875 0.609375q0.375 0.234375 1.078125 0.234375q0.53125 0 1.390625 -0.125zm3.1113281 -19.296875l0 -3.640625l3.171875 0l0 3.640625l-3.171875 0zm0 22.125l0 -18.671875l3.171875 0l0 18.671875l-3.171875 0zm6.810547 -9.328125q0 -5.1875 2.875 -7.6875q2.40625 -2.078125 5.875 -2.078125q3.84375 0 6.28125 2.53125q2.453125 2.515625 2.453125 6.96875q0 3.59375 -1.078125 5.671875q-1.078125 2.0625 -3.15625 3.203125q-2.0625 1.140625 -4.5 1.140625q-3.921875 0 -6.34375 -2.515625q-2.40625 -2.515625 -2.40625 -7.234375zm3.25 0q0 3.578125 1.5625 5.359375q1.5625 1.78125 3.9375 1.78125q2.359375 0 3.921875 -1.78125q1.5625 -1.796875 1.5625 -5.46875q0 -3.46875 -1.578125 -5.25q-1.578125 -1.78125 -3.90625 -1.78125q-2.375 0 -3.9375 1.78125q-1.5625 1.765625 -1.5625 5.359375zm17.94336 9.328125l0 -18.671875l2.84375 0l0 2.65625q2.0625 -3.078125 5.9375 -3.078125q1.6875 0 3.109375 0.609375q1.421875 0.609375 2.125 1.59375q0.703125 0.984375 0.984375 2.328125q0.171875 0.890625 0.171875 3.078125l0 11.484375l-3.171875 0l0 -11.359375q0 -1.9375 -0.375 -2.890625q-0.359375 -0.953125 -1.296875 -1.515625q-0.9375 -0.578125 -2.203125 -0.578125q-2.03125 0 -3.5 1.28125q-1.46875 1.28125 -1.46875 4.859375l0 10.203125l-3.15625 0z" fill-rule="nonzero"/><path fill="#000000" d="m779.3509 589.09l0 -32.921875l6.984375 0l0 2.609375l-3.8125 0l0 27.6875l3.8125 0l0 2.625l-6.984375 0zm20.970703 -7.15625l-3.15625 0l0 -20.15625q-1.140625 1.078125 -3.0 2.171875q-1.859375 1.09375 -3.328125 1.640625l0 -3.0625q2.65625 -1.25 4.640625 -3.015625q1.984375 -1.78125 2.8125 -3.453125l2.03125 0l0 25.875zm9.818359 0l0 -3.609375l3.59375 0l0 3.609375q0 1.984375 -0.703125 3.203125q-0.703125 1.234375 -2.21875 1.890625l-0.890625 -1.34375q1.0 -0.4375 1.46875 -1.296875q0.484375 -0.859375 0.546875 -2.453125l-1.796875 0zm34.92578 -3.046875l0 3.046875l-17.03125 0q-0.03125 -1.140625 0.359375 -2.203125q0.65625 -1.734375 2.078125 -3.421875q1.4375 -1.6875 4.15625 -3.90625q4.203125 -3.4375 5.671875 -5.453125q1.484375 -2.015625 1.484375 -3.8125q0 -1.875 -1.359375 -3.15625q-1.34375 -1.296875 -3.5 -1.296875q-2.28125 0 -3.65625 1.375q-1.375 1.359375 -1.390625 3.78125l-3.25 -0.328125q0.328125 -3.640625 2.5 -5.546875q2.1875 -1.90625 5.875 -1.90625q3.703125 0 5.859375 2.0625q2.171875 2.046875 2.171875 5.09375q0 1.546875 -0.640625 3.046875q-0.625 1.484375 -2.09375 3.140625q-1.46875 1.65625 -4.875 4.53125q-2.859375 2.390625 -3.671875 3.25q-0.796875 0.84375 -1.328125 1.703125l12.640625 0zm3.3964844 -9.65625q0 -4.578125 0.9375 -7.359375q0.9375 -2.796875 2.78125 -4.296875q1.859375 -1.515625 4.671875 -1.515625q2.078125 0 3.640625 0.84375q1.5625 0.828125 2.578125 2.40625q1.03125 1.5625 1.609375 3.828125q0.578125 2.25 0.578125 6.09375q0 4.53125 -0.9375 7.3125q-0.921875 2.78125 -2.78125 4.3125q-1.84375 1.515625 -4.6875 1.515625q-3.71875 0 -5.84375 -2.671875q-2.546875 -3.21875 -2.546875 -10.46875zm3.25 0q0 6.34375 1.484375 8.453125q1.484375 2.09375 3.65625 2.09375q2.1875 0 3.671875 -2.109375q1.484375 -2.109375 1.484375 -8.4375q0 -6.375 -1.484375 -8.453125q-1.484375 -2.09375 -3.703125 -2.09375q-2.171875 0 -3.484375 1.84375q-1.625 2.34375 -1.625 8.703125zm18.47461 12.703125l0 -3.609375l3.59375 0l0 3.609375q0 1.984375 -0.703125 3.203125q-0.703125 1.234375 -2.21875 1.890625l-0.890625 -1.34375q1.0 -0.4375 1.46875 -1.296875q0.484375 -0.859375 0.546875 -2.453125l-1.796875 0zm18.300781 -12.703125q0 -4.578125 0.9375 -7.359375q0.9375 -2.796875 2.78125 -4.296875q1.859375 -1.515625 4.671875 -1.515625q2.078125 0 3.640625 0.84375q1.5625 0.828125 2.578125 2.40625q1.03125 1.5625 1.609375 3.828125q0.578125 2.25 0.578125 6.09375q0 4.53125 -0.9375 7.3125q-0.921875 2.78125 -2.78125 4.3125q-1.84375 1.515625 -4.6875 1.515625q-3.71875 0 -5.84375 -2.671875q-2.546875 -3.21875 -2.546875 -10.46875zm3.25 0q0 6.34375 1.484375 8.453125q1.484375 2.09375 3.65625 2.09375q2.1875 0 3.671875 -2.109375q1.484375 -2.109375 1.484375 -8.4375q0 -6.375 -1.484375 -8.453125q-1.484375 -2.09375 -3.703125 -2.09375q-2.171875 0 -3.484375 1.84375q-1.625 2.34375 -1.625 8.703125zm22.94336 19.859375l-6.984375 0l0 -2.625l3.8125 0l0 -27.6875l-3.8125 0l0 -2.609375l6.984375 0l0 32.921875z" fill-rule="nonzero"/><path fill="#f9cb9c" d="m1140.2047 595.1312l38.834717 -38.834656l38.834595 38.834656l-19.417358 0l0 77.03937l-38.834595 0l0 -77.03937z" fill-rule="evenodd"/><path stroke="#000000" stroke-width="1.0" stroke-linejoin="round" stroke-linecap="butt" d="m1140.2047 595.1312l38.834717 -38.834656l38.834595 38.834656l-19.417358 0l0 77.03937l-38.834595 0l0 -77.03937z" fill-rule="evenodd"/><path fill="#ffffff" d="m68.88714 196.75066l159.77954 0l0 466.17322l-159.77954 0z" fill-rule="evenodd"/><path stroke="#666666" stroke-width="4.0" stroke-linejoin="round" stroke-linecap="butt" d="m68.88714 196.75066l159.77954 0l0 466.17322l-159.77954 0z" fill-rule="evenodd"/><path fill="#666666" d="m101.34845 443.95728l0 -27.671875l20.0 0l0 3.265625l-16.34375 0l0 8.46875l15.3125 0l0 3.25l-15.3125 0l0 9.421875l16.984375 0l0 3.265625l-20.640625 0zm38.26779 0l0 -2.53125q-1.90625 2.984375 -5.59375 2.984375q-2.40625 0 -4.421875 -1.3125q-2.0 -1.328125 -3.109375 -3.6875q-1.09375 -2.375 -1.09375 -5.453125q0 -3.0 1.0 -5.4375q1.0 -2.453125 3.0 -3.75q2.0 -1.3125 4.46875 -1.3125q1.8125 0 3.21875 0.765625q1.421875 0.765625 2.3125 1.984375l0 -9.921875l3.375 0l0 27.671875l-3.15625 0zm-10.734375 -10.0q0 3.84375 1.625 5.75q1.625 1.90625 3.828125 1.90625q2.234375 0 3.78125 -1.8125q1.5625 -1.828125 1.5625 -5.5625q0 -4.109375 -1.59375 -6.03125q-1.578125 -1.9375 -3.90625 -1.9375q-2.25 0 -3.78125 1.859375q-1.515625 1.84375 -1.515625 5.828125zm19.248764 -13.765625l0 -3.90625l3.40625 0l0 3.90625l-3.40625 0zm0 23.765625l0 -20.046875l3.40625 0l0 20.046875l-3.40625 0zm15.994431 -3.03125l0.484375 3.0q-1.4375 0.296875 -2.5625 0.296875q-1.84375 0 -2.875 -0.578125q-1.015625 -0.59375 -1.4375 -1.546875q-0.40625 -0.953125 -0.40625 -4.015625l0 -11.53125l-2.5 0l0 -2.640625l2.5 0l0 -4.96875l3.375 -2.03125l0 7.0l3.421875 0l0 2.640625l-3.421875 0l0 11.71875q0 1.453125 0.171875 1.875q0.1875 0.421875 0.59375 0.671875q0.40625 0.234375 1.15625 0.234375q0.578125 0 1.5 -0.125zm2.0524445 -6.984375q0 -5.578125 3.09375 -8.25q2.59375 -2.234375 6.3125 -2.234375q4.125 0 6.75 2.71875q2.625 2.703125 2.625 7.46875q0 3.875 -1.15625 6.09375q-1.15625 2.21875 -3.375 3.453125q-2.21875 1.21875 -4.84375 1.21875q-4.21875 0 -6.8125 -2.6875q-2.59375 -2.703125 -2.59375 -7.78125zm3.5 0q0 3.84375 1.671875 5.765625q1.6875 1.90625 4.234375 1.90625q2.53125 0 4.203125 -1.921875q1.6875 -1.921875 1.6875 -5.875q0 -3.71875 -1.703125 -5.625q-1.6875 -1.921875 -4.1875 -1.921875q-2.546875 0 -4.234375 1.90625q-1.671875 1.90625 -1.671875 5.765625zm19.233139 10.015625l0 -20.046875l3.046875 0l0 3.046875q1.171875 -2.140625 2.15625 -2.8125q1.0 -0.6875 2.1875 -0.6875q1.71875 0 3.5 1.09375l-1.171875 3.15625q-1.25 -0.734375 -2.5 -0.734375q-1.109375 0 -2.0 0.671875q-0.875 0.671875 -1.265625 1.859375q-0.5625 1.8125 -0.5625 3.953125l0 10.5l-3.390625 0z" fill-rule="nonzero"/><path fill="#000000" fill-opacity="0.0" d="m256.04593 457.12073l130.99213 0l0 51.716553l-130.99213 0z" fill-rule="evenodd"/><path fill="#666666" d="m301.27637 476.40823q-1.671875 -2.5625 -3.875 -4.265625l2.46875 -2.28125q2.765625 2.0 3.828125 4.140625l-2.421875 2.40625zm-5.296875 14.546875l3.703125 -2.171875l0 -6.125l-3.34375 0l0 -3.0625l6.515625 0l0 8.75q2.078125 2.078125 5.078125 2.078125l13.609375 0l-0.796875 3.0625l-13.125 0q-3.65625 0 -6.359375 -2.59375l-3.59375 3.609375l-1.6875 -3.546875zm24.046875 -8.390625l-7.125 0l-0.015625 0.046875q3.890625 1.734375 6.890625 4.515625l-2.078125 3.25q-3.828125 -3.953125 -5.875 -4.859375q-1.296875 2.40625 -6.390625 5.359375l-1.8125 -3.171875q5.6875 -2.828125 6.0625 -5.140625l-6.46875 0l0 -3.078125l6.671875 0l0 -2.34375l-5.84375 0l0 -3.078125l3.25 0q-0.640625 -1.078125 -2.640625 -2.96875l2.8125 -1.84375q1.828125 1.6875 3.375 4.25l-0.75 0.5625l1.5625 0l2.578125 -5.375l2.859375 1.3125q1.28125 1.28125 -0.3125 1.484375l-1.6875 2.578125l4.109375 0l0 3.078125l-6.140625 0l0 2.34375l6.96875 0l0 3.078125zm2.390625 -1.171875q4.140625 -4.90625 4.9375 -12.25l3.140625 0.828125q1.15625 1.1875 -0.109375 1.546875q-0.484375 2.71875 -1.09375 4.484375q1.953125 0.1875 0.015625 1.515625l0 16.5l-3.1875 0l0.171875 -12.046875q0.109375 0.125 -1.59375 2.140625l-2.28125 -2.71875zm20.359375 6.375l-8.171875 0l0 1.921875l8.171875 0l0 -1.921875zm-11.34375 -3.078125l14.53125 0l0 9.015625l-3.1875 0l0 -0.9375l-8.171875 0l0 1.25l-3.171875 0l0 -9.328125zm0.625 -0.671875l0 -3.078125l12.859375 0l0 3.078125l-12.859375 0zm0 -3.640625l0 -3.078125l12.859375 0l0 3.078125l-12.859375 0zm-2.390625 -6.625l17.859375 0l0 3.078125l-17.859375 0l0 -3.078125zm2.390625 -3.734375l12.859375 0l0 3.0625l-12.859375 0l0 -3.0625z" fill-rule="nonzero"/><path fill="#f9cb9c" d="m969.3247 429.83728l35.165405 -35.165375l0 17.582703l60.771606 0l0 35.165344l-60.771606 0l0 17.582672z" fill-rule="evenodd"/><path stroke="#000000" stroke-width="1.0" stroke-linejoin="round" stroke-linecap="butt" d="m969.3247 429.83728l35.165405 -35.165375l0 17.582703l60.771606 0l0 35.165344l-60.771606 0l0 17.582672z" fill-rule="evenodd"/><path fill="#000000" fill-opacity="0.0" d="m951.7966 465.00262l130.99213 0l0 51.716553l-130.99213 0z" fill-rule="evenodd"/><path fill="#666666" d="m994.2614 487.8995q0.015625 0.09375 -1.140625 1.046875l-1.578125 -2.671875q3.328125 -3.4375 5.1875 -9.359375l2.515625 0.28125q0.953125 0.9375 -0.03125 1.515625l0.03125 -0.171875l1.5625 -0.03125l0.578125 -0.703125l2.796875 1.875l-0.890625 1.046875l-1.3125 2.46875l2.453125 0l0 16.484375q0 2.3125 -2.109375 2.3125l-2.75 0l-0.625 -3.0625l2.75 0q0 0.125 -0.125 0.125l0 -4.140625l-4.53125 0q0 3.921875 -2.65625 7.09375l-2.4375 -1.953125q2.234375 -2.46875 2.234375 -6.9375l0.078125 -5.21875zm15.265625 -3.859375l2.6875 0q0.265625 0 0.28125 -0.140625l0.265625 -2.9375l-2.015625 0q-0.40625 4.71875 -5.671875 6.921875l-1.296875 -2.765625q3.84375 -1.53125 4.015625 -4.15625l-3.3125 0l0 -2.75l11.453125 0l-0.5625 6.625q-0.140625 2.265625 -2.328125 2.265625l-3.203125 0l-0.3125 -3.0625zm2.71875 12.953125l0 4.90625l-2.859375 0l0 -4.90625l-5.109375 0l0 -3.0625l5.109375 0l0 -1.296875l-1.4375 0l-1.296875 2.109375l-2.484375 -1.828125q1.90625 -2.515625 2.390625 -5.734375l2.59375 0.421875q0.921875 0.9375 -0.015625 1.5l-0.125 0.453125l0.375 0l0 -2.609375l2.234375 0q2.234375 0.296875 0.625 1.453125l0 1.15625l3.640625 0l0 3.078125l-3.640625 0l0 1.296875l4.578125 0l0 3.0625l-4.578125 0zm-13.90625 -15.71875q-0.296875 0.828125 -0.90625 1.921875l1.515625 0l0.859375 -1.921875l-1.46875 0zm2.234375 10.875l1.0 0l0 -1.8125l-1.0 0l0 1.8125zm-2.546875 0l0 -1.8125l-0.984375 0l0 1.8125l0.984375 0zm-0.984375 -6.1875l0 1.609375l0.984375 0l0 -1.609375l-0.984375 0zm3.53125 0l0 1.609375l1.0 0l0 -1.609375l-1.0 0zm41.390564 -6.421875q0.953125 2.203125 -1.15625 1.328125q-3.84375 0.828125 -7.734375 1.0l0 3.3125l10.40625 0l0 3.078125l-4.0625 0l0 13.421875l-3.171875 0l0 -13.421875l-3.171875 0l0 4.125q0 6.1875 -4.203125 9.78125l-1.96875 -2.875q2.984375 -2.765625 2.984375 -6.796875l0 -14.03125l2.6875 0.671875q4.390625 -0.390625 7.96875 -2.015625l1.421875 2.421875zm-23.656189 14.578125q4.015625 -4.6875 4.8125 -8.890625l-3.84375 0l0 -3.0625l3.953125 0l0 -5.3125l2.546814 0q2.28125 0.296875 0.625 1.453125l0 3.859375l3.859375 0l0 3.0625l-3.859375 0l0 2.21875q1.921875 0.8125 3.984375 2.375l-1.375 3.09375q-1.90625 -1.3125 -2.609375 -1.78125l0 10.546875l-3.171814 0l0 -8.34375q-0.4375 1.140625 -3.109375 3.640625l-1.8125 -2.859375z" fill-rule="nonzero"/><path fill="#fce5cd" d="m278.25592 62.268127l0 0c0 -11.390919 9.234161 -20.625084 20.625061 -20.625084l753.23804 0c5.470093 0 10.716187 2.1729965 14.584106 6.040947c3.86792 3.8679543 6.0410156 9.114025 6.0410156 14.584137l0 82.49786c0 11.390915 -9.234253 20.625092 -20.625122 20.625092l-753.23804 0c-11.3909 0 -20.625061 -9.234177 -20.625061 -20.625092z" fill-rule="evenodd"/><path fill="#434343" d="m577.5094 120.09018q-2.703125 -3.953125 -6.609375 -8.21875l3.65625 -2.515625q3.40625 2.6875 6.953125 7.640625l-4.0 3.09375zm-20.5625 -30.921875l22.59375 0l0 4.453125l-3.171875 0l0 3.703125l5.296875 0l0 4.453125l-5.296875 0l0 3.703125l4.84375 0l0 4.453125l-34.0625 0l0 -4.453125l5.890625 0l0 -3.703125l-6.34375 0l0 -4.453125l6.34375 0l0 -1.8125q-0.75 1.078125 -3.5 2.78125l-2.671875 -3.8125q4.78125 -3.796875 7.09375 -9.859375l3.921875 1.171875q1.859375 1.859375 -0.34375 2.1875l-0.59375 1.1875zm10.21875 30.796875q-1.40625 -5.609375 -2.75 -9.234375l4.515625 -1.359375q1.515625 3.578125 3.109375 9.0625l-4.875 1.53125zm-10.734375 -8.921875q1.8125 1.828125 -0.421875 2.15625q-2.4375 4.421875 -5.46875 7.453125l-3.5625 -3.125q3.625 -4.15625 5.765625 -8.40625l3.6875 1.921875zm13.75 -17.421875l0 3.703125l1.578125 0l0 -3.703125l-1.578125 0zm-6.34375 0l0 3.703125l1.734375 0l0 -3.703125l-1.734375 0zm-6.1875 3.703125l1.578125 0l0 -3.703125l-1.578125 0l0 3.703125zm12.53125 8.15625l1.578125 0l0 -3.703125l-1.578125 0l0 3.703125zm-6.34375 -3.703125l0 3.703125l1.734375 0l0 -3.703125l-1.734375 0zm-6.1875 0l0 3.703125l1.578125 0l0 -3.703125l-1.578125 0zm4.671875 8.046875q1.0625 5.140625 0.890625 10.171875l-4.890625 0.4375q0 -5.5 -0.734375 -10.390625l4.734375 -0.21875zm37.5625 6.953125q7.0625 -7.0625 7.203125 -18.46875l-5.875 0l0 -4.46875l6.03125 0l0 -8.90625l3.71875 0q3.265625 0.421875 0.90625 2.109375l0 6.796875l8.75 0l0 4.46875l-8.0625 0q1.078125 10.171875 8.859375 18.09375l-2.484375 4.484375q-6.921875 -7.28125 -8.53125 -14.015625q0.09375 0.0625 -0.796875 2.8125q2.890625 1.703125 5.28125 4.46875l-2.125 4.265625q-2.984375 -3.390625 -4.859375 -4.640625q-1.765625 3.53125 -5.0625 6.828125l-2.953125 -3.828125zm-2.515625 -8.09375q1.171875 2.953125 0.859375 5.59375l-0.390625 -6.3125l-11.421875 0l0 -21.515625l15.78125 0l0 4.0l-5.4375 0l0 1.890625l4.234375 0l0 4.0l-4.234375 0l0 1.734375l4.234375 0l0 4.015625l-4.234375 0l0 1.875l5.640625 0l-0.65625 11.109375q-0.34375 5.734375 -4.125 5.734375l-3.4375 0l-0.46875 -4.46875l3.0 0q0.515625 0 0.5625 -0.515625l0.15625 0.015625l-1.5 0.71875q-0.59375 -3.765625 -1.765625 -7.296875l3.203125 -0.578125zm-4.96875 8.59375q-0.40625 -4.109375 -1.140625 -7.890625l3.3125 -0.546875q0.96875 3.625 1.34375 7.375l-3.515625 1.0625zm-0.28125 -8.25q0.5625 4.140625 0.5625 7.953125l-3.75 1.09375q0.203125 -4.546875 -0.171875 -8.75l3.359375 -0.296875zm-2.984375 -0.078125q0.546875 5.421875 -1.140625 10.625l-3.921875 -1.6875q1.5625 -4.171875 1.21875 -8.9375l3.84375 0zm1.4375 -16.609375l2.03125 0l0 -1.890625l-2.03125 0l0 1.890625zm0 5.734375l2.03125 0l0 -1.734375l-2.03125 0l0 1.734375zm0 5.890625l2.03125 0l0 -1.875l-2.03125 0l0 1.875zm53.078125 -7.890625q-2.546875 14.96875 -6.359375 18.765625q-2.1875 2.1875 -4.640625 2.1875q-2.734375 0 -4.328125 -1.59375q-3.859375 -3.859375 -3.859375 -9.609375q0 -6.984375 4.921875 -11.890625q5.359375 -5.375 13.09375 -5.375q6.96875 0 10.96875 4.015625q4.46875 4.453125 4.46875 10.53125q0 6.515625 -4.15625 10.671875q-2.65625 2.671875 -8.59375 5.375l-4.5 -4.5q6.375 -1.984375 9.25 -4.875q2.625 -2.625 2.625 -6.375q0 -4.5 -2.921875 -7.4375q-2.921875 -2.921875 -6.296875 -2.78125l-0.0625 -0.015625q3.40625 1.40625 0.390625 2.90625zm-5.125 -2.359375q-2.59375 0.59375 -5.3125 3.296875q-3.6875 3.703125 -3.6875 9.109375q0 3.140625 2.03125 5.171875q0.21875 0.21875 0.796875 0.21875q0.578125 0 1.40625 -0.828125q3.265625 -3.265625 4.765625 -16.96875zm40.828125 22.609375q7.15625 -0.703125 9.0625 -2.609375q1.421875 -1.4375 1.421875 -4.125q0 -2.984375 -1.421875 -4.421875q-1.75 -1.75 -4.296875 -1.984375q-2.28125 7.421875 -5.0625 10.34375l0.953125 2.046875l-4.171875 3.109375l-0.734375 -1.625q-3.34375 2.84375 -6.359375 2.84375q-2.140625 0 -3.875 -1.75q-1.90625 -1.890625 -1.90625 -5.09375q0 -5.453125 3.71875 -9.15625q2.1875 -2.203125 4.171875 -3.25l0.21875 -4.40625l-6.15625 0.28125l-0.890625 -4.9375l7.28125 -0.140625q0.109375 -2.765625 0.5 -6.65625l3.65625 0q3.34375 0.65625 0.984375 2.4375q-0.265625 2.34375 -0.359375 4.0q6.3125 -0.40625 12.171875 -1.4375l0.90625 4.9375q-7.21875 0.859375 -13.328125 1.125l-0.171875 2.921875q1.078125 -0.40625 4.34375 -0.515625l0.484375 -2.5625l3.640625 0.578125q2.9375 0.640625 0.921875 2.390625l0 -0.0625q4.140625 0.40625 6.90625 3.171875q3.09375 3.109375 3.09375 7.96875q0 4.546875 -2.796875 7.359375q-2.90625 2.90625 -10.03125 4.078125l-2.875 -4.859375zm-8.0 -10.765625q-0.03125 0.015625 -1.4375 1.421875q-2.484375 2.484375 -2.484375 6.53125q0 0.890625 0.671875 1.5625q0.0625 0.0625 0.640625 0.0625q1.9375 0 4.234375 -2.296875q-1.390625 -4.15625 -1.625 -7.28125zm4.546875 -2.203125q0.140625 3.21875 0.921875 5.3125q1.4375 -1.96875 2.265625 -5.828125q-1.609375 0 -3.1875 0.515625zm43.18811 11.84375q1.375 -0.171875 2.859375 -1.640625q1.578125 -1.578125 1.578125 -4.265625q0 -3.0 -1.734375 -4.71875q-1.734375 -1.734375 -5.625 -1.734375q-4.71875 0 -7.234375 1.8125q-2.5 1.765625 -7.03125 6.96875l-3.828125 -3.359375q11.453125 -11.4375 15.84375 -17.140625q-3.109375 0.390625 -8.75 0.90625l-1.5625 -5.125q8.4375 0 14.0 -0.734375l1.75 -0.78125l2.03125 2.03125q2.84375 2.578125 -0.875 3.28125q-4.359375 4.921875 -7.171875 8.0q0.765625 -0.171875 2.96875 -0.171875q6.078125 0 9.03125 2.953125q2.9375 2.953125 2.9375 7.5q0 4.71875 -2.640625 7.359375q-3.859375 3.859375 -9.78125 3.859375q-5.609375 0 -8.265625 -2.640625q-2.1875 -2.203125 -2.1875 -5.25q0 -2.140625 1.59375 -3.734375q1.734375 -1.75 4.03125 -1.75q3.046875 0 5.09375 2.046875q2.296875 2.3125 2.96875 6.328125zm-4.4375 0.671875q-0.46875 -2.90625 -1.625 -4.0625q-0.8125 -0.8125 -1.546875 -0.8125q-0.875 0 -1.25 0.359375q-0.515625 0.53125 -0.515625 1.109375q0 1.03125 0.96875 2.0q1.28125 1.28125 3.359375 1.28125q0.609375 0 0.609375 0.125zm19.652466 -27.0q13.921875 -0.15625 25.9375 -3.125l2.296875 2.8125q2.5 3.1875 -1.390625 2.21875q-4.6875 1.015625 -8.859375 1.40625l0 3.921875l11.9375 0l0 4.46875l-11.9375 0l0 3.546875l15.109375 0l0 4.453125l-15.109375 0l0 8.265625q0 3.515625 -3.359375 3.515625l-4.5625 0l-1.125 -4.921875l4.78125 0q0 0.34375 -0.34375 0.34375l0 -7.203125l-15.40625 0l0 -4.453125l15.40625 0l0 -3.546875l-12.234375 0l0 -4.46875l12.234375 0l0 -3.3125q-5.515625 0.53125 -12.1875 0.53125l-1.1875 -4.453125zm62.609436 23.96875l-3.046936 -3.84375l3.781311 -2.90625q5.6875 6.203125 8.796875 12.078125l-4.53125 3.015625q-1.421875 -2.875 -2.1875 -3.953125l-17.328186 1.703125q-0.28125 2.171875 -2.15625 0.296875l-1.578125 -5.265625l5.28125 -0.171875q2.625 -4.546875 4.296875 -8.84375l-8.25 0l0 -4.453125l9.96875 0l0 -4.609375l-7.40625 0l0 -4.453125l7.40625 0l0 -6.046875l4.203125 0q3.453186 0.71875 0.859375 2.4375l0 3.609375l8.156311 0l0 4.453125l-8.156311 0l0 4.609375l11.031311 0l0 4.453125l-12.062561 0q-2.234375 4.859375 -4.578125 8.53125l7.500061 -0.640625zm-15.718811 -5.25q-3.3125 7.625 -5.46875 11.8125q0.34375 2.703125 -2.046875 1.109375l-3.671875 -2.78125q3.296875 -4.1875 7.109375 -12.421875l4.078125 2.28125zm-4.140625 -2.828125q-2.828125 -3.03125 -6.46875 -5.75l3.09375 -3.75q4.484375 2.859375 6.609375 5.59375l-3.234375 3.90625zm1.6875 -8.390625q-3.28125 -2.921875 -6.5 -5.203125l3.09375 -3.765625q3.84375 2.390625 6.703125 5.25l-3.296875 3.71875z" fill-rule="nonzero"/><path fill="#000000" fill-opacity="0.0" d="m767.9134 676.3753c0 14.368103 -11.647644 26.015747 -26.015747 26.015747l-102.04724 0c-14.368103 0 -26.015747 11.647644 -26.015747 26.015747l0 0c0 -14.368103 -11.647644 -26.015747 -26.015747 -26.015747l-102.04724 0l0 0c-14.368103 0 -26.015747 -11.647644 -26.015747 -26.015747z" fill-rule="evenodd"/><path fill="#000000" fill-opacity="0.0" d="m767.9134 676.3753c0 14.368103 -11.647644 26.015747 -26.015747 26.015747l-102.04724 0c-14.368103 0 -26.015747 11.647644 -26.015747 26.015747l0 0c0 -14.368103 -11.647644 -26.015747 -26.015747 -26.015747l-102.04724 0l0 0c-14.368103 0 -26.015747 -11.647644 -26.015747 -26.015747" fill-rule="evenodd"/><path stroke="#ff0000" stroke-width="3.0" stroke-linejoin="round" stroke-linecap="butt" d="m767.9134 676.3753c0 14.368103 -11.647644 26.015747 -26.015747 26.015747l-102.04724 0c-14.368103 0 -26.015747 11.647644 -26.015747 26.015747l0 0c0 -14.368103 -11.647644 -26.015747 -26.015747 -26.015747l-102.04724 0l0 0c-14.368103 0 -26.015747 -11.647644 -26.015747 -26.015747" fill-rule="evenodd"/><path fill="#000000" fill-opacity="0.0" d="m291.09448 736.7454l645.48035 0l0 119.590515l-645.48035 0z" fill-rule="evenodd"/><path fill="#ff0000" d="m394.06018 779.94104q-5.421875 7.828125 -16.09375 9.953125l-2.25 -4.484375q10.734375 -2.25 15.734375 -10.1875l3.0625 2.40625q2.265625 2.3125 -0.453125 2.3125zm-2.765625 -12.671875q4.5625 3.796875 4.671875 3.953125l0 -12.53125l5.0 0l0.46875 -2.484375l-7.234375 0l0 -4.78125l19.640625 0l0 4.78125l-7.578125 0l-0.484375 2.484375l7.09375 0l0 23.671875l-3.1875 0q0.375 0.34375 5.59375 2.578125l-2.203125 4.4375q-4.921875 -1.984375 -8.859375 -5.53125l1.171875 -1.484375l-2.9375 0l0.578125 0.734375q1.671875 2.546875 -1.109375 2.203125q-3.234375 2.453125 -8.40625 4.1875l-2.46875 -4.65625q5.078125 -1.375 6.5 -2.46875l-1.578125 0l0 -5.234375l-1.0 1.015625q-3.125 -4.3125 -6.796875 -7.765625l3.125 -3.109375zm-7.03125 2.703125q2.6875 2.21875 -0.203125 2.21875q-1.46875 4.546875 -5.203125 9.25l-3.71875 -3.21875q3.328125 -4.09375 5.578125 -10.453125l3.546875 2.203125zm-1.75 -15.640625q3.5625 0.421875 0.96875 2.265625l0 6.765625l1.359375 0l0 -12.75l3.484375 0q3.5625 0.421875 0.96875 2.265625l0 3.21875l5.8125 0l0 4.3125l-5.8125 0l0 2.953125l7.265625 0l0 4.296875l-7.265625 0l0 9.96875q0 3.28125 -2.625 3.28125l-3.578125 0l-1.09375 -4.3125l3.046875 0q0.015625 0.21875 -0.203125 0.21875l0 -9.15625l-8.890625 0l0 -4.296875l3.078125 0l0 -9.03125l3.484375 0zm25.40625 23.71875l0 -2.3125l-7.0 0l0 2.3125l7.0 0zm-7.0 -6.609375l7.0 0l0 -1.84375l-7.0 0l0 1.84375zm0 -6.140625l7.0 0l0 -2.3125l-7.0 0l0 2.3125zm38.71875 -3.234375l-3.234375 -3.21875q3.140625 -2.71875 5.96875 -9.265625l3.6875 1.296875q1.96875 2.015625 -0.421875 2.359375l-0.171875 0.28125l9.859375 0l0 4.296875l-2.953125 0q-1.171875 4.265625 -3.09375 6.3125q1.609375 1.296875 6.765625 3.59375l-2.515625 4.0q-3.53125 -1.265625 -7.3125 -4.453125q-2.96875 2.40625 -8.171875 4.0l-0.859375 -3.125l-1.015625 0l-0.15625 1.03125l1.046875 0.78125q1.515625 3.015625 -0.9375 2.1875l-2.046875 1.9375l1.71875 1.03125l6.5625 -6.09375l3.0625 2.84375q0.484375 2.5 -1.421875 1.890625l-3.921875 3.28125l3.984375 -0.0625l-2.125 -1.484375l3.796875 -2.421875q5.890625 3.390625 9.078125 6.796875l-3.984375 2.75l-2.1875 -2.171875l-9.140625 0.421875l0 8.28125l-4.9375 0l0 -7.890625l-11.75 0.4375q-1.265625 3.8125 -2.28125 -0.671875l-0.65625 -3.9375l10.75 0l-5.578125 -3.46875l2.9375 -3.21875l2.296875 1.3125l0.328125 -0.328125l-0.859375 0l-0.90625 -3.65625l3.15625 0l-0.109375 0.421875l-6.875 0l-0.5 3.0l-4.296875 -0.515625l1.109375 -6.671875l-3.390625 0l0 -3.65625l3.8125 0l0.078125 -0.5l-1.375 1.09375l-3.09375 -3.609375q4.46875 -3.15625 6.640625 -7.5l3.796875 1.265625q2.0625 2.0 -0.484375 2.34375l-0.0625 -0.484375l12.25 -0.359375l0 3.65625l-13.890625 0l-0.21875 0.21875l12.125 0l-0.484375 3.875l3.609375 0l0 3.65625l-3.984375 0l-0.078125 0.53125l2.765625 0l0 1.421875q3.1875 -1.140625 3.84375 -1.796875q-0.546875 -0.46875 -2.15625 -3.5625l-1.390625 1.515625zm-20.9375 22.421875q6.84375 -1.84375 11.28125 -4.625l2.3125 3.15625q0.9375 2.265625 -1.390625 1.953125q-5.171875 2.984375 -10.015625 4.140625l-2.1875 -4.625zm13.78125 -20.53125l-1.3125 0l-0.078125 0.53125l1.3125 0l0.078125 -0.53125zm10.6875 15.421875q5.3125 2.921875 11.859375 4.609375l-2.015625 4.5q-6.8125 -1.828125 -12.15625 -5.265625l2.3125 -3.84375zm1.3125 -21.5625q1.03125 2.390625 1.78125 3.21875q0.671875 -0.671875 1.53125 -3.21875l-3.3125 0zm-17.484375 6.140625l-1.328125 0l-0.078125 0.53125l1.328125 0l0.078125 -0.53125zm0.625 -3.875l-1.484375 0l-0.03125 0.21875l1.484375 0l0.03125 -0.21875zm5.328125 0l-1.171875 0l-0.03125 0.21875l1.171875 0l0.03125 -0.21875zm52.03125 23.40625q-7.9375 0 -13.734375 -5.609375l3.140625 -4.125q4.796875 4.609375 10.578125 4.46875l9.75 0l0 5.265625l-9.734375 0zm-23.90625 3.140625q-0.53125 -9.296875 -0.53125 -15.296875q0 -7.34375 1.953125 -18.34375l4.109375 1.03125q3.75 0.703125 0.75 2.796875q-1.53125 8.9375 -1.53125 14.515625q0 6.265625 0.703125 14.828125l-5.453125 0.46875zm31.546875 -23.953125q-7.78125 -0.171875 -19.796875 1.046875l0 -5.125q12.4375 -1.203125 19.796875 -1.03125l0 5.109375zm20.500305 9.03125l0 4.890625l7.3125 0l0 -4.890625l-7.3125 0zm7.3125 9.203125l-7.3125 0l0 2.421875l-4.953125 0l0 -15.9375l17.21875 0l0 14.640625l-4.953125 0l0 -1.125zm-15.0 -20.765625l22.53125 0l0 4.78125l-22.53125 0l0 -4.78125zm23.40625 -2.484375l-23.625 0l0 30.828125l-4.953125 0l0 -35.609375l33.515625 0l0 32.015625q0 3.109375 -3.109375 3.109375l-5.234375 0l-1.0 -4.78125l4.609375 0q0.015625 0.21875 -0.203125 0.21875l0 -25.78125zm10.234375 27.328125q4.328125 -3.5625 7.453125 -8.734375l3.515625 2.28125q2.984375 2.15625 -0.46875 2.484375q-2.421875 3.921875 -6.484375 8.0l-4.015625 -4.03125zm31.734375 -9.40625l-3.96875 0q-0.296875 8.15625 -9.0625 14.0l-3.390625 -4.109375q7.546875 -4.625 7.546875 -11.40625l0 -21.84375l13.828125 0l0 33.15625q0 3.4375 -3.453125 3.4375l-4.171875 0l-0.46875 -5.265625l3.359375 0q0 0.21875 -0.21875 0.203125l0 -8.171875zm-14.515625 9.765625q-2.484375 -2.90625 -5.796875 -5.578125l3.671875 -3.421875q3.546875 2.578125 5.9375 5.1875l-3.8125 3.8125zm14.515625 -18.96875l-3.9375 0l0 4.40625l3.9375 0l0 -4.40625zm0 -9.359375l-3.9375 0l0 4.578125l3.9375 0l0 -4.578125zm-17.4375 14.515625l-4.734375 0l0 1.671875l4.734375 0l0 -1.671875zm0 -5.640625l-4.734375 0l0 1.34375l4.734375 0l0 -1.34375zm0 -5.484375l-4.734375 0l0 1.1875l4.734375 0l0 -1.1875zm8.5 -4.3125l0 4.3125l-4.03125 0l0 12.796875l4.515625 0l0 4.3125l-23.34375 0l0 -4.3125l5.15625 0l0 -12.796875l-4.1875 0l0 -4.3125l4.1875 0l0 -5.484375l3.5 0q4.375 0.421875 0.96875 2.328125l0 3.15625l4.734375 0l0 -5.484375l3.5 0q4.375 0.421875 0.96875 2.328125l0 3.15625l4.03125 0zm36.0625 21.578125q-0.84375 0.484375 -3.171875 0.484375q-3.109375 0 -4.8125 -1.703125q-2.1875 -2.1875 -2.1875 -4.96875q0 -2.9375 2.1875 -5.125q2.1875 -2.1875 5.453125 -2.1875q2.046875 0 2.859375 0.21875l0 -1.5l-17.609375 1.109375l-0.96875 -5.109375l18.578125 -0.828125l0 -7.609375l3.828125 0q3.96875 0.703125 1.109375 2.59375l0 4.765625l13.71875 -0.96875l0 5.125l-13.71875 0.640625l0 5.234375q0.640625 2.90625 0.640625 6.5625q-0.171875 8.703125 -10.078125 14.90625l-4.609375 -3.375q8.78125 -5.109375 8.78125 -8.265625zm-2.203125 -9.046875q-1.421875 0 -2.296875 0.890625q-0.71875 0.71875 -0.71875 1.96875q0 1.109375 0.546875 1.65625q0.546875 0.546875 1.984375 0.546875q1.40625 0 2.296875 -0.875q0.71875 -0.71875 0.71875 -1.8125q0 -1.09375 -0.71875 -1.8125q-0.5625 -0.5625 -1.8125 -0.5625zm46.401245 14.171875q1.46875 -0.171875 3.03125 -1.75q1.6875 -1.6875 1.6875 -4.5625q0 -3.1875 -1.859375 -5.03125q-1.84375 -1.859375 -6.0 -1.859375q-5.046875 0 -7.734375 1.953125q-2.671875 1.875 -7.53125 7.453125l-4.0625 -3.609375q12.234375 -12.21875 16.90625 -18.296875q-3.296875 0.40625 -9.34375 0.953125l-1.65625 -5.5q9.0 0 14.953125 -0.78125l1.875 -0.84375l2.1875 2.1875q3.046875 2.765625 -0.953125 3.515625q-4.640625 5.265625 -7.609375 8.53125q0.78125 -0.1875 3.125 -0.1875q6.5 0 9.65625 3.15625q3.15625 3.15625 3.15625 8.046875q0 5.03125 -2.84375 7.875q-4.125 4.125 -10.453125 4.125q-6.0 0 -8.84375 -2.84375q-2.34375 -2.34375 -2.34375 -5.609375q0 -2.296875 1.703125 -4.0q1.859375 -1.859375 4.328125 -1.859375q3.265625 0 5.453125 2.1875q2.4375 2.453125 3.171875 6.75zm-4.75 0.734375q-0.5 -3.09375 -1.75 -4.328125q-0.875 -0.890625 -1.640625 -0.890625q-0.9375 0 -1.328125 0.40625q-0.5625 0.546875 -0.5625 1.15625q0 1.09375 1.046875 2.140625q1.359375 1.359375 3.578125 1.359375q0.65625 0 0.65625 0.15625zm51.16217 -28.140625q-7.203125 16.609375 -17.703125 25.6875l0 1.21875q0 0.4375 0.28125 0.4375l9.671875 0q0.75 0 0.9375 -0.9375l1.328125 -5.515625l5.40625 1.171875l-1.515625 6.015625q-1.125 4.53125 -4.53125 4.53125l-12.75 0q-3.765625 0 -3.765625 -3.59375l0.109375 0q-2.703125 2.03125 -7.875 4.328125l-2.765625 -5.296875q5.96875 -2.0625 10.53125 -5.59375l0 -19.0l4.015625 0q3.703125 0.75 0.921875 2.609375l0 12.15625q7.609375 -7.609375 12.546875 -20.546875l5.15625 2.328125zm-0.5625 9.46875q4.890625 6.703125 7.125 13.375l-5.4375 2.5q-2.546875 -7.25 -6.359375 -13.078125l4.671875 -2.796875zm-23.6875 -1.125q3.296875 1.234375 0.359375 2.53125q-0.921875 8.1875 -3.5625 14.390625l-5.53125 -2.078125q3.09375 -6.359375 4.15625 -16.296875l4.578125 1.453125zm5.828125 -13.015625q6.15625 2.609375 10.1875 6.625l-3.265625 4.640625q-4.171875 -4.0 -9.75 -6.78125l2.828125 -4.484375zm49.25 33.34375q-5.328125 3.90625 -19.71875 5.140625l-1.015625 -4.796875q11.953125 -0.6875 14.8125 -2.15625q-1.515625 -0.390625 -4.546875 -0.953125l-1.09375 1.296875l-4.46875 -2.5l3.796875 -4.203125l-10.078125 0l0 -4.296875l13.65625 0l1.328125 -1.828125l-6.0 0l0 1.125l-4.46875 0l0 -12.53125l8.390625 0l0 -1.828125l-11.9375 0l0 -4.3125l36.421875 0l0 4.3125l-11.953125 0l0 1.828125l8.40625 0l0 12.375l-4.46875 0l0 -0.96875l-9.453125 -0.4375l0.21875 -0.375q2.625 1.546875 -0.390625 2.328125l-0.265625 0.3125l19.03125 0l0 4.296875l-8.609375 0q-1.75 2.921875 -3.46875 4.53125q3.765625 1.0625 10.765625 4.28125l-3.171875 4.359375q-5.4375 -2.890625 -11.71875 -5.0zm-5.890625 -8.171875l-1.421875 1.578125q2.15625 0.28125 6.328125 1.3125q2.09375 -1.578125 2.796875 -2.890625l-7.703125 0zm0.953125 -19.359375l0 1.828125l3.609375 0l0 -1.828125l-3.609375 0zm-8.390625 8.921875l3.921875 0l0 -2.796875l-3.921875 0l0 2.796875zm8.390625 -2.796875l0 2.796875l3.609375 0l0 -2.796875l-3.609375 0zm8.0625 0l0 2.796875l3.9375 0l0 -2.796875l-3.9375 0zm44.28125 -5.046875q7.3125 7.46875 9.96875 17.9375l-5.140625 2.09375q-3.109375 -11.1875 -9.171875 -16.90625l4.34375 -3.125zm-4.078125 14.03125q0 9.734375 -3.0 12.71875q-1.859375 1.875 -4.3125 1.875q-3.453125 0 -7.234375 -4.375l3.09375 -4.28125q3.046875 3.0625 3.984375 3.0625q0.4375 0 0.84375 -0.40625q1.515625 -1.515625 1.515625 -9.234375q0 -4.15625 -0.71875 -4.875q-0.234375 -0.234375 -1.328125 -0.234375q-1.40625 0 -3.359375 0.234375q-3.265625 11.5 -8.34375 20.78125l-5.421875 -1.890625q5.203125 -8.078125 8.328125 -18.3125q-2.25 0.3125 -6.515625 0.71875l-0.46875 -5.34375q3.796875 0 8.34375 -0.421875q1.265625 -4.421875 2.421875 -10.5l4.34375 1.4375q4.171875 1.75 0.25 2.953125q-0.84375 2.921875 -1.484375 5.515625q0.703125 -0.125 2.875 -0.125q2.625 0 4.0 1.390625q2.1875 2.171875 2.1875 9.3125zm8.03125 -22.359375q3.546875 1.953125 7.890625 5.515625l-3.140625 3.140625q-4.109375 -3.1875 -7.90625 -5.484375l3.15625 -3.171875zm1.34375 12.546875q-4.28125 -3.515625 -7.734375 -5.6875l3.171875 -3.15625q3.53125 1.96875 7.875 5.53125l-3.3125 3.3125zm32.625 3.625q3.9375 0.71875 1.109375 2.609375l0 8.28125q3.5 1.125 8.75 3.859375l-2.875 4.546875q-4.1875 -2.46875 -6.03125 -3.078125q-0.375 2.65625 -2.203125 4.46875q-2.1875 2.1875 -5.921875 2.1875q-4.890625 0 -6.90625 -2.03125q-1.875 -1.859375 -1.875 -4.796875q0 -2.46875 1.875 -4.328125q2.34375 -2.34375 6.734375 -2.34375q2.875 0 3.5 0.1875l0 -9.5625l3.84375 0zm-18.5625 -1.984375q-1.328125 0.15625 -6.0 0.15625l-0.71875 -5.109375q5.0 0 8.390625 -0.265625q0.65625 -2.3125 1.984375 -8.046875l3.828125 1.265625q3.640625 1.453125 0.421875 2.734375l-1.0 3.53125q1.40625 -0.171875 5.109375 -1.1875l1.203125 5.109375q-5.4375 1.171875 -7.8125 1.296875q-2.421875 7.734375 -7.859375 18.25l-4.78125 -2.421875q5.390625 -9.578125 7.234375 -15.3125zm16.203125 -6.921875q5.3125 1.703125 12.46875 4.453125l-2.140625 4.984375q-7.53125 -3.203125 -12.25 -4.59375l1.921875 -4.84375zm-1.484375 23.3125q-1.21875 -0.40625 -3.5 -0.40625q-2.21875 0 -2.9375 0.71875q-0.5625 0.546875 -0.5625 1.328125q0 0.765625 0.40625 1.15625q0.71875 0.71875 2.78125 0.71875q1.890625 0 2.609375 -0.71875q1.203125 -1.203125 1.203125 -2.796875zm33.8703 -3.6875q-1.75 4.46875 -3.453125 6.515625q-2.515625 3.0625 -5.171875 3.0625q-4.625 0 -6.78125 -5.21875q-1.1875 -2.90625 -1.1875 -12.109375q0 -6.5 0.734375 -14.140625l4.359375 1.046875q3.875 0.96875 0.78125 2.9375q-0.609375 5.515625 -0.609375 10.3125q0 6.5 0.78125 9.109375q0.625 2.140625 1.59375 2.140625q1.25 0 2.296875 -2.109375q0.78125 -1.578125 1.96875 -4.828125l4.6875 3.28125zm8.640625 -19.640625q7.921875 8.265625 9.6875 20.109375l-6.015625 1.5625q-2.046875 -11.96875 -8.59375 -18.859375l4.921875 -2.8125z" fill-rule="nonzero"/><path fill="#ff0000" d="m518.90625 818.88477l-16.140656 0l0 -5.28125l34.81253 0l0 5.28125l-13.234375 0l0 1.234375q0 10.546875 -8.078125 17.90625l-4.6875305 -3.515625q7.3281555 -5.765625 7.3281555 -14.390625l0 -1.234375zm-10.3281555 -9.84375l0 -5.28125l21.578156 0l0 5.28125l-21.578156 0zm22.93753 -8.578125q2.640625 2.640625 5.578125 6.953125l-3.640625 2.609375q-2.734375 -3.90625 -5.640625 -7.203125l3.703125 -2.359375zm3.859375 -2.140625q2.640625 2.84375 5.625 6.8125l-3.65625 2.609375q-3.0625 -4.171875 -5.671875 -6.78125l3.703125 -2.640625zm6.619995 23.46875l0 -5.28125l37.71875 0l0 5.28125l-37.71875 0zm55.13562 -16.96875q-0.53125 1.59375 -0.84375 2.171875l9.203125 0l2.15625 -0.78125l2.515625 2.515625q1.4375 1.78125 -0.53125 2.515625q-1.21875 6.09375 -3.53125 10.84375l3.984375 2.640625l-3.421875 5.0l-3.546875 -2.578125q-4.3125 6.234375 -13.703125 10.921875l-5.34375 -3.96875q10.84375 -4.5 14.421875 -10.171875q-3.28125 -2.109375 -7.953125 -4.625l2.859375 -4.296875q5.71875 2.5625 8.1875 4.046875q1.953125 -4.03125 2.296875 -6.796875l-10.3125 0q-2.890625 5.140625 -7.984375 10.265625l-4.5 -3.078125q8.796875 -9.125 11.5625 -19.390625l4.8125 2.015625q3.203125 1.578125 -0.328125 2.75zm44.93872 2.390625q7.3125 7.46875 9.96875 17.9375l-5.140625 2.09375q-3.109375 -11.1875 -9.171875 -16.90625l4.34375 -3.125zm-4.078125 14.03125q0 9.734375 -3.0 12.71875q-1.859375 1.875 -4.3125 1.875q-3.453125 0 -7.234375 -4.375l3.09375 -4.28125q3.046875 3.0625 3.984375 3.0625q0.4375 0 0.84375 -0.40625q1.515625 -1.515625 1.515625 -9.234375q0 -4.15625 -0.71875 -4.875q-0.234375 -0.234375 -1.328125 -0.234375q-1.40625 0 -3.359375 0.234375q-3.265625 11.5 -8.34375 20.78125l-5.421875 -1.890625q5.203125 -8.078125 8.328125 -18.3125q-2.25 0.3125 -6.515625 0.71875l-0.46875 -5.34375q3.796875 0 8.34375 -0.421875q1.265625 -4.421875 2.421875 -10.5l4.34375 1.4375q4.171875 1.75 0.25 2.953125q-0.84375 2.921875 -1.484375 5.515625q0.703125 -0.125 2.875 -0.125q2.625 0 4.0 1.390625q2.1875 2.171875 2.1875 9.3125zm8.03125 -22.359375q3.546875 1.953125 7.890625 5.515625l-3.140625 3.140625q-4.109375 -3.1875 -7.90625 -5.484375l3.15625 -3.171875zm1.34375 12.546875q-4.28125 -3.515625 -7.734375 -5.6875l3.171875 -3.15625q3.53125 1.96875 7.875 5.53125l-3.3125 3.3125zm26.125 22.171875q7.640625 -0.75 9.6875 -2.796875q1.53125 -1.515625 1.53125 -4.390625q0 -3.1875 -1.53125 -4.71875q-1.875 -1.875 -4.578125 -2.109375q-2.4375 7.921875 -5.40625 11.03125l1.015625 2.21875l-4.484375 3.28125l-0.78125 -1.6875q-3.5625 3.015625 -6.78125 3.015625q-2.296875 0 -4.171875 -1.859375q-2.015625 -2.03125 -2.015625 -5.453125q0 -5.859375 3.953125 -9.8125q2.359375 -2.359375 4.46875 -3.484375l0.25 -4.6875l-6.578125 0.3125l-0.984375 -5.296875l7.796875 -0.15625q0.125 -2.9375 0.53125 -7.125l3.921875 0q3.59375 0.71875 1.0625 2.625q-0.28125 2.515625 -0.390625 4.265625q6.734375 -0.421875 13.015625 -1.53125l0.953125 5.296875q-7.71875 0.921875 -14.21875 1.203125l-0.203125 3.09375q1.15625 -0.421875 4.640625 -0.546875l0.515625 -2.734375l3.90625 0.625q3.171875 0.671875 0.96875 2.5625l0.015625 -0.078125q4.421875 0.421875 7.375 3.390625q3.328125 3.3125 3.328125 8.515625q0 4.890625 -3.0 7.875q-3.109375 3.09375 -10.734375 4.390625l-3.078125 -5.234375zm-8.546875 -11.5q-0.015625 0.015625 -1.53125 1.53125q-2.65625 2.65625 -2.65625 6.984375q0 0.921875 0.71875 1.640625q0.078125 0.078125 0.6875 0.078125q2.0625 0 4.5 -2.4375q-1.46875 -4.4375 -1.71875 -7.796875zm4.875 -2.34375q0.140625 3.421875 0.984375 5.671875q1.53125 -2.125 2.40625 -6.234375q-1.703125 0 -3.390625 0.5625zm46.17218 12.640625q1.46875 -0.171875 3.03125 -1.75q1.6875 -1.6875 1.6875 -4.5625q0 -3.1875 -1.859375 -5.03125q-1.84375 -1.859375 -6.0 -1.859375q-5.046875 0 -7.734375 1.953125q-2.671875 1.875 -7.53125 7.453125l-4.0625 -3.609375q12.234375 -12.21875 16.90625 -18.296875q-3.296875 0.40625 -9.34375 0.953125l-1.65625 -5.5q9.0 0 14.953125 -0.78125l1.875 -0.84375l2.1875 2.1875q3.046875 2.765625 -0.953125 3.515625q-4.640625 5.265625 -7.609375 8.53125q0.78125 -0.1875 3.125 -0.1875q6.5 0 9.65625 3.15625q3.15625 3.15625 3.15625 8.046875q0 5.03125 -2.84375 7.875q-4.125 4.125 -10.453125 4.125q-6.0 0 -8.84375 -2.84375q-2.34375 -2.34375 -2.34375 -5.609375q0 -2.296875 1.703125 -4.0q1.859375 -1.859375 4.328125 -1.859375q3.265625 0 5.453125 2.1875q2.4375 2.453125 3.171875 6.75zm-4.75 0.734375q-0.5 -3.09375 -1.75 -4.328125q-0.875 -0.890625 -1.640625 -0.890625q-0.9375 0 -1.328125 0.40625q-0.5625 0.546875 -0.5625 1.15625q0 1.09375 1.046875 2.140625q1.359375 1.359375 3.578125 1.359375q0.65625 0 0.65625 0.15625z" fill-rule="nonzero"/></g></svg>