<?xml version="1.0" encoding="UTF-8" standalone="no"?>
<!DOCTYPE svg PUBLIC "-//W3C//DTD SVG 20010904//EN"
              "http://www.w3.org/TR/2001/REC-SVG-20010904/DTD/svg10.dtd">

<svg xmlns="http://www.w3.org/2000/svg"
     width="1.70667in" height="1.70667in"
     viewBox="0 0 512 512">
  <path id="選択範囲 #1"
        fill="none" stroke="black" stroke-width="1"
        d="M 475.00,201.00
           C 475.00,201.00 475.00,398.00 475.00,398.00
             474.94,437.10 446.33,469.25 408.00,475.20
             401.23,476.25 404.74,476.98 395.00,477.00
             395.00,477.00 120.00,477.00 120.00,477.00
             110.26,476.98 113.78,476.25 107.00,475.20
             80.02,471.01 55.69,452.81 45.71,426.96
             43.67,421.67 42.72,416.51 41.69,411.00
             40.41,404.15 40.01,405.75 40.00,398.00
             40.00,398.00 40.00,120.00 40.00,120.00
             40.01,112.25 40.41,113.85 41.69,107.00
             42.72,101.49 43.67,96.33 45.71,91.04
             55.71,65.14 79.97,46.99 107.00,42.80
             113.78,41.75 110.26,41.02 120.00,41.00
             120.00,41.00 310.00,41.00 310.00,41.00
             310.00,41.00 310.00,61.00 310.00,61.00
             310.00,61.00 115.00,61.00 115.00,61.00
             86.43,61.04 59.05,89.72 59.00,118.00
             59.00,118.00 59.00,400.00 59.00,400.00
             59.05,428.28 86.43,456.96 115.00,457.00
             115.00,457.00 400.00,457.00 400.00,457.00
             428.07,456.96 455.95,429.07 456.00,401.00
             456.00,401.00 456.00,201.00 456.00,201.00
             456.00,201.00 475.00,201.00 475.00,201.00 Z
           M 465.00,57.00
           C 465.00,57.00 464.17,67.00 464.17,67.00
             464.17,67.00 459.24,92.00 459.24,92.00
             459.24,92.00 444.45,164.00 444.45,164.00
             444.45,164.00 437.00,198.00 437.00,198.00
             437.00,198.00 415.75,177.04 415.75,177.04
             413.39,174.75 409.42,170.00 406.00,170.02
             401.65,170.04 392.25,180.75 389.00,184.00
             389.00,184.00 345.00,228.00 345.00,228.00
             345.00,228.00 232.00,341.00 232.00,341.00
             232.00,341.00 195.00,378.00 195.00,378.00
             189.31,383.69 180.09,393.64 174.00,398.00
             174.00,398.00 138.66,361.96 138.66,361.96
             136.18,359.43 126.89,351.04 127.11,347.96
             127.35,344.57 137.26,335.74 140.00,333.00
             140.00,333.00 177.00,296.00 177.00,296.00
             177.00,296.00 269.00,204.00 269.00,204.00
             269.00,204.00 294.01,179.04 294.01,179.04
             294.01,179.04 314.32,158.91 314.32,158.91
             314.32,158.91 345.74,127.68 345.74,127.68
             348.15,125.07 355.12,119.53 353.83,115.97
             353.05,113.78 346.88,107.98 344.91,105.96
             344.91,105.96 324.00,85.00 324.00,85.00
             324.00,85.00 350.00,80.51 350.00,80.51
             350.00,80.51 390.00,72.36 390.00,72.36
             390.00,72.36 410.00,68.76 410.00,68.76
             410.00,68.76 444.00,61.36 444.00,61.36
             444.00,61.36 465.00,57.00 465.00,57.00 Z" />
</svg>
